<svg width="71" height="70" viewBox="0 0 71 70" fill="none" xmlns="http://www.w3.org/2000/svg">
<path d="M34.5634 70.0011C15.5096 70.0011 0.0078125 54.3896 0.0078125 35.201C0.0078125 16.0123 15.5096 0.400879 34.5634 0.400879C42.2692 0.400879 49.5581 2.89871 55.6438 7.6235L54.0649 9.68711C48.437 5.3159 41.6943 3.00624 34.5655 3.00624C16.9386 3.00624 2.59692 17.4494 2.59692 35.201C2.59692 52.9526 16.9386 67.3957 34.5655 67.3957C52.1924 67.3957 66.5341 52.9526 66.5341 35.201C66.5341 28.272 64.3823 21.6717 60.3128 16.1157L62.3948 14.5691C66.7948 20.5779 69.1211 27.7116 69.1211 35.201C69.1191 54.3896 53.6173 70.0011 34.5634 70.0011ZM34.5634 60.4895C20.7166 60.4895 9.45261 49.1458 9.45261 35.201C9.45261 21.2561 20.7166 9.9125 34.5634 9.9125C48.4103 9.9125 59.6743 21.2561 59.6743 35.201C59.6743 49.1458 48.4103 60.4895 34.5634 60.4895ZM34.5634 12.5179C22.1435 12.5179 12.0397 22.6932 12.0397 35.201C12.0397 47.7088 22.1435 57.8841 34.5634 57.8841C46.9833 57.8841 57.0872 47.7088 57.0872 35.201C57.0872 22.6932 46.9833 12.5179 34.5634 12.5179ZM34.5634 50.5643C26.1514 50.5643 19.308 43.6725 19.308 35.201C19.308 26.7294 26.1514 19.8377 34.5634 19.8377C42.9755 19.8377 49.8188 26.7294 49.8188 35.201C49.8188 43.6725 42.9755 50.5643 34.5634 50.5643ZM34.5634 22.443C27.5784 22.443 21.8951 28.1665 21.8951 35.201C21.8951 42.2355 27.5784 47.959 34.5634 47.959C41.5485 47.959 47.2318 42.2355 47.2318 35.201C47.2318 28.1665 41.5505 22.443 34.5634 22.443Z" fill="#121331"/>
<path d="M34.5633 41.2596C31.2453 41.2596 28.5474 38.5425 28.5474 35.2011C28.5474 31.8596 31.2453 29.1426 34.5633 29.1426C37.8813 29.1426 40.5792 31.8596 40.5792 35.2011C40.5792 38.5425 37.8813 41.2596 34.5633 41.2596ZM34.5633 31.7479C32.6723 31.7479 31.1344 33.2967 31.1344 35.2011C31.1344 37.1055 32.6723 38.6542 34.5633 38.6542C36.4543 38.6542 37.9922 37.1055 37.9922 35.2011C37.9922 33.2967 36.4543 31.7479 34.5633 31.7479Z" fill="#121331"/>
<path d="M34.5632 30.4453C31.9556 30.4453 29.8408 32.5751 29.8408 35.2011C29.8408 37.8272 31.9556 39.9569 34.5632 39.9569C37.1708 39.9569 39.2856 37.8272 39.2856 35.2011C39.2856 32.573 37.1729 30.4453 34.5632 30.4453Z" fill="black"/>
<path d="M34.9698 36.6794C34.6393 36.6794 34.3087 36.5533 34.0541 36.2969C33.549 35.7882 33.549 34.9632 34.0541 34.4545L54.0442 14.323L53.3174 9.08954C53.262 8.68426 53.3975 8.27691 53.6849 7.98743L61.251 0.380202C61.598 0.0307533 62.1113 -0.0891754 62.5774 0.067973C63.0435 0.225121 63.3802 0.634534 63.4459 1.12459L64.105 5.93623L68.9033 6.6496C69.3879 6.72197 69.7883 7.06315 69.9423 7.53046C70.0963 7.99777 69.9731 8.51264 69.6281 8.86002L62.0415 16.4879C61.7541 16.7774 61.3475 16.9139 60.9451 16.856L55.9044 16.1364L35.8835 36.299C35.633 36.5533 35.3004 36.6794 34.9698 36.6794ZM56.5574 13.5972L60.672 14.1845L65.9796 8.84761L62.7683 8.36996C62.1996 8.28518 61.7541 7.83235 61.676 7.25958L61.2387 4.07319L55.9681 9.37075L56.5574 13.5972Z" fill="#08A88A"/>
</svg>
