<svg width="71" height="70" viewBox="0 0 71 70" fill="none" xmlns="http://www.w3.org/2000/svg">
<path d="M35.0078 70C25.659 70 16.8708 66.3586 10.259 59.7488C3.64929 53.1371 0.0078125 44.3489 0.0078125 35C0.0078125 25.6511 3.64929 16.8629 10.259 10.2512C16.8708 3.64148 25.659 0 35.0078 0C44.3567 0 53.1449 3.64148 59.7566 10.2512C66.3664 16.8609 70.0078 25.6511 70.0078 35C70.0078 44.3489 66.3664 53.1371 59.7566 59.7488C53.1449 66.3586 44.3567 70 35.0078 70ZM35.0078 2.27693C26.2679 2.27693 18.0484 5.68127 11.8688 11.8609C5.68909 18.0406 2.28474 26.2601 2.28474 35C2.28474 43.74 5.68909 51.9594 11.8688 58.1391C18.0484 64.3188 26.2679 67.7231 35.0078 67.7231C43.7478 67.7231 51.9672 64.3188 58.1469 58.1391C64.3286 51.9574 67.7309 43.74 67.7309 35C67.7309 26.2601 64.3266 18.0406 58.1469 11.8609C51.9672 5.68127 43.7478 2.27693 35.0078 2.27693Z" fill="#121331"/>
<path d="M35.0081 35.4883C34.379 35.4883 33.8706 34.9798 33.8706 34.3508V11.0791C33.8706 10.4501 34.379 9.94165 35.0081 9.94165C35.6371 9.94165 36.1455 10.4501 36.1455 11.0791V34.3488C36.1455 34.9778 35.6371 35.4883 35.0081 35.4883Z" fill="#08A88A"/>
<path d="M35.0081 36.1376C34.7167 36.1376 34.4253 36.027 34.2042 35.804C33.7601 35.3598 33.7601 34.6404 34.2042 34.1942L46.3063 22.0921C46.7504 21.648 47.4699 21.648 47.916 22.0921C48.3622 22.5363 48.3601 23.2557 47.916 23.7019L35.8119 35.804C35.5908 36.027 35.2995 36.1376 35.0081 36.1376Z" fill="#08A88A"/>
</svg>
