<svg width="71" height="70" viewBox="0 0 71 70" fill="none" xmlns="http://www.w3.org/2000/svg">
<path d="M35.0078 70.0001C15.7014 70.0001 0.0078125 54.3064 0.0078125 35C0.0078125 15.6936 15.7014 0 35.0078 0C54.3143 0 70.0079 15.6936 70.0079 35C70.0079 54.3064 54.3143 70.0001 35.0078 70.0001ZM35.0078 2.29383C16.963 2.29383 2.30164 16.9743 2.30164 35C2.30164 53.0448 16.9822 67.7062 35.0078 67.7062C53.0526 67.7062 67.714 53.0257 67.714 35C67.714 16.9552 53.0526 2.29383 35.0078 2.29383Z" fill="#121331"/>
<path d="M45.1199 14.4702C44.8905 14.4702 44.6611 14.4128 44.4699 14.2599C35.8872 8.35331 25.7561 13.8394 25.6605 13.8967C25.1062 14.2026 24.418 14.0114 24.0931 13.4571C23.7872 12.9027 23.9784 12.2146 24.5327 11.8896C24.6474 11.8323 27.4382 10.2839 31.4142 9.57668C36.7474 8.6018 41.7173 9.57668 45.7698 12.3675C46.2859 12.7307 46.4197 13.438 46.0565 13.9541C45.8462 14.2981 45.483 14.4702 45.1199 14.4702Z" fill="#08A88A"/>
<path d="M54.4099 26.4365C54.0276 26.4365 53.6644 26.2453 53.4541 25.9204C49.8987 20.4152 44.642 17.4332 37.837 17.0509C32.695 16.7641 28.6043 18.1213 28.5661 18.1213C27.9735 18.3316 27.3236 18.0066 27.1133 17.395C26.903 16.8024 27.228 16.1525 27.8397 15.9422C28.0308 15.8848 32.3891 14.4321 37.9708 14.757C45.4448 15.1776 51.4661 18.6183 55.3848 24.6779C55.7288 25.2131 55.5759 25.9204 55.0407 26.2644C54.8495 26.3791 54.6201 26.4365 54.4099 26.4365Z" fill="#08A88A"/>
<path d="M44.5845 59.0279C44.336 59.0279 44.0875 58.9514 43.8773 58.7794C43.3803 58.3971 43.2847 57.6707 43.6861 57.1737C43.7817 57.059 53.0717 45.112 52.9953 38.5746C52.9761 36.1278 52.8423 33.5473 51.5998 31.3681C46.2667 21.9443 40.4748 21.0077 33.383 22.4987C24.9532 24.2764 19.4862 17.6243 19.2568 17.3566C18.8554 16.8596 18.9319 16.1333 19.4289 15.751C19.9259 15.3495 20.6522 15.426 21.0345 15.923C21.2448 16.1715 25.8898 21.7532 32.9051 20.2622C37.359 19.3255 40.7041 19.4402 43.7817 20.6445C47.5665 22.1163 50.7779 25.2512 53.5878 30.2403C55.0979 32.8973 55.2508 35.9367 55.27 38.5555C55.3464 45.8957 45.8653 58.0913 45.4638 58.6074C45.2727 58.875 44.9286 59.0279 44.5845 59.0279Z" fill="#08A88A"/>
<path d="M13.1208 34.2929C12.5856 34.2929 12.1077 33.9297 11.993 33.3753C11.8592 32.7636 12.2606 32.152 12.8914 32.0181C17.4409 31.0624 20.3081 28.0422 20.3464 28.0231C20.3846 27.9848 20.4228 27.9466 20.4611 27.9084C21.1492 27.354 22.2579 26.3027 22.0476 25.4425C21.7036 24.028 18.2437 22.7281 16.0072 22.2885C15.3955 22.1738 14.975 21.5621 15.1088 20.9504C15.2235 20.3387 15.8352 19.9182 16.4469 20.052C17.6129 20.2814 23.443 21.5812 24.265 24.9073C24.6664 26.4747 23.8827 28.0804 21.9521 29.667C21.4742 30.164 18.2819 33.2606 13.3502 34.2737C13.2737 34.2737 13.1973 34.2929 13.1208 34.2929Z" fill="#08A88A"/>
<path d="M15.8352 28.4818C14.9368 28.4818 14.2104 28.2907 14.0575 28.2524C13.4458 28.0804 13.0826 27.4496 13.2547 26.8379C13.4267 26.2262 14.0575 25.863 14.6501 26.0351C15.2044 26.188 16.5425 26.3409 17.1351 25.8439C17.6129 25.4425 18.3393 25.4998 18.7599 25.9968C19.1613 26.4747 19.1039 27.2011 18.6069 27.6216C17.785 28.3098 16.7336 28.4818 15.8352 28.4818Z" fill="#08A88A"/>
<path d="M34.7972 61.9525C34.5487 61.9525 34.2811 61.8761 34.0709 61.704C33.5739 61.3026 33.4974 60.5762 33.8988 60.0983C34.0135 59.9645 45.1959 46.106 47.3751 41.5374C49.4777 37.1409 45.5209 31.177 40.6656 27.2392C36.7661 24.0661 31.4138 26.3981 24.2838 34.3501C18.4537 40.8493 12.9294 38.8804 12.7 38.7848C12.1074 38.5554 11.8016 37.9055 12.031 37.313C12.2604 36.7204 12.9103 36.4145 13.5028 36.6439C13.694 36.7204 17.8611 38.0776 22.5826 32.8209C25.9851 29.0169 29.0053 26.4746 31.8153 25.0027C35.753 22.9574 39.232 23.1103 42.1184 25.4615C45.1004 27.8891 47.5089 30.7946 48.8852 33.6237C50.4717 36.9115 50.682 39.9891 49.4586 42.5505C47.1648 47.3676 36.1544 60.9776 35.6957 61.5702C35.4663 61.7996 35.1413 61.9525 34.7972 61.9525Z" fill="#08A88A"/>
<path d="M29.4262 60.7101C29.1203 60.7101 28.7954 60.5763 28.566 60.3278C28.1455 59.8499 28.1837 59.1235 28.6616 58.703C33.8992 54.0197 46.4961 40.5244 41.9276 34.4457C39.9396 31.7887 38.0089 30.4506 36.1739 30.4506C36.1739 30.4506 36.1739 30.4506 36.1548 30.4506C33.3257 30.4506 30.5731 33.6811 28.4895 36.4911C24.1886 42.3021 15.0706 45.0547 14.6883 45.1694C14.0766 45.3414 13.4458 44.9973 13.2547 44.3857C13.0826 43.774 13.4267 43.1432 14.0384 42.952C14.1531 42.9138 22.8123 40.295 26.6545 35.1148C29.1968 31.674 32.3317 28.1568 36.1548 28.1377H36.1739C38.8118 28.1377 41.2776 29.7434 43.7626 33.0503C46.6681 36.9307 45.1963 42.78 39.3661 50.4261C35.2181 55.8739 30.382 60.2131 30.1908 60.3851C29.9805 60.6145 29.7129 60.7101 29.4262 60.7101Z" fill="#08A88A"/>
<path d="M24.4752 59.0662C24.1502 59.0662 23.8253 58.9324 23.5959 58.6648C23.1945 58.1869 23.2518 57.4605 23.7297 57.04C23.787 57.0017 29.3114 52.2612 35.3518 44.9974C37.6838 42.2065 38.7161 39.8554 38.3146 38.2114C38.047 37.0836 37.0721 36.1661 35.3518 35.4206C34.2622 34.9427 32.5801 37.1028 30.6303 39.6069C29.6172 40.9067 28.4703 42.3786 27.1704 43.8122C22.621 48.7822 16.8673 49.91 16.6188 49.9482C15.988 50.0629 15.3955 49.6615 15.2808 49.0307C15.1661 48.3999 15.5675 47.8073 16.1983 47.6926C16.2748 47.6735 21.4741 46.6413 25.4692 42.2639C26.7117 40.8876 27.8395 39.4731 28.8144 38.2114C30.0568 36.6249 31.1273 35.2295 32.1978 34.3119C32.7139 33.8532 34.3196 32.4769 36.2693 33.3179C38.6969 34.3693 40.0924 35.8029 40.5511 37.6762C41.1246 40.123 39.9968 42.9903 37.1104 46.4501C30.917 53.8668 25.431 58.5692 25.2016 58.7603C25.0104 58.9706 24.7428 59.0662 24.4752 59.0662Z" fill="#08A88A"/>
<path d="M19.7347 54.9371C19.295 54.9371 18.8936 54.6886 18.6834 54.2681C18.4157 53.6946 18.6642 53.0065 19.2377 52.7389C19.3333 52.7006 29.2541 48.0174 33.9756 38.6127C34.2623 38.0392 34.9504 37.8099 35.5239 38.0966C36.0973 38.3833 36.3267 39.0715 36.04 39.6258C30.9553 49.776 20.6522 54.6122 20.2126 54.8033C20.0597 54.8989 19.8876 54.9371 19.7347 54.9371Z" fill="#08A88A"/>
</svg>
