<svg width="71" height="70" viewBox="0 0 71 70" fill="none" xmlns="http://www.w3.org/2000/svg">
<path d="M35.0067 69.919C15.7528 69.919 0.0876465 54.2537 0.0876465 34.9995C0.0876465 15.7454 15.7528 0.0800781 35.0067 0.0800781C54.2606 0.0800781 69.9258 15.7454 69.9258 34.9995C69.9258 54.2537 54.2606 69.919 35.0067 69.919ZM35.0067 2.43562C17.0513 2.43562 2.44317 17.044 2.44317 34.9995C2.44317 52.9551 17.0513 67.5635 35.0067 67.5635C52.9621 67.5635 67.5703 52.9551 67.5703 34.9995C67.5703 17.044 52.9621 2.43562 35.0067 2.43562ZM35.0067 58.4263C22.089 58.4263 11.5802 47.9174 11.5802 34.9995C11.5802 22.0817 22.089 11.5728 35.0067 11.5728C47.9245 11.5728 58.4333 22.0817 58.4333 34.9995C58.4333 47.9174 47.9245 58.4263 35.0067 58.4263ZM35.0067 13.9283C23.3875 13.9283 13.9357 23.3802 13.9357 34.9995C13.9357 46.6189 23.3875 56.0708 35.0067 56.0708C46.626 56.0708 56.0778 46.6189 56.0778 34.9995C56.0778 23.3802 46.626 13.9283 35.0067 13.9283Z" fill="#121331"/>
<path d="M34.9811 70C30.4403 70 26.0083 69.133 21.8021 67.4208C21.1647 67.1615 20.8579 66.433 21.1172 65.7956L25.4482 55.1482C25.5729 54.8414 25.8144 54.5979 26.1192 54.4692C26.424 54.3406 26.7665 54.3386 27.0733 54.4633C29.6386 55.5065 32.3484 56.0231 35.1197 56.0112C37.8909 55.9954 40.5908 55.4392 43.1462 54.3624C43.7816 54.0951 44.512 54.392 44.7793 55.0274L49.2449 65.6175C49.3735 65.9223 49.3755 66.2648 49.2508 66.5716C49.1261 66.8784 48.8846 67.1219 48.5798 67.2505C44.324 69.0439 39.8247 69.9703 35.2067 69.998C35.1335 70 35.0563 70 34.9811 70ZM23.9062 65.5601C27.5285 66.8764 31.3191 67.5257 35.1929 67.5059C39.0666 67.4821 42.8473 66.7794 46.4558 65.4176L42.9542 57.1177C40.4443 58.0243 37.8196 58.4915 35.1355 58.5073C32.4494 58.5311 29.8207 58.0897 27.3009 57.2167L23.9062 65.5601ZM3.90406 49.3365C3.74373 49.3365 3.58538 49.3068 3.43494 49.2455C3.12813 49.1208 2.88466 48.8793 2.756 48.5744C0.962635 44.3186 0.0382414 39.8193 0.00854998 35.2013C-0.0211414 30.5812 0.845848 26.0701 2.58577 21.7945C2.84507 21.1571 3.5735 20.8503 4.21088 21.1096L14.8582 25.4406C15.165 25.5653 15.4085 25.8068 15.5372 26.1117C15.6658 26.4165 15.6678 26.7589 15.5431 27.0657C14.4999 29.6311 13.9794 32.337 13.9952 35.1122C14.013 37.8834 14.5672 40.5834 15.6441 43.1389C15.9113 43.7743 15.6144 44.5047 14.979 44.7719L4.38903 49.2376C4.23265 49.3049 4.06836 49.3365 3.90406 49.3365ZM4.44643 23.8986C3.13011 27.521 2.4769 31.3117 2.50065 35.1854C2.5244 39.0592 3.2271 42.842 4.59093 46.4485L12.8907 42.9469C11.9841 40.4369 11.5169 37.8122 11.5011 35.128C11.4853 32.4419 11.9188 29.8132 12.7917 27.2934L4.44643 23.8986ZM66.2739 48.9822C66.1175 48.9822 65.9591 48.9525 65.8047 48.8892L55.1574 44.5581C54.8506 44.4334 54.6071 44.1919 54.4785 43.8871C54.3498 43.5823 54.3478 43.2398 54.4725 42.933C55.5157 40.3676 56.0363 37.6617 56.0204 34.8865C56.0026 32.1153 55.4484 29.4154 54.3716 26.8599C54.1043 26.2245 54.4013 25.4941 55.0367 25.2268L65.6266 20.7612C65.9314 20.6325 66.2739 20.6306 66.5807 20.7553C66.8875 20.88 67.131 21.1215 67.2596 21.4263C69.053 25.6821 69.9774 30.1814 70.0071 34.7995C70.0368 39.4195 69.1698 43.9307 67.4299 48.2063C67.2319 48.6893 66.7667 48.9822 66.2739 48.9822ZM57.222 42.7054L65.5672 46.1001C66.8835 42.4777 67.5368 38.6871 67.513 34.8133C67.4892 30.9395 66.7865 27.1588 65.4227 23.5502L57.123 27.0519C58.0296 29.5618 58.4967 32.1866 58.5125 34.8707C58.5303 37.5568 58.0969 40.1855 57.222 42.7054ZM26.3825 15.7334C25.8955 15.7334 25.4343 15.4464 25.2324 14.9713L20.7668 4.38126C20.6382 4.07642 20.6362 3.73398 20.7609 3.42716C20.8856 3.12035 21.1271 2.87688 21.4319 2.74821C25.6877 0.954832 30.1869 0.0304292 34.8049 0.000737485C39.4308 -0.0289543 43.936 0.838045 48.2116 2.57798C48.849 2.83729 49.1558 3.56573 48.8965 4.20311L44.5655 14.8506C44.4408 15.1574 44.1993 15.4009 43.8945 15.5295C43.5896 15.6582 43.2472 15.6602 42.9404 15.5355C40.375 14.4923 37.6632 13.9677 34.894 13.9875C32.1228 14.0053 29.4229 14.5596 26.8674 15.6364C26.7091 15.7017 26.5448 15.7334 26.3825 15.7334ZM23.5598 4.58118L27.0614 12.881C29.5713 11.9744 32.196 11.5073 34.8801 11.4914C37.5682 11.4716 40.1949 11.9091 42.7147 12.782L46.1094 4.43668C42.4871 3.12035 38.6965 2.46911 34.8227 2.49089C30.949 2.51662 27.1663 3.21932 23.5598 4.58118Z" fill="#08A88A"/>
</svg>
