<svg width="32" height="35" viewBox="0 0 32 35" fill="none" xmlns="http://www.w3.org/2000/svg">
<path d="M31.1191 8.95766C29.1582 8.95766 27.3491 8.30808 25.8962 7.21225C24.23 5.95604 23.0329 4.11332 22.6101 1.98943C22.5054 1.46467 22.449 0.923126 22.4437 0.368164H16.8424V15.6736L16.8357 24.0571C16.8357 26.2984 15.3761 28.1988 13.3529 28.8672C12.7657 29.0611 12.1316 29.1531 11.4713 29.1168C10.6284 29.0705 9.83858 28.8162 9.15209 28.4055C7.69121 27.5318 6.70073 25.9468 6.67389 24.1336C6.63161 21.2997 8.92259 18.9893 11.7544 18.9893C12.3134 18.9893 12.8503 19.0805 13.3529 19.2463V15.0629V13.5591C12.8228 13.4806 12.2832 13.4396 11.7377 13.4396C8.63807 13.4396 5.73911 14.7281 3.66689 17.0492C2.10065 18.8034 1.16117 21.0413 1.01623 23.388C0.826318 26.4708 1.95436 29.4013 4.142 31.5635C4.46343 31.8809 4.80097 32.1755 5.15395 32.4473C7.02955 33.8907 9.32254 34.6731 11.7377 34.6731C12.2832 34.6731 12.8228 34.6329 13.3529 34.5544C15.609 34.2202 17.6906 33.1874 19.3333 31.5635C21.3519 29.5684 22.4672 26.9198 22.4792 24.1007L22.4504 11.5815C23.4133 12.3243 24.4662 12.939 25.5963 13.4162C27.3538 14.1577 29.2173 14.5335 31.1352 14.5328V10.4655V8.95632C31.1365 8.95766 31.1204 8.95766 31.1191 8.95766Z" fill="#000"/>
</svg>
