<svg width="39" height="28" viewBox="0 0 39 28" fill="none" xmlns="http://www.w3.org/2000/svg">
<path d="M38.0507 4.89376C37.6078 3.24708 36.3095 1.94901 34.6631 1.50561C31.6552 0.682617 19.6236 0.682617 19.6236 0.682617C19.6236 0.682617 7.59236 0.682617 4.58451 1.47441C2.96973 1.91734 1.63976 3.24731 1.19683 4.89376C0.405273 7.90139 0.405273 14.1388 0.405273 14.1388C0.405273 14.1388 0.405273 20.4077 1.19683 23.3839C1.64023 25.0303 2.93806 26.3284 4.58474 26.7718C7.62403 27.595 19.624 27.595 19.624 27.595C19.624 27.595 31.6552 27.595 34.6631 26.8032C36.3097 26.3601 37.6078 25.062 38.0512 23.4155C38.8425 20.4077 38.8425 14.1705 38.8425 14.1705C38.8425 14.1705 38.8742 7.90139 38.0507 4.89376ZM15.7929 19.9012V8.37646L25.7979 14.1388L15.7929 19.9012Z" fill="#000"/>
</svg>
