<?xml version="1.0" encoding="utf-8"?>
<svg viewBox="-1.841 421.18 603.253 145.25" xmlns="http://www.w3.org/2000/svg">
  <path class="st0" d="M 596.867 476.491 C 595.867 462.491 584.867 453.991 569.467 453.991 C 555.067 453.991 541.767 463.091 541.767 477.291 C 541.767 485.691 546.567 492.791 564.567 498.291 C 575.267 501.591 577.667 503.691 577.667 507.691 C 577.667 510.991 573.967 513.191 570.167 513.191 C 565.867 513.191 562.667 511.091 562.067 506.591 L 540.767 506.591 C 542.267 521.191 553.767 530.291 569.867 530.291 C 586.067 530.291 598.967 520.891 598.967 505.891 C 598.967 495.491 593.467 488.591 576.467 484.091 C 566.567 481.491 563.067 479.591 563.067 475.691 C 563.067 472.991 565.667 470.891 569.267 470.891 C 572.767 470.891 575.667 472.191 575.867 476.291 L 596.867 476.491 Z M 470.167 528.091 L 491.567 528.091 L 491.567 487.991 C 491.567 478.591 495.567 473.891 503.667 473.891 C 507.567 473.891 510.367 475.091 512.167 477.491 C 513.967 479.891 514.767 483.691 514.767 488.791 L 514.767 527.991 L 536.167 527.991 L 536.167 483.091 C 536.167 480.191 536.067 477.691 535.867 475.591 C 535.667 473.391 535.267 471.491 534.667 469.891 C 534.167 468.291 533.467 466.691 532.567 465.291 C 531.667 463.891 530.467 462.491 529.067 461.191 C 526.767 458.891 523.967 457.091 520.667 455.791 C 517.367 454.491 513.867 453.791 510.067 453.791 C 505.467 453.791 501.667 454.591 498.667 456.191 C 495.667 457.791 492.967 460.391 490.467 463.891 L 490.467 456.291 L 470.167 456.291 L 470.167 528.091 Z" style="fill: rgb(251, 123, 100);"/>
  <path class="st0" d="M 448.567 514.091 C 441.367 512.891 433.067 515.291 424.367 513.891 C 415.667 512.491 415.867 509.091 417.967 507.391 C 437.667 514.891 461.767 505.391 461.967 482.491 C 461.967 474.091 458.967 468.791 456.667 466.291 C 458.467 462.791 460.567 461.091 464.967 459.991 L 455.967 444.391 C 447.867 445.091 442.467 450.091 440.067 455.291 C 435.267 453.291 425.467 453.091 417.567 455.891 C 413.767 457.191 410.267 459.191 407.267 461.791 C 404.367 464.291 402.067 467.391 400.567 470.891 C 398.867 474.591 398.167 478.491 398.167 482.491 C 398.167 487.991 399.967 494.491 403.067 498.891 C 394.467 507.391 394.967 519.991 403.867 527.991 C 402.967 528.691 402.067 529.491 401.267 530.391 C 393.267 539.191 397.067 551.391 406.267 557.791 C 417.967 566.191 438.767 566.691 451.467 560.991 C 473.767 551.891 474.567 518.491 448.567 514.091 Z M 430.167 470.091 C 436.667 470.091 441.967 475.391 441.967 481.891 C 441.967 488.391 436.667 493.691 430.167 493.691 C 423.667 493.691 418.367 488.391 418.367 481.891 C 418.367 475.391 423.667 470.091 430.167 470.091 Z M 445.067 542.791 C 442.667 546.091 437.967 547.291 434.067 547.491 C 429.467 547.691 423.267 546.691 420.167 542.891 C 417.167 539.291 417.867 534.291 421.967 531.791 C 423.067 531.091 424.367 530.591 425.667 530.491 L 436.267 530.491 C 440.867 530.491 446.767 531.791 446.767 537.591 C 446.867 539.391 446.167 541.391 445.067 542.791 Z M 389.267 528.091 L 367.867 528.091 L 367.867 456.291 L 389.267 456.291 L 389.267 528.091 Z M 378.567 448.691 C 385.667 448.691 391.367 442.891 391.367 435.791 C 391.367 428.691 385.667 422.891 378.567 422.891 C 371.467 422.891 365.767 428.691 365.767 435.791 C 365.767 442.891 371.467 448.691 378.567 448.691 Z M 359.967 476.491 C 358.967 462.491 347.967 453.991 332.567 453.991 C 318.167 453.991 304.867 463.091 304.867 477.291 C 304.867 485.691 309.667 492.791 327.667 498.291 C 338.367 501.591 340.767 503.691 340.767 507.691 C 340.767 510.991 337.067 513.191 333.267 513.191 C 329.067 513.191 325.767 511.091 325.167 506.591 L 303.867 506.591 C 305.367 521.191 316.867 530.291 332.967 530.291 C 349.167 530.291 362.067 520.891 362.067 505.991 C 362.067 495.591 356.567 488.691 339.567 484.191 C 329.667 481.591 326.167 479.691 326.167 475.791 C 326.167 473.091 328.767 470.991 332.367 470.991 C 335.867 470.991 338.767 472.291 338.967 476.391 L 359.967 476.491 Z M 298.167 477.491 C 296.267 472.791 293.567 468.591 290.267 465.091 C 286.867 461.591 282.867 458.891 278.267 456.791 C 273.667 454.791 268.667 453.791 263.367 453.791 C 258.267 453.791 253.367 454.791 248.867 456.791 C 244.367 458.791 240.467 461.491 237.067 464.991 C 233.767 468.391 231.067 472.491 229.167 477.191 C 227.267 481.891 226.267 486.891 226.267 492.291 C 226.267 497.591 227.267 502.591 229.167 507.291 C 231.067 511.891 233.767 515.991 237.167 519.391 C 240.567 522.791 244.567 525.591 249.067 527.491 C 253.667 529.491 258.567 530.391 263.767 530.391 C 271.367 530.391 278.267 528.191 284.367 523.791 C 290.167 519.591 294.767 513.791 298.067 506.591 L 275.767 506.591 C 273.467 508.791 271.367 510.291 269.467 510.991 C 267.567 511.791 265.267 512.191 262.567 512.191 C 258.267 512.191 254.667 510.991 251.867 508.491 C 248.967 506.091 247.367 502.791 246.867 498.791 L 300.367 498.791 C 301.567 491.591 300.967 484.391 298.167 477.491 Z M 247.467 484.591 C 248.267 480.591 250.167 477.491 252.967 475.291 C 255.767 473.091 259.267 472.091 263.467 472.091 C 267.667 472.091 271.167 473.291 274.067 475.491 C 276.967 477.791 278.767 480.791 279.567 484.491 L 247.467 484.491 Z M 199.967 424.991 Z M 199.967 424.991 L 199.967 462.091 C 196.967 459.191 193.867 457.091 190.567 455.691 C 187.267 454.291 183.267 453.591 178.867 453.591 C 173.767 453.591 169.067 454.591 164.767 456.491 C 160.467 458.391 156.667 461.091 153.567 464.491 C 150.467 467.891 147.967 471.991 146.167 476.691 C 144.367 481.391 143.467 486.491 143.467 491.991 C 143.467 497.691 144.367 502.791 146.067 507.491 C 147.867 512.191 150.267 516.291 153.467 519.691 C 156.667 523.091 160.467 525.791 164.867 527.691 C 169.267 529.591 174.067 530.591 179.367 530.591 C 184.367 530.591 188.467 529.791 191.867 528.191 C 195.267 526.591 198.367 523.991 201.267 520.491 L 201.267 528.091 L 221.567 528.091 L 221.567 424.991 L 199.967 424.991 Z M 195.967 505.191 C 192.567 508.691 188.167 510.391 182.767 510.391 C 180.167 510.391 177.767 509.891 175.567 508.991 C 173.367 508.091 171.467 506.791 169.867 505.191 C 168.267 503.591 167.067 501.591 166.167 499.391 C 165.267 497.091 164.767 494.691 164.767 491.991 C 164.767 489.391 165.267 486.991 166.167 484.691 C 167.067 482.391 168.367 480.491 169.967 478.891 C 171.567 477.291 173.567 476.091 175.767 475.191 C 177.967 474.291 180.467 473.791 183.167 473.791 C 185.767 473.791 188.167 474.291 190.367 475.191 C 192.567 476.091 194.467 477.391 196.067 478.991 C 197.667 480.591 198.967 482.591 199.867 484.691 C 200.767 486.891 201.267 489.191 201.267 491.791 C 201.067 497.191 199.367 501.691 195.967 505.191 Z M 125.367 427.891 C 107.167 417.291 83.867 423.591 73.367 441.891 C 72.767 442.891 72.267 443.991 71.767 445.091 C 68.467 437.891 63.067 431.891 56.167 427.891 C 37.967 417.291 14.667 423.591 4.167 441.891 C -6.333 460.291 -0.133 483.691 18.067 494.291 C 23.267 497.291 28.767 498.891 34.367 499.291 L 17.767 528.191 L 42.567 528.191 L 70.067 480.191 C 70.667 479.191 71.167 478.091 71.667 477.091 C 74.967 484.291 80.367 490.291 87.267 494.291 C 92.467 497.291 97.967 498.891 103.567 499.291 L 87.067 528.091 L 111.867 528.091 L 139.367 480.191 C 149.767 461.891 143.567 438.491 125.367 427.891 Z M 52.167 469.791 C 47.367 478.191 36.767 480.991 28.367 476.191 C 20.067 471.391 17.167 460.691 21.967 452.291 C 26.767 443.891 37.367 441.091 45.767 445.891 C 54.167 450.791 56.967 461.491 52.167 469.791 Z M 121.367 469.791 C 116.567 478.191 105.967 480.991 97.567 476.191 C 89.267 471.391 86.367 460.691 91.167 452.291 C 95.967 443.891 106.567 441.091 114.967 445.891 C 123.367 450.791 126.167 461.491 121.367 469.791 Z" style="fill: rgb(251, 123, 100);"/>
</svg>