<?xml version="1.0" encoding="utf-8"?>
<svg viewBox="202.474 258.822 402.665 124.517" xmlns="http://www.w3.org/2000/svg">
  <g id="g-1" transform="matrix(1, 0, 0, 1, 204.304184, 260.383698)">
    <path id="path-1" d="M381.167 88.010 C 380.754 88.083,380.117 88.218,379.750 88.310 C 379.383 88.402,378.746 88.561,378.333 88.662 C 377.921 88.762,377.321 88.971,377.000 89.124 C 376.679 89.278,376.360 89.388,376.292 89.368 C 376.223 89.349,376.167 89.408,376.167 89.500 C 376.167 89.592,376.054 89.667,375.917 89.667 C 375.779 89.667,375.667 89.742,375.667 89.833 C 375.667 89.925,375.567 90.000,375.445 90.000 C 375.220 90.000,373.765 90.900,373.363 91.288 C 373.242 91.404,373.074 91.500,372.989 91.500 C 372.776 91.500,370.364 93.981,370.033 94.541 C 369.884 94.793,369.703 95.000,369.631 95.000 C 369.559 95.000,369.500 95.101,369.500 95.224 C 369.500 95.347,369.363 95.572,369.195 95.724 C 369.027 95.876,368.709 96.394,368.489 96.875 C 368.268 97.356,368.039 97.787,367.981 97.833 C 367.923 97.879,367.822 98.160,367.758 98.458 C 367.693 98.756,367.589 99.000,367.526 99.000 C 367.418 99.000,367.183 99.803,366.793 101.500 C 366.545 102.577,366.440 107.173,366.658 107.391 C 366.754 107.488,366.833 107.774,366.833 108.028 C 366.833 108.487,367.218 109.855,367.484 110.339 C 367.561 110.479,367.677 110.836,367.742 111.130 C 367.807 111.425,367.929 111.667,368.013 111.667 C 368.098 111.667,368.167 111.778,368.167 111.914 C 368.167 112.050,368.392 112.527,368.667 112.974 C 368.942 113.421,369.167 113.840,369.167 113.905 C 369.167 113.970,369.260 114.119,369.375 114.234 C 369.490 114.350,369.846 114.774,370.167 115.177 C 371.199 116.472,372.497 117.681,373.917 118.669 C 374.375 118.989,374.787 119.293,374.833 119.346 C 374.879 119.398,375.273 119.586,375.708 119.762 C 376.143 119.939,376.499 120.133,376.499 120.194 C 376.500 120.254,376.800 120.355,377.167 120.417 C 377.533 120.479,377.833 120.598,377.833 120.681 C 377.833 120.765,377.971 120.833,378.139 120.833 C 378.307 120.833,378.497 120.886,378.560 120.949 C 378.694 121.083,378.788 121.102,380.583 121.356 C 383.214 121.730,388.381 121.286,388.834 120.649 C 388.880 120.584,389.199 120.478,389.542 120.413 C 389.886 120.349,390.167 120.230,390.167 120.148 C 390.167 120.067,390.286 120.000,390.433 120.000 C 390.676 120.000,391.634 119.540,391.833 119.328 C 391.879 119.279,392.310 118.990,392.792 118.685 C 393.273 118.381,393.667 118.065,393.667 117.983 C 393.667 117.901,393.761 117.833,393.876 117.833 C 394.111 117.833,396.167 115.912,396.167 115.691 C 396.167 115.613,396.335 115.362,396.542 115.133 C 397.248 114.351,397.667 113.761,397.667 113.547 C 397.667 113.430,397.742 113.333,397.833 113.333 C 397.925 113.333,398.000 113.230,398.000 113.104 C 398.000 112.977,398.113 112.781,398.250 112.667 C 398.387 112.553,398.500 112.318,398.500 112.146 C 398.500 111.974,398.567 111.833,398.648 111.833 C 398.730 111.833,398.845 111.571,398.906 111.250 C 398.966 110.929,399.087 110.667,399.174 110.667 C 399.262 110.667,399.333 110.494,399.333 110.283 C 399.333 110.072,399.400 109.829,399.481 109.742 C 400.017 109.167,400.195 102.875,399.735 100.750 C 399.597 100.108,399.441 99.378,399.389 99.127 C 399.338 98.876,399.238 98.706,399.166 98.750 C 399.095 98.794,398.988 98.574,398.930 98.261 C 398.871 97.947,398.769 97.667,398.703 97.637 C 398.637 97.608,398.434 97.283,398.250 96.917 C 398.067 96.550,397.824 96.151,397.709 96.030 C 397.594 95.909,397.500 95.702,397.500 95.571 C 397.500 95.440,397.425 95.333,397.333 95.333 C 397.242 95.333,397.167 95.228,397.167 95.100 C 397.167 94.386,391.624 89.667,390.786 89.667 C 390.651 89.667,390.447 89.554,390.333 89.417 C 390.219 89.279,389.948 89.167,389.730 89.167 C 389.512 89.167,389.333 89.096,389.333 89.010 C 389.333 88.924,388.996 88.803,388.583 88.741 C 388.171 88.679,387.833 88.570,387.833 88.499 C 387.833 88.427,387.552 88.326,387.208 88.274 C 386.865 88.222,386.133 88.108,385.583 88.021 C 384.392 87.831,382.212 87.826,381.167 88.010 " stroke="none" fill="#1cbc74" fill-rule="evenodd"/>
    <path id="path-2" d="M41.917 0.203 C 40.817 0.288,39.892 0.427,39.861 0.512 C 39.831 0.597,39.512 0.667,39.153 0.667 C 38.794 0.667,38.500 0.731,38.500 0.810 C 38.500 0.888,38.035 1.001,37.468 1.060 C 36.900 1.120,36.394 1.232,36.343 1.309 C 36.292 1.386,35.928 1.500,35.534 1.561 C 34.876 1.664,34.204 1.937,34.000 2.184 C 33.954 2.240,33.639 2.336,33.299 2.399 C 32.959 2.461,32.471 2.622,32.215 2.755 C 31.959 2.889,31.656 2.998,31.542 2.999 C 31.427 3.000,31.333 3.075,31.333 3.167 C 31.333 3.258,31.221 3.333,31.083 3.333 C 30.946 3.333,30.833 3.402,30.833 3.487 C 30.833 3.571,30.590 3.693,30.292 3.758 C 29.994 3.822,29.712 3.922,29.667 3.979 C 29.621 4.037,29.302 4.226,28.958 4.401 C 28.615 4.576,28.333 4.782,28.333 4.860 C 28.333 4.937,28.218 5.000,28.078 5.000 C 27.938 5.000,27.780 5.112,27.727 5.250 C 27.674 5.387,27.487 5.500,27.310 5.500 C 27.134 5.500,26.946 5.612,26.894 5.750 C 26.841 5.887,26.725 6.000,26.637 6.000 C 26.549 6.000,26.372 6.094,26.244 6.208 C 25.737 6.663,25.510 6.833,25.410 6.833 C 25.245 6.833,21.167 10.965,21.167 11.133 C 21.167 11.216,20.960 11.511,20.708 11.788 C 20.005 12.560,19.667 13.046,19.667 13.284 C 19.667 13.403,19.592 13.500,19.500 13.500 C 19.408 13.500,19.333 13.612,19.333 13.750 C 19.333 13.887,19.260 14.000,19.170 14.000 C 19.080 14.000,18.959 14.188,18.902 14.417 C 18.844 14.646,18.736 14.833,18.662 14.833 C 18.587 14.833,18.477 15.058,18.417 15.333 C 18.356 15.608,18.255 15.833,18.193 15.833 C 18.069 15.833,17.500 17.065,17.500 17.334 C 17.500 17.426,17.435 17.500,17.355 17.500 C 17.275 17.500,17.161 17.800,17.103 18.167 C 17.044 18.533,16.922 18.833,16.831 18.833 C 16.741 18.833,16.667 19.021,16.667 19.250 C 16.667 19.479,16.601 19.667,16.521 19.667 C 16.442 19.667,16.324 20.059,16.261 20.539 C 16.197 21.018,16.075 21.454,15.990 21.506 C 15.904 21.559,15.786 22.179,15.726 22.884 C 15.667 23.590,15.554 24.167,15.476 24.167 C 15.397 24.167,15.333 24.579,15.333 25.083 C 15.333 25.587,15.258 26.000,15.167 26.000 C 15.059 26.000,15.000 27.806,15.000 31.083 L 15.000 36.167 7.500 36.167 L 0.000 36.167 0.000 47.750 L 0.000 59.333 7.500 59.333 L 15.000 59.333 15.000 89.417 L 15.000 119.500 28.500 119.500 L 42.000 119.500 42.000 89.417 L 42.000 59.333 54.500 59.333 L 66.999 59.333 67.041 89.375 L 67.083 119.417 80.667 119.417 L 94.250 119.417 94.292 77.792 L 94.334 36.167 68.167 36.167 L 42.000 36.167 42.000 33.333 C 42.000 31.775,42.064 30.500,42.143 30.500 C 42.222 30.500,42.334 30.035,42.394 29.468 C 42.453 28.900,42.570 28.393,42.654 28.341 C 42.738 28.289,42.858 28.041,42.922 27.790 C 42.985 27.539,43.103 27.333,43.185 27.333 C 43.266 27.333,43.333 27.255,43.333 27.160 C 43.333 26.948,43.469 26.787,44.788 25.430 C 45.430 24.768,46.017 24.319,46.329 24.251 C 46.607 24.190,46.833 24.071,46.833 23.987 C 46.833 23.902,46.946 23.833,47.083 23.833 C 47.221 23.833,47.333 23.767,47.333 23.686 C 47.333 23.604,47.690 23.484,48.125 23.419 C 48.560 23.354,48.970 23.214,49.035 23.109 C 49.122 22.969,51.656 22.902,58.410 22.864 L 67.667 22.811 67.667 11.405 L 67.667 0.000 55.792 0.024 C 49.260 0.037,43.017 0.118,41.917 0.203 M208.875 34.950 C 207.752 34.983,206.833 35.073,206.833 35.150 C 206.833 35.279,204.691 35.514,203.636 35.502 C 203.390 35.499,203.142 35.572,203.084 35.665 C 203.027 35.758,202.760 35.833,202.490 35.833 C 202.221 35.833,202.000 35.898,202.000 35.976 C 202.000 36.055,201.535 36.168,200.968 36.227 C 200.400 36.286,199.894 36.398,199.843 36.475 C 199.762 36.597,198.815 36.828,198.208 36.873 C 198.094 36.882,198.000 36.951,198.000 37.028 C 198.000 37.104,197.813 37.167,197.583 37.167 C 197.354 37.167,197.167 37.232,197.167 37.312 C 197.167 37.392,196.867 37.505,196.500 37.564 C 196.133 37.623,195.833 37.735,195.833 37.814 C 195.833 37.893,195.533 38.005,195.167 38.064 C 194.800 38.123,194.500 38.245,194.500 38.335 C 194.500 38.426,194.387 38.500,194.250 38.500 C 194.112 38.500,194.000 38.565,194.000 38.645 C 194.000 38.725,193.700 38.839,193.333 38.897 C 192.967 38.956,192.667 39.070,192.667 39.151 C 192.667 39.231,192.479 39.344,192.250 39.402 C 192.021 39.459,191.833 39.580,191.833 39.670 C 191.833 39.760,191.721 39.833,191.583 39.833 C 191.446 39.833,191.333 39.902,191.333 39.987 C 191.333 40.071,191.108 40.190,190.833 40.250 C 190.558 40.310,190.333 40.424,190.333 40.502 C 190.333 40.580,190.165 40.697,189.958 40.763 C 189.752 40.828,189.471 41.010,189.333 41.167 C 189.196 41.324,188.915 41.506,188.708 41.571 C 188.502 41.636,188.333 41.759,188.333 41.845 C 188.333 41.930,188.231 42.000,188.107 42.000 C 187.982 42.000,187.739 42.188,187.567 42.417 C 187.395 42.646,187.165 42.833,187.057 42.833 C 186.948 42.833,186.634 43.058,186.359 43.333 C 186.084 43.608,185.809 43.833,185.748 43.833 C 185.589 43.833,181.500 47.918,181.500 48.078 C 181.500 48.152,181.323 48.376,181.106 48.577 C 180.890 48.777,180.573 49.161,180.402 49.429 C 180.231 49.697,179.996 49.977,179.879 50.050 C 179.762 50.123,179.667 50.324,179.667 50.497 C 179.667 50.670,179.517 50.858,179.333 50.917 C 179.150 50.975,179.000 51.125,179.000 51.249 C 179.000 51.374,178.897 51.579,178.772 51.704 C 178.647 51.830,178.492 52.097,178.427 52.299 C 178.363 52.501,178.241 52.667,178.155 52.667 C 178.070 52.667,178.000 52.779,178.000 52.917 C 178.000 53.054,177.933 53.167,177.851 53.167 C 177.770 53.167,177.656 53.354,177.598 53.583 C 177.541 53.813,177.426 54.000,177.343 54.000 C 177.261 54.000,177.144 54.225,177.083 54.500 C 177.023 54.775,176.922 55.000,176.859 55.000 C 176.735 55.000,176.167 56.232,176.167 56.501 C 176.167 56.592,176.098 56.667,176.013 56.667 C 175.929 56.667,175.810 56.892,175.750 57.167 C 175.690 57.442,175.589 57.667,175.527 57.667 C 175.393 57.667,175.063 58.400,174.908 59.043 C 174.846 59.296,174.734 59.542,174.658 59.589 C 174.582 59.636,174.469 60.010,174.407 60.421 C 174.346 60.831,174.229 61.167,174.148 61.167 C 174.066 61.167,174.000 61.354,174.000 61.583 C 174.000 61.813,173.934 62.000,173.852 62.000 C 173.771 62.000,173.654 62.337,173.592 62.750 C 173.530 63.163,173.418 63.500,173.343 63.500 C 173.267 63.500,173.153 63.987,173.089 64.583 C 173.026 65.179,172.904 65.667,172.820 65.667 C 172.736 65.667,172.667 65.887,172.667 66.157 C 172.667 66.426,172.600 66.688,172.517 66.739 C 172.435 66.790,172.314 67.451,172.248 68.207 C 172.181 68.964,172.060 69.626,171.979 69.677 C 171.897 69.729,171.782 70.948,171.722 72.386 C 171.663 73.824,171.551 75.000,171.474 75.000 C 171.397 75.000,171.333 76.087,171.333 77.417 C 171.333 78.746,171.397 79.833,171.474 79.833 C 171.552 79.833,171.665 80.936,171.726 82.283 C 171.787 83.631,171.904 84.774,171.984 84.825 C 172.065 84.875,172.186 85.498,172.252 86.208 C 172.318 86.919,172.439 87.500,172.520 87.500 C 172.600 87.500,172.667 87.763,172.667 88.083 C 172.667 88.404,172.734 88.667,172.817 88.667 C 172.900 88.667,173.019 89.117,173.083 89.667 C 173.147 90.217,173.260 90.667,173.334 90.667 C 173.408 90.667,173.520 91.042,173.583 91.500 C 173.646 91.958,173.766 92.333,173.849 92.333 C 173.932 92.333,174.000 92.521,174.000 92.750 C 174.000 92.979,174.074 93.167,174.165 93.167 C 174.255 93.167,174.377 93.467,174.436 93.833 C 174.495 94.200,174.600 94.500,174.670 94.500 C 174.740 94.500,174.847 94.706,174.908 94.958 C 175.063 95.600,175.393 96.333,175.527 96.333 C 175.589 96.333,175.690 96.558,175.750 96.833 C 175.810 97.108,175.921 97.333,175.995 97.333 C 176.069 97.333,176.179 97.596,176.239 97.917 C 176.299 98.237,176.420 98.500,176.508 98.500 C 176.595 98.500,176.667 98.612,176.667 98.750 C 176.667 98.888,176.736 99.000,176.820 99.000 C 176.904 99.000,177.023 99.225,177.083 99.500 C 177.144 99.775,177.254 100.000,177.329 100.000 C 177.403 100.000,177.511 100.188,177.568 100.417 C 177.626 100.646,177.747 100.833,177.837 100.833 C 177.926 100.833,178.000 100.946,178.000 101.083 C 178.000 101.221,178.074 101.333,178.163 101.333 C 178.253 101.333,178.374 101.521,178.432 101.750 C 178.489 101.979,178.595 102.167,178.667 102.167 C 178.738 102.167,178.843 102.349,178.899 102.572 C 178.955 102.795,179.151 103.025,179.334 103.083 C 179.518 103.142,179.667 103.336,179.667 103.516 C 179.667 103.696,179.779 103.887,179.917 103.940 C 180.054 103.992,180.167 104.139,180.167 104.266 C 180.167 104.393,180.392 104.712,180.667 104.975 C 180.942 105.238,181.167 105.511,181.167 105.581 C 181.167 105.652,181.560 106.111,182.042 106.601 C 183.058 107.635,183.333 107.950,183.333 108.079 C 183.333 108.250,184.526 109.333,184.723 109.341 C 184.829 109.345,185.067 109.540,185.250 109.773 C 185.433 110.007,185.682 110.284,185.803 110.390 C 185.924 110.497,186.147 110.715,186.299 110.875 C 186.450 111.035,186.639 111.167,186.718 111.167 C 186.797 111.167,187.108 111.421,187.411 111.732 C 187.713 112.044,188.119 112.349,188.313 112.410 C 188.508 112.472,188.667 112.592,188.667 112.678 C 188.667 112.763,188.779 112.833,188.917 112.833 C 189.054 112.833,189.167 112.907,189.167 112.997 C 189.167 113.087,189.354 113.207,189.583 113.265 C 189.813 113.322,190.000 113.431,190.000 113.507 C 190.000 113.582,190.169 113.698,190.375 113.763 C 190.581 113.828,190.844 114.014,190.959 114.177 C 191.073 114.340,191.386 114.522,191.653 114.580 C 191.920 114.639,192.180 114.795,192.231 114.927 C 192.281 115.059,192.475 115.167,192.661 115.167 C 192.848 115.167,193.000 115.242,193.000 115.333 C 193.000 115.425,193.112 115.500,193.250 115.500 C 193.387 115.500,193.500 115.569,193.500 115.653 C 193.500 115.738,193.725 115.856,194.000 115.917 C 194.275 115.977,194.500 116.092,194.500 116.172 C 194.500 116.253,194.781 116.370,195.125 116.433 C 195.469 116.496,195.787 116.594,195.833 116.649 C 195.983 116.830,196.657 117.167,196.873 117.168 C 196.989 117.168,197.300 117.281,197.564 117.419 C 197.828 117.557,198.334 117.716,198.689 117.773 C 199.043 117.830,199.333 117.941,199.333 118.021 C 199.333 118.101,199.521 118.167,199.750 118.167 C 199.979 118.167,200.167 118.236,200.167 118.321 C 200.167 118.406,200.579 118.528,201.083 118.591 C 201.588 118.654,202.000 118.767,202.000 118.842 C 202.000 118.918,202.525 119.032,203.167 119.095 C 203.808 119.158,204.333 119.275,204.333 119.355 C 204.333 119.435,204.618 119.500,204.967 119.500 C 205.315 119.500,205.672 119.572,205.760 119.660 C 205.849 119.749,206.951 119.873,208.210 119.936 C 209.470 119.999,210.500 120.114,210.500 120.192 C 210.500 120.270,212.262 120.333,214.417 120.333 C 216.571 120.333,218.333 120.270,218.333 120.192 C 218.333 120.114,219.327 119.998,220.542 119.934 C 221.756 119.870,222.775 119.747,222.806 119.659 C 222.836 119.572,223.192 119.500,223.597 119.500 C 224.002 119.500,224.333 119.434,224.333 119.353 C 224.333 119.272,224.896 119.153,225.583 119.089 C 226.271 119.024,226.833 118.912,226.833 118.838 C 226.833 118.765,227.246 118.654,227.750 118.591 C 228.254 118.528,228.667 118.406,228.667 118.321 C 228.667 118.236,228.854 118.167,229.083 118.167 C 229.313 118.167,229.500 118.100,229.500 118.019 C 229.500 117.938,229.838 117.821,230.250 117.759 C 230.662 117.697,231.000 117.585,231.000 117.511 C 231.000 117.437,231.300 117.328,231.667 117.269 C 232.033 117.211,232.333 117.089,232.333 116.998 C 232.333 116.907,232.521 116.833,232.750 116.833 C 232.979 116.833,233.167 116.758,233.167 116.667 C 233.167 116.575,233.260 116.497,233.375 116.494 C 233.490 116.491,233.883 116.344,234.250 116.167 C 234.617 115.990,235.010 115.842,235.125 115.839 C 235.240 115.836,235.333 115.758,235.333 115.667 C 235.333 115.575,235.446 115.500,235.583 115.500 C 235.721 115.500,235.833 115.431,235.833 115.347 C 235.833 115.262,236.053 115.145,236.322 115.086 C 236.590 115.027,236.900 114.871,237.009 114.739 C 237.118 114.608,237.311 114.500,237.437 114.500 C 237.563 114.500,237.667 114.425,237.667 114.333 C 237.667 114.242,237.809 114.167,237.982 114.167 C 238.156 114.167,238.341 114.054,238.394 113.917 C 238.446 113.779,238.604 113.667,238.745 113.667 C 238.885 113.667,239.000 113.597,239.000 113.511 C 239.000 113.426,239.169 113.303,239.375 113.237 C 239.581 113.172,239.862 112.990,240.000 112.833 C 240.137 112.676,240.412 112.497,240.610 112.434 C 240.807 112.372,241.011 112.211,241.063 112.077 C 241.114 111.943,241.240 111.833,241.342 111.833 C 241.444 111.833,241.783 111.571,242.094 111.250 C 242.406 110.929,242.727 110.667,242.807 110.667 C 243.014 110.667,246.500 107.195,246.500 106.989 C 246.500 106.896,246.800 106.535,247.167 106.186 C 247.533 105.837,247.833 105.497,247.833 105.431 C 247.833 105.364,247.927 105.205,248.042 105.077 C 248.529 104.534,248.667 104.339,248.667 104.192 C 248.667 104.106,248.779 103.992,248.917 103.940 C 249.054 103.887,249.167 103.699,249.167 103.523 C 249.167 103.347,249.279 103.159,249.417 103.106 C 249.554 103.054,249.667 102.896,249.667 102.755 C 249.667 102.615,249.742 102.500,249.833 102.500 C 249.925 102.500,250.000 102.350,250.000 102.167 C 250.000 101.983,250.067 101.833,250.150 101.833 C 250.332 101.833,251.000 100.586,251.000 100.245 C 251.000 100.110,251.075 100.000,251.167 100.000 C 251.258 100.000,251.333 99.888,251.333 99.750 C 251.333 99.612,251.408 99.500,251.500 99.500 C 251.592 99.500,251.667 99.406,251.668 99.292 C 251.668 99.177,251.781 98.867,251.919 98.603 C 252.057 98.339,252.216 97.835,252.272 97.483 L 252.374 96.844 251.687 96.734 C 251.309 96.674,251.000 96.559,251.000 96.479 C 251.000 96.399,250.775 96.333,250.500 96.333 C 250.225 96.333,250.000 96.264,250.000 96.179 C 250.000 96.094,249.588 95.972,249.083 95.909 C 248.579 95.846,248.167 95.734,248.167 95.659 C 248.167 95.585,247.754 95.472,247.250 95.409 C 246.746 95.346,246.333 95.229,246.333 95.147 C 246.333 95.066,246.071 95.000,245.750 95.000 C 245.429 95.000,245.167 94.930,245.167 94.845 C 245.167 94.760,244.754 94.639,244.250 94.576 C 243.746 94.513,243.333 94.401,243.333 94.326 C 243.333 94.252,242.921 94.139,242.417 94.076 C 241.912 94.013,241.500 93.895,241.500 93.814 C 241.500 93.733,241.313 93.667,241.083 93.667 C 240.854 93.667,240.667 93.600,240.667 93.519 C 240.667 93.438,240.254 93.320,239.750 93.257 C 239.246 93.194,238.833 93.084,238.833 93.011 C 238.833 92.939,238.445 92.834,237.971 92.778 C 237.497 92.721,237.032 92.599,236.938 92.504 C 236.844 92.410,236.557 92.333,236.300 92.333 C 236.043 92.333,235.833 92.264,235.833 92.179 C 235.833 92.094,235.421 91.972,234.917 91.909 C 234.412 91.846,234.000 91.734,234.000 91.659 C 234.000 91.585,233.588 91.472,233.083 91.409 C 232.579 91.346,232.167 91.229,232.167 91.147 C 232.167 91.066,231.910 91.000,231.597 91.000 C 231.284 91.000,231.002 90.924,230.971 90.830 C 230.940 90.737,230.521 90.614,230.041 90.557 C 229.560 90.500,229.167 90.389,229.167 90.310 C 229.167 89.721,227.869 90.207,227.769 90.833 C 227.711 91.200,227.589 91.500,227.498 91.500 C 227.407 91.500,227.333 91.612,227.333 91.750 C 227.333 91.888,227.263 92.000,227.178 92.000 C 227.092 92.000,226.969 92.168,226.904 92.374 C 226.769 92.799,224.130 95.500,223.850 95.500 C 223.749 95.500,223.667 95.574,223.667 95.663 C 223.667 95.753,223.479 95.874,223.250 95.932 C 223.021 95.989,222.833 96.103,222.833 96.185 C 222.833 96.266,222.721 96.333,222.583 96.333 C 222.446 96.333,222.333 96.400,222.333 96.481 C 222.333 96.563,222.071 96.679,221.750 96.739 C 221.429 96.799,221.167 96.912,221.167 96.989 C 221.167 97.066,220.829 97.179,220.417 97.241 C 220.004 97.303,219.667 97.424,219.667 97.510 C 219.667 97.596,219.410 97.667,219.097 97.667 C 218.784 97.667,218.497 97.760,218.458 97.875 C 218.405 98.034,217.454 98.083,214.453 98.083 C 211.526 98.083,210.463 98.030,210.308 97.875 C 210.194 97.760,209.853 97.667,209.550 97.667 C 209.248 97.667,209.000 97.599,209.000 97.516 C 209.000 97.433,208.625 97.313,208.167 97.250 C 207.708 97.187,207.333 97.067,207.333 96.984 C 207.333 96.901,207.251 96.833,207.150 96.833 C 206.927 96.833,205.783 96.311,205.667 96.156 C 205.621 96.095,205.396 95.987,205.167 95.916 C 204.938 95.845,204.585 95.610,204.383 95.394 C 204.181 95.177,203.972 95.000,203.918 95.000 C 203.636 95.000,201.167 92.518,201.167 92.235 C 201.167 92.100,201.054 91.946,200.917 91.894 C 200.779 91.841,200.667 91.693,200.667 91.566 C 200.667 91.438,200.592 91.333,200.500 91.333 C 200.408 91.333,200.333 91.181,200.333 90.995 C 200.333 90.809,200.228 90.616,200.098 90.566 C 199.969 90.516,199.815 90.275,199.756 90.030 C 199.604 89.403,199.273 88.667,199.142 88.667 C 199.081 88.667,198.980 88.292,198.917 87.833 C 198.854 87.375,198.739 87.000,198.661 87.000 C 198.584 87.000,198.468 86.475,198.405 85.833 C 198.342 85.192,198.225 84.667,198.145 84.667 C 198.065 84.667,198.000 84.592,198.000 84.500 C 198.000 84.390,207.389 84.333,225.833 84.333 C 250.463 84.333,253.667 84.305,253.667 84.083 C 253.667 83.946,253.742 83.833,253.833 83.833 C 253.930 83.833,254.000 83.306,254.000 82.583 C 254.000 81.861,254.070 81.333,254.167 81.333 C 254.273 81.333,254.333 79.920,254.333 77.427 C 254.333 75.002,254.270 73.481,254.167 73.417 C 254.075 73.360,254.000 72.609,254.000 71.740 C 254.000 70.875,253.935 70.167,253.855 70.167 C 253.775 70.167,253.656 69.417,253.591 68.500 C 253.526 67.583,253.412 66.833,253.337 66.833 C 253.262 66.833,253.148 66.308,253.083 65.666 C 253.019 65.024,252.899 64.457,252.816 64.406 C 252.734 64.355,252.667 64.131,252.667 63.907 C 252.667 63.683,252.600 63.500,252.519 63.500 C 252.438 63.500,252.320 63.087,252.257 62.583 C 252.194 62.079,252.082 61.667,252.007 61.667 C 251.932 61.667,251.821 61.329,251.759 60.917 C 251.697 60.504,251.576 60.167,251.490 60.167 C 251.404 60.167,251.333 59.979,251.333 59.750 C 251.333 59.521,251.259 59.333,251.169 59.333 C 251.078 59.333,250.956 59.033,250.897 58.667 C 250.839 58.300,250.725 58.000,250.645 58.000 C 250.565 58.000,250.500 57.926,250.500 57.834 C 250.500 57.565,249.931 56.333,249.807 56.333 C 249.745 56.333,249.644 56.108,249.583 55.833 C 249.523 55.558,249.404 55.333,249.320 55.333 C 249.236 55.333,249.167 55.251,249.167 55.150 C 249.167 54.927,248.644 53.783,248.489 53.667 C 248.428 53.621,248.326 53.415,248.261 53.208 C 248.197 53.002,248.074 52.833,247.989 52.833 C 247.903 52.833,247.833 52.718,247.833 52.578 C 247.833 52.438,247.721 52.280,247.583 52.227 C 247.446 52.174,247.333 51.989,247.333 51.816 C 247.333 51.642,247.258 51.500,247.167 51.500 C 247.075 51.500,247.000 51.404,247.000 51.287 C 247.000 51.170,246.850 50.946,246.667 50.789 C 246.483 50.632,246.333 50.408,246.333 50.291 C 246.333 50.175,246.146 49.938,245.917 49.766 C 245.688 49.594,245.500 49.369,245.500 49.267 C 245.500 49.032,244.708 48.167,244.493 48.167 C 244.405 48.167,244.333 48.048,244.333 47.903 C 244.333 47.559,240.941 44.167,240.597 44.167 C 240.452 44.167,240.333 44.095,240.333 44.007 C 240.333 43.778,239.461 43.000,239.205 43.000 C 239.086 43.000,238.950 42.897,238.902 42.771 C 238.853 42.645,238.556 42.403,238.240 42.233 C 237.925 42.063,237.667 41.866,237.667 41.795 C 237.667 41.725,237.552 41.667,237.411 41.667 C 237.271 41.667,237.113 41.554,237.060 41.417 C 237.008 41.279,236.830 41.167,236.667 41.167 C 236.503 41.167,236.326 41.054,236.273 40.917 C 236.220 40.779,236.062 40.667,235.922 40.667 C 235.782 40.667,235.667 40.592,235.667 40.500 C 235.667 40.408,235.520 40.333,235.342 40.333 C 235.163 40.333,234.957 40.236,234.883 40.116 C 234.742 39.886,233.659 39.333,233.350 39.333 C 233.249 39.333,233.167 39.264,233.167 39.180 C 233.167 39.096,232.942 38.977,232.667 38.917 C 232.392 38.856,232.167 38.738,232.167 38.653 C 232.167 38.569,231.979 38.500,231.750 38.500 C 231.521 38.500,231.333 38.426,231.333 38.335 C 231.333 38.245,231.033 38.123,230.667 38.064 C 230.300 38.005,230.000 37.893,230.000 37.814 C 230.000 37.735,229.700 37.623,229.333 37.564 C 228.967 37.505,228.667 37.392,228.667 37.312 C 228.667 37.232,228.479 37.167,228.250 37.167 C 228.021 37.167,227.833 37.092,227.833 37.000 C 227.833 36.908,227.777 36.846,227.708 36.862 C 227.427 36.926,226.000 36.619,226.000 36.494 C 226.000 36.420,225.512 36.308,224.917 36.244 C 224.321 36.180,223.833 36.062,223.833 35.981 C 223.833 35.900,223.528 35.833,223.156 35.833 C 222.783 35.833,222.342 35.760,222.176 35.671 C 222.009 35.582,221.133 35.459,220.228 35.396 C 219.324 35.334,218.546 35.229,218.500 35.163 C 218.398 35.017,211.682 34.868,208.875 34.950 M95.000 36.667 C 95.000 36.942,95.075 37.167,95.167 37.167 C 95.258 37.167,95.333 37.354,95.333 37.583 C 95.333 37.813,95.400 38.000,95.481 38.000 C 95.562 38.000,95.679 38.337,95.741 38.750 C 95.803 39.162,95.915 39.500,95.989 39.500 C 96.063 39.500,96.172 39.800,96.231 40.167 C 96.289 40.533,96.411 40.833,96.502 40.833 C 96.593 40.833,96.667 41.021,96.667 41.250 C 96.667 41.479,96.735 41.667,96.818 41.667 C 96.901 41.667,97.020 42.042,97.083 42.500 C 97.146 42.958,97.259 43.333,97.334 43.333 C 97.409 43.333,97.521 43.633,97.583 44.000 C 97.645 44.367,97.764 44.667,97.848 44.667 C 97.932 44.667,98.000 44.854,98.000 45.083 C 98.000 45.313,98.070 45.500,98.156 45.500 C 98.243 45.500,98.364 45.837,98.425 46.250 C 98.487 46.663,98.603 47.000,98.684 47.000 C 98.764 47.000,98.877 47.300,98.936 47.667 C 98.995 48.033,99.108 48.333,99.188 48.333 C 99.268 48.333,99.333 48.521,99.333 48.750 C 99.333 48.979,99.400 49.167,99.481 49.167 C 99.562 49.167,99.679 49.504,99.741 49.917 C 99.803 50.329,99.918 50.667,99.996 50.667 C 100.074 50.667,100.188 50.966,100.250 51.332 C 100.312 51.699,100.431 52.041,100.515 52.092 C 100.598 52.144,100.667 52.332,100.667 52.510 C 100.667 52.688,100.735 52.833,100.818 52.833 C 100.901 52.833,101.020 53.208,101.083 53.667 C 101.146 54.125,101.265 54.500,101.347 54.500 C 101.429 54.500,101.544 54.800,101.603 55.167 C 101.661 55.533,101.775 55.833,101.855 55.833 C 101.935 55.833,102.000 56.021,102.000 56.250 C 102.000 56.479,102.068 56.667,102.152 56.667 C 102.236 56.667,102.355 56.967,102.417 57.333 C 102.479 57.700,102.589 58.000,102.662 58.000 C 102.736 58.000,102.846 58.337,102.908 58.750 C 102.970 59.163,103.091 59.500,103.177 59.500 C 103.263 59.500,103.333 59.688,103.333 59.917 C 103.333 60.146,103.399 60.333,103.479 60.333 C 103.559 60.333,103.672 60.633,103.731 61.000 C 103.789 61.367,103.903 61.667,103.983 61.667 C 104.063 61.667,104.179 62.002,104.241 62.413 C 104.302 62.823,104.423 63.203,104.510 63.256 C 104.596 63.309,104.667 63.499,104.667 63.677 C 104.667 63.854,104.732 64.000,104.812 64.000 C 104.892 64.000,105.005 64.300,105.064 64.667 C 105.123 65.033,105.238 65.333,105.320 65.333 C 105.402 65.333,105.520 65.708,105.583 66.167 C 105.646 66.625,105.766 67.000,105.849 67.000 C 105.932 67.000,106.000 67.188,106.000 67.417 C 106.000 67.646,106.065 67.833,106.145 67.833 C 106.225 67.833,106.339 68.133,106.397 68.500 C 106.456 68.867,106.570 69.167,106.650 69.167 C 106.730 69.167,106.846 69.504,106.908 69.917 C 106.970 70.329,107.091 70.667,107.177 70.667 C 107.263 70.667,107.333 70.854,107.333 71.083 C 107.333 71.313,107.407 71.500,107.498 71.500 C 107.589 71.500,107.711 71.800,107.769 72.167 C 107.828 72.533,107.932 72.833,108.000 72.833 C 108.068 72.833,108.173 73.137,108.232 73.507 C 108.291 73.878,108.407 74.309,108.489 74.466 C 108.872 75.195,109.167 75.999,109.167 76.317 C 109.167 76.509,109.237 76.667,109.323 76.667 C 109.409 76.667,109.530 77.004,109.592 77.417 C 109.654 77.829,109.771 78.167,109.852 78.167 C 109.934 78.167,110.000 78.354,110.000 78.583 C 110.000 78.813,110.074 79.000,110.165 79.000 C 110.255 79.000,110.377 79.300,110.436 79.667 C 110.495 80.033,110.598 80.333,110.667 80.333 C 110.735 80.333,110.839 80.637,110.898 81.007 C 110.999 81.636,111.279 82.307,111.521 82.500 C 111.579 82.546,111.679 82.902,111.744 83.292 C 111.809 83.681,111.921 84.000,111.993 84.000 C 112.064 84.000,112.167 84.268,112.220 84.596 C 112.330 85.272,112.693 86.167,112.858 86.167 C 112.919 86.167,113.020 86.542,113.083 87.000 C 113.146 87.458,113.257 87.833,113.330 87.833 C 113.403 87.833,113.513 88.171,113.575 88.583 C 113.636 88.996,113.757 89.333,113.844 89.333 C 113.930 89.333,114.000 89.483,114.000 89.667 C 114.000 89.850,114.070 90.000,114.156 90.000 C 114.243 90.000,114.364 90.337,114.425 90.750 C 114.487 91.163,114.595 91.500,114.664 91.500 C 114.734 91.500,114.839 91.803,114.898 92.174 C 114.999 92.803,115.279 93.474,115.521 93.667 C 115.579 93.712,115.679 94.068,115.744 94.457 C 115.809 94.847,115.931 95.207,116.015 95.259 C 116.098 95.311,116.167 95.480,116.168 95.635 C 116.168 95.790,116.281 96.131,116.418 96.394 C 116.555 96.657,116.667 96.975,116.667 97.102 C 116.667 97.229,116.735 97.333,116.818 97.333 C 116.901 97.333,117.020 97.708,117.083 98.167 C 117.146 98.625,117.256 99.000,117.328 99.000 C 117.399 99.000,117.505 99.300,117.564 99.667 C 117.623 100.033,117.745 100.333,117.835 100.333 C 117.926 100.333,118.000 100.521,118.000 100.750 C 118.000 100.979,118.070 101.167,118.156 101.167 C 118.243 101.167,118.364 101.504,118.425 101.917 C 118.487 102.329,118.595 102.667,118.664 102.667 C 118.734 102.667,118.839 102.967,118.897 103.333 C 118.956 103.700,119.078 104.000,119.169 104.000 C 119.259 104.000,119.333 104.188,119.333 104.417 C 119.333 104.646,119.399 104.833,119.479 104.833 C 119.559 104.833,119.670 105.123,119.727 105.478 C 119.784 105.832,119.943 106.339,120.081 106.603 C 120.219 106.867,120.332 107.252,120.332 107.458 C 120.333 107.665,120.408 107.833,120.500 107.833 C 120.592 107.833,120.667 107.983,120.667 108.167 C 120.667 108.350,120.735 108.500,120.818 108.500 C 120.901 108.500,121.020 108.875,121.083 109.333 C 121.146 109.792,121.265 110.167,121.347 110.167 C 121.429 110.167,121.544 110.467,121.603 110.833 C 121.661 111.200,121.775 111.500,121.855 111.500 C 121.935 111.500,122.000 111.688,122.000 111.917 C 122.000 112.146,122.066 112.333,122.148 112.333 C 122.229 112.333,122.346 112.671,122.408 113.083 C 122.470 113.496,122.584 113.833,122.662 113.833 C 122.740 113.833,122.855 114.133,122.917 114.500 C 122.979 114.867,123.098 115.167,123.181 115.167 C 123.265 115.167,123.333 115.354,123.333 115.583 C 123.333 115.813,123.401 116.000,123.484 116.000 C 123.567 116.000,123.687 116.375,123.750 116.833 C 123.813 117.292,123.932 117.667,124.014 117.667 C 124.096 117.667,124.211 117.967,124.269 118.333 C 124.328 118.700,124.441 119.000,124.521 119.000 C 124.601 119.000,124.667 119.112,124.667 119.250 C 124.667 119.470,126.111 119.500,136.667 119.500 L 148.667 119.500 148.667 119.083 C 148.667 118.854,148.741 118.667,148.831 118.667 C 148.922 118.667,149.044 118.367,149.103 118.000 C 149.161 117.633,149.266 117.333,149.336 117.333 C 149.405 117.333,149.513 116.996,149.575 116.583 C 149.636 116.171,149.757 115.833,149.844 115.833 C 149.930 115.833,150.000 115.646,150.000 115.417 C 150.000 115.188,150.074 115.000,150.165 115.000 C 150.255 115.000,150.377 114.700,150.436 114.333 C 150.495 113.967,150.601 113.667,150.672 113.667 C 150.744 113.667,150.854 113.292,150.917 112.833 C 150.980 112.375,151.081 112.000,151.142 112.000 C 151.307 112.000,151.670 111.106,151.780 110.429 C 151.833 110.101,151.936 109.833,152.007 109.833 C 152.079 109.833,152.188 109.533,152.250 109.167 C 152.312 108.800,152.431 108.500,152.515 108.500 C 152.598 108.500,152.667 108.354,152.667 108.177 C 152.667 107.999,152.737 107.809,152.824 107.756 C 152.910 107.703,153.031 107.323,153.093 106.913 C 153.154 106.502,153.261 106.167,153.331 106.167 C 153.400 106.167,153.505 105.867,153.564 105.500 C 153.623 105.133,153.745 104.833,153.835 104.833 C 153.926 104.833,154.000 104.646,154.000 104.417 C 154.000 104.188,154.066 104.000,154.148 104.000 C 154.229 104.000,154.346 103.662,154.408 103.250 C 154.470 102.837,154.584 102.500,154.662 102.500 C 154.740 102.500,154.855 102.200,154.917 101.833 C 154.979 101.467,155.098 101.167,155.181 101.167 C 155.265 101.167,155.333 100.979,155.333 100.750 C 155.333 100.521,155.401 100.333,155.484 100.333 C 155.567 100.333,155.687 99.958,155.750 99.500 C 155.813 99.042,155.932 98.667,156.014 98.667 C 156.096 98.667,156.211 98.367,156.269 98.000 C 156.328 97.633,156.441 97.333,156.521 97.333 C 156.601 97.333,156.667 97.188,156.667 97.010 C 156.667 96.832,156.735 96.644,156.819 96.592 C 156.903 96.541,157.022 96.199,157.083 95.832 C 157.145 95.466,157.260 95.167,157.338 95.167 C 157.416 95.167,157.530 94.829,157.592 94.417 C 157.654 94.004,157.771 93.667,157.852 93.667 C 157.934 93.667,158.000 93.479,158.000 93.250 C 158.000 93.021,158.074 92.833,158.165 92.833 C 158.255 92.833,158.377 92.533,158.436 92.167 C 158.495 91.800,158.600 91.500,158.669 91.500 C 158.739 91.500,158.846 91.162,158.908 90.750 C 158.970 90.337,159.091 90.000,159.177 90.000 C 159.263 90.000,159.333 89.813,159.333 89.583 C 159.333 89.354,159.402 89.167,159.485 89.167 C 159.569 89.167,159.688 88.867,159.750 88.500 C 159.812 88.133,159.924 87.833,159.999 87.833 C 160.074 87.833,160.187 87.458,160.250 87.000 C 160.313 86.542,160.414 86.167,160.475 86.167 C 160.640 86.167,161.004 85.272,161.114 84.596 C 161.167 84.268,161.269 84.000,161.340 84.000 C 161.412 84.000,161.524 83.681,161.589 83.292 C 161.654 82.902,161.755 82.546,161.812 82.500 C 162.054 82.307,162.334 81.636,162.435 81.007 C 162.494 80.637,162.598 80.333,162.667 80.333 C 162.735 80.333,162.839 80.033,162.897 79.667 C 162.956 79.300,163.078 79.000,163.169 79.000 C 163.259 79.000,163.333 78.813,163.333 78.583 C 163.333 78.354,163.400 78.167,163.481 78.167 C 163.562 78.167,163.679 77.829,163.741 77.417 C 163.803 77.004,163.916 76.667,163.992 76.667 C 164.068 76.667,164.181 76.395,164.243 76.063 C 164.305 75.731,164.438 75.299,164.537 75.104 C 164.941 74.314,164.998 74.154,165.102 73.507 C 165.161 73.137,165.274 72.833,165.353 72.833 C 165.432 72.833,165.544 72.533,165.603 72.167 C 165.661 71.800,165.775 71.500,165.855 71.500 C 165.935 71.500,166.000 71.313,166.000 71.083 C 166.000 70.854,166.068 70.667,166.152 70.667 C 166.236 70.667,166.355 70.367,166.417 70.000 C 166.479 69.633,166.593 69.333,166.671 69.333 C 166.749 69.333,166.864 68.996,166.925 68.583 C 166.987 68.171,167.104 67.833,167.186 67.833 C 167.267 67.833,167.333 67.646,167.333 67.417 C 167.333 67.188,167.399 67.000,167.479 67.000 C 167.559 67.000,167.672 66.700,167.731 66.333 C 167.789 65.967,167.904 65.667,167.986 65.667 C 168.068 65.667,168.187 65.292,168.250 64.833 C 168.313 64.375,168.433 64.000,168.516 64.000 C 168.599 64.000,168.667 63.850,168.667 63.667 C 168.667 63.483,168.735 63.333,168.819 63.333 C 168.902 63.333,169.021 63.033,169.083 62.667 C 169.145 62.300,169.257 62.000,169.332 62.000 C 169.407 62.000,169.520 61.625,169.583 61.167 C 169.646 60.708,169.748 60.333,169.808 60.333 C 169.974 60.333,170.337 59.439,170.447 58.762 C 170.500 58.435,170.604 58.167,170.678 58.167 C 170.752 58.167,170.864 57.829,170.925 57.417 C 170.987 57.004,171.104 56.667,171.186 56.667 C 171.267 56.667,171.333 56.517,171.333 56.333 C 171.333 56.150,171.404 56.000,171.490 56.000 C 171.576 56.000,171.697 55.663,171.759 55.250 C 171.821 54.837,171.928 54.500,171.998 54.500 C 172.067 54.500,172.172 54.200,172.231 53.833 C 172.289 53.467,172.411 53.167,172.502 53.167 C 172.593 53.167,172.667 52.979,172.667 52.750 C 172.667 52.521,172.733 52.333,172.814 52.333 C 172.896 52.333,173.013 51.998,173.074 51.587 C 173.136 51.177,173.257 50.797,173.343 50.744 C 173.429 50.691,173.500 50.532,173.500 50.390 C 173.500 50.151,173.832 49.289,174.178 48.632 C 174.260 48.476,174.376 48.045,174.435 47.674 C 174.494 47.303,174.607 47.000,174.686 47.000 C 174.765 47.000,174.877 46.700,174.936 46.333 C 174.995 45.967,175.108 45.667,175.188 45.667 C 175.268 45.667,175.333 45.479,175.333 45.250 C 175.333 45.021,175.402 44.833,175.485 44.833 C 175.569 44.833,175.688 44.533,175.750 44.167 C 175.812 43.800,175.923 43.500,175.996 43.500 C 176.069 43.500,176.179 43.163,176.241 42.750 C 176.303 42.337,176.424 42.000,176.510 42.000 C 176.596 42.000,176.667 41.813,176.667 41.583 C 176.667 41.354,176.732 41.167,176.812 41.167 C 176.892 41.167,177.005 40.867,177.064 40.500 C 177.123 40.133,177.238 39.833,177.320 39.833 C 177.402 39.833,177.520 39.458,177.583 39.000 C 177.646 38.542,177.766 38.167,177.849 38.167 C 177.932 38.167,178.000 38.021,178.000 37.843 C 178.000 37.665,178.075 37.473,178.167 37.417 C 178.258 37.360,178.333 37.168,178.333 36.990 C 178.333 36.673,178.083 36.667,164.604 36.667 C 149.233 36.667,150.558 36.544,150.388 37.982 C 150.332 38.450,150.222 38.833,150.143 38.833 C 150.065 38.833,150.000 38.979,150.000 39.157 C 150.000 39.335,149.935 39.521,149.855 39.570 C 149.776 39.619,149.658 40.053,149.594 40.535 C 149.531 41.016,149.406 41.455,149.318 41.509 C 149.230 41.564,149.112 41.997,149.056 42.471 C 149.000 42.945,148.889 43.333,148.810 43.333 C 148.731 43.333,148.667 43.515,148.667 43.736 C 148.667 43.958,148.590 44.164,148.497 44.195 C 148.404 44.227,148.281 44.645,148.224 45.126 C 148.167 45.607,148.064 46.000,147.996 46.000 C 147.927 46.000,147.821 46.336,147.759 46.746 C 147.698 47.156,147.577 47.536,147.490 47.589 C 147.404 47.643,147.333 47.907,147.333 48.177 C 147.333 48.446,147.267 48.667,147.186 48.667 C 147.104 48.667,146.987 49.002,146.926 49.413 C 146.864 49.823,146.752 50.197,146.677 50.244 C 146.601 50.291,146.487 50.742,146.424 51.248 C 146.361 51.753,146.240 52.167,146.155 52.167 C 146.070 52.167,146.000 52.312,146.000 52.490 C 146.000 52.668,145.935 52.854,145.855 52.903 C 145.776 52.952,145.658 53.387,145.594 53.868 C 145.531 54.350,145.406 54.788,145.318 54.843 C 145.230 54.897,145.112 55.330,145.056 55.804 C 145.000 56.279,144.889 56.667,144.810 56.667 C 144.731 56.667,144.667 56.848,144.667 57.069 C 144.667 57.291,144.590 57.498,144.497 57.529 C 144.404 57.560,144.281 57.979,144.224 58.459 C 144.167 58.940,144.064 59.333,143.996 59.333 C 143.927 59.333,143.821 59.671,143.759 60.083 C 143.697 60.496,143.576 60.833,143.490 60.833 C 143.404 60.833,143.333 61.096,143.333 61.417 C 143.333 61.737,143.267 62.000,143.186 62.000 C 143.104 62.000,142.987 62.336,142.926 62.746 C 142.864 63.156,142.752 63.530,142.677 63.577 C 142.601 63.624,142.487 64.076,142.424 64.581 C 142.361 65.087,142.240 65.500,142.155 65.500 C 142.070 65.500,142.000 65.646,142.000 65.823 C 142.000 66.001,141.935 66.187,141.855 66.236 C 141.776 66.286,141.661 66.699,141.600 67.156 C 141.540 67.613,141.426 68.026,141.348 68.074 C 141.270 68.123,141.154 68.576,141.091 69.081 C 141.028 69.587,140.906 70.000,140.821 70.000 C 140.736 70.000,140.667 70.146,140.667 70.323 C 140.667 70.501,140.602 70.687,140.522 70.736 C 140.442 70.786,140.325 71.220,140.261 71.701 C 140.197 72.183,140.073 72.622,139.985 72.676 C 139.897 72.731,139.779 73.163,139.722 73.638 C 139.666 74.112,139.556 74.500,139.477 74.500 C 139.398 74.500,139.333 74.688,139.333 74.917 C 139.333 75.146,139.264 75.333,139.179 75.333 C 139.094 75.333,138.972 75.746,138.909 76.250 C 138.846 76.754,138.737 77.167,138.666 77.167 C 138.596 77.167,138.487 77.502,138.426 77.913 C 138.364 78.323,138.243 78.703,138.157 78.756 C 138.071 78.809,138.000 79.074,138.000 79.343 C 138.000 79.613,137.934 79.833,137.852 79.833 C 137.771 79.833,137.654 80.169,137.593 80.579 C 137.531 80.990,137.420 81.363,137.346 81.409 C 137.271 81.455,137.158 81.887,137.094 82.368 C 136.990 83.154,136.804 83.490,136.470 83.497 C 136.408 83.499,136.306 83.087,136.243 82.583 C 136.180 82.079,136.069 81.667,135.996 81.667 C 135.924 81.667,135.813 81.292,135.750 80.834 C 135.687 80.375,135.567 79.958,135.484 79.907 C 135.401 79.856,135.333 79.631,135.333 79.407 C 135.333 79.183,135.264 79.000,135.179 79.000 C 135.094 79.000,134.972 78.587,134.909 78.083 C 134.846 77.579,134.736 77.167,134.663 77.167 C 134.591 77.167,134.480 76.792,134.417 76.333 C 134.354 75.875,134.234 75.500,134.151 75.500 C 134.068 75.500,134.000 75.275,134.000 75.000 C 134.000 74.725,133.930 74.500,133.845 74.500 C 133.760 74.500,133.639 74.087,133.576 73.583 C 133.513 73.079,133.402 72.667,133.330 72.667 C 133.257 72.667,133.146 72.292,133.083 71.833 C 133.020 71.375,132.901 71.000,132.818 71.000 C 132.735 71.000,132.667 70.775,132.667 70.500 C 132.667 70.225,132.599 70.000,132.516 70.000 C 132.433 70.000,132.313 69.625,132.250 69.167 C 132.187 68.708,132.076 68.333,132.004 68.333 C 131.931 68.333,131.820 67.921,131.757 67.417 C 131.694 66.912,131.573 66.500,131.488 66.500 C 131.403 66.500,131.333 66.275,131.333 66.000 C 131.333 65.725,131.265 65.500,131.182 65.500 C 131.099 65.500,130.980 65.125,130.917 64.667 C 130.854 64.208,130.743 63.833,130.670 63.833 C 130.598 63.833,130.487 63.421,130.424 62.917 C 130.361 62.413,130.240 62.000,130.155 62.000 C 130.070 62.000,130.000 61.813,130.000 61.583 C 130.000 61.354,129.934 61.167,129.853 61.167 C 129.771 61.167,129.654 60.754,129.591 60.250 C 129.528 59.746,129.417 59.333,129.345 59.333 C 129.272 59.333,129.167 58.940,129.110 58.459 C 129.053 57.979,128.930 57.560,128.836 57.529 C 128.743 57.498,128.667 57.291,128.667 57.069 C 128.667 56.848,128.602 56.667,128.523 56.667 C 128.444 56.667,128.334 56.279,128.278 55.804 C 128.221 55.330,128.103 54.897,128.015 54.843 C 127.927 54.788,127.803 54.350,127.739 53.868 C 127.675 53.387,127.558 52.952,127.478 52.903 C 127.398 52.854,127.333 52.668,127.333 52.490 C 127.333 52.312,127.268 52.167,127.188 52.167 C 127.108 52.167,126.992 51.717,126.930 51.167 C 126.868 50.617,126.748 50.167,126.664 50.167 C 126.580 50.167,126.462 49.790,126.400 49.330 C 126.339 48.869,126.224 48.452,126.145 48.403 C 126.065 48.354,126.000 48.137,126.000 47.921 C 126.000 47.705,125.924 47.502,125.830 47.471 C 125.737 47.440,125.614 47.021,125.557 46.541 C 125.500 46.060,125.396 45.667,125.326 45.667 C 125.255 45.667,125.146 45.292,125.083 44.834 C 125.020 44.375,124.901 43.958,124.818 43.907 C 124.735 43.856,124.667 43.631,124.667 43.407 C 124.667 43.183,124.597 43.000,124.512 43.000 C 124.427 43.000,124.306 42.587,124.243 42.083 C 124.180 41.579,124.070 41.167,124.000 41.167 C 123.929 41.167,123.821 40.831,123.759 40.421 C 123.698 40.010,123.577 39.631,123.490 39.577 C 123.404 39.524,123.333 39.260,123.333 38.990 C 123.333 38.721,123.264 38.500,123.179 38.500 C 123.094 38.500,122.972 38.087,122.909 37.583 C 122.846 37.079,122.729 36.667,122.647 36.667 C 122.566 36.667,122.500 36.554,122.500 36.417 C 122.500 36.196,120.861 36.167,108.750 36.167 L 95.000 36.167 95.000 36.667 M259.667 77.833 L 259.667 119.500 273.333 119.500 L 287.000 119.500 287.000 96.760 C 287.000 81.780,287.057 73.985,287.167 73.917 C 287.258 73.860,287.333 73.368,287.333 72.823 C 287.333 72.279,287.400 71.833,287.480 71.833 C 287.561 71.833,287.680 71.271,287.745 70.583 C 287.809 69.896,287.924 69.333,288.000 69.333 C 288.075 69.333,288.191 69.015,288.256 68.625 C 288.321 68.235,288.425 67.879,288.487 67.833 C 288.643 67.719,289.167 66.575,289.167 66.350 C 289.167 66.249,289.236 66.167,289.320 66.167 C 289.404 66.167,289.523 65.942,289.583 65.667 C 289.644 65.392,289.762 65.167,289.847 65.167 C 289.931 65.167,290.000 65.086,290.000 64.988 C 290.000 64.890,290.094 64.705,290.208 64.577 C 290.665 64.068,290.833 63.843,290.833 63.741 C 290.833 63.560,292.802 61.667,292.990 61.667 C 293.087 61.667,293.167 61.597,293.167 61.511 C 293.167 61.426,293.332 61.303,293.534 61.239 C 293.736 61.175,294.004 61.020,294.129 60.895 C 294.255 60.769,294.464 60.667,294.595 60.667 C 294.726 60.667,294.833 60.592,294.833 60.500 C 294.833 60.408,294.965 60.333,295.125 60.332 C 295.285 60.332,295.631 60.219,295.894 60.082 C 296.157 59.945,296.544 59.833,296.755 59.833 C 296.966 59.833,297.170 59.740,297.208 59.625 C 297.262 59.464,298.903 59.405,304.472 59.364 L 311.667 59.311 311.667 89.405 L 311.667 119.500 325.333 119.500 L 339.000 119.500 339.000 97.500 C 339.000 82.944,339.056 75.500,339.167 75.500 C 339.264 75.500,339.333 74.948,339.333 74.177 C 339.333 73.449,339.400 72.812,339.483 72.761 C 339.565 72.710,339.685 72.068,339.750 71.334 C 339.815 70.600,339.928 70.000,340.002 70.000 C 340.075 70.000,340.187 69.625,340.250 69.167 C 340.313 68.708,340.433 68.333,340.516 68.333 C 340.599 68.333,340.667 68.146,340.667 67.917 C 340.667 67.688,340.736 67.500,340.820 67.500 C 340.904 67.500,341.023 67.275,341.083 67.000 C 341.144 66.725,341.259 66.500,341.339 66.500 C 341.419 66.500,341.534 66.237,341.594 65.917 C 341.655 65.596,341.770 65.333,341.852 65.333 C 341.933 65.333,342.000 65.229,342.000 65.101 C 342.000 64.973,342.113 64.826,342.250 64.773 C 342.387 64.720,342.500 64.556,342.500 64.408 C 342.500 64.259,342.762 63.906,343.083 63.622 C 343.404 63.338,343.667 63.004,343.667 62.881 C 343.667 62.757,343.798 62.608,343.958 62.550 C 344.119 62.492,344.492 62.200,344.787 61.901 C 345.083 61.603,345.477 61.310,345.662 61.251 C 345.848 61.192,346.000 61.080,346.000 61.002 C 346.000 60.924,346.225 60.810,346.500 60.750 C 346.775 60.690,347.000 60.578,347.000 60.501 C 347.000 60.425,347.300 60.312,347.667 60.250 C 348.033 60.188,348.333 60.069,348.333 59.985 C 348.333 59.902,348.515 59.833,348.736 59.833 C 348.958 59.833,349.170 59.740,349.208 59.625 C 349.262 59.463,351.235 59.405,358.139 59.364 L 367.000 59.312 367.000 54.489 C 367.000 51.385,367.059 49.667,367.167 49.667 C 367.275 49.667,367.333 47.297,367.333 42.890 L 367.333 36.114 360.474 36.214 C 356.458 36.273,353.574 36.380,353.516 36.472 C 353.430 36.609,352.920 36.695,351.208 36.863 C 351.002 36.883,350.833 36.960,350.833 37.033 C 350.833 37.107,350.646 37.167,350.417 37.167 C 350.188 37.167,350.000 37.232,350.000 37.312 C 350.000 37.391,349.732 37.500,349.404 37.553 C 348.710 37.666,347.833 38.028,347.833 38.202 C 347.833 38.269,347.721 38.280,347.583 38.227 C 347.446 38.174,347.333 38.214,347.333 38.316 C 347.333 38.417,347.221 38.500,347.083 38.500 C 346.946 38.500,346.833 38.570,346.833 38.655 C 346.833 38.741,346.670 38.863,346.471 38.926 C 346.272 38.989,346.028 39.103,345.929 39.180 C 345.419 39.575,344.593 40.304,344.176 40.728 C 343.647 41.267,343.564 41.350,342.895 42.015 C 342.283 42.622,342.000 42.960,342.000 43.084 C 342.000 43.138,341.823 43.348,341.606 43.550 C 341.390 43.751,341.160 44.085,341.095 44.292 C 341.031 44.498,340.908 44.667,340.822 44.667 C 340.737 44.667,340.667 44.779,340.667 44.917 C 340.667 45.054,340.600 45.167,340.518 45.167 C 340.436 45.167,340.322 45.354,340.265 45.583 C 340.207 45.813,340.093 46.000,340.010 46.000 C 339.927 46.000,339.810 46.225,339.750 46.500 C 339.690 46.775,339.580 47.000,339.506 47.000 C 339.433 47.000,339.309 47.169,339.231 47.375 C 339.148 47.595,339.070 45.358,339.043 41.945 L 338.996 36.139 320.325 36.195 C 306.999 36.234,301.620 36.302,301.536 36.433 C 301.470 36.534,300.854 36.667,300.167 36.729 C 299.479 36.792,298.892 36.915,298.861 37.005 C 298.831 37.094,298.549 37.167,298.236 37.167 C 297.923 37.167,297.667 37.235,297.667 37.319 C 297.667 37.402,297.367 37.521,297.000 37.583 C 296.633 37.645,296.333 37.758,296.333 37.835 C 296.333 37.911,296.108 38.023,295.833 38.083 C 295.558 38.144,295.333 38.262,295.333 38.347 C 295.333 38.431,295.221 38.500,295.083 38.500 C 294.946 38.500,294.833 38.575,294.833 38.667 C 294.833 38.758,294.726 38.833,294.595 38.833 C 294.464 38.833,294.255 38.936,294.129 39.061 C 294.004 39.187,293.740 39.341,293.542 39.403 C 293.345 39.466,293.137 39.663,293.081 39.842 C 293.024 40.021,292.863 40.167,292.723 40.167 C 292.392 40.167,290.333 42.226,290.333 42.557 C 290.333 42.696,290.184 42.858,290.000 42.917 C 289.817 42.975,289.622 43.205,289.566 43.428 C 289.510 43.651,289.402 43.833,289.326 43.833 C 289.251 43.833,289.136 44.002,289.071 44.208 C 289.005 44.415,288.813 44.681,288.643 44.801 C 288.473 44.921,288.333 45.130,288.333 45.265 C 288.333 45.400,288.223 45.553,288.088 45.605 C 287.953 45.656,287.795 45.954,287.736 46.266 C 287.677 46.578,287.563 46.833,287.481 46.833 C 287.400 46.833,287.333 46.946,287.333 47.083 C 287.333 47.221,287.258 47.333,287.167 47.333 C 287.059 47.333,287.000 45.361,287.000 41.750 L 287.000 36.167 273.333 36.167 L 259.667 36.167 259.667 77.833 M216.961 55.633 C 216.998 55.743,217.247 55.833,217.514 55.833 C 217.781 55.833,218.000 55.899,218.000 55.979 C 218.000 56.059,218.300 56.172,218.667 56.231 C 219.033 56.289,219.333 56.405,219.333 56.489 C 219.333 56.572,219.558 56.690,219.833 56.750 C 220.108 56.810,220.333 56.929,220.333 57.013 C 220.333 57.098,220.475 57.167,220.649 57.167 C 220.822 57.167,221.008 57.279,221.060 57.417 C 221.113 57.554,221.271 57.667,221.411 57.667 C 221.552 57.667,221.667 57.737,221.667 57.822 C 221.667 57.908,221.826 58.028,222.021 58.090 C 222.557 58.260,225.167 61.040,225.167 61.441 C 225.167 61.565,225.240 61.667,225.330 61.667 C 225.420 61.667,225.541 61.854,225.598 62.083 C 225.656 62.313,225.770 62.500,225.851 62.500 C 225.933 62.500,226.000 62.612,226.000 62.750 C 226.000 62.887,226.074 63.000,226.165 63.000 C 226.255 63.000,226.377 63.300,226.436 63.667 C 226.495 64.033,226.600 64.333,226.669 64.333 C 226.739 64.333,226.846 64.669,226.907 65.079 C 226.969 65.490,227.090 65.869,227.176 65.923 C 227.263 65.976,227.333 66.315,227.333 66.677 C 227.333 67.038,227.408 67.333,227.500 67.333 C 227.592 67.333,227.667 67.483,227.667 67.667 C 227.667 67.997,227.556 68.000,212.977 68.000 L 198.287 68.000 198.382 67.072 C 198.435 66.561,198.550 66.055,198.637 65.947 C 198.725 65.839,198.849 65.356,198.914 64.875 C 198.978 64.394,199.099 64.000,199.182 64.000 C 199.265 64.000,199.333 63.887,199.333 63.750 C 199.333 63.612,199.399 63.500,199.479 63.500 C 199.559 63.500,199.672 63.200,199.731 62.833 C 199.789 62.467,199.903 62.167,199.984 62.167 C 200.065 62.167,200.178 61.979,200.235 61.750 C 200.293 61.521,200.413 61.333,200.503 61.333 C 200.593 61.333,200.667 61.229,200.667 61.101 C 200.667 60.973,200.779 60.826,200.917 60.773 C 201.054 60.720,201.167 60.577,201.167 60.454 C 201.167 60.332,201.673 59.729,202.292 59.114 C 203.869 57.546,203.922 57.500,204.139 57.500 C 204.246 57.500,204.333 57.443,204.333 57.373 C 204.333 57.239,205.550 56.667,205.834 56.667 C 205.926 56.667,206.000 56.595,206.000 56.508 C 206.000 56.420,206.263 56.299,206.585 56.239 C 206.907 56.178,207.211 56.062,207.262 55.981 C 207.312 55.900,207.574 55.833,207.843 55.833 C 208.113 55.833,208.333 55.763,208.333 55.676 C 208.333 55.304,216.837 55.261,216.961 55.633 " stroke="none" fill-rule="evenodd" style="fill: rgb(28, 188, 116);"/>
    <path id="path-3" d="M394.833 92.462 C 394.833 92.592,395.251 92.993,395.632 93.229 C 395.989 93.449,395.847 93.234,395.333 92.776 C 395.058 92.531,394.833 92.390,394.833 92.462 " stroke="none" fill="#30c05c" fill-rule="evenodd"/>
    <path id="path-4" d="" stroke="none" fill="#30645c" fill-rule="evenodd"/>
    <path id="path-5" d="" stroke="none" fill="#304460" fill-rule="evenodd"/>
  </g>
</svg>