<?xml version="1.0" encoding="utf-8"?>
<svg viewBox="0 59.993 512.601 154.017" xmlns="http://www.w3.org/2000/svg">
  <path d="M 140.085 157.486 C 131.764 157.486 123.967 153.963 116.883 148.228 L 118.608 140.132 L 118.683 139.832 C 120.219 131.212 125.092 116.743 140.085 116.743 C 151.329 116.743 160.475 125.889 160.475 137.133 C 160.437 148.34 151.292 157.486 140.085 157.486 Z M 140.085 96.091 C 120.931 96.091 106.089 108.535 100.055 129 C 90.834 115.169 83.862 98.565 79.777 84.584 L 59.162 84.584 L 59.162 138.22 C 59.162 148.79 50.541 157.41 39.971 157.41 C 29.401 157.41 20.781 148.79 20.781 138.22 L 20.781 84.584 L 0.164 84.584 L 0.164 138.22 C 0.089 160.185 17.968 178.213 39.932 178.213 C 61.897 178.213 79.776 160.185 79.776 138.22 L 79.776 129.225 C 83.786 137.583 88.696 146.016 94.656 153.513 L 82.024 212.883 L 103.127 212.883 L 112.272 169.817 C 120.293 174.952 129.514 178.176 140.084 178.176 C 162.685 178.176 181.089 159.66 181.089 137.058 C 181.089 114.494 162.685 96.091 140.084 96.091 Z" fill="#6FDA44"/>
  <path d="M 244.021 98.415 L 257.327 152.051 L 271.983 98.415 L 289.449 98.415 L 266.923 175.927 L 249.456 175.927 L 235.626 121.953 L 221.832 175.889 L 204.366 175.889 L 181.838 98.378 L 199.305 98.378 L 213.96 152.014 L 227.266 98.378 L 244.02 98.378 L 244.02 98.416 Z M 331.241 96.091 C 308.565 96.091 290.199 114.494 290.199 137.133 C 290.199 159.81 308.602 178.176 331.241 178.176 C 353.918 178.176 372.321 159.81 372.321 137.133 C 372.321 114.457 353.918 96.091 331.241 96.091 Z M 331.241 161.309 C 317.898 161.309 307.103 150.514 307.103 137.171 C 307.103 123.827 317.935 113.033 331.241 113.033 C 344.585 113.033 355.379 123.827 355.379 137.171 C 355.379 150.477 344.585 161.309 331.241 161.309 Z M 422.209 115.769 C 410.478 115.769 400.995 125.289 400.995 136.983 L 400.995 175.889 L 383.415 175.889 L 383.415 98.415 L 400.995 98.415 L 400.995 110.334 C 400.995 110.334 408.491 98.377 423.896 98.377 L 429.293 98.377 L 429.293 115.769 L 422.209 115.769 Z M 481.206 134.135 C 493.686 127.088 502.158 113.707 502.158 98.377 L 484.578 98.377 C 484.578 111.308 474.084 121.803 461.153 121.803 L 458.791 121.803 L 458.791 61.008 L 441.213 61.008 L 441.213 175.888 L 458.791 175.888 L 458.791 139.382 L 460.891 139.382 C 462.615 139.382 464.864 140.507 465.876 141.893 L 490.838 175.889 L 511.903 175.889 L 481.206 134.135 Z"/>
</svg>