<svg id="svg" version="1.1" xmlns="http://www.w3.org/2000/svg" xmlns:xlink="http://www.w3.org/1999/xlink" width="400" height="400" viewBox="0, 0, 400,400"><g id="svgg"><path id="path0" d="M194.600 51.871 C 86.856 56.258,19.445 169.986,67.441 266.400 C 108.993 349.870,216.252 374.824,290.400 318.271 C 371.279 256.584,367.194 133.173,282.400 76.609 C 258.478 60.651,224.683 50.552,199.000 51.686 C 198.120 51.725,196.140 51.808,194.600 51.871 M268.926 141.380 C 272.155 142.531,273.578 144.998,273.591 149.471 C 273.601 152.700,249.557 267.147,247.987 271.343 C 246.576 275.115,243.405 277.228,240.091 276.606 C 237.387 276.099,234.904 274.442,216.746 261.027 C 206.766 253.654,198.489 247.617,198.354 247.611 C 198.219 247.605,193.629 251.917,188.154 257.193 C 178.233 266.755,176.851 267.847,174.116 268.291 L 172.672 268.525 172.908 265.563 C 173.038 263.933,173.643 255.353,174.252 246.496 L 175.360 230.392 209.180 199.842 C 227.781 183.039,243.495 168.829,244.100 168.265 C 245.800 166.678,245.587 165.600,243.574 165.600 C 241.480 165.600,246.152 162.781,198.600 192.732 C 175.720 207.143,156.447 219.263,155.772 219.665 L 154.543 220.395 135.988 214.579 C 112.803 207.312,112.000 206.944,112.000 203.570 C 112.000 199.643,108.563 201.134,189.400 169.980 C 273.109 137.719,265.916 140.306,268.926 141.380 " stroke="none" fill="#fbfbfc" fill-rule="evenodd"></path><path id="path1" d="M182.200 0.609 C 67.494 9.616,-16.111 116.843,2.417 231.187 C 19.800 338.462,121.566 412.133,230.000 395.940 C 343.404 379.006,419.231 270.396,395.981 158.200 C 375.517 59.451,284.770 -7.445,182.200 0.609 M218.600 52.578 C 273.912 60.182,318.878 95.249,338.905 146.400 C 350.221 175.302,352.010 209.417,343.776 239.296 C 322.881 315.121,247.784 361.370,170.600 345.946 C 111.096 334.056,63.965 285.735,53.803 226.200 C 51.933 215.241,51.799 213.474,51.821 200.000 C 51.950 121.742,110.674 58.409,189.200 51.841 C 193.913 51.447,214.042 51.951,218.600 52.578 M264.200 141.566 C 263.287 141.815,130.622 192.849,119.600 197.191 C 111.559 200.358,109.986 205.609,116.344 208.061 C 117.984 208.693,154.117 220.000,154.498 220.000 C 154.684 220.000,173.953 207.965,197.318 193.256 C 220.683 178.547,240.396 166.207,241.125 165.833 C 243.796 164.464,246.631 165.785,244.983 167.630 C 244.552 168.113,228.765 182.454,209.900 199.499 C 191.035 216.545,175.599 230.696,175.598 230.946 C 175.598 231.196,175.058 238.960,174.400 248.200 C 172.912 269.088,172.922 268.000,174.216 268.000 C 176.598 268.000,177.344 267.361,196.047 249.300 L 198.294 247.130 216.847 260.840 C 235.564 274.671,238.240 276.371,241.320 276.391 C 243.988 276.407,246.501 274.447,247.802 271.334 C 248.625 269.364,273.187 153.348,273.420 150.326 C 273.905 144.057,269.701 140.063,264.200 141.566 " stroke="none" fill="#049ce4" fill-rule="evenodd"></path><path id="path2" d="" stroke="none" fill="#5dbeee" fill-rule="evenodd"></path><path id="path3" d="M193.907 51.890 C 194.626 51.979,195.706 51.977,196.307 51.886 C 196.908 51.795,196.320 51.722,195.000 51.724 C 193.680 51.726,193.188 51.801,193.907 51.890 M204.307 51.890 C 205.026 51.979,206.106 51.977,206.707 51.886 C 207.308 51.795,206.720 51.722,205.400 51.724 C 204.080 51.726,203.588 51.801,204.307 51.890 M301.200 91.400 C 301.946 92.170,302.647 92.800,302.757 92.800 C 302.867 92.800,302.346 92.170,301.600 91.400 C 300.854 90.630,300.153 90.000,300.043 90.000 C 299.933 90.000,300.454 90.630,301.200 91.400 M96.778 93.500 L 95.400 95.000 96.900 93.622 C 98.296 92.338,98.584 92.000,98.278 92.000 C 98.212 92.000,97.537 92.675,96.778 93.500 M92.975 97.300 L 91.800 98.600 93.100 97.425 C 94.312 96.330,94.584 96.000,94.275 96.000 C 94.206 96.000,93.621 96.585,92.975 97.300 M308.000 98.125 C 308.000 98.194,308.585 98.779,309.300 99.425 L 310.600 100.600 309.425 99.300 C 308.330 98.088,308.000 97.816,308.000 98.125 M348.493 192.000 C 348.493 192.770,348.575 193.085,348.676 192.700 C 348.776 192.315,348.776 191.685,348.676 191.300 C 348.575 190.915,348.493 191.230,348.493 192.000 M51.724 195.000 C 51.726 196.320,51.801 196.812,51.890 196.093 C 51.979 195.374,51.977 194.294,51.886 193.693 C 51.795 193.092,51.722 193.680,51.724 195.000 M51.724 205.800 C 51.726 207.120,51.801 207.612,51.890 206.893 C 51.979 206.174,51.977 205.094,51.886 204.493 C 51.795 203.892,51.722 204.480,51.724 205.800 M348.493 208.400 C 348.493 209.170,348.575 209.485,348.676 209.100 C 348.776 208.715,348.776 208.085,348.676 207.700 C 348.575 207.315,348.493 207.630,348.493 208.400 M196.778 248.700 L 195.400 250.200 196.900 248.822 C 198.296 247.538,198.584 247.200,198.278 247.200 C 198.212 247.200,197.537 247.875,196.778 248.700 M185.785 259.300 L 183.800 261.400 185.900 259.415 C 187.055 258.323,188.000 257.378,188.000 257.315 C 188.000 257.017,187.629 257.349,185.785 259.300 M240.705 276.683 C 241.202 276.779,241.922 276.775,242.305 276.675 C 242.687 276.575,242.280 276.496,241.400 276.501 C 240.520 276.505,240.207 276.587,240.705 276.683 M91.200 301.400 C 91.946 302.170,92.647 302.800,92.757 302.800 C 92.867 302.800,92.346 302.170,91.600 301.400 C 90.854 300.630,90.153 300.000,90.043 300.000 C 89.933 300.000,90.454 300.630,91.200 301.400 M98.800 309.000 C 99.546 309.770,100.247 310.400,100.357 310.400 C 100.467 310.400,99.946 309.770,99.200 309.000 C 98.454 308.230,97.753 307.600,97.643 307.600 C 97.533 307.600,98.054 308.230,98.800 309.000 M190.705 348.683 C 191.202 348.779,191.922 348.775,192.305 348.675 C 192.687 348.575,192.280 348.496,191.400 348.501 C 190.520 348.505,190.207 348.587,190.705 348.683 M208.305 348.683 C 208.802 348.779,209.522 348.775,209.905 348.675 C 210.287 348.575,209.880 348.496,209.000 348.501 C 208.120 348.505,207.807 348.587,208.305 348.683 " stroke="none" fill="#9cd8f4" fill-rule="evenodd"></path><path id="path4" d="M305.200 95.000 C 305.946 95.770,306.647 96.400,306.757 96.400 C 306.867 96.400,306.346 95.770,305.600 95.000 C 304.854 94.230,304.153 93.600,304.043 93.600 C 303.933 93.600,304.454 94.230,305.200 95.000 M191.381 253.700 L 189.800 255.400 191.500 253.819 C 192.435 252.949,193.200 252.184,193.200 252.119 C 193.200 251.816,192.852 252.119,191.381 253.700 M180.175 264.500 L 179.000 265.800 180.300 264.625 C 181.512 263.530,181.784 263.200,181.475 263.200 C 181.406 263.200,180.821 263.785,180.175 264.500 M307.178 303.500 L 305.800 305.000 307.300 303.622 C 308.696 302.338,308.984 302.000,308.678 302.000 C 308.612 302.000,307.937 302.675,307.178 303.500 M95.000 305.600 C 95.859 306.480,96.652 307.200,96.762 307.200 C 96.872 307.200,96.259 306.480,95.400 305.600 C 94.541 304.720,93.748 304.000,93.638 304.000 C 93.528 304.000,94.141 304.720,95.000 305.600 M302.778 307.900 L 301.400 309.400 302.900 308.022 C 304.296 306.738,304.584 306.400,304.278 306.400 C 304.212 306.400,303.537 307.075,302.778 307.900 " stroke="none" fill="#3bb4ec" fill-rule="evenodd"></path></g></svg>