<svg id="svg" version="1.1" xmlns="http://www.w3.org/2000/svg" xmlns:xlink="http://www.w3.org/1999/xlink" width="400" height="400" viewBox="0, 0, 400,400"><g id="svgg"><path id="path0" d="M211.003 82.500 C 210.887 82.995,210.742 122.280,210.681 169.800 C 210.576 251.378,210.530 256.367,209.850 259.200 C 204.957 279.604,183.313 290.305,162.903 282.412 C 157.129 280.180,150.341 274.708,148.536 270.832 C 148.099 269.895,147.437 269.158,146.908 269.020 C 142.451 267.863,135.779 257.312,134.162 248.865 C 129.480 224.410,146.373 205.937,172.500 206.941 L 178.400 207.168 178.400 189.584 L 178.400 172.000 173.300 172.007 C 131.538 172.067,98.451 209.144,100.130 254.000 C 101.495 290.485,120.946 311.641,158.202 317.162 C 196.119 322.781,229.566 299.683,239.446 261.057 C 242.271 250.011,242.120 253.172,242.274 201.800 C 242.350 176.280,242.497 155.169,242.599 154.886 C 242.722 154.547,243.842 155.176,245.893 156.735 C 256.135 164.525,269.091 169.896,285.000 172.949 C 291.318 174.161,299.924 175.036,300.442 174.518 C 300.656 174.304,300.766 167.532,300.705 158.220 L 300.600 142.289 295.865 140.944 C 281.596 136.890,273.606 131.140,257.864 113.600 C 251.743 106.780,246.507 95.805,244.171 84.900 L 243.464 81.600 227.340 81.600 L 211.215 81.600 211.003 82.500 " stroke="none" fill="#fafafb" fill-rule="evenodd"></path><path id="path1" d="M244.003 82.900 C 244.024 90.647,252.150 107.502,259.688 115.437 C 263.459 119.407,263.619 119.193,260.838 113.900 C 256.483 105.611,254.154 97.925,252.901 87.700 L 252.202 82.000 248.101 82.000 C 244.114 82.000,244.000 82.025,244.003 82.900 M301.067 142.667 C 300.920 142.813,300.800 150.019,300.800 158.679 C 300.800 172.988,300.739 174.448,300.135 174.680 C 299.023 175.107,289.747 174.059,283.600 172.812 C 268.100 169.668,253.928 163.595,245.144 156.334 C 244.124 155.490,243.190 154.800,243.069 154.800 C 242.948 154.800,242.776 175.185,242.687 200.100 C 242.548 238.998,242.434 245.994,241.886 249.600 C 234.315 299.371,198.222 325.262,149.607 315.795 C 142.421 314.395,130.564 309.206,123.000 304.150 C 118.106 300.878,118.121 300.885,119.083 302.228 C 126.437 312.490,147.108 324.091,162.800 326.761 C 208.628 334.559,243.431 309.165,251.284 262.200 C 252.135 257.114,252.157 256.003,252.297 211.480 C 252.460 159.965,252.078 164.412,256.069 167.490 C 268.161 176.815,290.450 184.467,306.800 184.908 L 310.200 185.000 310.304 164.300 C 310.386 147.874,310.303 143.600,309.904 143.598 C 309.627 143.596,307.616 143.326,305.435 142.998 C 300.771 142.295,301.392 142.342,301.067 142.667 M178.794 189.441 C 178.791 198.878,178.656 206.806,178.494 207.058 C 178.277 207.396,177.156 207.409,174.200 207.109 C 156.706 205.331,141.824 213.487,136.080 228.000 C 130.538 242.006,135.015 261.032,145.465 267.879 C 146.856 268.791,146.852 268.606,145.387 264.200 C 136.978 238.902,153.365 217.335,180.900 217.461 L 188.400 217.496 188.400 195.597 C 188.400 170.292,189.012 172.942,183.080 172.559 L 178.800 172.282 178.794 189.441 " stroke="none" fill="#ee094c" fill-rule="evenodd"></path><path id="path2" d="M201.404 72.500 C 201.287 72.995,201.137 112.100,201.070 159.400 C 200.950 243.922,200.934 245.465,200.140 249.200 C 199.186 253.682,197.738 256.722,195.375 259.200 C 194.431 260.190,192.610 262.146,191.329 263.547 C 184.358 271.170,172.785 275.466,163.400 273.914 C 162.520 273.769,160.577 273.471,159.083 273.253 C 157.414 273.009,154.799 272.153,152.308 271.036 C 147.782 269.006,147.501 269.010,148.618 271.087 C 150.751 275.054,157.298 280.245,162.903 282.412 C 183.313 290.305,204.957 279.604,209.850 259.200 C 210.530 256.367,210.576 251.378,210.681 169.800 C 210.742 122.280,210.887 82.995,211.003 82.500 L 211.215 81.600 227.450 81.600 C 242.299 81.600,243.664 81.544,243.435 80.947 C 243.297 80.589,242.987 78.564,242.745 76.447 C 242.503 74.331,242.242 72.375,242.165 72.100 C 242.055 71.708,237.643 71.600,221.820 71.600 L 201.615 71.600 201.404 72.500 M267.084 123.000 C 275.740 132.877,283.421 137.544,297.300 141.362 L 300.800 142.324 300.800 137.976 C 300.800 133.115,300.622 132.800,297.866 132.800 C 288.994 132.800,272.246 126.693,265.615 121.040 C 265.073 120.578,265.734 121.460,267.084 123.000 M159.400 161.861 C 123.894 164.669,98.324 189.368,91.346 227.600 C 90.474 232.382,90.323 248.277,91.109 252.600 C 94.251 269.869,101.116 284.088,110.910 293.612 C 114.181 296.793,114.337 296.626,111.730 292.731 C 97.608 271.632,96.217 239.927,108.308 214.705 C 121.029 188.170,143.516 173.109,172.000 172.046 L 178.600 171.800 178.464 167.600 C 178.383 165.125,178.137 163.212,177.864 162.941 C 176.994 162.081,165.283 161.396,159.400 161.861 " stroke="none" fill="#08eee7" fill-rule="evenodd"></path><path id="path3" d="M182.200 1.009 C 74.386 9.475,-8.219 106.372,0.374 214.296 C 10.298 338.933,129.534 423.445,251.084 391.993 C 325.854 372.646,383.450 310.737,396.952 235.200 C 420.231 104.972,315.312 -9.443,182.200 1.009 M242.971 71.029 C 243.402 71.460,243.605 72.434,243.617 74.129 C 243.661 80.312,244.047 80.785,249.051 80.794 C 253.646 80.802,253.647 80.803,254.053 86.425 C 254.872 97.748,258.324 108.165,264.461 117.832 C 266.002 120.259,267.497 121.419,273.621 124.937 C 279.072 128.069,290.212 131.136,298.567 131.806 C 301.489 132.040,301.800 132.542,301.800 137.029 C 301.800 141.517,301.621 141.325,306.448 141.985 C 311.684 142.700,311.200 140.430,311.200 164.255 C 311.200 188.611,311.618 186.588,306.660 186.241 C 288.776 184.990,268.035 177.961,256.400 169.208 L 254.200 167.553 253.872 171.077 C 253.691 173.015,253.410 193.770,253.246 217.200 C 252.905 266.102,253.030 264.431,248.737 277.600 C 242.835 295.703,225.451 317.923,217.136 317.991 C 216.421 317.997,215.730 318.427,215.033 319.300 C 213.134 321.680,212.783 321.900,207.568 323.983 C 196.411 328.438,182.368 330.065,167.600 328.613 C 154.343 327.309,138.887 320.909,128.200 312.297 C 126.880 311.234,124.697 309.473,123.349 308.384 C 122.001 307.295,120.399 305.728,119.789 304.902 C 119.180 304.076,117.917 302.590,116.983 301.600 C 116.049 300.610,115.163 299.393,115.014 298.896 C 114.865 298.398,114.238 297.730,113.620 297.410 C 107.406 294.197,95.522 275.390,92.635 264.200 C 89.909 253.638,89.403 250.022,89.413 241.200 C 89.469 195.885,121.704 160.977,163.800 160.647 C 178.531 160.532,179.600 160.960,179.600 166.974 C 179.600 171.369,179.064 170.908,184.949 171.579 C 186.901 171.801,188.746 172.189,189.049 172.440 C 189.835 173.093,189.873 217.676,189.088 218.327 C 188.765 218.595,185.773 218.748,180.988 218.740 C 167.937 218.720,160.662 221.315,153.608 228.508 C 144.979 237.306,142.324 250.403,146.446 263.827 L 147.705 267.929 151.652 269.785 C 153.824 270.807,156.545 271.808,157.700 272.011 C 158.855 272.213,161.362 272.654,163.272 272.990 C 174.052 274.885,185.319 270.153,192.891 260.550 C 194.170 258.927,195.390 257.600,195.603 257.600 C 196.411 257.600,198.384 252.784,199.065 249.148 C 199.716 245.671,199.782 239.114,199.983 158.468 C 200.196 73.006,200.213 71.526,200.976 70.968 C 202.205 70.070,242.070 70.127,242.971 71.029 " stroke="none" fill="#040404" fill-rule="evenodd"></path><path id="path4" d="M200.976 70.968 C 200.213 71.526,200.196 73.006,199.983 158.468 C 199.782 239.114,199.716 245.671,199.065 249.148 C 198.384 252.784,196.411 257.600,195.603 257.600 C 195.390 257.600,194.170 258.927,192.891 260.550 C 185.319 270.153,174.052 274.885,163.272 272.990 C 161.362 272.654,158.855 272.213,157.700 272.011 C 156.545 271.808,153.824 270.807,151.652 269.785 L 147.705 267.929 146.446 263.827 C 142.324 250.403,144.979 237.306,153.608 228.508 C 160.662 221.315,167.937 218.720,180.988 218.740 C 185.773 218.748,188.765 218.595,189.088 218.327 C 189.873 217.676,189.835 173.093,189.049 172.440 C 188.746 172.189,186.901 171.801,184.949 171.579 C 179.064 170.908,179.600 171.369,179.600 166.974 C 179.600 160.960,178.531 160.532,163.800 160.647 C 121.704 160.977,89.469 195.885,89.413 241.200 C 89.403 250.022,89.909 253.638,92.635 264.200 C 95.522 275.390,107.406 294.197,113.620 297.410 C 114.238 297.730,114.865 298.398,115.014 298.896 C 115.163 299.393,116.049 300.610,116.983 301.600 C 117.917 302.590,119.180 304.076,119.789 304.902 C 120.399 305.728,122.001 307.295,123.349 308.384 C 124.697 309.473,126.880 311.234,128.200 312.297 C 150.482 330.251,185.757 334.517,211.400 322.360 C 212.913 321.643,214.039 320.797,214.446 320.073 L 215.092 318.923 212.986 320.192 C 196.324 330.225,167.573 330.888,146.400 321.727 C 135.733 317.111,123.481 308.366,119.083 302.228 C 118.127 300.894,118.123 300.892,122.800 304.009 C 126.130 306.228,128.594 307.665,127.800 306.925 C 127.580 306.720,125.541 305.325,123.268 303.825 C 117.354 299.920,109.800 293.007,106.126 288.137 C 97.995 277.358,93.813 267.463,91.109 252.600 C 90.323 248.277,90.474 232.382,91.346 227.600 C 99.174 184.715,131.120 158.598,171.603 161.989 C 175.244 162.294,177.604 162.670,177.949 163.000 C 178.399 163.432,178.504 167.375,178.536 185.063 C 178.573 205.596,178.580 205.800,178.692 189.441 L 178.809 172.283 183.085 172.559 C 189.011 172.942,188.400 170.292,188.400 195.597 L 188.400 217.496 180.900 217.461 C 151.773 217.328,135.759 240.962,146.681 267.964 C 146.848 268.375,146.706 268.456,146.155 268.263 C 145.439 268.012,145.440 268.029,146.176 268.599 C 146.604 268.930,147.231 269.200,147.570 269.200 C 147.910 269.200,150.043 270.028,152.310 271.040 C 165.921 277.115,181.691 274.086,191.329 263.547 C 192.610 262.146,194.431 260.190,195.375 259.200 C 197.738 256.722,199.186 253.682,200.140 249.200 C 200.934 245.465,200.950 243.922,201.070 159.400 C 201.137 112.100,201.288 72.993,201.405 72.496 L 201.617 71.593 221.909 71.696 L 242.200 71.800 242.298 73.000 C 242.526 75.788,243.787 83.342,243.917 82.700 C 244.041 82.088,244.573 82.000,248.130 82.000 L 252.202 82.000 252.901 87.700 C 254.152 97.907,256.484 105.612,260.815 113.855 C 262.102 116.306,263.068 118.398,262.962 118.505 C 262.366 119.100,269.169 123.824,274.294 126.374 C 280.823 129.622,292.481 132.800,297.866 132.800 C 300.646 132.800,300.800 133.085,300.800 138.238 C 300.800 140.834,300.956 142.751,301.157 142.627 C 301.353 142.506,303.288 142.674,305.457 143.001 C 307.625 143.328,309.627 143.596,309.904 143.598 C 310.303 143.600,310.386 147.874,310.304 164.300 L 310.200 185.000 306.800 184.908 C 290.450 184.467,268.161 176.815,256.069 167.490 C 252.078 164.412,252.460 159.965,252.297 211.480 C 252.140 261.331,252.195 260.124,249.632 270.600 C 244.952 289.733,232.040 308.979,218.644 316.790 C 216.341 318.134,217.152 318.459,219.800 317.254 C 229.591 312.798,243.457 293.797,248.737 277.600 C 253.030 264.431,252.905 266.102,253.246 217.200 C 253.410 193.770,253.691 173.015,253.872 171.077 L 254.200 167.553 256.400 169.208 C 268.035 177.961,288.776 184.990,306.660 186.241 C 311.618 186.588,311.200 188.611,311.200 164.255 C 311.200 140.430,311.684 142.700,306.448 141.985 C 301.621 141.325,301.800 141.517,301.800 137.029 C 301.800 132.542,301.489 132.040,298.567 131.806 C 290.212 131.136,279.072 128.069,273.621 124.937 C 267.497 121.419,266.002 120.259,264.461 117.832 C 258.324 108.165,254.872 97.748,254.053 86.425 C 253.647 80.803,253.646 80.802,249.051 80.794 C 244.047 80.785,243.661 80.312,243.617 74.129 C 243.589 70.098,245.337 70.400,222.048 70.400 C 205.152 70.400,201.623 70.495,200.976 70.968 M259.600 115.725 C 259.600 115.794,260.185 116.379,260.900 117.025 L 262.200 118.200 261.025 116.900 C 259.930 115.688,259.600 115.416,259.600 115.725 M242.584 154.900 C 242.480 155.175,242.440 174.390,242.497 197.600 L 242.600 239.800 242.800 197.100 C 242.910 173.615,242.949 154.400,242.887 154.400 C 242.826 154.400,242.689 154.625,242.584 154.900 M142.981 216.900 L 141.400 218.600 143.100 217.019 C 144.681 215.548,144.984 215.200,144.681 215.200 C 144.616 215.200,143.851 215.965,142.981 216.900 " stroke="none" fill="#5f454e" fill-rule="evenodd"></path></g></svg>