<svg id="svg" version="1.1" xmlns="http://www.w3.org/2000/svg" xmlns:xlink="http://www.w3.org/1999/xlink" width="400" height="400" viewBox="0, 0, 400,400"><g id="svgg"><path id="path0" d="M179.000 106.236 C 176.580 106.307,166.860 106.561,157.400 106.801 C 98.476 108.293,86.869 110.828,76.821 124.400 C 69.151 134.760,65.457 163.169,66.133 206.600 C 67.156 272.281,73.764 285.891,106.619 289.980 C 152.125 295.644,280.564 294.458,305.000 288.149 C 315.568 285.420,324.538 276.911,327.926 266.400 C 335.072 244.234,335.997 171.363,329.533 139.800 C 326.061 122.843,316.318 113.535,299.000 110.629 C 281.671 107.721,213.413 105.222,179.000 106.236 M210.103 180.800 C 228.270 191.250,243.014 199.915,242.867 200.055 C 242.496 200.409,173.644 240.000,173.399 240.000 C 173.289 240.000,173.200 221.906,173.200 199.792 L 173.200 159.584 175.136 160.692 C 176.201 161.301,191.937 170.350,210.103 180.800 " stroke="none" fill="#fcfbfb" fill-rule="evenodd"></path><path id="path1" d="M182.200 0.609 C 117.860 5.661,57.944 44.016,25.686 100.800 C -3.084 151.445,-8.083 213.669,12.232 268.261 C 49.710 368.970,160.949 421.881,263.684 387.861 C 357.366 356.840,413.943 262.225,397.189 164.600 C 379.726 62.850,287.310 -7.644,182.200 0.609 M251.800 106.774 C 306.141 109.132,315.176 111.558,324.746 126.366 C 334.406 141.311,337.531 213.614,330.365 256.367 C 327.488 273.534,320.223 283.308,307.021 287.775 C 281.368 296.453,113.462 295.811,91.313 286.951 C 71.504 279.026,65.925 259.964,65.861 200.000 C 65.818 159.456,69.111 135.404,76.130 125.000 C 85.908 110.505,98.378 107.914,166.400 106.242 C 177.285 105.975,242.774 106.383,251.800 106.774 M173.600 199.821 C 173.600 221.699,173.667 239.600,173.750 239.600 C 173.959 239.600,242.136 200.369,242.474 200.055 C 242.625 199.915,232.727 194.040,220.478 187.000 C 208.230 179.960,192.672 171.014,185.904 167.121 L 173.600 160.042 173.600 199.821 " stroke="none" fill="#fc0404" fill-rule="evenodd"></path><path id="path2" d="M172.105 106.287 C 172.714 106.379,173.614 106.377,174.105 106.282 C 174.597 106.187,174.100 106.111,173.000 106.114 C 171.900 106.117,171.497 106.195,172.105 106.287 M226.105 106.287 C 226.714 106.379,227.614 106.377,228.105 106.282 C 228.597 106.187,228.100 106.111,227.000 106.114 C 225.900 106.117,225.497 106.195,226.105 106.287 M155.107 106.690 C 155.826 106.779,156.906 106.777,157.507 106.686 C 158.108 106.595,157.520 106.522,156.200 106.524 C 154.880 106.526,154.388 106.601,155.107 106.690 M242.505 106.687 C 243.114 106.779,244.014 106.777,244.505 106.682 C 244.997 106.587,244.500 106.511,243.400 106.514 C 242.300 106.517,241.897 106.595,242.505 106.687 M319.600 120.200 C 320.346 120.970,321.047 121.600,321.157 121.600 C 321.267 121.600,320.746 120.970,320.000 120.200 C 319.254 119.430,318.553 118.800,318.443 118.800 C 318.333 118.800,318.854 119.430,319.600 120.200 M173.392 200.000 C 173.392 222.110,173.441 231.155,173.500 220.100 C 173.559 209.045,173.559 190.955,173.500 179.900 C 173.441 168.845,173.392 177.890,173.392 200.000 M333.701 181.000 C 333.705 181.880,333.787 182.193,333.883 181.695 C 333.979 181.198,333.975 180.478,333.875 180.095 C 333.775 179.713,333.696 180.120,333.701 181.000 M65.724 193.000 C 65.726 194.320,65.801 194.812,65.890 194.093 C 65.979 193.374,65.977 192.294,65.886 191.693 C 65.795 191.092,65.722 191.680,65.724 193.000 M65.744 203.600 C 65.744 205.690,65.812 206.545,65.894 205.500 C 65.976 204.455,65.976 202.745,65.894 201.700 C 65.812 200.655,65.744 201.510,65.744 203.600 M334.131 202.600 C 334.133 204.140,334.205 204.721,334.292 203.891 C 334.379 203.061,334.377 201.801,334.289 201.091 C 334.200 200.381,334.129 201.060,334.131 202.600 M333.693 217.600 C 333.693 218.370,333.775 218.685,333.876 218.300 C 333.976 217.915,333.976 217.285,333.876 216.900 C 333.775 216.515,333.693 216.830,333.693 217.600 M66.093 219.600 C 66.093 220.370,66.175 220.685,66.276 220.300 C 66.376 219.915,66.376 219.285,66.276 218.900 C 66.175 218.515,66.093 218.830,66.093 219.600 M148.500 293.076 C 148.885 293.176,149.515 293.176,149.900 293.076 C 150.285 292.975,149.970 292.893,149.200 292.893 C 148.430 292.893,148.115 292.975,148.500 293.076 M250.100 293.076 C 250.485 293.176,251.115 293.176,251.500 293.076 C 251.885 292.975,251.570 292.893,250.800 292.893 C 250.030 292.893,249.715 292.975,250.100 293.076 M160.105 293.487 C 160.714 293.579,161.614 293.577,162.105 293.482 C 162.597 293.387,162.100 293.311,161.000 293.314 C 159.900 293.317,159.497 293.395,160.105 293.487 M238.105 293.487 C 238.714 293.579,239.614 293.577,240.105 293.482 C 240.597 293.387,240.100 293.311,239.000 293.314 C 237.900 293.317,237.497 293.395,238.105 293.487 M183.100 293.882 C 183.595 293.978,184.405 293.978,184.900 293.882 C 185.395 293.787,184.990 293.709,184.000 293.709 C 183.010 293.709,182.605 293.787,183.100 293.882 M213.900 293.896 C 215.275 293.974,217.525 293.974,218.900 293.896 C 220.275 293.818,219.150 293.754,216.400 293.754 C 213.650 293.754,212.525 293.818,213.900 293.896 " stroke="none" fill="#fc5959" fill-rule="evenodd"></path><path id="path3" d="M177.700 106.294 C 178.745 106.376,180.455 106.376,181.500 106.294 C 182.545 106.212,181.690 106.144,179.600 106.144 C 177.510 106.144,176.655 106.212,177.700 106.294 M218.500 106.294 C 219.545 106.376,221.255 106.376,222.300 106.294 C 223.345 106.212,222.490 106.144,220.400 106.144 C 218.310 106.144,217.455 106.212,218.500 106.294 M160.707 106.690 C 161.426 106.779,162.506 106.777,163.107 106.686 C 163.708 106.595,163.120 106.522,161.800 106.524 C 160.480 106.526,159.988 106.601,160.707 106.690 M237.107 106.690 C 237.826 106.779,238.906 106.777,239.507 106.686 C 240.108 106.595,239.520 106.522,238.200 106.524 C 236.880 106.526,236.388 106.601,237.107 106.690 M146.900 107.076 C 147.285 107.176,147.915 107.176,148.300 107.076 C 148.685 106.975,148.370 106.893,147.600 106.893 C 146.830 106.893,146.515 106.975,146.900 107.076 M250.307 107.090 C 251.026 107.179,252.106 107.177,252.707 107.086 C 253.308 106.995,252.720 106.922,251.400 106.924 C 250.080 106.926,249.588 107.001,250.307 107.090 M66.101 183.400 C 66.105 184.280,66.187 184.593,66.283 184.095 C 66.379 183.598,66.375 182.878,66.275 182.495 C 66.175 182.113,66.096 182.520,66.101 183.400 M333.714 185.000 C 333.717 186.100,333.795 186.503,333.887 185.895 C 333.979 185.286,333.977 184.386,333.882 183.895 C 333.787 183.403,333.711 183.900,333.714 185.000 M333.709 214.000 C 333.709 214.990,333.787 215.395,333.882 214.900 C 333.978 214.405,333.978 213.595,333.882 213.100 C 333.787 212.605,333.709 213.010,333.709 214.000 M66.109 216.000 C 66.109 216.990,66.187 217.395,66.282 216.900 C 66.378 216.405,66.378 215.595,66.282 215.100 C 66.187 214.605,66.109 215.010,66.109 216.000 M142.500 292.676 C 142.885 292.776,143.515 292.776,143.900 292.676 C 144.285 292.575,143.970 292.493,143.200 292.493 C 142.430 292.493,142.115 292.575,142.500 292.676 M258.500 292.676 C 258.885 292.776,259.515 292.776,259.900 292.676 C 260.285 292.575,259.970 292.493,259.200 292.493 C 258.430 292.493,258.115 292.575,258.500 292.676 M152.100 293.087 C 152.705 293.178,153.695 293.178,154.300 293.087 C 154.905 292.995,154.410 292.920,153.200 292.920 C 151.990 292.920,151.495 292.995,152.100 293.087 M245.700 293.087 C 246.305 293.178,247.295 293.178,247.900 293.087 C 248.505 292.995,248.010 292.920,246.800 292.920 C 245.590 292.920,245.095 292.995,245.700 293.087 M166.115 293.496 C 167.388 293.576,169.368 293.575,170.515 293.494 C 171.662 293.414,170.620 293.349,168.200 293.350 C 165.780 293.351,164.842 293.416,166.115 293.496 M232.707 293.490 C 233.426 293.579,234.506 293.577,235.107 293.486 C 235.708 293.395,235.120 293.322,233.800 293.324 C 232.480 293.326,231.988 293.401,232.707 293.490 M192.300 293.899 C 195.655 293.966,201.145 293.966,204.500 293.899 C 207.855 293.832,205.110 293.778,198.400 293.778 C 191.690 293.778,188.945 293.832,192.300 293.899 " stroke="none" fill="#fc8484" fill-rule="evenodd"></path><path id="path4" d="M65.693 196.400 C 65.693 197.170,65.775 197.485,65.876 197.100 C 65.976 196.715,65.976 196.085,65.876 195.700 C 65.775 195.315,65.693 195.630,65.693 196.400 " stroke="none" fill="#fc7c7c" fill-rule="evenodd"></path></g></svg>