<svg width="1093" height="811" viewBox="0 0 1093 811" fill="none" xmlns="http://www.w3.org/2000/svg">
<path opacity="0.47" d="M1269.11 757.486C1287.01 728.963 1291.51 693.567 1287.79 660.083C1284.07 626.81 1273.89 591.898 1259.68 561.63C1246.2 532.939 1226.68 507.359 1221.12 475.41C1213.77 433.203 1233.02 392.616 1237.47 351.208C1246.37 268.771 1190.72 196.15 1121.7 156.929C1065.64 125.064 999.916 113.125 935.468 113.966C877.465 114.722 819.546 125.043 763.348 138.894C709.187 152.242 656.222 169.834 599.436 164.285C552.203 159.661 509.671 140.029 465.691 125.379C360.706 90.4244 233.511 85.5059 137.49 138.726C75.8759 172.882 32.7357 228.352 13.6112 288.004C-0.390985 331.681 -4.54756 381.917 5.71792 426.12C17.264 475.788 38.5717 519.55 32.9456 571.887C28.3272 614.829 12.5616 656.699 13.9681 700.251C15.1647 737.686 29.1669 775.121 50.9364 805.409C52.3429 807.364 53.8334 809.298 55.5338 811H1207.89C1232.01 797.99 1254.54 780.712 1269.11 757.486Z" fill="#E0EEFF"/>
<path opacity="0.4" d="M1121.17 728.9C1125.24 697.077 1115.69 667.524 1116.95 636.605C1119.37 577.142 1173.93 536.092 1192.92 482.64C1217 414.959 1215.85 339.101 1186.61 273.164C1172.52 241.383 1151.93 211.831 1123.82 191.4C1080.51 159.913 1023.72 153.019 970.337 157.013C890.88 162.961 807.013 196.045 727.136 187.028C683.051 182.047 669.594 136.141 646.817 105.873C621.059 71.6333 586.001 44.7289 547.227 26.8206C475.789 -6.1793 390.075 -9.29012 317.083 20.62C239.158 52.548 171.225 130.508 175.697 218.683C177.754 259.481 194.737 299.985 186.886 340.068C177.019 390.367 137.616 436.209 109.066 477.175C77.5345 522.429 58.4521 576.406 54.6943 631.476C50.4538 693.903 65.9885 757.528 98.4433 811H1093.78C1108.22 785.819 1117.48 757.696 1121.17 728.9Z" fill="#D2E4FF"/>
</svg>
