<svg width="135" height="134" viewBox="0 0 135 134" fill="none" xmlns="http://www.w3.org/2000/svg">
<path fill-rule="evenodd" clip-rule="evenodd" d="M61.488 0.561261C44.7158 1.87811 28.3184 10.1474 17.0197 22.9865C-4.955 47.9572 -5.07182 85.5741 16.7469 110.618C34.5127 131.01 62.8548 138.717 88.7355 130.195C111.788 122.604 129.129 102.698 133.373 78.9534C141.166 35.3614 106.045 -2.9374 61.488 0.561261ZM69.7225 37.0331V43.9839L65.5383 44.0421C60.9575 44.1057 60.7643 44.1341 59.2995 44.9686C57.0083 46.2741 55.7975 48.6524 55.7975 51.8485V53.1118H74.3419H92.8863V71.6561V90.2005H97.5056H102.125V97.163V104.125H85.8568H69.5886V97.163V90.2005H74.3419H79.0951V78.6856V67.1707H67.4463H55.7975V78.6856V90.2005H60.4838H65.1701V97.163V104.125H48.902H32.6338V97.163V90.2005H37.2532H41.8725V78.6856V67.1707H37.2532H32.6338V60.1412V53.1118H37.2351H41.8364L41.9087 50.7351C42.1989 41.1724 47.7923 33.7229 56.8017 30.9C59.0003 30.2111 60.054 30.1094 65.1367 30.095L69.7225 30.0819V37.0331ZM87.9516 30.345C92.0718 31.6184 94.0906 36.471 92.0739 40.2546C88.6371 46.7029 78.973 44.3326 78.9629 37.0391C78.9562 32.2969 83.4467 28.9529 87.9516 30.345Z" fill="#1CBC74"/>
</svg>
