<svg width="135" height="134" viewBox="0 0 135 134" fill="none" xmlns="http://www.w3.org/2000/svg">
<path d="M134.382 66.9605C134.382 103.973 104.434 133.921 67.4212 133.921C30.4084 133.921 0.460693 103.973 0.460693 66.9605C0.460693 29.9477 30.4084 0 67.4212 0C96.6308 0 121.411 18.6646 130.586 44.7106C132.589 50.2995 133.749 56.2047 134.171 62.3207C134.382 63.9025 134.382 65.3788 134.382 66.9605Z" fill="#3FCE96"/>
<path d="M79.9696 48.4012L78.9151 74.9745H55.9271L54.8726 48.4012L67.4211 42.2852L79.9696 48.4012Z" fill="#E6E9EE"/>
<path d="M67.4212 53.5683C71.8473 53.5683 75.4353 49.9331 75.4353 45.4487C75.4353 40.9644 71.8473 37.3291 67.4212 37.3291C62.995 37.3291 59.407 40.9644 59.407 45.4487C59.407 49.9331 62.995 53.5683 67.4212 53.5683Z" fill="#F9B54C"/>
<path d="M70.7954 53.5684H64.0466L65.312 57.47H69.53L70.7954 53.5684Z" fill="#F1543F"/>
<path d="M71.9554 74.9744H62.8867L65.3121 57.4697H69.53L71.9554 74.9744Z" fill="#FF7058"/>
<path d="M88.3004 67.4875L88.5113 70.9673C88.5113 71.7055 89.2494 72.3382 89.9876 72.3382C89.9876 72.3382 89.9876 72.3382 90.093 72.3382C90.1985 73.2872 90.4094 74.1308 90.5148 74.9744H72.5884C74.2756 69.5965 75.3301 64.6403 75.9628 60.3169C76.0682 60.5278 78.2827 52.0918 77.0173 46.9248L92.6238 54.5172L92.7293 55.2553C91.253 56.4153 90.3039 57.997 90.093 60.106C89.8821 62.215 89.7767 64.2185 89.7767 66.0112H89.6712C88.8276 66.0112 88.1949 66.6439 88.3004 67.4875Z" fill="#2B3B4E"/>
<path d="M46.5422 67.4885C46.5422 66.6449 45.9095 66.1176 45.1713 66.1176H45.0659C45.0659 64.325 44.9604 62.3214 44.7495 60.2124C44.5386 58.1034 43.4841 56.5217 42.1133 55.3618L42.2187 54.6236L57.8253 46.9258C56.6653 51.8819 58.7743 60.0015 58.8798 60.2124C59.5125 64.5359 60.567 69.492 62.2542 74.8699H44.3277C44.5386 74.0263 44.6441 73.1827 44.7495 72.2337C44.7495 72.2337 44.7495 72.2337 44.855 72.2337C45.5931 72.2337 46.3313 71.601 46.3313 70.8628L46.5422 67.4885Z" fill="#2B3B4E"/>
<path d="M75.2247 43.7612C75.2247 43.7612 76.2792 49.3501 67.4214 53.568C67.4214 53.568 73.9593 54.0953 75.9628 60.2114C75.9628 60.5277 79.5481 47.0302 75.2247 43.7612Z" fill="white"/>
<path d="M59.6181 43.7612C59.6181 43.7612 58.5636 49.3501 67.4214 53.568C67.4214 53.568 60.8835 54.0953 58.88 60.2114C58.88 60.5277 55.2947 47.0302 59.6181 43.7612Z" fill="white"/>
<path d="M80.497 28.7874C80.497 37.3288 74.6972 47.8738 67.4212 47.8738C60.2506 47.8738 54.3455 37.3288 54.3455 28.7874C54.3455 20.246 60.1452 16.8716 67.4212 16.8716C74.5918 16.8716 80.497 20.246 80.497 28.7874Z" fill="#FFD05B"/>
<path d="M62.8867 15.0794C62.8867 15.0794 73.4317 10.8615 78.8096 20.4574C84.6093 30.686 77.3333 41.7582 75.857 42.7073C75.857 42.7073 76.2788 40.9146 77.3333 37.5402C77.3333 37.5402 79.8641 29.9478 72.1663 28.7879C72.1663 28.7879 64.6793 27.7334 64.0466 26.1517C64.0466 26.1517 64.5739 28.8933 67.9483 29.4206C67.9483 29.4206 60.2505 29.2097 57.8251 26.468C57.8251 26.468 54.5562 37.3293 59.3014 43.2345C59.3014 43.2345 50.9709 36.5912 52.0254 26.2571C52.1308 26.3626 51.709 12.2323 62.8867 15.0794Z" fill="#324A5E"/>
<path d="M0.987793 74.9746C4.88943 108.191 33.1499 133.921 67.4211 133.921C101.692 133.921 129.953 108.191 133.854 74.9746H0.987793Z" fill="#219A74"/>
<path d="M44.855 72.2328C44.1168 72.2328 43.4841 71.6001 43.4841 70.8619L43.695 67.3821C43.695 66.6439 44.4332 66.0112 45.2768 66.0112C46.1204 66.0112 46.6476 66.6439 46.6476 67.3821L46.3313 70.8619C46.3313 71.7055 45.5931 72.2328 44.855 72.2328Z" fill="#FFD05B"/>
<path d="M19.4416 72.2332C18.598 72.2332 17.9653 71.6005 17.8598 70.8624L17.6489 67.3826C17.6489 66.6444 18.1762 66.0117 19.0198 66.0117H19.1252C19.1252 68.3316 19.2307 70.4406 19.4416 72.2332Z" fill="#FFD05B"/>
<path d="M40.9536 89.9486C41.1645 89.2105 41.2699 88.4723 41.2699 87.6287C41.2699 82.5671 37.1574 78.4546 32.2012 78.4546C27.1397 78.4546 23.1326 82.5671 23.1326 87.6287C23.1326 88.4723 23.238 89.2105 23.4489 89.9486H40.9536Z" fill="#FFD05B"/>
<path d="M44.7492 60.106C44.1165 53.779 36.2078 52.0918 32.2007 52.0918C32.2007 52.0918 32.2007 52.0918 32.0952 52.0918C32.0952 52.0918 32.0952 52.0918 31.9898 52.0918C27.9827 52.0918 20.1794 53.779 19.4413 60.106C18.3868 69.9128 19.6522 76.3452 21.7612 80.5632C23.0266 83.094 25.6628 84.7812 28.6154 84.7812H35.4696C38.3168 84.7812 40.953 83.1994 42.3239 80.5632C44.5383 76.3452 45.8037 69.9128 44.7492 60.106Z" fill="#324A5E"/>
<path d="M22.394 104.079C22.4995 103.973 22.6049 103.868 22.7104 103.762C22.6049 103.973 22.6049 104.184 22.4995 104.289C22.4995 104.395 22.4995 104.289 22.394 104.079Z" fill="#324A5E"/>
<path d="M43.0625 89.3153C32.7284 95.3259 23.3434 90.5807 21.3398 89.3153C21.6562 87.7335 22.2889 86.4681 23.3434 85.73C23.3434 85.73 31.6739 93.006 41.0589 85.73C42.008 86.4681 42.6407 87.7335 43.0625 89.3153Z" fill="white"/>
<path d="M41.5859 103.762C41.6914 103.868 41.7968 103.973 41.9023 104.079C41.9023 104.289 41.7968 104.395 41.7968 104.395C41.6914 104.184 41.6914 103.973 41.5859 103.762Z" fill="#324A5E"/>
<path d="M62.8869 104.395C61.516 100.177 58.5634 96.6974 54.5564 94.7993L43.0623 89.2104C32.7283 95.2211 23.3433 90.4758 21.3397 89.2104L9.74026 94.7993C8.89667 95.2211 8.05307 95.7483 7.20947 96.381C17.7544 117.998 39.7934 133.183 65.3122 133.921V120.213C65.3122 114.729 64.4686 109.457 62.8869 104.395Z" fill="#E6E9EE"/>
<path d="M48.3348 101.126H15.8563C13.9582 101.126 12.271 101.759 10.9001 102.919C20.9179 118.525 37.1571 129.808 56.138 132.972V109.035C56.2435 104.711 52.6582 101.126 48.3348 101.126Z" fill="#324A5E"/>
<path d="M115.401 72.2328C114.663 72.2328 114.03 71.6001 114.03 70.8619L114.241 67.3821C114.241 66.6439 114.979 66.0112 115.823 66.0112C116.666 66.0112 117.194 66.6439 117.194 67.3821L116.983 70.8619C116.877 71.7055 116.244 72.2328 115.401 72.2328Z" fill="#FFD05B"/>
<path d="M90.0929 72.2332C89.9875 72.2332 89.9875 72.2332 90.0929 72.2332C89.2493 72.2332 88.6166 71.6005 88.5112 70.8624L88.3003 67.3826C88.3003 66.6444 88.8275 66.0117 89.6711 66.0117H89.7766C89.6711 68.3316 89.7766 70.4406 90.0929 72.2332Z" fill="#FFD05B"/>
<path d="M111.605 85.7305C111.605 85.7305 111.605 85.6251 111.605 85.7305C102.22 92.9011 93.7837 85.7305 93.7837 85.7305C93.9946 84.8869 94.3109 84.0433 94.7327 83.1997C95.9981 84.1488 97.5799 84.676 99.2671 84.676H106.121C107.808 84.676 109.39 84.1488 110.656 83.1997C111.183 83.9379 111.394 84.7815 111.605 85.7305Z" fill="#FFD05B"/>
<path d="M115.295 60.106C114.663 53.779 106.754 52.0918 102.747 52.0918C102.747 52.0918 102.747 52.0918 102.641 52.0918C102.641 52.0918 102.641 52.0918 102.536 52.0918C98.5288 52.0918 90.7256 53.779 89.9874 60.106C88.9329 69.9128 90.1983 76.3452 92.3073 80.5632C93.5727 83.094 96.209 84.7812 99.1615 84.7812H106.016C108.863 84.7812 111.499 83.1994 112.87 80.5632C115.084 76.3452 116.35 69.9128 115.295 60.106Z" fill="#324A5E"/>
<path d="M96.8416 104.079C96.947 103.973 97.0524 103.868 97.1579 103.762C97.0524 103.973 97.0525 104.184 96.947 104.289C96.947 104.395 96.8416 104.289 96.8416 104.079Z" fill="#324A5E"/>
<path d="M113.608 89.3153C103.274 95.3259 93.889 90.5807 91.8855 89.3153C92.2018 87.7335 92.8345 86.4681 93.889 85.73C93.889 85.73 102.22 93.006 111.605 85.73C112.554 86.4681 113.186 87.7335 113.608 89.3153Z" fill="white"/>
<path d="M112.132 103.762C112.237 103.868 112.343 103.973 112.448 104.079C112.448 104.289 112.343 104.395 112.343 104.395C112.237 104.184 112.237 103.973 112.132 103.762Z" fill="#324A5E"/>
<path d="M127.633 96.2756C126.895 95.7483 126.051 95.2211 125.102 94.7993L113.608 89.2104C103.274 95.2211 93.8889 90.4758 91.8854 89.2104L80.3914 94.7993C76.3843 96.6974 73.4317 100.177 72.0608 104.395C70.3736 109.457 69.6355 114.835 69.6355 120.213V133.921C95.0489 133.078 116.982 117.998 127.633 96.2756Z" fill="#E6E9EE"/>
<path d="M86.5076 101.126C82.1842 101.126 78.5989 104.606 78.5989 109.035V132.972C97.5798 129.808 113.925 118.525 123.837 102.919C122.466 101.864 120.779 101.126 118.881 101.126H86.5076Z" fill="#324A5E"/>
</svg>
