<svg width="135" height="134" viewBox="0 0 135 134" fill="none" xmlns="http://www.w3.org/2000/svg">
<path fill-rule="evenodd" clip-rule="evenodd" d="M61.7133 0.196891C22.6477 3.30766 -5.49225 40.0917 1.54073 78.8531C8.1878 115.486 43.9932 139.699 80.7904 132.445C107.871 127.106 128.951 105.812 133.843 78.8531C140.574 41.7553 115.493 6.60013 78.1035 0.724868C73.6204 0.0202265 66.7214 -0.201779 61.7133 0.196891ZM82.2746 35.7924C94.5739 48.0934 104.637 58.2163 104.637 58.2882C104.637 58.3597 96.4718 66.5776 86.4927 76.55L68.349 94.682L76.6854 103.011C81.2707 107.592 85.0222 111.419 85.0222 111.515C85.0222 111.862 76.1209 120.634 75.7689 120.634C75.4256 120.634 30.7467 76.1507 30.7467 75.8088C30.7467 75.7198 38.9096 67.4871 48.8864 57.514L67.0257 39.3811L58.6936 31.0527C54.1107 26.4722 50.3612 22.6447 50.3612 22.5473C50.3612 22.2111 59.2605 13.4269 59.6011 13.4269C59.8359 13.4269 65.4122 18.9277 82.2746 35.7924ZM64.852 63.7923L51.4661 77.1882L52.8052 78.5914C55.4616 81.3754 56.5588 82.4804 56.6677 82.4804C56.7285 82.4804 58.1303 81.1074 59.7831 79.4294C63.9928 75.1552 72.9171 66.1527 78.6251 60.4222L83.4457 55.5824L80.8431 52.9771C79.4117 51.5444 78.2398 50.3772 78.2392 50.3843C78.2385 50.391 72.2141 56.4244 64.852 63.7923Z" fill="#1C4CCC"/>
</svg>
