<svg width="136" height="136" viewBox="0 0 136 136" fill="none" xmlns="http://www.w3.org/2000/svg">
<path d="M67.7648 135.514C105.186 135.514 135.522 105.178 135.522 67.757C135.522 30.3358 105.186 0 67.7648 0C30.3436 0 0.0078125 30.3358 0.0078125 67.757C0.0078125 105.178 30.3436 135.514 67.7648 135.514Z" fill="#14AB03"/>
<path d="M97.7991 82.45C93.2208 82.45 88.9356 80.5099 85.0366 77.3507L85.9857 72.8933L86.0275 72.7304C86.8744 67.9846 89.5544 60.0144 97.7991 60.0144C103.983 60.0144 109.012 65.0533 109.012 71.2416C108.994 77.4111 103.964 82.45 97.7991 82.45ZM97.7991 48.6383C87.2652 48.6383 79.0996 55.4919 75.7822 66.761C70.7107 59.1443 66.8768 50.0016 64.6295 42.3013H53.2953V71.8371C53.2953 77.6577 48.5541 82.4035 42.7382 82.4035C36.9221 82.4035 32.1857 77.6577 32.1857 71.8371V42.3013H20.8468V71.8371C20.805 83.9343 30.6409 93.8634 42.7196 93.8634C54.7982 93.8634 64.6341 83.9343 64.6341 71.8371V66.8818C66.8396 71.4835 69.5382 76.1269 72.8183 80.2586L65.8718 112.954H77.4804L82.5101 89.2385C86.921 92.0673 91.9925 93.84 97.8084 93.84C110.241 93.84 120.36 83.6412 120.36 71.195C120.351 58.7721 110.231 48.6383 97.7991 48.6383Z" fill="white"/>
</svg>
