<?xml version="1.0" encoding="utf-8"?>
<svg viewBox="307.682 164.975 43.296 50.284" xmlns="http://www.w3.org/2000/svg">
  <path d="M42.7597 30.9605L37.0219 22.3811C36.9198 20.5713 36.5413 18.8025 35.8951 17.1175C35.6782 16.5522 35.1354 16.179 34.53 16.179H32.9929V11.6957C32.9929 10.8883 32.3383 10.2337 31.5309 10.2337H29.6374C29.5748 10.0733 29.5087 9.91402 29.4393 9.75622L30.7784 8.41707C31.349 7.84671 31.3494 6.92032 30.7784 6.34957L26.6433 2.21457C26.0725 1.64373 25.1468 1.64373 24.5758 2.21457L23.2368 3.55363C23.0789 3.48404 22.9197 3.41796 22.7592 3.35539V1.46196C22.7592 0.654567 22.1046 0 21.2972 0H15.4494C14.642 0 13.9874 0.654567 13.9874 1.46196V3.35548C13.827 3.41806 13.6678 3.48414 13.51 3.55363L12.1708 2.21457C11.6 1.64373 10.6743 1.64373 10.1033 2.21457L5.96832 6.34947C5.39776 6.91983 5.39737 7.84623 5.96832 8.41698L7.30747 9.75613C7.23798 9.91392 7.1719 10.0732 7.10942 10.2336H5.2158C4.40841 10.2336 3.75384 10.8882 3.75384 11.6956V16.1789H2.53554C1.92971 16.1789 1.38664 16.5526 1.17008 17.1184C-2.34145 26.2966 2.37492 36.6224 11.7108 39.9353V48.4395C11.7108 49.2469 12.3654 49.9015 13.1727 49.9015H29.8391C30.6464 49.9015 31.301 49.2469 31.301 48.4395V40.9348H35.5894C36.3968 40.9348 37.0514 40.2802 37.0514 39.4728V33.2352H41.5445C42.7106 33.2352 43.4088 31.9312 42.7597 30.9605ZM6.67776 13.1576H8.15755C8.81026 13.1576 9.38394 12.725 9.56327 12.0973C9.75352 11.4313 10.0219 10.7845 10.361 10.1748C10.6784 9.60418 10.5787 8.89221 10.1171 8.43062L9.06971 7.38327L11.1372 5.31577L12.1846 6.36302C12.6461 6.82481 13.3581 6.92441 13.9288 6.60697C14.5385 6.2679 15.1853 5.99958 15.8511 5.80933C16.4787 5.63009 16.9116 5.05632 16.9116 4.40361V2.92391H19.8355V4.40371C19.8355 5.05652 20.2682 5.63019 20.896 5.80943C21.5618 5.99958 22.2086 6.26799 22.8183 6.60707C23.3889 6.92432 24.1009 6.82481 24.5626 6.36312L25.6098 5.31587L27.6774 7.38337L26.63 8.43062C26.1683 8.89231 26.0687 9.60418 26.386 10.1748C26.7251 10.7846 26.9934 11.4313 27.1837 12.0972C27.3629 12.7248 27.9367 13.1576 28.5894 13.1576H30.0692V16.179H24.0104C25.0399 12.448 22.2205 8.77174 18.3735 8.77174C14.5513 8.77174 11.7022 12.4184 12.7401 16.179H6.67785V13.1576H6.67776ZM15.9006 16.179C14.6781 14.241 16.0733 11.6957 18.3734 11.6957C20.6728 11.6957 22.0704 14.2433 20.845 16.179H15.9006ZM35.5895 30.3112C34.7821 30.3112 34.1276 30.9658 34.1276 31.7732V38.0109H29.8392C29.0318 38.0109 28.3772 38.6655 28.3772 39.4728V46.9776H14.6348V38.8676C14.6348 38.2134 14.2002 37.639 13.5708 37.4608C5.78869 35.2594 1.16082 26.9904 3.57772 19.1029H33.4886C33.865 20.3306 34.0765 21.6041 34.1186 22.9018C34.1425 23.638 34.253 23.3663 38.8081 30.3112H35.5895Z" fill="#241E28" transform="matrix(1, 0, 0, 1, 307.878906, 165.160675)"/>
  <path d="M 314.57 178.328 L 316.05 178.328 C 316.703 178.328 317.277 177.896 317.456 177.268 C 317.646 176.602 317.915 175.955 318.254 175.345 C 318.571 174.775 318.471 174.063 318.01 173.601 L 316.962 172.554 L 319.03 170.486 L 320.077 171.534 C 320.539 171.995 321.251 172.095 321.821 171.778 C 322.431 171.438 323.078 171.17 323.744 170.98 C 324.371 170.801 324.804 170.227 324.804 169.574 L 324.804 168.094 L 327.728 168.094 L 327.728 169.574 C 327.728 170.227 328.161 170.801 328.789 170.98 C 329.454 171.17 330.101 171.439 330.711 171.778 C 331.281 172.095 331.993 171.995 332.455 171.534 L 333.502 170.486 L 335.57 172.554 L 334.523 173.601 C 334.061 174.063 333.961 174.775 334.279 175.345 C 334.618 175.955 334.886 176.602 335.076 177.268 C 335.255 177.895 335.829 178.328 336.482 178.328 L 337.962 178.328 L 337.962 181.35 L 331.903 181.35 C 332.933 177.619 330.113 173.942 326.266 173.942 C 322.444 173.942 319.595 177.589 320.633 181.35 L 314.57 181.35 L 314.57 178.328 Z" fill="#2EC097"/>
</svg>