<svg width="800" height="800" viewBox="0 0 47 46" fill="none" xmlns="http://www.w3.org/2000/svg">
<path d="M21.6553 31.1177H24.3612V33.8236H21.6553V31.1177Z" fill="#2EC097"/>
<path d="M46.0083 5.41176V2.70588H43.3024V0H40.5965V2.70588H37.8906V10.8235H43.3024V13.5294H37.8906V16.2353H40.5965V18.9412H43.3024V16.2353H46.0083V8.11765H40.5965V5.41176H46.0083Z" fill="#2EC097"/>
<path d="M28.4199 16.2353H27.0669V14.8787C28.7089 13.6432 29.7728 11.6789 29.7728 9.47059V6.76471C29.7728 3.03465 26.7382 0 23.0081 0C19.2781 0 16.2434 3.03465 16.2434 6.76471V9.47059C16.2434 11.6789 17.3074 13.6432 18.9493 14.8787V16.2353H17.5964C13.1203 16.2353 9.47871 19.8769 9.47871 24.3529H5.21289L8.30535 46H37.711L40.8035 24.3529H36.5375C36.5375 19.8769 32.896 16.2353 28.4199 16.2353ZM18.9493 6.76471C18.9493 4.52667 20.7701 2.70588 23.0081 2.70588C25.2462 2.70588 27.0669 4.52667 27.0669 6.76471V9.47059C27.0669 11.7086 25.2462 13.5294 23.0081 13.5294C20.7701 13.5294 18.9493 11.7086 18.9493 9.47059V6.76471ZM24.3611 16.0992V17.5882C24.3611 18.3342 23.7541 18.9412 23.0081 18.9412C22.2621 18.9412 21.6552 18.3342 21.6552 17.5882C21.6552 17.2345 21.6552 16.4526 21.6552 16.0992C22.5164 16.2746 23.4413 16.2866 24.3611 16.0992ZM17.5964 18.9412H19.1811C20.4564 22.5379 25.5621 22.5315 26.8351 18.9412H28.4199C31.4039 18.9412 33.8317 21.3689 33.8317 24.3529H12.1846C12.1846 21.3689 14.6123 18.9412 17.5964 18.9412ZM10.6521 43.2941L10.2655 40.5882H35.7507L35.3641 43.2941H10.6521ZM37.6835 27.0588L36.1372 37.8824H9.879L8.33277 27.0588H37.6835Z" fill="#241E28"/>
<path d="M5.42007 18.9412V16.2353H8.12595V8.11765H2.71418V5.41176H8.12595V2.70588H5.42007V0H2.71418V2.70588H0.00830078V10.8235H5.42007V13.5294H0.00830078V16.2353H2.71418V18.9412H5.42007Z" fill="#2EC097"/>
</svg>
