<svg width="831" height="668" viewBox="0 0 831 668" fill="none" xmlns="http://www.w3.org/2000/svg">
<path fill-rule="evenodd" clip-rule="evenodd" d="M196.558 528.563H325.855V503.457H196.558V528.563ZM324.175 526.944H198.237V505.077H324.175V526.944Z" fill="#3F3D56"/>
<path d="M311.418 524.797C315.925 524.797 319.578 521.144 319.578 516.638C319.578 512.131 315.925 508.478 311.418 508.478C306.912 508.478 303.259 512.131 303.259 516.638C303.259 521.144 306.912 524.797 311.418 524.797Z" fill="#222F65"/>
<path d="M286.312 524.797C290.819 524.797 294.472 521.144 294.472 516.638C294.472 512.131 290.819 508.478 286.312 508.478C281.806 508.478 278.153 512.131 278.153 516.638C278.153 521.144 281.806 524.797 286.312 524.797Z" fill="#222F65"/>
<path d="M263.717 524.797C268.223 524.797 271.877 521.144 271.877 516.638C271.877 512.131 268.223 508.478 263.717 508.478C259.211 508.478 255.558 512.131 255.558 516.638C255.558 521.144 259.211 524.797 263.717 524.797Z" fill="#222F65"/>
<path d="M239.866 524.797C244.372 524.797 248.026 521.144 248.026 516.638C248.026 512.131 244.372 508.478 239.866 508.478C235.36 508.478 231.707 512.131 231.707 516.638C231.707 521.144 235.36 524.797 239.866 524.797Z" fill="#222F65"/>
<path d="M216.015 524.797C220.521 524.797 224.174 521.144 224.174 516.638C224.174 512.131 220.521 508.478 216.015 508.478C211.509 508.478 207.855 512.131 207.855 516.638C207.855 521.144 211.509 524.797 216.015 524.797Z" fill="#222F65"/>
<rect x="573.6" y="517.16" width="133.1" height="26.937" fill="#2EC097"/>
<rect x="538.74" y="380.891" width="194.897" height="25.3525" fill="#F0F0F0"/>
<rect y="661.352" width="830.293" height="1.58453" fill="#3F3D56"/>
<path fill-rule="evenodd" clip-rule="evenodd" d="M524.535 662.937H766.856C782.631 662.919 795.415 650.141 795.433 634.373V184.451C795.415 168.683 782.631 155.906 766.856 155.888H524.535C508.76 155.906 495.975 168.683 495.958 184.451V634.373C495.976 650.141 508.76 662.919 524.535 662.937ZM498.089 184.451C498.106 169.859 509.936 158.035 524.535 158.018H766.856C781.455 158.035 793.285 169.859 793.302 184.451V634.373C793.285 648.965 781.455 660.79 766.856 660.806H524.535C509.936 660.79 498.106 648.965 498.089 634.373V184.451Z" fill="#3F3D56"/>
<path fill-rule="evenodd" clip-rule="evenodd" d="M611.628 171.733C611.628 175.233 614.466 178.071 617.966 178.071C621.465 178.067 624.3 175.232 624.304 171.733C624.304 168.232 621.466 165.395 617.966 165.395C614.466 165.395 611.628 168.232 611.628 171.733ZM613.741 171.732C613.741 169.399 615.632 167.507 617.966 167.507C620.299 167.509 622.189 169.4 622.192 171.732C622.192 174.066 620.3 175.958 617.966 175.958C615.632 175.958 613.741 174.066 613.741 171.732Z" fill="#3F3D56"/>
<rect x="633.812" y="170.148" width="47.5359" height="1.58453" fill="#3F3D56"/>
<path d="M778.004 185.994V271.558C730.749 271.556 692.442 233.249 692.439 185.994H778.004Z" fill="#2EC097"/>
<path fill-rule="evenodd" clip-rule="evenodd" d="M514.972 634.415H778.003V185.994H514.972V634.415ZM775.874 632.285H517.102V188.124H775.874V632.285Z" fill="#3F3D56"/>
<rect x="526.063" y="203.423" width="41.1977" height="14.2608" fill="#2EC097"/>
<rect x="548.247" y="346.031" width="41.1977" height="14.2608" fill="#2EC097"/>
<path fill-rule="evenodd" clip-rule="evenodd" d="M549.832 401.489H746.313V374.552H549.832V401.489ZM744.177 399.417H551.967V376.624H744.177V399.417Z" fill="#3F3D56"/>
<rect x="538.74" y="461.701" width="194.897" height="25.3525" fill="#F0F0F0"/>
<rect x="548.247" y="425.257" width="41.1977" height="14.2608" fill="#2EC097"/>
<path fill-rule="evenodd" clip-rule="evenodd" d="M549.832 482.3H746.313V455.363H549.832V482.3ZM744.177 480.228H551.967V457.435H744.177V480.228Z" fill="#3F3D56"/>
<path fill-rule="evenodd" clip-rule="evenodd" d="M579.938 537.759H714.622V509.237H579.938V537.759ZM712.484 535.722H582.075V511.275H712.484V535.722Z" fill="#3F3D56"/>
<path d="M738.39 391.19C738.39 395.534 735.665 399.411 731.578 400.881C727.491 402.351 722.921 401.099 720.154 397.75L720.143 397.74C717.448 394.471 717.031 389.884 719.091 386.181C721.151 382.479 725.269 380.416 729.467 380.984C733.665 381.551 737.088 384.633 738.092 388.749C738.092 388.752 738.093 388.754 738.095 388.756C738.097 388.758 738.099 388.759 738.102 388.759C738.292 389.556 738.389 390.371 738.39 391.19V391.19Z" fill="#A6A6A6"/>
<path opacity="0.1" d="M738.39 390.596C738.39 395.19 735.594 399.291 731.401 400.846C727.209 402.401 722.521 401.076 719.682 397.535L719.672 397.524C719.477 396.682 719.377 395.819 719.376 394.953C719.376 390.359 722.172 386.258 726.365 384.703C730.558 383.148 735.246 384.473 738.084 388.014C738.084 388.017 738.085 388.02 738.087 388.022C738.089 388.024 738.092 388.025 738.095 388.025C738.29 388.867 738.389 389.73 738.39 390.596V390.596Z" fill="black"/>
<path d="M732.844 406.243C738.533 406.243 743.144 401.632 743.144 395.943C743.144 390.255 738.533 385.644 732.844 385.644C727.156 385.644 722.545 390.255 722.545 395.943C722.545 401.632 727.156 406.243 732.844 406.243Z" fill="#263238"/>
<path d="M738.39 470.417C738.39 474.761 735.665 478.637 731.578 480.108C727.491 481.578 722.921 480.326 720.154 476.977L720.143 476.967C717.448 473.697 717.031 469.111 719.091 465.408C721.151 461.705 725.269 459.643 729.467 460.21C733.665 460.778 737.088 463.859 738.092 467.976C738.092 467.978 738.093 467.981 738.095 467.983C738.097 467.985 738.099 467.986 738.102 467.986C738.292 468.782 738.389 469.598 738.39 470.417V470.417Z" fill="#A6A6A6"/>
<path opacity="0.1" d="M738.39 471.407C738.39 476.001 735.594 480.102 731.401 481.657C727.209 483.212 722.521 481.887 719.682 478.346L719.672 478.335C719.477 477.493 719.377 476.63 719.376 475.764C719.376 471.17 722.172 467.069 726.365 465.514C730.558 463.959 735.246 465.284 738.084 468.825C738.084 468.828 738.085 468.831 738.087 468.833C738.089 468.835 738.092 468.836 738.095 468.836C738.29 469.678 738.389 470.541 738.39 471.407V471.407Z" fill="black"/>
<path d="M732.844 487.054C738.533 487.054 743.144 482.443 743.144 476.755C743.144 471.066 738.533 466.455 732.844 466.455C727.156 466.455 722.545 471.066 722.545 476.755C722.545 482.443 727.156 487.054 732.844 487.054Z" fill="#263238"/>
<path fill-rule="evenodd" clip-rule="evenodd" d="M652.234 204.694C652.234 210.24 656.73 214.736 662.276 214.736C667.82 214.73 672.313 210.238 672.319 204.694C672.319 199.148 667.823 194.651 662.276 194.651C656.73 194.651 652.234 199.148 652.234 204.694ZM653.907 204.694C653.907 200.072 657.654 196.325 662.276 196.325C666.896 196.33 670.64 200.074 670.645 204.694C670.645 209.316 666.898 213.062 662.276 213.062C657.654 213.062 653.907 209.316 653.907 204.694Z" fill="#3F3D56"/>
<path fill-rule="evenodd" clip-rule="evenodd" d="M418.747 356.586H440.087V335.246H418.747V356.586ZM438.446 354.944H420.389V336.887H438.446V354.944Z" fill="#3F3D56"/>
<path d="M144.463 577.52C147.583 577.52 150.112 574.991 150.112 571.871C150.112 568.751 147.583 566.222 144.463 566.222C141.343 566.222 138.814 568.751 138.814 571.871C138.814 574.991 141.343 577.52 144.463 577.52Z" fill="#FF6584"/>
<rect x="170.196" y="601.371" width="1.25531" height="62.7653" fill="#3F3D56"/>
<path d="M171.452 608.902C176.305 608.902 180.239 604.968 180.239 600.115C180.239 595.262 176.305 591.328 171.452 591.328C166.599 591.328 162.665 595.262 162.665 600.115C162.665 604.968 166.599 608.902 171.452 608.902Z" fill="#3F3D56"/>
<path d="M170.196 639.03C170.196 639.03 168.97 612.326 143.835 615.43Z" fill="#3F3D56"/>
<path d="M600.824 299.229C600.752 299.158 600.715 299.074 600.715 298.978V289.653C600.715 289.548 600.752 289.462 600.824 289.395C600.897 289.328 600.981 289.294 601.078 289.294H603.153C603.259 289.294 603.346 289.328 603.414 289.395C603.481 289.462 603.515 289.548 603.515 289.653V298.978C603.515 299.074 603.481 299.158 603.414 299.229C603.346 299.301 603.259 299.337 603.153 299.337H601.078C600.981 299.337 600.897 299.301 600.824 299.229Z" fill="#241E28"/>
<path d="M607.831 299.237C607.759 299.17 607.723 299.084 607.723 298.978V291.633H605.169C605.063 291.633 604.973 291.6 604.901 291.532C604.828 291.466 604.792 291.38 604.792 291.274V289.667C604.792 289.562 604.828 289.474 604.901 289.402C604.973 289.33 605.063 289.294 605.169 289.294H613.047C613.153 289.294 613.243 289.33 613.315 289.402C613.388 289.474 613.424 289.562 613.424 289.667V291.274C613.424 291.38 613.388 291.466 613.315 291.532C613.243 291.6 613.153 291.633 613.047 291.633H610.493V298.978C610.493 299.084 610.457 299.17 610.385 299.237C610.312 299.303 610.223 299.337 610.116 299.337H608.1C607.993 299.337 607.904 299.303 607.831 299.237Z" fill="#241E28"/>
<path d="M604.998 275.879C604.998 275.879 588.367 275.238 586.698 293.926C586.698 293.926 599.755 292.187 604.998 275.879Z" fill="#2EC097"/>
<path d="M605.2 312.925C605.2 312.925 588.246 313.828 586.723 295.054C586.723 295.054 600.124 296.862 605.2 312.925Z" fill="#2EC097"/>
<path d="M606.216 312.925C606.216 312.925 623.982 313.527 624.49 295.054C624.49 295.054 611.495 297.162 606.216 312.925Z" fill="#2EC097"/>
<path d="M634.836 301.321C633.92 300.948 633.227 300.455 632.755 299.842C632.284 299.23 632.035 298.564 632.008 297.845C632.008 297.725 632.051 297.625 632.139 297.545C632.227 297.465 632.331 297.425 632.452 297.425H635.139C635.301 297.425 635.432 297.452 635.533 297.505C635.634 297.558 635.745 297.652 635.867 297.785C636.042 298.104 636.314 298.368 636.685 298.574C637.055 298.78 637.55 298.884 638.17 298.884C638.897 298.884 639.456 298.774 639.847 298.554C640.237 298.334 640.433 298.031 640.433 297.645C640.433 297.365 640.332 297.135 640.129 296.956C639.927 296.776 639.604 296.616 639.16 296.476C638.715 296.336 638.075 296.18 637.24 296.007C635.611 295.687 634.392 295.201 633.584 294.548C632.776 293.896 632.372 292.963 632.372 291.751C632.372 290.926 632.604 290.19 633.068 289.544C633.533 288.898 634.193 288.395 635.048 288.035C635.904 287.676 636.897 287.496 638.028 287.496C639.213 287.496 640.241 287.699 641.109 288.105C641.978 288.512 642.645 289.018 643.109 289.623C643.574 290.23 643.82 290.826 643.847 291.412C643.847 291.531 643.806 291.635 643.726 291.721C643.645 291.808 643.544 291.851 643.423 291.851H640.594C640.298 291.851 640.069 291.731 639.907 291.491C639.826 291.212 639.617 290.975 639.281 290.782C638.944 290.589 638.527 290.492 638.028 290.492C637.463 290.492 637.025 290.592 636.715 290.792C636.405 290.992 636.25 291.285 636.25 291.671C636.25 292.058 636.453 292.361 636.857 292.58C637.261 292.8 638.015 293.023 639.119 293.25C640.385 293.476 641.392 293.759 642.14 294.099C642.887 294.438 643.439 294.878 643.796 295.417C644.153 295.957 644.332 296.639 644.332 297.465C644.332 298.371 644.069 299.157 643.544 299.823C643.019 300.489 642.291 300.998 641.362 301.351C640.433 301.704 639.368 301.88 638.17 301.88C636.863 301.88 635.752 301.694 634.836 301.321Z" fill="#241E28"/>
<path d="M649.393 301.54C649.292 301.447 649.241 301.327 649.241 301.181V290.952H645.686C645.537 290.952 645.413 290.905 645.312 290.812C645.211 290.719 645.16 290.599 645.16 290.452V288.215C645.16 288.068 645.211 287.945 645.312 287.845C645.413 287.745 645.537 287.695 645.686 287.695H656.656C656.804 287.695 656.929 287.745 657.03 287.845C657.131 287.945 657.181 288.068 657.181 288.215V290.452C657.181 290.599 657.131 290.719 657.03 290.812C656.929 290.905 656.804 290.952 656.656 290.952H653.1V301.181C653.1 301.327 653.05 301.447 652.949 301.54C652.848 301.634 652.723 301.68 652.575 301.68H649.767C649.618 301.68 649.494 301.634 649.393 301.54Z" fill="#241E28"/>
<path d="M661.625 296.306H665.222L663.423 291.211L661.625 296.306ZM656.443 301.55C656.356 301.464 656.312 301.367 656.312 301.261C656.312 301.181 656.319 301.121 656.332 301.081L661.04 288.274C661.174 287.888 661.443 287.695 661.848 287.695H664.999C665.403 287.695 665.673 287.888 665.807 288.274L670.515 301.081C670.528 301.121 670.535 301.181 670.535 301.261C670.535 301.367 670.491 301.464 670.404 301.55C670.316 301.637 670.218 301.68 670.111 301.68H667.484C667.161 301.68 666.932 301.534 666.797 301.241L666.07 299.303H660.777L660.05 301.241C659.915 301.534 659.686 301.68 659.363 301.68H656.736C656.628 301.68 656.531 301.637 656.443 301.55Z" fill="#241E28"/>
<path d="M678.111 293.869C678.69 293.869 679.131 293.726 679.434 293.439C679.737 293.153 679.888 292.757 679.888 292.25C679.888 291.744 679.737 291.338 679.434 291.032C679.131 290.725 678.69 290.572 678.111 290.572H675.868V293.869H678.111ZM672.221 301.53C672.12 301.43 672.07 301.314 672.07 301.181V288.215C672.07 288.068 672.117 287.945 672.211 287.845C672.305 287.745 672.427 287.695 672.575 287.695H678.131C679.909 287.695 681.299 288.095 682.303 288.894C683.306 289.693 683.808 290.819 683.808 292.27C683.808 293.203 683.589 293.995 683.151 294.648C682.713 295.3 682.111 295.807 681.343 296.166L684.07 301.041C684.111 301.121 684.131 301.194 684.131 301.261C684.131 301.367 684.091 301.464 684.01 301.55C683.929 301.637 683.828 301.68 683.707 301.68H680.858C680.467 301.68 680.192 301.5 680.03 301.141L677.808 296.805H675.868V301.181C675.868 301.327 675.817 301.447 675.717 301.54C675.616 301.634 675.491 301.68 675.343 301.68H672.575C672.44 301.68 672.322 301.63 672.221 301.53" fill="#241E28"/>
<path d="M688.132 301.321C687.215 300.948 686.522 300.455 686.051 299.842C685.579 299.23 685.33 298.564 685.303 297.845C685.303 297.725 685.347 297.625 685.434 297.545C685.522 297.465 685.626 297.425 685.748 297.425H688.435C688.596 297.425 688.728 297.452 688.829 297.505C688.93 297.558 689.041 297.652 689.162 297.785C689.337 298.104 689.61 298.368 689.98 298.574C690.351 298.78 690.845 298.884 691.465 298.884C692.192 298.884 692.751 298.774 693.142 298.554C693.533 298.334 693.728 298.031 693.728 297.645C693.728 297.365 693.627 297.135 693.425 296.956C693.223 296.776 692.9 296.616 692.455 296.476C692.011 296.336 691.371 296.18 690.536 296.007C688.906 295.687 687.687 295.201 686.879 294.548C686.071 293.896 685.667 292.963 685.667 291.751C685.667 290.926 685.899 290.19 686.364 289.544C686.828 288.898 687.488 288.395 688.344 288.035C689.199 287.676 690.192 287.496 691.324 287.496C692.509 287.496 693.536 287.699 694.405 288.105C695.273 288.512 695.94 289.018 696.405 289.623C696.869 290.23 697.115 290.826 697.142 291.412C697.142 291.531 697.102 291.635 697.021 291.721C696.94 291.808 696.839 291.851 696.718 291.851H693.89C693.593 291.851 693.364 291.731 693.203 291.491C693.122 291.212 692.913 290.975 692.576 290.782C692.239 290.589 691.822 290.492 691.324 290.492C690.758 290.492 690.32 290.592 690.011 290.792C689.7 290.992 689.546 291.285 689.546 291.671C689.546 292.058 689.748 292.361 690.152 292.58C690.556 292.8 691.31 293.023 692.415 293.25C693.681 293.476 694.688 293.759 695.435 294.099C696.183 294.438 696.735 294.878 697.092 295.417C697.448 295.957 697.627 296.639 697.627 297.465C697.627 298.371 697.364 299.157 696.839 299.823C696.314 300.489 695.587 300.998 694.657 301.351C693.728 301.704 692.664 301.88 691.465 301.88C690.159 301.88 689.048 301.694 688.132 301.321Z" fill="#241E28"/>
<path d="M609.464 275.859C609.464 275.859 624.49 275.859 624.49 261C624.49 261 624.49 275.859 639.515 275.859C639.515 275.859 624.49 275.859 624.49 290.717C624.49 290.717 624.49 275.859 609.464 275.859Z" fill="#2EC097"/>
<path d="M410.32 465.761C410.32 465.761 469.907 513.889 469.948 513.93C481.384 523.078 491.257 531.302 495.967 536.03C495.988 536.051 496.029 536.071 496.05 536.113C497.819 537.901 498.847 539.176 498.909 539.772C498.909 539.813 498.929 539.854 498.929 539.895C498.518 545.138 428.07 638.68 424.512 641.106C420.954 643.573 413.734 633.602 413.57 627.804C413.426 621.966 424.368 574.105 424.368 574.105L365.274 525.443L410.32 465.761Z" fill="#EB9481"/>
<path d="M457.71 504.041C457.71 504.041 469.907 513.889 469.948 513.93C481.384 523.078 491.257 531.302 495.967 536.03C495.988 536.051 496.029 536.071 496.05 536.113C497.716 537.983 498.744 539.299 498.909 539.772C498.909 539.813 498.929 539.854 498.929 539.895C498.518 545.138 428.07 638.68 424.512 641.106C420.954 643.573 413.734 633.602 413.57 627.804C413.426 621.966 424.368 574.105 424.368 574.105L411.821 564.257L457.71 504.041Z" fill="#EBEBEB"/>
<path d="M424.492 641.106C428.05 638.659 498.498 545.138 498.909 539.895C499.094 537.901 486.074 526.84 469.928 513.95C469.763 513.827 469.578 513.683 469.414 513.56L423.299 573.385L424.348 574.125C424.348 574.125 413.405 621.986 413.549 627.804C413.714 633.581 420.954 643.552 424.492 641.106Z" fill="#2EC097"/>
<path d="M421.674 637.302C433.151 621.246 481.014 557.576 493.581 542.568C493.684 542.445 493.767 542.506 493.684 542.65C482.639 558.809 434.282 622.11 421.941 637.508C421.674 637.837 421.427 637.652 421.674 637.302Z" fill="#263238"/>
<path d="M420.707 579.306C424.224 572.234 430.889 565.368 438.89 563.949C439.198 563.887 439.281 564.34 439.054 564.484C432.513 569.15 426.98 573.941 421.509 579.861C421.139 580.293 420.46 579.82 420.707 579.306Z" fill="#263238"/>
<path d="M420.049 585.824C423.566 578.752 430.23 571.885 438.231 570.467C438.54 570.405 438.622 570.857 438.396 571.001C431.855 575.668 426.322 580.458 420.851 586.379C420.46 586.811 419.781 586.317 420.049 585.824Z" fill="#263238"/>
<path d="M419.37 592.32C422.887 585.248 429.551 578.381 437.553 576.963C437.861 576.901 437.943 577.353 437.717 577.497C431.176 582.164 425.643 586.954 420.172 592.875C419.781 593.307 419.123 592.834 419.37 592.32Z" fill="#263238"/>
<path d="M378.088 408.403C382.305 429.229 468.796 512.388 468.796 512.388L408.489 581.959C408.489 581.959 285.694 459.45 292.112 413.398C297.686 373.35 357.664 212.314 357.664 212.314H426.857C426.877 212.314 373.934 387.926 378.088 408.403Z" fill="#37474F"/>
<path d="M378.088 408.403C382.305 429.229 468.796 512.388 468.796 512.388L408.489 581.959C408.489 581.959 285.694 459.45 292.112 413.398C297.686 373.35 357.664 212.314 357.664 212.314H426.857C426.877 212.314 373.934 387.926 378.088 408.403Z" fill="#263238"/>
<path d="M401.64 565.408C409.662 555.437 407.214 558.192 415.339 548.303C419.308 543.472 445.472 511.729 449.956 507.864C450.058 507.782 450.223 507.926 450.161 508.029C447.138 513.127 420.44 544.418 416.367 549.167C408.057 558.891 410.34 556.013 401.907 565.634C401.763 565.84 401.496 565.593 401.64 565.408Z" fill="#37474F"/>
<path d="M369.491 398.246C370.478 393.045 371.609 387.864 372.7 382.683C374.941 372.095 377.327 361.549 379.837 351.043C384.814 330.176 390.224 309.432 396.086 288.812C401.989 268.109 408.221 247.448 415.4 227.157C416.284 224.648 417.21 222.14 418.115 219.653C418.177 219.468 418.485 219.55 418.424 219.735C412.212 240.067 405.794 260.338 399.953 280.794C394.153 301.168 388.764 321.624 383.704 342.182C381.153 352.503 378.788 362.864 376.484 373.246C375.353 378.345 374.242 383.444 373.152 388.563C372.062 393.743 370.581 399.048 370.252 404.352C369.943 409.553 371.63 414.179 374.324 418.558C376.916 422.793 379.981 426.802 382.922 430.79C388.825 438.808 445.163 501.533 446.973 503.239C447.117 503.383 446.89 503.568 446.747 503.445C439.177 496.66 391.396 444.955 385.329 436.958C382.326 432.99 379.405 428.981 376.525 424.931C373.831 421.148 371.136 417.263 369.655 412.822C368.092 408.052 368.565 403.118 369.491 398.246Z" fill="#37474F"/>
<path d="M369.635 212.313L382.202 377.112C394.194 320.699 426.857 212.313 426.857 212.313H369.635V212.313Z" fill="#37474F"/>
<path d="M399.315 551.614C399.315 551.614 384.382 624.31 384.382 624.371C384.177 639.009 383.745 651.838 382.901 658.458C382.901 658.499 382.901 658.519 382.881 658.561C382.572 661.048 382.182 662.652 381.729 663.063C381.688 663.104 381.667 663.145 381.647 663.145C377.245 666.044 260.127 667.853 256.034 666.537C251.921 665.242 255.335 653.421 259.839 649.741C264.365 646.04 308.875 625.297 308.875 625.297L324.548 552.642L399.315 551.614Z" fill="#EB9481"/>
<path d="M256.034 666.578C260.148 667.894 377.265 666.085 381.646 663.186C381.688 663.165 381.708 663.124 381.749 663.083C382.202 662.651 382.572 661.089 382.881 658.581C382.901 658.54 382.901 658.499 382.901 658.457C383.744 651.858 384.176 639.03 384.382 624.371C384.382 624.351 386.974 611.707 386.974 611.707H311.795L308.875 625.317C308.875 625.317 264.364 646.061 259.819 649.761C255.355 653.482 251.9 665.283 256.034 666.578Z" fill="#EBEBEB"/>
<path d="M256.034 666.579C260.148 667.894 377.245 666.085 381.667 663.166C383.354 662.097 384.094 645.013 384.382 624.372C384.382 624.146 384.382 623.94 384.382 623.734L308.813 624.063L308.854 625.338C308.854 625.338 264.344 646.082 259.819 649.782C255.355 653.462 251.92 665.283 256.034 666.579Z" fill="#2EC097"/>
<path d="M257.289 662.014C277.014 661.233 356.676 659.897 376.258 660.616C376.422 660.616 376.422 660.739 376.258 660.739C356.718 661.952 277.055 662.631 257.309 662.343C256.878 662.343 256.878 662.035 257.289 662.014Z" fill="#263238"/>
<path d="M302.519 625.667C310.273 624.104 319.776 625.132 325.803 630.58C326.029 630.786 325.741 631.115 325.474 631.053C317.781 628.751 310.582 627.311 302.56 626.654C302.005 626.592 301.964 625.79 302.519 625.667Z" fill="#263238"/>
<path d="M296.966 629.141C304.72 627.578 314.223 628.606 320.25 634.054C320.476 634.26 320.188 634.589 319.92 634.527C312.228 632.225 305.029 630.786 297.007 630.128C296.452 630.066 296.411 629.244 296.966 629.141Z" fill="#263238"/>
<path d="M291.412 632.595C299.167 631.032 308.669 632.06 314.696 637.508C314.922 637.714 314.634 638.043 314.367 637.981C306.674 635.679 299.475 634.24 291.453 633.582C290.898 633.541 290.857 632.718 291.412 632.595Z" fill="#263238"/>
<path d="M364.349 212.314C364.431 213.773 368.298 227.013 370.293 246.832C371.733 261.305 373.543 274.113 375.476 275.696C377.656 277.485 388.599 284.516 392.281 286.757C392.281 286.757 358.178 390.064 349.375 424.5C336.622 474.416 306.078 624.207 306.078 624.207L387.488 624.186C387.488 624.186 412.232 481.591 423.051 434.06C432.328 393.312 467.87 271.071 467.87 271.071C480.808 239.287 464.991 212.293 464.991 212.293C464.991 212.293 364.328 212.273 364.349 212.314Z" fill="#263238"/>
<path d="M309.019 608.397C321.813 608.335 318.131 608.171 330.925 608.253C337.178 608.294 378.315 608.561 384.156 609.63C384.28 609.651 384.28 609.877 384.156 609.898C378.294 610.782 337.157 609.774 330.904 609.63C318.111 609.302 321.792 609.26 308.999 608.808C308.772 608.767 308.772 608.397 309.019 608.397Z" fill="#37474F"/>
<path d="M369.697 271.626C377.636 275.799 385.082 281.165 392.158 286.654C392.445 286.86 392.158 287.312 391.849 287.127C384.239 282.357 376.443 277.731 369.1 272.551C368.545 272.119 369.1 271.317 369.697 271.626Z" fill="#37474F"/>
<path d="M375.929 215.418C375.991 215.13 376.505 215.151 376.443 215.459C374.88 225.122 374.16 233.736 373.584 242.905C373.317 247.161 373.09 270.885 380.639 270.33C381.894 270.227 382.717 269.138 383.19 267.329C383.766 265.149 383.354 262.312 383.334 260.071C383.272 255.096 383.395 250.121 383.724 245.146C384.362 235.874 385.761 226.705 388.291 217.741C388.373 217.453 388.805 217.536 388.764 217.844C386.789 230.529 385.144 243.234 385.103 256.083C385.082 262.251 386.707 271.81 380.248 271.769C373.666 271.708 371.877 255.857 371.733 251.56C371.322 239.595 373.173 227.034 375.929 215.418Z" fill="#37474F"/>
<path d="M380.331 270.927C380.742 272.592 381.03 274.298 381.215 275.984C381.359 277.3 381.626 278.739 381.277 280.034C381.215 280.281 380.865 280.26 380.762 280.055C380.084 278.842 379.94 277.3 379.672 275.943C379.343 274.36 378.994 272.797 378.706 271.214C378.541 270.187 380.084 269.899 380.331 270.927Z" fill="#37474F"/>
<path d="M456.311 270.516C447.981 269.652 443.723 269.282 435.681 266.609C428.215 264.142 421.221 260.051 415.688 254.274C412.706 251.149 409.806 247.551 408.016 243.543C407.955 243.378 407.687 243.501 407.749 243.666C409.065 247.531 410.649 251.17 413.179 254.418C415.709 257.666 418.671 260.462 421.982 262.827C429.079 267.843 435.887 270.433 444.382 271.461C449.174 272.037 451.663 272.037 456.435 271.276C456.887 271.194 456.702 270.557 456.311 270.516Z" fill="#37474F"/>
<path d="M396.929 563.559C397.156 561.667 397.403 559.796 397.67 557.926C398.184 554.328 398.781 550.73 399.336 547.132C400.447 539.896 401.701 532.7 402.977 525.484C405.527 511.113 408.489 496.805 411.595 482.537C413.343 474.478 415.4 466.522 417.56 458.545C417.704 457.99 418.485 458.257 418.403 458.792C417.087 466.069 415.832 473.368 414.331 480.625C412.85 487.862 411.369 495.098 409.929 502.335C407.09 516.644 404.437 530.994 401.599 545.323C400.796 549.373 400.076 553.423 399.274 557.453C398.883 559.467 398.472 561.482 398.04 563.497C397.608 565.491 396.991 567.465 396.662 569.48C396.621 569.665 396.333 569.582 396.374 569.397C396.683 567.485 396.724 565.512 396.929 563.559Z" fill="#37474F"/>
<path d="M340.818 455.461C343.534 441.954 347.174 428.632 350.856 415.371C358.261 388.666 366.961 362.371 375.641 336.056C378.151 328.47 380.639 320.904 383.149 313.318C384.403 309.535 390.533 289.1 391.294 287.168C391.376 286.962 391.664 287.044 391.602 287.27C389.854 294.24 387.427 304.375 385.391 311.262C383.375 318.067 381.195 324.831 379.076 331.615C374.921 344.937 370.684 358.239 366.653 371.582C358.672 397.979 350.753 424.376 344.274 451.185C342.464 458.689 340.654 466.193 338.988 473.738C337.342 481.262 335.923 488.848 334.339 496.414C334.298 496.619 333.949 496.558 333.969 496.352C335.368 482.598 338.083 469.009 340.818 455.461Z" fill="#37474F"/>
<path d="M391.417 526.08C395.901 500.32 401.27 474.704 407.214 449.253C413.199 423.678 419.843 398.247 427.166 373.021C434.488 347.796 442.613 322.796 451.354 298.023C455.489 286.284 459.685 274.524 462.4 262.354C465.073 250.327 466.452 237.313 463.634 225.184C462.914 222.1 462.029 219.078 460.857 216.138C460.775 215.932 461.063 215.768 461.165 215.973C470.956 238.773 464.6 263.711 457.155 286.181C453.061 298.496 448.721 310.708 444.69 323.043C440.556 335.707 436.586 348.412 432.801 361.179C425.294 386.487 418.321 411.939 412.068 437.575C405.815 463.212 400.262 489.013 395.366 514.958C390.451 540.985 386.316 567.116 382.141 593.266C381.606 596.658 381.174 600.092 380.722 603.504C380.701 603.689 380.393 603.689 380.413 603.504C383.54 577.6 386.933 551.799 391.417 526.08Z" fill="#37474F"/>
<path d="M393.062 104.298C383.497 139.269 355.894 181.496 342.792 187.314C331.356 192.392 278.371 172.8 258.378 160.074C252.681 156.435 276.211 123.706 283.061 125.988C305.439 133.451 329.793 144.47 331.685 143.833C335.49 142.537 359.247 113.406 376.545 93.834C395.921 71.8773 396.887 90.3595 393.062 104.298Z" fill="#EB9481"/>
<path d="M220.532 130.49C216.028 128.599 181.349 127.509 181.349 119.985C181.37 112.46 225.489 114.578 225.489 114.578L220.532 130.49Z" fill="#EB9481"/>
<path d="M287.051 131.354C280.983 123.829 275.656 115.709 270.391 114.208C266.75 113.18 227.464 114.866 221.334 114.496C215.205 114.125 193.299 114.681 192.806 120.067C192.086 127.674 218.002 127.591 220.758 131.477C230.302 144.881 266.606 164.72 266.606 164.72L287.051 131.354Z" fill="#EB9481"/>
<path d="M192.23 120.191C192.518 118.793 193.609 117.621 194.74 116.819C197.414 114.928 200.952 114.784 204.099 114.517C208.87 114.126 213.725 113.982 218.497 114.393C218.599 114.393 218.599 114.558 218.497 114.558C214.897 114.619 211.318 114.66 207.739 114.948C204.53 115.216 201.116 115.442 198.01 116.428C196.612 116.881 195.233 117.539 194.267 118.669C193.609 119.451 193.197 120.52 193.526 121.568C194.575 124.878 201.095 125.865 204.119 126.543C208.068 127.427 212.161 128.209 216.111 129.01C216.275 129.052 216.213 129.319 216.028 129.278C211.915 128.455 207.575 128.147 203.44 127.407C200.088 126.811 196.509 126.112 193.814 123.912C192.704 122.987 191.922 121.692 192.23 120.191Z" fill="#263238"/>
<path d="M288.573 126.728L257.514 172.204C257.514 172.204 305.706 196.319 324.074 195.867C341.599 195.455 347.954 192.865 353.487 187.643C356.902 184.415 376.421 156.887 392.321 111.165C405.67 72.8023 385.924 78.4559 368.317 99.693C359.534 110.281 331.479 141.838 330.08 141.715C328.661 141.612 288.573 126.728 288.573 126.728Z" fill="#2EC097"/>
<path d="M298.137 134.108C293.468 140.831 289.025 147.697 284.603 154.605C282.443 157.997 274.381 171.772 272.036 175.678C271.933 175.842 272.365 176.089 272.468 175.945C274.895 172.491 283.678 158.737 285.776 155.325C290.054 148.355 294.291 141.365 298.322 134.252C298.405 134.108 298.22 134.005 298.137 134.108Z" fill="#263238"/>
<path opacity="0.1" d="M314.757 194.715C318.295 195.496 321.483 195.928 324.074 195.866C341.599 195.455 347.955 192.865 353.488 187.643C356.922 184.415 376.422 156.908 392.321 111.165C395.386 102.325 396.723 95.8486 396.723 91.3256C396.723 90.8939 396.702 90.4622 396.682 90.0921C396.661 89.681 396.64 89.3109 396.579 88.9203C396.538 88.5913 396.496 88.2624 396.414 87.9746C396.044 86.2682 395.406 85.0347 394.501 84.2329C383.703 98.7268 332.713 167.496 314.757 194.715Z" fill="black"/>
<path d="M318.501 108.04H200.684V114.372H318.501V108.04Z" fill="#C7C7C7"/>
<path d="M200.684 108.04V114.372H272.221L267.388 108.04H200.684Z" fill="#A6A6A6"/>
<path d="M262.184 114.372H183.385L142.392 44.7808H221.17L262.184 114.372Z" fill="#C4C4C4"/>
<path d="M205.229 79.5456C206.71 82.7733 205.62 86.1655 202.802 87.1112C200.005 88.0775 196.529 86.2272 195.068 83.02C193.587 79.7923 194.677 76.4002 197.495 75.4545C200.293 74.4882 203.748 76.3179 205.229 79.5456Z" fill="white"/>
<path d="M472.56 236.285C472.272 236.594 349.21 235.709 348.099 234.435C346.556 232.646 375.702 99.6727 388.496 83.3286C391.231 79.8336 400.158 78.9496 407.727 79.9775C409.825 80.2448 411.821 80.6765 413.548 81.2316C413.589 81.2521 413.651 81.2727 413.754 81.2933C415.502 81.8895 417.004 82.609 418.012 83.4314C438.909 100.475 456.043 159.437 460.013 177.138C466.595 206.29 473.588 235.134 472.56 236.285Z" fill="#EBEBEB"/>
<path d="M415.07 81.54C415.07 81.54 407.048 136.288 405.156 150.453C403.264 164.618 405.053 239.575 405.053 239.575L482.268 246.092C482.268 246.092 466.08 196.319 465.916 193.153C465.916 193.153 453.102 133.348 439.897 108.636C430.168 90.4625 415.07 81.54 415.07 81.54Z" fill="#29AD88"/>
<path d="M389.339 82.4858C389.339 82.4858 378.911 137.871 377.985 142.435C377.06 146.999 363.71 237.005 363.71 237.005L344.376 237.416L354.866 196.319C354.887 196.319 377.306 90.9971 389.339 82.4858Z" fill="#2EC097"/>
<path d="M393.699 100.187C399.582 100.865 410.689 92.7033 413.774 84.0481C413.98 83.4519 412.231 77.8393 410.442 70.9111C409.372 66.6965 408.262 61.9886 407.583 57.6096C407.439 56.705 381.193 68.6085 381.193 68.6085C381.193 68.6085 385.348 77.3459 386.5 84.9732C386.582 85.6105 386.623 86.2067 386.603 86.8029C386.603 86.8852 386.603 86.988 386.603 87.1113C386.582 90.6063 387.426 99.4671 393.699 100.187Z" fill="#EB9481"/>
<path d="M386.582 86.8233C386.603 86.9055 386.582 87.0289 386.603 87.1317C387.487 87.1111 388.413 87.0083 389.441 86.8438C405.526 83.9245 406.596 63.0575 406.616 57.7944C401.844 59.2541 381.193 68.6289 381.193 68.6289C381.193 68.6289 385.348 77.3868 386.5 85.0141C386.582 85.6309 386.623 86.2476 386.582 86.8233Z" fill="#263238"/>
<path d="M407.275 22.7625C411.491 32.1578 409.887 61.0222 403.716 68.1972C394.789 78.5793 378.396 81.5398 369.12 70.397C360.131 59.6037 362.888 22.0224 369.922 15.3203C380.309 5.47266 401.063 8.8854 407.275 22.7625Z" fill="#EB9481"/>
<path d="M381.646 43.1983C381.667 43.1161 381.79 43.3011 381.79 43.3834C381.625 45.3159 381.769 47.5773 383.497 48.3174C383.559 48.338 383.538 48.4408 383.477 48.4202C381.358 48.0091 381.194 45.0075 381.646 43.1983Z" fill="#263238"/>
<path d="M383.499 41.2654C386.646 41.1832 386.563 47.4742 383.663 47.5564C380.784 47.6181 380.866 41.3271 383.499 41.2654Z" fill="#263238"/>
<path d="M370.683 43.1157C370.662 43.0334 370.539 43.1979 370.539 43.2801C370.58 45.2332 370.292 47.4741 368.523 48.0909C368.461 48.1114 368.482 48.2142 368.544 48.1937C370.683 47.9264 371.032 44.9454 370.683 43.1157Z" fill="#263238"/>
<path d="M368.955 41.0596C365.829 40.7923 365.5 47.0627 368.4 47.3094C371.259 47.5767 371.588 41.2857 368.955 41.0596Z" fill="#263238"/>
<path d="M386.007 38.4075C385.143 38.1814 384.402 37.8319 383.579 37.5235C382.654 37.174 381.872 36.9889 381.276 36.146C380.947 35.6938 381.091 34.892 381.502 34.5425C382.448 33.7201 383.703 33.864 384.834 34.2341C386.068 34.6453 386.912 35.262 387.611 36.3516C388.29 37.4207 387.138 38.7159 386.007 38.4075Z" fill="#263238"/>
<path d="M366.569 35.7761C367.433 35.6527 368.235 35.3855 369.078 35.1593C370.045 34.9126 370.827 34.8098 371.506 34.0492C371.876 33.638 371.814 32.8156 371.444 32.425C370.58 31.4999 369.325 31.5204 368.173 31.7672C366.898 32.0344 365.993 32.5689 365.191 33.5763C364.409 34.5426 365.417 35.9406 366.569 35.7761Z" fill="#263238"/>
<path d="M384.278 61.2279C383.805 61.6802 383.332 62.2969 382.633 62.3586C381.954 62.3997 381.173 62.0913 380.535 61.8446C380.473 61.8241 380.412 61.8857 380.453 61.9474C380.946 62.7081 382.016 63.1809 382.921 63.037C383.805 62.8931 384.258 62.1325 384.464 61.3307C384.484 61.2073 384.34 61.1456 384.278 61.2279Z" fill="#263238"/>
<path d="M382.283 55.3687C381.173 57.0545 379.568 57.9591 377.82 58.2675C377.038 58.4114 376.236 58.4319 375.434 58.3497C375.269 58.3497 375.125 58.3291 374.981 58.288C374.837 58.2675 374.714 58.2469 374.549 58.2263C374.323 58.1852 374.2 58.0002 374.159 57.7946V57.774C374.159 57.7124 374.159 57.6507 374.179 57.5685C374.179 57.5685 374.179 57.5685 374.179 57.5479V57.3834C374.159 55.8826 374.323 53.6006 374.323 53.6006C373.768 53.8679 370.971 55.1014 371.012 54.2996C371.485 47.8236 371.999 40.6076 373.83 34.2549C373.871 34.0493 374.2 34.0905 374.179 34.3166C373.974 40.5664 372.678 46.734 372.39 53.0044C373.295 52.6755 374.755 52.0587 375.537 52.0999C375.742 52.1615 375.125 56.4994 375.187 57.1778C375.187 57.1778 375.187 57.1984 375.208 57.2395C377.717 57.589 379.63 56.8489 382.098 55.1837C382.263 55.0809 382.407 55.2042 382.283 55.3687Z" fill="#263238"/>
<path d="M376.339 57.5886C376.339 57.5886 377.655 59.3978 379.465 60.0762C380.124 60.3229 380.864 60.4257 381.604 60.2407C383.168 59.8501 383.229 58.4315 382.941 57.198C382.715 56.1906 382.263 55.3271 382.263 55.3271C382.263 55.3271 379.98 57.4036 376.339 57.5886Z" fill="#263238"/>
<path d="M379.465 60.076C380.124 60.3227 380.864 60.4255 381.604 60.2404C383.168 59.8498 383.229 58.4313 382.941 57.1978C381.275 57.3417 379.609 58.4518 379.465 60.076Z" fill="#FF9ABB"/>
<path d="M371.382 6.17136C371.218 6.13024 371.053 6.10968 370.889 6.06856C370.93 6.048 370.971 6.02745 371.033 5.98633C371.156 6.06856 371.259 6.13024 371.382 6.17136Z" fill="#263238"/>
<path d="M410.627 15.8752C407.233 13.2437 402.585 12.1129 398.163 11.085C397.792 11.0028 397.422 10.9205 397.052 10.8383C396.97 10.8177 396.929 10.7766 396.929 10.7149C396.887 10.6121 396.949 10.4682 397.093 10.4888C397.299 10.5093 397.484 10.5299 397.69 10.571C397.587 10.4888 397.504 10.386 397.402 10.2832C398.327 10.571 401.104 10.9 404.066 11.9073C404.086 11.9279 404.107 11.9279 404.128 11.9279C406.431 12.7297 408.858 13.9426 410.627 15.8752Z" fill="#263238"/>
<path d="M371.197 5.90435C371.176 5.90435 371.135 5.92491 371.115 5.94546C371.073 5.96602 371.053 5.96602 371.032 5.98658C370.971 5.96602 370.888 5.92491 370.827 5.88379C370.868 5.88379 370.909 5.88379 370.95 5.90435C370.95 5.90435 370.971 5.90435 370.991 5.90435H371.197Z" fill="#263238"/>
<path d="M386.336 5.61639C386.315 5.61639 386.274 5.61639 386.233 5.59584C386.212 5.59584 386.212 5.57528 386.192 5.57528C386.109 5.55472 386.068 5.53416 385.986 5.5136C385.965 5.5136 385.965 5.5136 385.965 5.5136C385.78 5.36969 385.636 5.24634 385.472 5.12299L385.451 5.10243C384.69 4.62958 383.929 4.17729 383.168 3.76611C383.62 3.91002 384.094 4.07449 384.526 4.28008C384.937 4.42399 385.328 4.58846 385.718 4.73237C385.965 4.9174 386.192 5.12299 386.438 5.30801C386.562 5.43137 386.48 5.59584 386.336 5.61639Z" fill="#263238"/>
<path d="M415.687 22.1454C414.021 16.4917 409.352 13.5313 404.128 11.9277C406.431 12.7295 408.858 13.9424 410.627 15.875C407.234 13.2434 402.585 12.1127 398.163 11.0848C397.793 11.0025 397.422 10.9203 397.052 10.8381C396.97 10.8175 396.929 10.7764 396.929 10.7147C396.887 10.6119 396.949 10.468 397.093 10.4886C397.299 10.5091 397.484 10.5297 397.69 10.5708C397.587 10.4886 397.505 10.3858 397.402 10.283L397.381 10.2624C395.221 8.0421 389.071 2.0184 385.019 0.990469C382.798 0.414826 382.263 1.54555 383.682 3.33416C383.703 3.35472 383.703 3.35472 383.703 3.35472C384.402 3.78645 385.081 4.2593 385.719 4.73215C385.966 4.91718 386.192 5.12276 386.439 5.30779C386.562 5.43114 386.48 5.59561 386.336 5.61617C386.315 5.61617 386.274 5.61617 386.233 5.59561C386.212 5.59561 386.212 5.57505 386.192 5.57505C386.11 5.5545 386.068 5.53394 385.986 5.51338C385.966 5.51338 385.966 5.51338 385.966 5.51338C385.78 5.36947 385.636 5.24612 385.472 5.12276L385.451 5.1022C384.69 4.62936 383.929 4.17706 383.168 3.76589C383.148 3.74533 383.127 3.72477 383.086 3.72477C378.355 1.99784 373.172 0.66153 370.087 1.54555C366.137 2.69684 368.235 4.506 370.724 5.84232C370.724 5.84232 370.724 5.86288 370.745 5.86288C370.765 5.86288 370.786 5.86288 370.827 5.88343C370.868 5.88343 370.909 5.88343 370.95 5.90399C370.95 5.90399 370.971 5.90399 370.992 5.90399H371.197C371.177 5.90399 371.136 5.92455 371.115 5.94511C371.074 5.96567 371.053 5.96567 371.033 5.98623C371.156 6.06846 371.259 6.13014 371.382 6.17126C371.218 6.13014 371.053 6.10958 370.889 6.06846C370.416 5.98623 369.943 5.94511 369.47 5.90399H369.305C367.289 6.02735 365.5 6.50019 364.286 7.61036C362.394 9.33729 364.081 10.0568 367.207 10.1802C363.772 16.4712 363.587 26.6066 364.019 33.6993C364.533 29.0325 367.042 22.022 369.634 21.3436C372.226 20.6651 373.172 24.2629 376.319 24.8591C379.486 25.4553 382.489 20.5829 388.208 21.2613C393.782 21.9192 397.834 27.6345 399.294 35.2001C400.981 43.9992 402.873 48.995 408.406 48.4193C410.216 48.2343 411.779 42.2929 412.581 38.6129C412.581 38.5923 412.581 38.5923 412.581 38.5717C415.667 33.6582 417.353 27.8195 415.687 22.1454ZM413.034 36.2897C413.013 36.3514 412.993 36.372 412.972 36.4131C412.993 36.2897 413.034 36.2075 413.075 36.0841C413.096 36.0019 413.116 35.9402 413.116 35.8785C413.137 35.8169 413.137 35.7758 413.137 35.7758C414.576 30.6155 415.255 23.7695 411.923 17.7047C411.573 17.0674 411.162 16.4917 410.689 15.9572C412.787 17.5608 414.412 19.7811 415.194 22.906C416.407 27.7373 415.194 32.178 413.034 36.2897Z" fill="#263238"/>
<path d="M371.382 6.17161C371.218 6.13049 371.053 6.10993 370.888 6.06882C370.415 5.98658 369.942 5.94546 369.469 5.90435C369.901 5.88379 370.354 5.88379 370.827 5.88379C370.868 5.88379 370.909 5.88379 370.95 5.90435C370.95 5.90435 370.971 5.90435 370.991 5.90435H371.197C371.176 5.90435 371.135 5.92491 371.115 5.94547C371.074 5.96602 371.053 5.96602 371.032 5.98658C371.156 6.06882 371.259 6.13049 371.382 6.17161Z" fill="#263238"/>
<path d="M386.335 5.61643C386.315 5.61643 386.274 5.61643 386.233 5.59588C386.212 5.59588 386.212 5.57532 386.191 5.57532C386.109 5.55476 386.068 5.5342 385.986 5.51364C385.965 5.51364 385.965 5.51364 385.965 5.51364C385.78 5.36973 385.636 5.24638 385.472 5.12303L385.451 5.10247C385.101 4.81465 384.813 4.54738 384.525 4.28012C384.196 3.95118 383.929 3.6428 383.703 3.35498C384.402 3.78671 385.081 4.25956 385.718 4.73241C385.965 4.91744 386.191 5.12303 386.438 5.30805C386.562 5.43141 386.479 5.59588 386.335 5.61643Z" fill="#263238"/>
<path d="M398.163 11.0855C397.751 10.9621 397.34 10.8388 396.929 10.7154C396.887 10.6126 396.949 10.4687 397.093 10.4893C397.299 10.5098 397.484 10.5304 397.69 10.5715C397.998 10.9005 398.163 11.0855 398.163 11.0855Z" fill="#263238"/>
<path d="M410.627 15.8757C407.233 13.2441 402.585 12.1134 398.163 11.0855C397.792 11.0033 397.422 10.921 397.052 10.8388C396.97 10.8182 396.929 10.7771 396.929 10.7154C396.887 10.6126 396.949 10.4687 397.093 10.4893C397.299 10.5098 397.484 10.5304 397.69 10.5715C399.808 10.8593 401.968 11.2705 404.066 11.9078C404.086 11.9284 404.107 11.9284 404.128 11.9284C406.431 12.7302 408.858 13.9431 410.627 15.8757Z" fill="#263238"/>
<path d="M386.336 5.6165C386.315 5.6165 386.274 5.6165 386.233 5.59594C386.213 5.59594 386.213 5.57538 386.192 5.57538C385.945 5.41091 385.719 5.267 385.472 5.12309L385.452 5.10253C384.69 4.62968 383.929 4.17739 383.168 3.76622C383.148 3.74566 383.127 3.7251 383.086 3.7251C378.458 1.21694 373.892 0.0245361 368.194 0.888C368.092 0.888 368.05 0.74409 368.153 0.702972C373.398 -0.96228 379.075 0.497386 383.683 3.33448C383.703 3.35504 383.703 3.35504 383.703 3.35504C384.403 3.78677 385.081 4.25962 385.719 4.73247C385.966 4.9175 386.192 5.12309 386.439 5.30812C386.562 5.43147 386.48 5.59594 386.336 5.6165Z" fill="#263238"/>
<path d="M371.382 6.17133C371.218 6.13021 371.053 6.10965 370.889 6.06853C370.415 5.9863 369.942 5.94518 369.469 5.90406H369.305C367.289 5.80127 365.315 6.17133 363.319 6.95256C363.278 6.97312 363.258 6.932 363.299 6.91144C365.623 5.71904 368.215 5.3901 370.724 5.84239C370.724 5.84239 370.724 5.86295 370.745 5.86295C370.765 5.86295 370.786 5.86295 370.827 5.88351C370.868 5.88351 370.909 5.88351 370.95 5.90406C370.95 5.90406 370.971 5.90406 370.991 5.90406C371.033 5.92462 371.074 5.92462 371.115 5.94518C371.074 5.96574 371.053 5.96574 371.033 5.9863C371.156 6.06853 371.259 6.13021 371.382 6.17133Z" fill="#263238"/>
<path d="M403.079 46.9802C403.079 46.9802 408.509 37.1532 412.91 39.0034C417.312 40.8537 413.898 54.6075 409.208 56.9512C404.518 59.2743 402.276 54.9775 402.276 54.9775L403.079 46.9802Z" fill="#EB9481"/>
<path d="M411.82 42.93C411.903 42.9095 411.923 43.0328 411.861 43.0534C408.591 44.8009 407.131 48.1519 406.205 51.5647C407.089 50.1873 408.406 49.3443 410.216 50.3928C410.319 50.4545 410.236 50.5984 410.134 50.5779C408.694 50.434 407.727 50.7835 406.884 51.9964C406.287 52.8599 405.938 53.9084 405.567 54.8746C405.444 55.2036 404.868 55.1008 404.95 54.7307C404.95 54.7102 404.971 54.669 404.971 54.6485C404.457 50.3106 407.192 43.8552 411.82 42.93Z" fill="#263238"/>
<path d="M430.579 94.1222C461.555 128.887 484.86 177.858 484.572 189.371C484.263 202.055 468.117 246.729 452.731 267.72C450.757 270.413 438.765 269.282 428.625 263.711C417.929 257.831 409.167 247.325 411.265 244.201C419.143 232.462 437.86 186.965 437.696 179.852C437.531 173.273 422.208 133.019 416.366 109.726C410.751 87.3584 416.16 77.9426 430.579 94.1222Z" fill="#EB9481"/>
<path d="M471.552 264.307L413.857 236.142C413.857 236.142 436.544 185.547 436.585 180.078C436.626 174.61 421.673 131.806 416.037 112.049C410.401 92.272 412.581 70.0687 437.223 99.961C461.864 129.853 483.379 174.301 485.826 186.122C488.294 197.923 471.552 264.307 471.552 264.307Z" fill="#2EC097"/>
<path d="M433.623 165.543C432.43 161.781 431.196 158.039 429.942 154.318C428.522 150.145 427.062 145.971 425.519 141.839C424.018 137.809 422.331 133.862 420.727 129.894C420.603 129.607 420.11 129.792 420.213 130.1C422.126 135.425 423.936 140.79 425.725 146.177C424.367 143.73 423.01 141.284 421.57 138.899C421.447 138.694 421.138 138.858 421.262 139.064C422.866 142.045 424.573 144.964 426.301 147.863C426.733 149.158 427.165 150.453 427.597 151.748C430.024 158.964 432.348 166.222 434.425 173.561C434.899 175.206 435.331 176.871 435.454 178.598C435.598 180.572 435.187 182.463 434.611 184.334C433.562 187.726 432.389 191.056 431.196 194.408C428.79 201.11 426.178 207.73 423.421 214.288C420.295 221.751 416.737 229.131 413.199 236.409C413.199 236.409 415.358 236.985 415.42 237.026C415.482 237.067 415.585 236.964 415.544 236.902C415.502 236.841 414.186 236.203 414.145 236.203C417.744 229.892 421.2 223.704 424.223 217.084C427.227 210.526 429.921 203.865 432.348 197.08C433.603 193.585 434.796 190.09 435.906 186.554C436.997 183.1 437.634 179.852 436.873 176.254C436.05 172.595 434.734 169.059 433.623 165.543Z" fill="#263238"/>
<path d="M472.498 248.066C470.564 246.853 468.281 246.051 466.204 245.085C464.332 244.2 462.46 243.296 460.568 242.453C456.434 240.603 452.32 238.711 448.186 236.882C444.051 235.052 439.958 233.202 435.803 231.392C431.69 229.604 427.596 227.671 423.4 226.129C423.236 226.068 423.133 226.314 423.277 226.397C427.103 228.74 431.196 230.693 435.207 232.708C439.177 234.682 443.208 236.532 447.239 238.362C451.353 240.212 455.529 241.939 459.704 243.625C461.72 244.447 463.756 245.187 465.813 245.948C467.952 246.75 470.173 247.778 472.395 248.292C472.539 248.292 472.621 248.127 472.498 248.066Z" fill="#263238"/>
</svg>
