<?xml version="1.0" encoding="utf-8"?>
<svg viewBox="-159.724 -63.686 871.053 416.84" xmlns="http://www.w3.org/2000/svg">
  <path d="M407.051 303.639H280.045C275.219 303.639 271.312 299.717 271.312 294.884V289.19H407.051V303.639Z" fill="#77A4E5" transform="matrix(1, 0, 0, 1, -159.70694, -63.609077)"/>
  <path d="M342.278 408.137H334.085L331.788 303.639H344.299L342.278 408.137Z" fill="#677282" transform="matrix(1, 0, 0, 1, -159.70694, -63.609077)"/>
  <path d="M377.877 408.137H298.204V400.926L338.814 397.253L377.877 400.926V408.137Z" fill="#677282" transform="matrix(1, 0, 0, 1, -159.70694, -63.609077)"/>
  <path d="M290.465 407.005C290.465 403.375 293.4 400.433 297.021 400.433C300.642 400.433 303.576 403.375 303.576 407.005C303.576 410.634 300.642 413.576 297.021 413.576C293.4 413.576 290.465 410.634 290.465 407.005Z" fill="#677282" transform="matrix(1, 0, 0, 1, -159.70694, -63.609077)"/>
  <path d="M370.138 407.005C370.138 403.375 373.073 400.433 376.694 400.433C380.315 400.433 383.249 403.375 383.249 407.005C383.249 410.634 380.315 413.576 376.694 413.576C373.073 413.576 370.138 410.634 370.138 407.005Z" fill="#677282" transform="matrix(1, 0, 0, 1, -159.70694, -63.609077)"/>
  <path d="M365.577 310.497H310.505C307.203 310.497 304.522 307.81 304.522 304.5V303.639H371.559V304.5C371.559 307.81 368.884 310.497 365.577 310.497Z" fill="#677282" transform="matrix(1, 0, 0, 1, -159.70694, -63.609077)"/>
  <path d="M282.683 303.639C276.403 303.639 271.312 298.536 271.312 292.24V201.167C271.312 183.137 283.072 168.521 297.578 168.521H356.978C371.484 168.521 383.244 183.137 383.244 201.167V303.644H282.683V303.639Z" fill="#B8C0C7" transform="matrix(1, 0, 0, 1, -159.70694, -63.609077)"/>
  <path d="M283.855 303.639C280.413 303.639 277.619 300.838 277.619 297.387V201.167C277.619 183.137 289.379 168.521 303.884 168.521H363.29C377.796 168.521 389.556 183.137 389.556 201.167V225.903V303.639H283.855Z" fill="#677282" transform="matrix(1, 0, 0, 1, -159.70694, -63.609077)"/>
  <path d="M421.518 303.639H276.208C272.23 303.639 269.004 300.405 269.004 296.417C269.004 292.43 272.23 289.19 276.208 289.19H421.518C425.496 289.19 428.723 292.425 428.723 296.417C428.728 300.405 425.501 303.639 421.518 303.639Z" fill="#B8C0C7" transform="matrix(1, 0, 0, 1, -159.70694, -63.609077)"/>
  <path d="M505.158 416.155H451.059C448.46 412.975 447 398.001 447.395 394.165C447.476 393.396 448.449 389.804 448.449 389.804C448.449 389.804 468.424 381.358 470.964 392.697C471.04 393.055 471.137 393.401 471.24 393.743C474.439 404.35 488.777 409.172 497.057 410.515C502.434 411.393 504.423 414.199 505.158 416.155Z" fill="#2EC097" transform="matrix(1, 0, 0, 1, -159.70694, -63.609077)"/>
  <path d="M357.67 246.885C359.621 246.885 431.727 256.989 446.736 273.897C454.232 282.343 473.828 392.995 473.828 392.995C473.828 392.995 464.716 399.48 444.687 393.401C444.687 393.401 418.254 321.804 419.335 301.564C419.632 295.968 355.238 293.627 343.84 290.94C332.442 288.253 318.298 281.671 324.432 270.673C330.572 259.681 357.67 246.885 357.67 246.885Z" fill="#241E28" transform="matrix(1, 0, 0, 1, -159.70694, -63.609077)"/>
  <path d="M469.143 416.155H415.044C412.444 412.975 413.401 401.23 413.795 397.394C413.876 396.619 413.93 396.17 413.93 396.17C413.93 396.17 432.403 381.358 434.943 392.697C435.019 393.055 435.116 393.401 435.219 393.743C438.413 404.35 452.756 409.172 461.036 410.515C466.419 411.393 468.408 414.199 469.143 416.155Z" fill="#2EC097" transform="matrix(1, 0, 0, 1, -159.70694, -63.609077)"/>
  <path d="M328.95 252.736C330.901 252.736 417.022 257.021 432.025 275.641C439.521 284.943 440.634 392.361 440.634 392.361C440.634 392.361 431.36 403.89 411.331 397.194C411.331 397.194 392.929 340.202 394.28 301.396C394.496 295.231 340.678 294.521 325.897 293.346C307.149 291.85 302.409 260.31 308.549 248.196C314.683 236.083 328.95 252.736 328.95 252.736Z" fill="#384152" transform="matrix(1, 0, 0, 1, -159.70694, -63.609077)"/>
  <path d="M347.228 131.259L346.147 131.476C341.337 132.451 336.609 129.304 335.636 124.482L334.495 118.821C333.523 113.999 336.663 109.259 341.473 108.284L342.553 108.067C347.363 107.092 352.092 110.24 353.065 115.061L354.205 120.722C355.178 125.544 352.038 130.284 347.228 131.259Z" fill="white" transform="matrix(1, 0, 0, 1, -159.70694, -63.609077)"/>
  <path d="M385.93 251.604C375.132 268.891 307.705 274.097 307.705 274.097C306.571 271.334 301.442 226.775 300.572 223.704C298.377 216.016 296.956 207.538 296.053 199.238C296.043 199.135 296.032 199.022 296.016 198.919C294.464 184.519 294.454 170.672 294.664 162.35C294.783 157.534 294.973 154.571 294.989 154.43V154.425C295.151 154.354 295.318 154.289 295.481 154.224C299.561 152.507 303.474 151.028 307.224 149.749C307.246 149.744 307.257 149.744 307.257 149.744C310.408 148.666 313.445 147.734 316.363 146.932C321.498 145.518 326.27 144.505 330.685 143.801C335.89 142.978 340.603 142.582 344.829 142.495C345.018 142.49 345.207 142.49 345.396 142.485C346.51 142.463 347.591 142.468 348.634 142.49C359.167 142.717 366.171 144.819 369.716 146.217C370.208 146.412 370.635 146.596 370.987 146.759C371.035 146.781 371.078 146.797 371.127 146.819C371.527 146.997 371.835 147.149 372.057 147.257C372.084 147.268 372.116 147.284 372.143 147.306C372.246 147.36 372.348 147.42 372.446 147.479L377.991 205.923L385.93 251.604Z" fill="#2EC097" transform="matrix(1, 0, 0, 1, -159.70694, -63.609077)"/>
  <path d="M457.177 219.857C449.47 223.444 403.624 226.456 399.22 225.183C396.96 224.527 387.508 216.184 378.002 205.918C377.991 205.913 377.991 205.913 377.991 205.913C368.992 196.204 359.918 184.774 356.859 176.544C350.563 159.642 355.978 144.635 355.978 144.635C355.978 144.635 367.674 144.587 372.446 147.474C377.218 150.367 404.484 200.706 408.126 202.034C411.774 203.366 454.967 205.842 459.912 208.199C459.906 208.193 464.879 216.271 457.177 219.857Z" fill="#2EC097" transform="matrix(1, 0, 0, 1, -159.70694, -63.609077)"/>
  <path d="M345.385 144.527L345.375 147.371C345.375 147.371 346.164 156.272 335.23 157.588C324.297 158.91 316.012 154.148 316.293 147.279C317.271 141.959 318.347 138.308 318.412 133.909C318.439 132.273 318.32 130.539 318.017 128.578L339.203 128.123L345.445 129.136L345.385 144.527Z" fill="#EE805F" transform="matrix(1, 0, 0, 1, -159.70694, -63.609077)"/>
  <path d="M345.445 129.13L345.386 144.527C343.137 145.578 340.597 146.223 337.754 146.228C328.016 146.244 318.325 130.539 318.017 128.578L345.445 129.13Z" fill="#DE6B4D" transform="matrix(1, 0, 0, 1, -159.70694, -63.609077)"/>
  <path d="M346.693 136.607C346.693 136.607 319.568 142.143 316.39 125.159C313.212 108.175 307.57 97.4488 324.751 93.1961C341.937 88.9434 346.52 94.7888 348.958 100.201C351.395 105.613 353.665 134.732 346.693 136.607Z" fill="#EE805F" transform="matrix(1, 0, 0, 1, -159.70694, -63.609077)"/>
  <path d="M354.216 87.5727C354.216 87.5727 346.65 86.9985 337.717 83.125C330.469 79.9774 321.336 83.4717 318.369 85.0428C318.45 84.566 318.639 83.9105 319.087 83.255C319.087 83.255 317.758 84.2031 317.563 85.5249C317.428 85.6279 317.363 85.6983 317.401 85.7199C317.401 85.7199 315.893 85.4437 314.92 85.8825C314.92 85.8825 315.601 85.785 315.845 86.2238C315.872 86.2725 315.91 86.3105 315.953 86.343C304.663 91.8309 303.647 109.736 307.289 113.869C311.672 118.848 316.936 130.057 316.936 130.057C316.936 130.057 318.844 127.402 318.044 123.019C317.244 118.637 321.022 118.631 325.789 116.627C330.556 114.628 326.573 109.053 330.745 105.656C334.917 102.26 350.228 104.232 350.028 101.642C355.708 99.5562 354.216 88.1524 354.216 87.5727Z" fill="#151F2C" transform="matrix(1, 0, 0, 1, -159.70694, -63.609077)"/>
  <path d="M305.165 257.644C303.868 248.846 300.771 237.67 299.323 228.168C298.118 220.264 296.956 207.538 296.053 199.238C296.042 199.135 296.032 199.022 296.015 198.919C296.075 198.946 296.172 199.103 296.232 199.027C299.226 195.381 307.403 191.388 317.309 205.918C319.287 208.811 327.372 226.607 327.08 230.259C325.767 246.885 305.165 257.644 305.165 257.644Z" fill="#29A381" transform="matrix(1, 0, 0, 1, -159.70694, -63.609077)"/>
  <path d="M311.618 232.491C311.397 231.18 311.64 229.527 312.661 227.469C312.661 227.469 313.931 226.645 315.617 225.681C318.131 224.262 321.562 222.539 323.119 222.815C323.4 222.864 323.773 222.945 324.221 223.059C327.913 223.947 336.517 226.602 337.819 228.162C338.889 229.441 340.348 231.071 341.354 232.491H311.618Z" fill="#EE805F" transform="matrix(1, 0, 0, 1, -159.70694, -63.609077)"/>
  <path d="M317.309 232.491H244.824C244.63 231.559 244.624 230.698 244.878 230.048C247.04 224.57 251.261 215.561 256.12 205.891C259.697 198.778 263.61 191.307 267.312 184.627C272.447 175.352 277.154 167.589 279.916 164.409C282.094 161.906 284.844 159.804 287.714 158.076C290.146 156.603 292.665 155.4 294.989 154.435V154.43C295.151 154.36 295.318 154.295 295.48 154.23C300.528 152.176 304.528 151.277 304.528 151.277C304.528 151.277 304.582 153.574 304.587 157.101C304.603 167.345 304.209 187.981 300.95 193.019C300.042 194.422 298.35 196.546 296.232 199.032C296.172 199.103 296.113 199.173 296.048 199.244C294.902 200.587 293.632 202.039 292.303 203.529C284.736 212.023 275.154 222.003 273.987 223.216C273.906 223.297 273.868 223.341 273.868 223.341H274.008L294.335 223.622L300.571 223.709L313.499 223.888C314.391 224.272 315.088 224.906 315.618 225.692C316.866 227.518 317.25 230.188 317.309 232.491Z" fill="#2EC097" transform="matrix(1, 0, 0, 1, -159.70694, -63.609077)"/>
  <path d="M457.177 219.857C449.47 223.444 403.624 226.456 399.219 225.183C396.96 224.527 387.508 216.184 378.001 205.918C378.472 205.978 382.817 198.713 402.646 216.103C402.646 216.103 407.84 218.422 421.972 217.121C436.1 215.827 454.248 215.35 457.177 219.857Z" fill="#29A381" transform="matrix(1, 0, 0, 1, -159.70694, -63.609077)"/>
  <path d="M324.27 131.259L323.189 131.476C318.379 132.451 313.65 129.304 312.678 124.482L311.537 118.821C310.564 113.999 313.704 109.259 318.514 108.284L319.595 108.067C324.405 107.092 329.134 110.24 330.107 115.061L331.247 120.722C332.22 125.544 329.08 130.284 324.27 131.259Z" fill="#2EC097" transform="matrix(1, 0, 0, 1, -159.70694, -63.609077)"/>
  <path d="M315.866 110.873C315.142 109.562 314.083 99.0307 316.969 90.6444C318.363 86.5922 320.622 84.2789 323.454 82.7187C324.476 82.1552 325.627 81.8519 326.794 81.8519L329.642 81.9006C320.271 85.8771 318.098 107.162 318.828 109.432C318.806 109.362 318.774 109.313 318.758 109.275L315.866 110.873Z" fill="#2EC097" transform="matrix(1, 0, 0, 1, -159.70694, -63.609077)"/>
  <path d="M343.224 133.031C327.47 133.031 319.671 120.549 319.595 120.424L321.006 119.563L320.303 119.996L321.006 119.563C321.081 119.682 328.421 131.379 343.229 131.379C343.326 131.379 343.429 131.379 343.526 131.379L343.542 133.031C343.434 133.031 343.326 133.031 343.224 133.031Z" fill="#2EC097" transform="matrix(1, 0, 0, 1, -159.70694, -63.609077)"/>
  <path d="M321.73 125.717L321.19 125.826C318.795 126.313 316.434 124.742 315.953 122.342L315.385 119.52C314.899 117.12 316.466 114.752 318.86 114.27L319.401 114.162C321.795 113.674 324.151 115.245 324.638 117.645L325.205 120.462C325.691 122.868 324.13 125.23 321.73 125.717Z" fill="#279F7E" transform="matrix(1, 0, 0, 1, -159.70694, -63.609077)"/>
  <path d="M345.18 133.578H343.694C342.937 133.578 342.321 132.955 342.321 132.197C342.321 131.438 342.943 130.821 343.694 130.821H345.18C345.937 130.821 346.558 131.444 346.558 132.197C346.558 132.961 345.937 133.578 345.18 133.578Z" fill="#2EC097" transform="matrix(1, 0, 0, 1, -159.70694, -63.609077)"/>
  <path d="M155.71 409.356C156.029 413.722 162.174 413.771 169.151 412.959C176.123 412.146 174.269 413.917 184.035 414.053C193.801 414.188 197.162 410.954 197.638 409.556C198.06 408.316 193.358 407.27 188.326 406.04C187.694 405.889 187.056 405.726 186.424 405.569C180.749 404.123 176.993 399.87 172.14 396.153C167.54 392.632 161.612 379.89 161.612 379.89L148.273 379.289C148.273 379.289 153.889 390.709 156.002 395.633C157.245 398.526 156.715 402.086 156.175 404.816C155.883 406.3 155.591 407.817 155.71 409.356Z" fill="#EE805F" transform="matrix(1, 0, 0, 1, -159.70694, -63.609077)"/>
  <path d="M169.145 412.959C176.117 412.146 174.263 413.917 184.029 414.053C193.795 414.188 197.157 410.954 197.632 409.556C198.054 408.316 193.352 407.27 188.32 406.04L188.261 406.133C188.261 406.133 181.976 409.513 173.934 408.706C167.378 408.05 160.693 405.304 156.169 404.816C155.883 406.3 155.591 407.823 155.71 409.356C156.029 413.722 162.174 413.766 169.145 412.959Z" fill="#151F2C" transform="matrix(1, 0, 0, 1, -159.70694, -63.609077)"/>
  <path d="M63.5855 410.261C63.8989 414.627 70.0438 414.681 77.021 413.874C83.9928 413.072 82.1391 414.838 91.905 414.985C101.671 415.131 105.038 411.897 105.513 410.499C105.935 409.258 101.233 408.207 96.2069 406.978C95.5746 406.826 94.9369 406.663 94.3045 406.501C88.6352 405.049 84.8791 400.791 80.0313 397.069C75.4375 393.542 80.0259 372.674 80.0259 372.674L65.3527 371.244C65.3527 371.244 66.0553 388.813 66.0445 396.804C66.0391 399.957 64.5961 402.985 64.0503 405.715C63.7584 407.205 63.472 408.722 63.5855 410.261Z" fill="#EE805F" transform="matrix(1, 0, 0, 1, -159.70694, -63.609077)"/>
  <path d="M77.021 413.874C83.9928 413.072 82.139 414.838 91.9049 414.985C101.671 415.131 105.038 411.897 105.513 410.499C105.935 409.258 101.233 408.207 96.2069 406.978L96.1475 407.07C96.1475 407.07 89.8566 410.445 81.8148 409.627C75.2591 408.96 68.5792 406.214 64.0556 405.715C63.7638 407.2 63.4774 408.717 63.5909 410.255C63.8989 414.627 70.0438 414.681 77.021 413.874Z" fill="#151F2C" transform="matrix(1, 0, 0, 1, -159.70694, -63.609077)"/>
  <path d="M106.4 49.5852C108.924 39.1728 105.265 34.3242 101.963 31.74C100.395 27.9098 98.6064 25.1469 96.7797 24.1013C93.4451 22.1998 89.4512 21.9939 86.6571 22.1619C87.3759 21.4197 88.7919 21.1434 88.7919 21.1434C87.057 20.8833 83.1928 22.6061 83.1928 22.6061C59.0834 13.2934 55.2949 48.8755 55.8029 57.1426C56.3055 65.4097 56.2407 75.145 43.6969 81.6568C19.7659 94.0846 51.6523 140.913 51.6523 140.913C51.0416 134.234 81.7931 98.982 97.8336 88.4233C101.741 82.6591 103.125 72.4796 103.233 71.6778C102.557 79.7499 101.179 84.2789 99.9521 86.8251C107.254 80.0912 108.334 63.8929 106.4 49.5852Z" fill="#151F2C" transform="matrix(1, 0, 0, 1, -159.70694, -63.609077)"/>
  <path d="M96.8768 88.9542C96.9579 88.9921 89.1322 93.0661 83.2467 91.4517C77.7071 89.9402 74.0915 82.7403 74.1672 82.7241C76.5127 82.2582 77.1883 79.0293 77.1396 65.1443L78.1989 65.3556L96.0229 68.8932C96.0229 68.8932 95.6175 74.5166 95.6067 79.8149C95.5905 84.2626 95.8608 88.4829 96.8768 88.9542Z" fill="#EE805F" transform="matrix(1, 0, 0, 1, -159.70694, -63.609077)"/>
  <path d="M96.0232 68.8932C96.0232 68.8932 95.6179 74.5166 95.6071 79.8149C85.6304 79.5332 80.361 70.4101 78.1992 65.3556L96.0232 68.8932Z" fill="#DE6B4D" transform="matrix(1, 0, 0, 1, -159.70694, -63.609077)"/>
  <path d="M168.546 386.965C169.421 389.712 167.454 392.54 164.584 392.675L157.623 393L150.257 393.228C148.414 393.282 146.652 392.48 145.49 391.045C139.61 383.812 121.505 359.71 110.529 324.686C110.221 323.705 109.896 322.708 109.55 321.706C102.298 300.513 87.2623 273.902 79.3448 249.821C78.0855 245.986 76.9506 242.372 75.9345 238.959C75.6103 237.865 75.2914 236.792 74.9887 235.73C69.1519 215.399 67.4603 202.044 65.9038 187.78L123.11 188.241C123.094 188.241 135.141 282.077 168.546 386.965Z" fill="#2EC097" transform="matrix(1, 0, 0, 1, -159.70694, -63.609077)"/>
  <path d="M115.09 155.291C114.944 182.579 119.084 194.287 119.084 194.287C119.084 194.287 94.5911 206.763 65.4772 197.58C65.1367 197.472 57.4786 152.496 58.2082 148.427C59.5593 140.832 59.5917 132.977 58.9162 125.566C57.1381 105.949 51.8579 89.6639 51.8579 89.6639C59.7917 87.8544 67.2174 84.6744 75.4755 81.5701C77.3725 83.943 83.1823 86.4188 88.2138 86.305C94.0129 86.175 95.8936 83.6884 95.591 80.9742C101.768 84.4198 106.703 87.6757 106.703 87.6757C111.956 96.8204 122.608 105.7 123.375 119.731C123.57 123.182 115.09 154.528 115.09 155.291Z" fill="#B8C0C7" transform="matrix(1, 0, 0, 1, -159.70694, -63.609077)"/>
  <path d="M65.8878 158.331C63.3855 161.879 58.5918 183.441 46.6641 186.155C52.809 170.785 57.4784 164.046 58.208 159.322C59.5592 150.502 59.5916 141.374 58.916 132.765C62.9099 125.75 65.8878 120.939 65.8878 120.939C66.2013 119.807 72.2327 101.111 74.1675 117.819C76.0969 134.537 68.6819 154.365 65.8878 158.331Z" fill="#5F9AA8" transform="matrix(1, 0, 0, 1, -159.70694, -63.609077)"/>
  <path d="M106.432 85.6712C106.432 85.6712 114.917 90.2869 118.495 94.843C122.073 99.3991 143.026 137.143 143.026 140.924C143.026 144.7 121.759 142.235 121.759 142.235L106.432 85.6712Z" fill="#384152" transform="matrix(1, 0, 0, 1, -159.70694, -63.609077)"/>
  <path d="M99.3523 73.9098C99.3523 73.9098 75.7509 74.2999 75.7347 59.5643C75.7185 44.8287 72.6596 34.958 87.7273 34.0858C102.795 33.2135 105.73 38.8315 106.924 43.7506C108.129 48.6642 105.492 73.4277 99.3523 73.9098Z" fill="#EE805F" transform="matrix(1, 0, 0, 1, -159.70694, -63.609077)"/>
  <path d="M98.482 33.7228C98.482 33.7228 92.0182 51.0101 82.1064 53.5671C72.1892 56.1242 67.8872 53.4588 67.8872 53.4588C67.8872 53.4588 75.4913 47.402 77.0694 36.827C77.0694 36.8324 93.6071 25.4936 98.482 33.7228Z" fill="#151F2C" transform="matrix(1, 0, 0, 1, -159.70694, -63.609077)"/>
  <path d="M96.877 35.1259C96.877 35.1259 101.703 38.9832 102.881 42.7375C104.06 46.4919 104.589 54.2118 106.832 53.9518C106.832 53.9518 111.701 42.2012 106.227 35.5539C100.428 28.5058 96.877 35.1259 96.877 35.1259Z" fill="#151F2C" transform="matrix(1, 0, 0, 1, -159.70694, -63.609077)"/>
  <path d="M95.5908 80.9742C95.5908 80.9742 109.243 114.785 109.648 121.627C110.048 128.469 111.253 233.526 111.253 233.526C111.253 233.526 110.448 238.358 119.684 236.343C128.92 234.333 131.331 232.317 131.331 232.317C131.331 232.317 122.494 167.513 124.905 144.971C127.315 122.429 106.432 85.6712 106.432 85.6712L95.5908 80.9742Z" fill="#384152" transform="matrix(1, 0, 0, 1, -159.70694, -63.609077)"/>
  <path d="M157.618 393.006L149.619 393.25C148.187 393.293 146.82 392.675 145.912 391.57C140.534 385.042 121.781 360.609 110.523 324.691C110.215 323.711 109.891 322.714 109.545 321.712C102.292 300.518 87.257 273.908 79.3394 249.827C78.0802 245.991 76.9452 242.378 75.9292 238.965C75.6049 237.87 75.286 236.798 74.9834 235.736L83.409 229.327C83.409 229.327 108.702 270.381 116.533 309.018C123.326 342.58 150.565 382.962 157.618 393.006Z" fill="#29A381" transform="matrix(1, 0, 0, 1, -159.70694, -63.609077)"/>
  <path d="M84.2792 312.616C84.4143 330.39 83.5766 370.009 81.4148 389.376C81.2148 391.148 79.7232 392.486 77.9451 392.486H71.9786C69.4601 392.486 67.5794 392.47 66.3309 392.448C65.25 392.432 64.3259 391.652 64.1151 390.59C58.181 360.311 53.933 335.158 50.8201 313.423C48.2205 295.231 45.9074 279.634 44.1239 266.204C42.335 252.693 41.0866 241.376 40.6434 231.819C40.5732 230.313 40.5245 228.85 40.4975 227.425C40.4705 225.995 40.4597 224.608 40.4759 223.259L89.9053 218.427C89.2783 251.349 84.1981 301.694 84.2792 312.616Z" fill="#2EC097" transform="matrix(1, 0, 0, 1, -159.70694, -63.609077)"/>
  <path d="M71.9787 392.486C69.7197 392.486 67.9686 392.47 66.731 392.453C65.4177 392.437 64.2936 391.494 64.0396 390.2C58.1433 360.095 53.917 335.06 50.8202 313.423C48.2206 295.231 45.9075 279.634 44.124 266.204C42.3352 252.693 41.0867 241.376 40.6436 231.819L58.781 242.513C58.781 242.513 47.2046 246.609 51.6201 277.602C56.0409 308.59 65.8284 388.098 71.9787 392.486Z" fill="#29A381" transform="matrix(1, 0, 0, 1, -159.70694, -63.609077)"/>
  <path d="M74.3132 231.51C74.3132 231.51 70.8328 244.122 58.7862 242.513C46.7396 240.904 29.6128 233.656 29.6128 233.656C29.6128 233.656 34.7579 217.349 41.1622 195.928C48.9122 169.995 58.5051 136.563 63.0287 115.473C64.2988 109.562 65.1635 104.627 65.4877 101.095L75.4806 81.6568C75.4806 81.6568 90.3808 115.18 91.186 123.632C91.9805 132.094 74.3132 231.51 74.3132 231.51Z" fill="#384152" transform="matrix(1, 0, 0, 1, -159.70694, -63.609077)"/>
  <path d="M73.7782 141.352C73.2377 155.037 70.0275 181.604 41.3837 195.825C41.3081 195.863 41.2324 195.901 41.1567 195.934C48.9068 170 58.4997 136.569 63.0233 115.478C68.2818 123.361 74.07 133.816 73.7782 141.352Z" fill="#151F2C" transform="matrix(1, 0, 0, 1, -159.70694, -63.609077)"/>
  <path d="M62.283 122.38L75.4754 81.6622C75.4375 81.6785 58.8188 86.6193 50.4526 90.8557C50.4526 90.8557 45.2265 97.6114 41.9892 113.192C41.9892 113.192 38.5736 150.605 46.1993 164.29C46.1993 164.29 70.2925 169.122 108.837 155.839V146.981C108.837 146.981 66.6769 149.197 58.0405 150.199L62.283 122.38Z" fill="#EE805F" transform="matrix(1, 0, 0, 1, -159.70694, -63.609077)"/>
  <path d="M75.4754 81.6622C75.4754 81.6622 51.0255 83.3904 45.1346 96.5387C39.2438 109.687 37.3738 153.428 44.8644 166.305C44.8644 166.305 55.1816 169.252 73.4325 165.829C73.6541 165.785 73.8811 165.742 74.108 165.699C74.108 165.699 79.9287 151.407 74.7079 148.59C74.7079 148.59 59.316 149.397 60.9211 144.294C62.5316 139.202 75.4754 81.6622 75.4754 81.6622Z" fill="#384152" transform="matrix(1, 0, 0, 1, -159.70694, -63.609077)"/>
  <path d="M136.778 152.458L136.059 154.777L95.9366 142.268C95.9366 142.268 95.4015 141.656 95.6664 140.843C95.9582 139.949 96.6554 139.944 96.6554 139.944L136.778 152.458Z" fill="#A9453D" transform="matrix(1, 0, 0, 1, -159.70694, -63.609077)"/>
  <path d="M139.681 154.652L136.778 152.458L136.06 154.777L139.681 154.652Z" fill="#A9453D" transform="matrix(1, 0, 0, 1, -159.70694, -63.609077)"/>
  <path d="M108.843 146.986C108.843 146.986 117.944 141.369 121.765 142.23C125.586 143.097 135.314 150.161 130.633 151.689C125.953 153.217 122.165 151.613 120.36 152.724C118.56 153.834 117.23 155.866 108.843 155.839C100.455 155.812 108.843 146.986 108.843 146.986Z" fill="#EE805F" transform="matrix(1, 0, 0, 1, -159.70694, -63.609077)"/>
  <path d="M105.497 196.719L147.193 196.735L163.239 135.973L121.548 135.956L105.497 196.719Z" fill="#151F2C" transform="matrix(1, 0, 0, 1, -159.70694, -63.609077)"/>
  <path d="M123.348 131.769C123.348 131.769 120.159 132.294 121.543 135.956H135.778L131.222 131.769H123.348Z" fill="#9DB0F4" transform="matrix(1, 0, 0, 1, -159.70694, -63.609077)"/>
  <path d="M123.348 131.769C123.348 131.769 129.634 131.769 131.817 136.845C134.487 143.048 133.346 160.384 133.346 160.384H166.795C166.795 160.384 172.075 140.014 161.034 131.774H123.348V131.769Z" fill="white" transform="matrix(1, 0, 0, 1, -159.70694, -63.609077)"/>
  <path d="M155.105 166.224C155.105 166.224 150.068 162.443 148.512 164.626C146.955 166.809 149.706 177.926 153.003 177.108C156.294 176.29 156.337 168.488 155.105 166.224Z" fill="#EE805F" transform="matrix(1, 0, 0, 1, -159.70694, -63.609077)"/>
  <path d="M379.753 76.8244C378.926 56.3408 396.058 47.2394 413.569 47.2394C431.084 47.2394 450.141 51.7901 451.794 79.0293C452.859 96.555 443.536 107.336 416.703 107.336C407.651 107.336 400.619 105.906 395.231 103.354L381.817 115.299L388.411 98.787C382.568 93.3424 380.109 85.6658 379.753 76.8244Z" fill="#8F99A8" transform="matrix(1, 0, 0, 1, -159.70694, -63.609077)"/>
  <path d="M619.074 54.2497C620.582 16.8744 589.327 0.269753 557.376 0.269753C525.425 0.269753 490.653 8.56936 487.637 58.2641C485.697 90.2327 502.699 109.909 551.658 109.909C568.169 109.909 581.005 107.298 590.83 102.644L615.301 124.444L603.276 94.3121C613.934 84.3819 618.42 70.3776 619.074 54.2497Z" fill="#8F99A8" transform="matrix(1, 0, 0, 1, -159.70694, -63.609077)"/>
  <path d="M221.115 416.642H221.023C220.472 416.642 220.029 415.418 220.045 413.928L221.531 239.718L225.909 238.336L222.18 413.939C222.142 415.461 221.677 416.642 221.115 416.642Z" fill="#151F2C" transform="matrix(1, 0, 0, 1, -159.70694, -63.609077)"/>
  <path d="M213.576 242.925H467.527C469.543 242.925 471.175 241.289 471.175 239.269V236.072C471.175 234.051 469.543 232.415 467.527 232.415H213.576C211.56 232.415 209.928 234.051 209.928 236.072V239.269C209.922 241.289 211.56 242.925 213.576 242.925Z" fill="#151F2C" transform="matrix(1, 0, 0, 1, -159.70694, -63.609077)"/>
  <path d="M783.84 416.642H783.932C784.483 416.642 784.927 415.418 784.91 413.928L783.424 239.718L779.047 238.336L782.781 413.939C782.819 415.461 783.278 416.642 783.84 416.642Z" fill="#151F2C" transform="matrix(1, 0, 0, 1, -159.70694, -63.609077)"/>
  <path d="M450.06 242.925H789.088C791.412 242.925 793.298 241.034 793.298 238.705V236.63C793.298 234.3 791.412 232.41 789.088 232.41H450.06C447.736 232.41 445.85 234.3 445.85 236.63V238.705C445.85 241.04 447.736 242.925 450.06 242.925Z" fill="#151F2C" transform="matrix(1, 0, 0, 1, -159.70694, -63.609077)"/>
  <path d="M415.914 232.355H363.501C363.501 230.042 365.371 228.168 367.679 228.168H415.914V232.355Z" fill="#384152" transform="matrix(1, 0, 0, 1, -159.70694, -63.609077)"/>
  <path d="M496.792 175.136L477.358 232.355H395.799L415.763 175.136H496.792Z" fill="#384152" transform="matrix(1, 0, 0, 1, -159.70694, -63.609077)"/>
  <path d="M496.792 175.136L477.536 231.825L477.358 232.355H396.993L416.952 175.136H496.792Z" fill="#384152" transform="matrix(1, 0, 0, 1, -159.70694, -63.609077)"/>
  <path d="M454.297 203.215C453.794 205.403 451.616 207.175 449.438 207.175C447.255 207.175 445.898 205.403 446.401 203.215C446.903 201.026 449.081 199.254 451.259 199.254C453.437 199.254 454.805 201.031 454.297 203.215Z" fill="#677282" transform="matrix(1, 0, 0, 1, -159.70694, -63.609077)"/>
  <path d="M511.552 175.136L531.116 232.415L612.545 232.355L592.581 175.136H511.552Z" fill="#151F2C" transform="matrix(1, 0, 0, 1, -159.70694, -63.609077)"/>
  <path d="M513.87 176.393L532.683 231.835L532.856 232.355H611.351L591.851 176.393H513.87Z" fill="#F4F4F4" transform="matrix(1, 0, 0, 1, -159.70694, -63.609077)"/>
  <path d="M531.116 232.415L644.842 232.355C644.842 230.042 642.972 228.168 640.665 228.168H529.948L531.116 232.415Z" fill="#151F2C" transform="matrix(1, 0, 0, 1, -159.70694, -63.609077)"/>
  <path d="M679.431 135.165H678.361C673.605 135.165 669.714 131.265 669.714 126.492V120.896C669.714 116.128 673.605 112.222 678.361 112.222H679.431C684.187 112.222 688.084 116.123 688.084 120.896V126.492C688.084 131.265 684.187 135.165 679.431 135.165Z" fill="#2EC097" transform="matrix(1, 0, 0, 1, -159.70694, -63.609077)"/>
  <path d="M633.807 396.435C633.807 396.435 632.661 414.362 629.196 414.611C628.737 414.643 611.648 414.605 611.648 414.605L589.836 414.432C589.836 414.432 589.992 409.166 596.37 408.067C602.747 406.967 613.432 402.497 617.312 394.057C621.398 385.178 633.807 396.435 633.807 396.435Z" fill="#2EC097" transform="matrix(1, 0, 0, 1, -159.70694, -63.609077)"/>
  <path d="M696.244 249.009C697.077 249.713 719.295 273.843 717.479 292.376C716.944 297.82 712.269 301.911 706.81 301.911H679.75C679.75 301.911 652.139 306.857 651.479 312.838C650.82 318.819 645.172 351.064 633.974 396.885C633.974 396.885 625.722 399.734 620.717 397.697C614.096 395.01 613.14 392.155 613.14 392.155C613.14 392.155 619.814 289.553 625.084 282.332C630.353 275.11 684.636 253.646 702.216 251.506C719.792 249.372 696.244 249.009 696.244 249.009Z" fill="#241E28" transform="matrix(1, 0, 0, 1, -159.70694, -63.609077)"/>
  <path d="M539.304 223.417C539.304 223.417 523.604 219.754 519.588 223.417C515.573 227.079 514.292 232.382 514.292 232.382H539.304V223.417Z" fill="#EE805F" transform="matrix(1, 0, 0, 1, -159.70694, -63.609077)"/>
  <path d="M595.575 396.435C595.575 396.435 594.43 414.362 590.965 414.611C590.506 414.643 573.417 414.605 573.417 414.605L551.604 414.432C551.604 414.432 551.761 409.166 558.138 408.067C564.516 406.967 575.2 402.497 579.081 394.057C583.167 385.178 595.575 396.435 595.575 396.435Z" fill="#2EC097" transform="matrix(1, 0, 0, 1, -159.70694, -63.609077)"/>
  <path d="M716.771 249.009C717.403 249.54 722.208 262.509 725.423 277.239C728.185 289.916 718.571 301.911 705.627 301.911H642.675C642.675 301.911 615.064 306.857 614.405 312.838C613.745 318.819 608.097 351.064 596.899 396.885C596.899 396.885 588.62 399.063 582.156 396.294C578.719 394.821 576.006 391.289 576.006 391.289C576.006 391.289 582.74 289.553 588.009 282.332C593.278 275.11 647.561 253.646 665.142 251.506C682.706 249.372 716.771 249.009 716.771 249.009Z" fill="#384152" transform="matrix(1, 0, 0, 1, -159.70694, -63.609077)"/>
  <path d="M681.874 157.28L672.14 166.647L655.554 166.652C655.532 165.314 655.592 159.739 655.651 154.685C655.657 154.387 655.662 154.089 655.662 153.796C655.673 152.675 655.689 151.591 655.7 150.605C655.732 147.821 655.759 145.805 655.759 145.805L660.024 142.88L669.498 136.379L674.621 132.868C674.626 132.955 675.043 137.549 675.107 138.216C676.242 150.112 681.874 157.28 681.874 157.28Z" fill="#EE805F" transform="matrix(1, 0, 0, 1, -159.70694, -63.609077)"/>
  <path d="M657.759 155.589C658.078 155.454 676.026 147.387 678.123 148.081C680.22 148.774 682.841 155.199 682.841 155.199L651.236 162.361C651.23 162.361 653.722 157.296 657.759 155.589Z" fill="#29A381" transform="matrix(1, 0, 0, 1, -159.70694, -63.609077)"/>
  <path d="M735.389 209.504C731.968 188.365 717.533 172.546 711.355 166.614C707.205 160.357 682.841 155.199 682.841 155.199C682.841 155.199 662.656 159.772 651.236 162.361C651.236 162.361 633.423 164.301 623.376 180.954C617.166 191.253 599.369 214.814 587.685 215.545C576 216.276 539.304 223.417 539.304 223.417V232.464L595.251 234.002C595.937 234.019 596.613 233.97 597.288 233.84C602.104 232.93 622.738 228.818 633.001 223.465C634.639 249.957 636.579 290.409 645.804 296.834C655.565 303.628 724.223 304.538 731.492 294.18C735.211 288.882 730.649 257.498 724.953 227.236C732.038 223.861 736.821 218.367 735.389 209.504Z" fill="#2EC097" transform="matrix(1, 0, 0, 1, -159.70694, -63.609077)"/>
  <path d="M671.968 141.921L671.124 142.447C671.124 142.447 663.32 148.081 655.7 150.611C655.733 147.826 655.76 145.811 655.76 145.811L660.024 142.885L671.968 141.921Z" fill="#DE6B4D" transform="matrix(1, 0, 0, 1, -159.70694, -63.609077)"/>
  <path d="M649.944 145.957C649.944 145.957 675.469 148.986 677.102 133.02C678.739 117.06 683.133 106.697 666.909 104.091C650.685 101.485 646.885 107.249 645.048 112.444C643.21 117.634 643.351 144.754 649.944 145.957Z" fill="#EE805F" transform="matrix(1, 0, 0, 1, -159.70694, -63.609077)"/>
  <path d="M645.723 110.808C645.723 110.808 650.539 128.123 654.03 126.682C657.521 125.235 660.71 124.054 661.164 129.461C661.623 134.867 663.65 141.206 675.016 140.047C686.381 138.893 691.164 107.677 687.068 102.774C675.253 88.6237 629.31 93.922 645.723 110.808Z" fill="#151F2C" transform="matrix(1, 0, 0, 1, -159.70694, -63.609077)"/>
  <path d="M627.651 305.34H753.899C758.693 305.34 762.579 301.445 762.579 296.639V290.978H627.645V305.34H627.651Z" fill="#77A4E5" transform="matrix(1, 0, 0, 1, -159.70694, -63.609077)"/>
  <path d="M612.518 305.34H708.032C711.577 305.34 714.452 302.458 714.452 298.904V297.414C714.452 293.86 711.577 290.978 708.032 290.978H612.518C608.973 290.978 606.098 293.86 606.098 297.414V298.904C606.103 302.463 608.973 305.34 612.518 305.34Z" fill="#B8C0C7" transform="matrix(1, 0, 0, 1, -159.70694, -63.609077)"/>
  <path d="M692.04 409.22H700.179L702.465 305.34H690.024L692.04 409.22Z" fill="#677282" transform="matrix(1, 0, 0, 1, -159.70694, -63.609077)"/>
  <path d="M656.646 409.22H735.848V402.048L695.477 398.396L656.646 402.048V409.22Z" fill="#677282" transform="matrix(1, 0, 0, 1, -159.70694, -63.609077)"/>
  <path d="M743.539 408.094C743.539 404.486 740.621 401.56 737.027 401.56C733.427 401.56 730.514 404.486 730.514 408.094C730.514 411.702 733.433 414.622 737.027 414.622C740.626 414.622 743.539 411.702 743.539 408.094Z" fill="#677282" transform="matrix(1, 0, 0, 1, -159.70694, -63.609077)"/>
  <path d="M664.342 408.094C664.342 404.486 661.423 401.56 657.829 401.56C654.23 401.56 651.317 404.486 651.317 408.094C651.317 411.702 654.235 414.622 657.829 414.622C661.423 414.622 664.342 411.702 664.342 408.094Z" fill="#677282" transform="matrix(1, 0, 0, 1, -159.70694, -63.609077)"/>
  <path d="M659.483 312.155H733.005C736.762 312.155 739.804 309.105 739.804 305.34H652.684C652.684 309.105 655.727 312.155 659.483 312.155Z" fill="#4C5767" transform="matrix(1, 0, 0, 1, -159.70694, -63.609077)"/>
  <path d="M750.111 305.34C753.537 305.34 756.31 302.555 756.31 299.126V203.475C756.31 185.548 744.62 171.018 730.195 171.018H671.146C656.727 171.018 645.031 185.548 645.031 203.475V305.34H750.111Z" fill="#B8C0C7" transform="matrix(1, 0, 0, 1, -159.70694, -63.609077)"/>
  <path d="M751.278 305.34C757.52 305.34 762.584 300.264 762.584 294.007V203.475C762.584 185.548 750.895 171.018 736.47 171.018H677.421C663.001 171.018 651.306 185.548 651.306 203.475V305.34H751.278Z" fill="#677282" transform="matrix(1, 0, 0, 1, -159.70694, -63.609077)"/>
  <path d="M640.876 146.298C655.441 141.688 659.013 127.868 659.045 127.727L657.494 127.343L658.273 127.538L657.494 127.343C657.462 127.473 654.079 140.437 640.395 144.771C640.303 144.798 640.211 144.83 640.119 144.857L640.584 146.391C640.681 146.358 640.778 146.331 640.876 146.298Z" fill="#2EC097" transform="matrix(1, 0, 0, 1, -159.70694, -63.609077)"/>
  <path d="M639.227 147.382L640.6 146.949C641.297 146.726 641.692 145.973 641.47 145.269C641.248 144.57 640.497 144.175 639.795 144.397L638.422 144.83C637.725 145.052 637.33 145.805 637.552 146.51C637.773 147.209 638.525 147.604 639.227 147.382Z" fill="#2EC097" transform="matrix(1, 0, 0, 1, -159.70694, -63.609077)"/>
  <path d="M659.272 140.903L658.213 141.049C653.501 141.704 649.112 138.373 648.458 133.654L647.691 128.106C647.037 123.382 650.355 118.983 655.068 118.328L656.127 118.182C660.84 117.526 665.228 120.852 665.882 125.576L666.65 131.124C667.304 135.843 663.985 140.247 659.272 140.903Z" fill="#2EC097" transform="matrix(1, 0, 0, 1, -159.70694, -63.609077)"/>
  <path d="M652.349 120.674C651.722 119.493 653.927 110.305 657.17 103.186C658.737 99.7404 662.693 95.1356 665.52 93.9437C666.541 93.5157 667.898 93.6891 669 93.9383C669.806 94.1225 672.054 95.4335 672.054 95.4335C662.769 98.3319 654.706 117.575 655.289 119.596C655.273 119.536 655.246 119.487 655.23 119.455L652.349 120.674Z" fill="#2EC097" transform="matrix(1, 0, 0, 1, -159.70694, -63.609077)"/>
  <path d="M657.143 135.388L656.613 135.463C654.268 135.788 652.079 134.131 651.755 131.78L651.371 129.017C651.047 126.665 652.701 124.471 655.046 124.146L655.57 124.07C657.916 123.745 660.105 125.403 660.429 127.754L660.813 130.517C661.148 132.868 659.494 135.063 657.143 135.388Z" fill="#279F7E" transform="matrix(1, 0, 0, 1, -159.70694, -63.609077)"/>
  <path d="M870.777 414.752V415.229C870.777 415.992 870.334 416.621 869.788 416.621H1.15797C0.617518 416.621 0.168945 415.992 0.168945 415.229V414.752C0.168945 413.988 0.612114 413.359 1.15797 413.359H869.793C870.328 413.359 870.777 413.988 870.777 414.752Z" fill="#151F2C" transform="matrix(1, 0, 0, 1, -159.70694, -63.609077)"/>
</svg>