<svg width="816" height="689" viewBox="0 0 816 689" fill="none" xmlns="http://www.w3.org/2000/svg">
<path d="M692.44 80.4274V0.00506592L798.839 0.00506592V80.4274L692.44 80.4274Z" fill="#EBEBEB"/>
<path d="M700.892 71.7095V8.70807L790.416 8.70807V71.7095L700.892 71.7095Z" fill="white"/>
<path d="M716.248 60.8968V19.5203L775.045 19.5203V60.8968L716.248 60.8968Z" fill="#EBEBEB"/>
<path d="M690.03 0H692.449V80.4224H690.03V0Z" fill="#DBDBDB"/>
<path d="M787.991 8.71759H790.41V71.719H787.991V8.71759Z" fill="#DBDBDB"/>
<path d="M714.104 56.2159C714.104 60.2724 717.393 63.5619 721.45 63.5619C725.506 63.5619 728.796 60.2724 728.796 56.2159C728.796 52.1594 725.506 48.8699 721.45 48.8699C717.393 48.8699 714.104 52.1594 714.104 56.2159Z" fill="#C7C7C7"/>
<path d="M205.938 150.454L205.938 70.0319L312.337 70.0319V150.454H205.938Z" fill="#EBEBEB"/>
<path d="M214.39 141.736V78.735L303.914 78.735V141.736H214.39Z" fill="white"/>
<path d="M229.746 130.924V89.5472L288.544 89.5472V130.924H229.746Z" fill="#EBEBEB"/>
<path d="M203.528 70.0269H205.947V150.449H203.528V70.0269Z" fill="#DBDBDB"/>
<path d="M301.489 78.7445H303.908V141.746H301.489V78.7445Z" fill="#DBDBDB"/>
<path d="M227.601 126.243C227.601 130.299 230.891 133.589 234.947 133.589C239.004 133.589 242.293 130.299 242.293 126.243C242.293 122.186 239.004 118.897 234.947 118.897C230.891 118.897 227.601 122.186 227.601 126.243Z" fill="#C7C7C7"/>
<path d="M408.192 689C183.206 689 0.818909 672.326 0.818909 651.758C0.818909 631.189 183.206 614.515 408.192 614.515C633.177 614.515 815.564 631.189 815.564 651.758C815.564 672.326 633.177 689 408.192 689Z" fill="#E8E8E8"/>
<path d="M327.243 645.446C331.389 646.743 452.513 644.129 456.951 641.168C458.656 640.084 448.27 525.415 448.27 525.415L371.441 526.886L380.18 603.577C380.18 603.577 335.478 624.734 330.963 628.489C326.487 632.244 323.096 644.168 327.243 645.446Z" fill="#FFC4C0"/>
<path d="M327.246 645.446C331.393 646.743 452.537 644.129 456.935 641.168C457.478 640.839 457.633 629.186 455.695 614.03C433.722 617.707 355.323 629.747 349.22 626.147C344.957 623.65 348.735 619.74 352.223 617.107C342.205 622.101 332.866 626.883 330.947 628.509C326.471 632.244 323.1 644.168 327.246 645.446Z" fill="#263238"/>
<path d="M378.033 585.208L453.447 584.143C453.447 584.143 438.508 403.622 439.128 400.157C439.922 395.705 493.422 186.033 493.422 186.033H421.437C421.437 186.033 364.682 381.459 362.648 400.293C359.354 430.702 378.033 585.208 378.033 585.208Z" fill="#2EC097"/>
<path opacity="0.3" d="M378.033 585.208L453.447 584.143C453.447 584.143 438.508 403.622 439.128 400.157C439.922 395.705 493.422 186.033 493.422 186.033H421.437C421.437 186.033 364.682 381.459 362.648 400.293C359.354 430.702 378.033 585.208 378.033 585.208Z" fill="black"/>
<path d="M446.665 567.128C442.208 566.799 437.713 566.857 433.237 566.799C428.761 566.741 424.285 566.722 419.809 566.78C410.857 566.877 401.924 567.012 392.991 567.264C390.55 567.341 388.108 567.399 385.648 567.516C383.032 567.632 380.416 568.077 377.819 568.174C377.606 568.174 377.626 568.483 377.819 568.483C380.009 568.503 382.218 568.832 384.407 568.89C386.694 568.948 388.961 568.967 391.247 568.967C395.723 568.967 400.2 568.948 404.656 568.909C413.589 568.832 422.541 568.716 431.474 568.348C436.512 568.135 441.627 568.077 446.646 567.574C446.975 567.554 446.956 567.148 446.665 567.128Z" fill="#263238"/>
<path d="M477.591 202.97C471.158 225.772 465.267 248.749 459.493 271.725C453.718 294.702 447.983 317.698 442.247 340.693C439.38 352.191 436.531 363.689 433.664 375.187C430.873 386.375 427.637 397.641 426.959 409.197C426.262 420.966 427.754 432.812 428.742 444.523C429.73 456.292 430.718 468.061 431.765 479.83C433.819 503.367 435.814 526.925 438.372 550.424C438.701 553.366 439.012 556.308 439.302 559.25C439.322 559.502 439.709 559.502 439.69 559.231C438.12 535.674 436.512 512.136 434.632 488.598C433.683 476.829 432.733 465.06 431.765 453.292C430.796 441.542 429.42 429.754 429.052 417.985C428.684 406.1 430.854 394.699 433.722 383.22C436.531 371.974 439.36 360.728 442.189 349.462C447.944 326.466 453.718 303.49 459.415 280.494C465.81 254.749 472.185 228.947 477.823 203.028C477.843 202.873 477.629 202.835 477.591 202.97Z" fill="#263238"/>
<path d="M493.422 186.033C493.422 186.033 470.46 275.984 454.397 339.3L423.781 186.033H493.422Z" fill="#263238"/>
<path d="M416.089 645.736C420.235 647.033 541.36 644.42 545.797 641.458C547.502 640.374 541.166 525.628 541.166 525.628L465.364 527.099L469.026 603.868C469.026 603.868 424.343 625.025 419.809 628.78C415.333 632.535 411.942 644.459 416.089 645.736Z" fill="#FFC4C0"/>
<path d="M416.09 645.736C420.236 647.033 541.38 644.42 545.798 641.458C546.34 641.129 546.205 629.786 545.779 614.301C523.805 617.978 444.186 630.018 438.082 626.437C433.819 623.94 437.598 620.03 441.086 617.398C431.068 622.392 421.728 627.173 419.81 628.799C415.315 632.535 411.943 644.458 416.09 645.736Z" fill="#263238"/>
<path d="M422.154 186.014C422.154 186.014 424.247 220.41 432.463 247.568C433.121 249.813 433.838 252.02 434.594 254.149C434.594 254.149 442.829 257.014 455.482 264.544C455.482 264.544 460.675 396.112 460.578 404.28C460.249 434.844 468.058 583.717 468.058 583.717L544.092 583.001C544.092 583.001 536.206 414.655 536.187 403.448C536.128 385.446 520.239 186.052 520.239 186.052L422.154 186.014Z" fill="#2EC097"/>
<path opacity="0.3" d="M422.154 186.014C422.154 186.014 424.247 220.41 432.463 247.568C433.121 249.813 433.838 252.02 434.594 254.149C434.594 254.149 442.829 257.014 455.482 264.544C455.482 264.544 460.675 396.112 460.578 404.28C460.249 434.844 468.058 583.717 468.058 583.717L544.092 583.001C544.092 583.001 536.206 414.655 536.187 403.448C536.128 385.446 520.239 186.052 520.239 186.052L422.154 186.014Z" fill="black"/>
<path d="M447.654 235.451C447.344 233.457 447.054 231.444 446.744 229.45C446.182 225.772 445.426 222.133 444.787 218.475C443.333 210.171 441.803 201.867 439.962 193.64C439.923 193.447 439.574 193.485 439.594 193.698C439.923 197.008 440.311 200.338 440.776 203.628C441.241 206.938 441.57 210.268 442.035 213.558C442.965 220.12 443.876 226.682 444.98 233.205C445.407 235.722 446.976 240.232 443.353 241.006C440.485 241.626 438.392 238.819 437.54 236.457C436.513 233.593 436.145 230.399 435.621 227.398C435.04 224.088 434.517 220.778 434.032 217.449C433.006 210.21 431.882 202.99 430.7 195.77C430.661 195.557 430.332 195.634 430.332 195.828C430.564 203.261 430.952 210.636 431.94 218.03C432.405 221.553 432.928 225.076 433.529 228.579C434.091 231.851 434.498 235.373 435.951 238.412C437.094 240.793 439.206 242.923 441.938 243.213C441.996 243.213 442.054 243.213 442.113 243.213C442.054 243.271 441.996 243.329 442.016 243.426C442.055 244.607 442.035 245.787 442.151 246.949C442.268 248.11 442.5 249.272 442.733 250.414C442.946 251.575 443.236 252.756 443.624 253.859C443.818 254.401 444.012 254.924 444.263 255.446C444.515 255.988 445.29 258.176 445.6 258.679C445.736 258.892 445.969 258.756 445.988 258.563C445.988 258.563 445.562 255.427 445.504 255.079C445.426 254.517 445.29 253.956 445.174 253.395C444.922 252.272 444.632 251.169 444.322 250.065C444.031 248.962 443.779 247.839 443.508 246.736C443.217 245.594 442.849 244.49 442.578 243.329C442.558 243.271 442.539 243.252 442.5 243.213C444.632 243.232 446.782 242.11 447.558 240.058C448.139 238.548 447.887 236.98 447.654 235.451Z" fill="#263238"/>
<path d="M461.644 267.138C459.474 265.357 456.897 263.867 454.494 262.434C451.859 260.866 449.146 259.434 446.336 258.214C440.833 255.833 435.156 254.188 429.479 252.33C429.304 252.272 429.188 252.562 429.362 252.62C434.865 254.808 440.136 257.711 445.445 260.305C448.061 261.582 450.696 262.802 453.37 263.983C456.044 265.163 458.699 266.538 461.431 267.544C461.644 267.583 461.818 267.273 461.644 267.138Z" fill="#263238"/>
<path d="M504.583 219.23C500.708 219.211 496.871 218.649 493.112 217.681C491.388 217.236 489.683 216.694 487.977 216.133C486.35 215.591 484.664 214.952 483.346 213.81C480.75 211.565 479.529 208.022 478.386 204.887C477.107 201.344 476.177 197.725 475.383 194.047C475.344 193.873 475.073 193.931 475.073 194.105C474.956 198.228 475.538 202.428 476.642 206.416C477.572 209.803 478.832 213.597 481.583 215.978C484.47 218.475 488.384 219.365 492.085 219.811C496.251 220.333 500.417 220.198 504.583 219.636C504.855 219.598 504.855 219.23 504.583 219.23Z" fill="#263238"/>
<path d="M529.579 490.418C528.281 466.396 526.886 442.374 525.491 418.353C522.72 370.561 520.046 322.769 517.043 274.977C515.338 248.013 513.594 221.069 511.482 194.124C511.462 193.834 511.036 193.853 511.036 194.144C512.935 242.226 515.88 290.25 518.651 338.274C521.422 386.066 524.27 433.857 527.274 481.63C528.979 508.594 531.091 535.519 532.796 562.483C532.815 562.677 533.125 562.677 533.106 562.464C531.788 538.481 530.878 514.44 529.579 490.418Z" fill="#263238"/>
<path d="M540.76 568.251C536.303 567.922 531.808 567.98 527.332 567.922C522.856 567.864 518.38 567.845 513.904 567.903C504.952 568 496.019 568.135 487.086 568.387C484.645 568.464 482.203 568.522 479.742 568.639C477.127 568.755 474.511 569.2 471.914 569.297C471.701 569.297 471.72 569.606 471.914 569.606C474.104 569.626 476.313 569.955 478.502 570.013C480.789 570.071 483.056 570.09 485.342 570.09C489.818 570.09 494.294 570.071 498.751 570.032C507.684 569.955 516.636 569.839 525.569 569.471C530.607 569.258 535.722 569.2 540.741 568.697C541.051 568.677 541.051 568.271 540.76 568.251Z" fill="#263238"/>
<path d="M505.591 123.762C495.127 130.169 482.668 132.724 470.557 133.499C459.319 134.215 445.038 134.641 436.357 126.259C427.328 117.568 423.452 105.412 422.677 93.2173C421.728 78.5061 422.658 63.8144 425.933 49.4517C428.277 39.1732 432.734 24.5202 453.079 20.4553C464.512 18.1712 476.351 25.7977 481.544 36.173C487.26 47.7096 487.454 60.8528 494.972 71.7506C501.948 81.8936 516.073 86.8489 519.736 99.2759C522.913 110.077 514 118.613 505.591 123.762Z" fill="#263238"/>
<path d="M456.761 130.886C445.736 129.589 432.191 128.176 426.708 117.084C421.825 107.174 421.03 95.0949 421.34 84.2165C421.941 63.6596 424.712 38.9991 441.608 25.101C441.841 24.9074 441.531 24.5203 441.279 24.6751C432.269 30.6951 427.463 40.9154 424.828 51.1164C421.689 63.2144 420.178 76.3189 420.294 88.804C420.41 99.4309 421.476 112.884 428.277 121.594C434.516 129.569 447.363 130.576 456.742 131.311C457.071 131.369 457.052 130.924 456.761 130.886Z" fill="#263238"/>
<path d="M518.205 88.2621C514.543 83.8101 509.602 80.8292 505.067 77.3643C498.906 72.6606 494.701 66.9504 491.755 59.7884C487.57 49.6261 484.547 39.1541 477.397 30.4823C477.359 30.4242 477.281 30.5017 477.32 30.5597C483.792 38.8638 486.814 48.968 490.515 58.6076C493.693 66.873 498.189 73.2413 505.28 78.6031C515.899 86.6168 528.358 96.9533 517.643 110.716C510.28 120.181 499.002 125.834 487.221 127.285C486.737 127.343 486.737 128.098 487.221 128.04C504.409 126.298 534.501 108.006 518.205 88.2621Z" fill="#263238"/>
<path d="M518.515 92.0753C515.434 87.5264 510.648 84.2358 506.56 80.6742C501.425 76.2027 496.406 71.4603 492.705 65.692C485.865 55.0071 484.741 41.8833 477.068 31.6048C477.01 31.5274 476.874 31.6048 476.932 31.6823C483.327 40.4509 484.664 51.5229 489.179 61.2013C493.558 70.5699 501.309 77.4416 509.079 84.0229C513.361 87.6426 518.418 91.4365 519.93 97.1274C521.732 103.96 518.147 111.026 513.632 115.942C505.843 124.401 494.313 128.118 483.385 130.44C483.036 130.518 483.172 131.06 483.54 130.982C494.158 128.834 505.261 125.408 513.186 117.646C519.891 111.103 524.309 100.631 518.515 92.0753Z" fill="#263238"/>
<path d="M462.884 103.456C457.11 114.006 396.829 207.576 389.931 207.305C369.643 206.511 345.829 203.55 350.363 187.968C357.475 163.501 417.523 115.322 447.286 96.5458C465.113 85.3189 468.581 93.0423 462.884 103.456Z" fill="#EBEBEB"/>
<path d="M462.884 103.457C457.09 114.006 396.809 207.577 389.93 207.306C369.643 206.532 345.829 203.551 350.363 187.968C350.537 187.33 350.77 186.672 351.041 185.994L454.959 92.4623C466.003 87.9329 467.631 94.7852 462.884 103.457Z" fill="#C7C7C7"/>
<path d="M520.646 188.569L418.918 190.233L426.882 159.804C426.882 159.804 418.124 148.655 422.309 133.266C424.75 124.324 436.318 110.89 443.43 102.373C460.714 81.6226 475.731 91.0106 480.517 96.3337C498.809 116.736 520.646 188.569 520.646 188.569Z" fill="#EBEBEB"/>
<path d="M454.92 151.965C450.929 152.139 446.918 152.449 443.004 153.204C441.046 153.591 439.128 154.055 437.21 154.559C436.26 154.81 435.292 155.042 434.323 155.255C433.334 155.468 432.269 155.681 431.242 155.643C431.145 155.643 431.145 155.778 431.242 155.778C432.23 155.855 433.179 155.952 434.168 155.894C435.117 155.855 436.067 155.701 436.997 155.526C438.973 155.159 440.95 154.713 442.926 154.326C446.918 153.552 450.909 152.778 454.959 152.274C455.133 152.255 455.095 151.945 454.92 151.965Z" fill="#263238"/>
<path d="M464.531 156.049C461.295 155.526 457.982 155.139 454.688 155.004C453.041 154.926 451.393 154.946 449.746 155.004C448.952 155.042 448.177 155.081 447.383 155.139C446.511 155.197 445.658 155.371 444.786 155.41C444.689 155.41 444.689 155.546 444.786 155.546C445.6 155.526 446.433 155.642 447.247 155.681C448.061 155.701 448.894 155.739 449.708 155.759C451.355 155.817 453.002 155.894 454.649 155.933C457.943 156.01 461.218 156.126 464.512 156.32C464.705 156.339 464.705 156.088 464.531 156.049Z" fill="#263238"/>
<path d="M487.492 104.018C512.023 143.138 549.808 233.573 556.513 246.465C561.066 255.214 515.318 280.261 513.128 273.854C510.318 265.666 474.336 160.056 470.596 112.516C468.852 90.488 479.645 91.4945 487.492 104.018Z" fill="#FFC4C0"/>
<path d="M511.656 268.009C512.935 275.616 518.651 290.811 522.604 293.018C526.556 295.224 546.825 294.024 557.036 293.676C567.267 293.327 569.166 290.404 568.895 286.901C568.604 283.397 547.135 283.455 547.135 283.455C547.135 283.455 576.064 290.675 583.33 291.779C590.577 292.863 607.338 296.483 609.528 290.424C610.516 287.695 605.885 285.12 605.885 285.12C605.885 285.12 612.919 286.92 613.907 283.417C615.031 279.429 609.412 277.455 609.412 277.455C609.412 277.455 613.791 278.19 613.791 274.977C613.771 267.796 586.392 265.202 586.392 265.202C586.392 265.202 607.61 274.629 608.075 268.764C608.733 260.634 565.659 253.22 561.086 249.833C556.513 246.445 553.645 241.277 553.645 241.277L511.656 268.009Z" fill="#FFC4C0"/>
<path d="M568.798 288.701C568.894 287.617 568.487 286.63 567.732 286.011C566.995 285.352 566.124 284.869 565.193 284.481C563.314 283.707 561.299 283.204 559.264 282.778C555.195 281.888 551.048 281.307 546.902 280.397C551.145 280.184 555.389 280.513 559.574 281.384C561.647 281.849 563.74 282.43 565.678 283.475C566.647 283.997 567.557 284.656 568.274 285.546C568.972 286.436 569.224 287.695 568.798 288.701Z" fill="#263238"/>
<path d="M605.865 285.139C602.901 284.52 599.956 283.784 597.03 283.049C594.104 282.333 591.178 281.52 588.271 280.745L579.552 278.345C576.645 277.532 573.739 276.738 570.793 275.984C573.836 276.158 576.82 276.7 579.804 277.28C582.788 277.861 585.714 278.597 588.64 279.371C591.565 280.184 594.472 281.016 597.34 282.003C600.207 282.952 603.075 283.959 605.865 285.139Z" fill="#263238"/>
<path d="M577.459 268.589C580.25 268.648 583.02 268.996 585.772 269.441C588.523 269.886 591.236 270.506 593.93 271.241C596.604 271.996 599.278 272.848 601.855 273.893C604.451 274.9 606.97 276.1 609.412 277.455C606.738 276.642 604.141 275.713 601.487 274.938C598.851 274.145 596.216 273.351 593.542 272.635C590.887 271.88 588.213 271.222 585.539 270.525C582.865 269.848 580.172 269.228 577.459 268.589Z" fill="#263238"/>
<path d="M581.451 261.621C585.966 261.737 590.403 262.666 594.705 263.944C599.007 265.26 603.192 266.983 607.009 269.383C602.727 268.028 598.542 266.577 594.279 265.318C590.035 264.002 585.772 262.841 581.451 261.621Z" fill="#263238"/>
<path d="M557.908 244.935L508.982 270.932C508.982 270.932 475.363 157.211 470.79 120.278C466.217 83.3454 480.769 91.3784 491.194 108.451C505.474 131.776 557.908 244.935 557.908 244.935Z" fill="#EBEBEB"/>
<path d="M509.756 257.962C516.616 254.904 544.189 241.393 549.944 238.064C550.351 237.831 550.292 237.522 549.847 237.715C529.094 246.368 516.209 254.362 509.64 257.691C509.485 257.769 509.582 258.04 509.756 257.962Z" fill="#263238"/>
<path d="M488.675 198.537C487.725 193.098 486.582 187.717 485.419 182.336C484.276 176.955 482.997 171.593 481.718 166.25C480.401 160.908 479.083 155.565 477.61 150.262L475.421 142.306C474.626 139.674 473.89 137.022 473.057 134.389C473.522 137.118 474.084 139.809 474.588 142.519L476.293 150.591C477.436 155.972 478.715 161.334 479.994 166.676C481.311 172.019 482.648 177.361 484.102 182.665C485.555 187.969 487.008 193.272 488.675 198.537Z" fill="#263238"/>
<path d="M476.447 148.307C476.021 146.874 475.382 145.577 474.684 144.319C473.948 143.061 473.173 141.841 472.146 140.757C472.572 142.19 473.211 143.487 473.909 144.745C474.645 145.984 475.42 147.203 476.447 148.307Z" fill="#263238"/>
<path d="M364.044 216.849L362.01 127.169L430.119 126.782L432.154 216.462L364.044 216.849Z" fill="#168163"/>
<path d="M435.854 155.797L435.234 128.156L430.119 126.782L430.797 156.707L435.854 155.797Z" fill="#168163"/>
<g opacity="0.2">
<path opacity="0.2" d="M364.044 216.849L362.01 127.169L430.119 126.782L432.154 216.462L364.044 216.849Z" fill="black"/>
<path opacity="0.2" d="M435.854 155.797L435.234 128.156L430.119 126.782L430.797 156.707L435.854 155.797Z" fill="black"/>
</g>
<path d="M364.044 216.694L362.01 126.801L427.561 122.446L429.577 212.339L364.044 216.694Z" fill="#2EC097"/>
<path opacity="0.1" d="M364.044 216.694L362.01 126.801L427.561 122.446L429.577 212.339L364.044 216.694Z" fill="black"/>
<path d="M435.718 155.72C438.16 159.688 435.002 163.308 435.002 163.308C435.002 163.308 438.373 164.856 439.652 168.186C441.105 171.999 435.777 175.967 435.777 175.967C435.777 175.967 438.858 178.251 439.865 181.91C440.892 185.704 436.067 190.465 436.067 190.465C436.067 190.465 437.772 194.162 436.358 197.937C433.955 204.383 423.647 206.493 417.097 207.906C410.567 209.319 390.687 207.19 386.87 207.17L377.472 165.321C377.472 165.321 405.006 150.687 412.912 150.107C419.597 149.623 432.986 151.268 435.718 155.72Z" fill="#FFC4C0"/>
<path d="M380.708 163.618C372.782 166.908 347.825 181.097 349.84 192.227C351.836 203.357 367.977 206.59 391.365 207.403L380.708 163.618Z" fill="#FFC4C0"/>
<path d="M434.556 162.708C427.329 161.508 420.159 162.514 412.932 163.114C412.777 163.134 412.796 163.385 412.951 163.366C420.12 162.688 427.348 163.443 434.537 163.076C434.731 163.037 434.75 162.727 434.556 162.708Z" fill="#263238"/>
<path d="M435.505 175.444C433.858 175.231 432.153 175.541 430.525 175.754C428.781 175.986 427.018 176.257 425.274 176.548C421.786 177.128 418.299 177.787 414.849 178.541C414.694 178.58 414.714 178.812 414.869 178.793C418.357 178.212 421.844 177.709 425.332 177.283C427.076 177.07 428.839 176.877 430.603 176.683C432.23 176.509 433.974 176.47 435.544 175.928C435.776 175.851 435.757 175.483 435.505 175.444Z" fill="#263238"/>
<path d="M435.913 190.485C434.498 190.233 432.851 190.736 431.456 191.007C429.867 191.298 428.278 191.588 426.689 191.878C423.511 192.44 420.334 193.001 417.136 193.446C416.981 193.466 417.001 193.717 417.156 193.698C420.411 193.253 423.647 192.866 426.902 192.401C428.491 192.169 430.08 191.936 431.669 191.685C433.025 191.472 434.731 191.375 435.932 190.659C436.009 190.601 435.971 190.485 435.913 190.485Z" fill="#263238"/>
<path d="M380.707 163.618C372.782 166.908 347.825 181.097 349.84 192.227C351.836 203.357 366.853 209.222 388.768 211.642L380.707 163.618Z" fill="#EBEBEB"/>
<path d="M379.797 163.734C376.891 165.011 374.527 165.882 371.717 167.566C371.058 167.954 370.4 168.36 369.741 168.766C369.47 168.844 369.218 168.941 368.946 169.018C367.842 169.386 366.737 169.792 365.672 170.257C363.598 171.167 361.622 172.251 359.684 173.412C359.549 173.49 359.665 173.702 359.82 173.625C361.816 172.522 363.908 171.612 366.04 170.838C366.311 170.741 366.602 170.644 366.892 170.547C365.769 171.283 364.664 172.018 363.618 172.831C360.789 174.999 358.115 177.206 355.576 179.703C355.46 179.819 355.635 179.993 355.751 179.877C360.362 175.561 378.131 165.476 380.107 164.218C382.161 162.94 381.231 163.114 379.797 163.734Z" fill="#263238"/>
<path d="M470.015 97.2823C469.24 98.9857 458.427 108.8 450.367 106.786C447.751 106.128 450.715 91.6688 450.715 91.6688L450.696 90.5462L450.367 74.9059L470.247 67.1632L473.096 66.176C473.076 66.1954 470.325 96.5661 470.015 97.2823Z" fill="#FFC4C0"/>
<path d="M450.367 74.9061L450.58 85.1652C458.524 88.901 467.941 86.1136 471.352 84.8554C472.185 76.203 473.076 66.1956 473.076 66.1956L470.247 67.1827L450.367 74.9061Z" fill="#263238"/>
<path d="M482.203 97.2242C482.203 97.2242 462.671 110.542 452.033 108.548C443.953 107.038 443.12 99.3534 443.12 99.3534C443.12 99.3534 453.758 89.0944 466.856 89.5202C475.595 89.8299 482.203 97.2242 482.203 97.2242Z" fill="#FFC4C0"/>
<path d="M488.19 53.3618C488.714 80.8096 472.321 84.2358 466.392 84.3326C461.005 84.4293 442.694 84.0809 439.322 56.8266C435.951 29.5723 448.565 20.6489 460.85 19.7778C473.154 18.9261 487.667 25.9139 488.19 53.3618Z" fill="#FFC4C0"/>
<path d="M483.87 51.0583C483.23 50.9422 482.649 50.7486 482.029 50.5744C481.331 50.3808 480.75 50.3034 480.246 49.7227C479.975 49.413 480.033 48.8129 480.304 48.5226C480.944 47.8645 481.874 47.8838 482.726 48.0774C483.656 48.2903 484.315 48.6968 484.897 49.4517C485.478 50.1873 484.722 51.2132 483.87 51.0583Z" fill="#263238"/>
<path d="M465.558 49.4712C466.198 49.4325 466.799 49.2777 467.438 49.1809C468.155 49.0648 468.736 49.0454 469.298 48.5228C469.589 48.2518 469.608 47.6517 469.356 47.3226C468.794 46.5871 467.864 46.529 466.992 46.6452C466.043 46.7613 465.345 47.1097 464.686 47.7872C464.066 48.426 464.706 49.51 465.558 49.4712Z" fill="#263238"/>
<path d="M469.338 54.9493C469.318 54.8719 469.183 55.0268 469.183 55.1042C469.183 56.9818 468.892 59.111 467.167 59.6917C467.109 59.7111 467.109 59.8079 467.187 59.7885C469.279 59.5562 469.648 56.7108 469.338 54.9493Z" fill="#263238"/>
<path d="M467.728 52.9386C464.725 52.6288 464.318 58.6488 467.108 58.9391C469.84 59.2295 470.247 53.2095 467.728 52.9386Z" fill="#263238"/>
<path d="M466.527 53.1876C465.985 53.4973 465.423 54.0587 464.784 54.078C464.047 54.0974 463.524 53.4393 463.098 52.8005C463.059 52.7424 463.001 52.7811 462.981 52.8586C462.885 54.02 463.253 55.2201 464.473 55.4717C465.597 55.704 466.469 54.7362 466.837 53.5941C466.915 53.3812 466.741 53.0521 466.527 53.1876Z" fill="#263238"/>
<path d="M479.781 54.7362C479.801 54.6588 479.917 54.833 479.917 54.9104C479.723 56.7686 479.801 58.9366 481.448 59.6722C481.506 59.6915 481.487 59.7883 481.428 59.7689C479.375 59.3431 479.297 56.4783 479.781 54.7362Z" fill="#263238"/>
<path d="M481.584 52.9166C484.606 52.9166 484.393 58.9365 481.603 58.9559C478.851 58.9559 479.065 52.9166 481.584 52.9166Z" fill="#263238"/>
<path d="M482.843 53.3625C483.308 53.6915 483.753 54.2916 484.335 54.3496C484.993 54.4077 485.497 53.7883 485.943 53.1689C485.982 53.1108 486.04 53.1495 486.04 53.2463C486.04 54.4077 485.614 55.5885 484.49 55.7627C483.463 55.9369 482.765 54.911 482.533 53.7496C482.474 53.5367 482.649 53.227 482.843 53.3625Z" fill="#263238"/>
<path d="M468.232 70.6861C468.62 71.17 469.008 71.8281 469.666 71.9443C470.306 72.0798 471.1 71.8669 471.72 71.6927C471.778 71.6733 471.837 71.7507 471.798 71.7894C471.236 72.4476 470.17 72.7766 469.318 72.525C468.484 72.2927 468.155 71.5184 468.039 70.7248C468.039 70.6474 468.174 70.628 468.232 70.6861Z" fill="#263238"/>
<path d="M476.41 64.3758C476.41 64.3758 476.642 67.1826 476.565 68.4988C476.565 68.615 476.236 68.6537 475.79 68.673C475.77 68.673 475.751 68.6924 475.732 68.673C473.387 68.9053 471.081 67.9762 469.783 66.0018C469.706 65.8663 469.88 65.7502 469.996 65.8276C471.663 67.2019 473.562 67.6278 475.615 67.7826C475.732 67.4148 475.054 62.9821 475.267 62.9821C475.984 62.9628 477.379 63.5241 478.212 63.8145C477.902 57.9494 476.642 52.1811 476.41 46.3354C476.41 46.1224 476.701 46.0837 476.759 46.2773C478.503 52.2198 479.006 58.9753 479.491 65.0146C479.588 65.7695 476.933 64.6275 476.41 64.3758Z" fill="#263238"/>
<path d="M475.692 68.1696C475.692 68.1696 474.414 69.9117 472.67 70.5312C472.03 70.7634 471.333 70.8602 470.596 70.6667C469.085 70.2795 469.046 68.9052 469.317 67.7244C469.531 66.7566 469.976 65.9243 469.976 65.9243C469.976 65.9243 472.185 67.9761 475.692 68.1696Z" fill="#263238"/>
<path d="M472.67 70.5311C472.03 70.7634 471.333 70.8601 470.597 70.6666C469.085 70.2794 469.046 68.9051 469.318 67.7244C470.926 67.8986 472.534 68.9825 472.67 70.5311Z" fill="#FF9ABB"/>
<path d="M441.202 58.5299C445.639 58.9751 446.898 49.7032 446.898 49.7032C446.898 49.7032 455.928 49.9549 459.241 37.0439C459.241 37.0439 458.893 43.0832 454.978 47.6708C454.978 47.6708 470.945 46.3739 477.979 33.2306C477.979 33.2306 475.13 39.9474 472.573 42.2896C472.573 42.2896 479.296 40.5862 482.687 35.2437C482.687 35.2437 485.284 43.0058 487.376 45.1737C487.376 45.1737 493.17 9.07343 457.342 19.9519C457.342 19.9519 442.713 19.5067 436.59 32.1467C430.447 44.806 441.202 58.5299 441.202 58.5299Z" fill="#263238"/>
<path d="M444.476 56.4976C444.476 56.4976 439.07 47.5354 435.04 49.413C431.01 51.2906 434.672 63.9887 439.128 65.9824C443.566 67.9761 445.503 63.9112 445.503 63.9112L444.476 56.4976Z" fill="#FFC4C0"/>
<path d="M436.183 53.0327C436.105 53.0133 436.086 53.1295 436.144 53.1488C439.244 54.6587 440.737 57.7364 441.705 60.8915C440.833 59.6527 439.574 58.9171 437.927 59.943C437.849 60.0011 437.907 60.1366 438.004 60.1173C439.341 59.9237 440.271 60.214 441.085 61.3174C441.667 62.111 442.035 63.0595 442.422 63.9499C442.558 64.2402 443.081 64.1241 442.984 63.795C442.984 63.7757 442.965 63.737 442.965 63.7176C443.314 59.6527 440.523 53.7489 436.183 53.0327Z" fill="#263238"/>
<path d="M601.042 441.639L596.914 466.319L568.992 616.972H564.497L584.804 466.319L587.807 441.639H601.042Z" fill="#DBDBDB"/>
<path d="M587.807 441.639H601.042L596.914 466.319H584.804L587.807 441.639Z" fill="#C7C7C7"/>
<path d="M688.74 616.972H684.245L656.304 466.319L652.196 441.639H665.43L668.434 466.319L688.74 616.972Z" fill="#DBDBDB"/>
<path d="M665.43 441.639L668.434 466.319H656.304L652.196 441.639H665.43Z" fill="#C7C7C7"/>
<path d="M772.507 616.972H767.992L740.07 466.319L735.943 441.639H749.196L752.2 466.319L772.507 616.972Z" fill="#DBDBDB"/>
<path d="M752.2 466.319H740.07L735.943 441.639H749.196L752.2 466.319Z" fill="#C7C7C7"/>
<path d="M765.356 453.233H560.738V431.689H637.334L663.086 282.062H757.567L765.356 453.233Z" fill="#DBDBDB"/>
<path d="M765.356 453.233H754.215L746.929 282.062H757.567L765.356 453.233Z" fill="#C7C7C7"/>
<path d="M553.044 643.374C557.113 643.877 668.162 617.998 671.785 614.513C672.231 614.126 666.98 592.814 666.98 592.814C665.236 584.046 636.306 512.503 636.306 512.503L563.701 530.389L594.472 596.705C594.472 596.705 580.637 606.054 568.739 614.978C568.72 614.997 568.72 614.997 568.72 615.017C561.376 620.495 555.04 625.431 553.664 627.037C550.118 631.276 548.975 642.89 553.044 643.374Z" fill="#AD6359"/>
<path d="M553.044 643.374C557.113 643.878 668.161 617.998 671.765 614.513C672.211 614.126 666.941 592.815 666.941 592.815C666.359 589.95 662.852 580.271 658.396 568.561L588.91 584.743L594.452 596.705C594.452 596.705 580.617 606.074 568.7 614.997C568.681 615.017 568.681 615.017 568.681 615.036C561.337 620.514 554.982 625.45 553.625 627.057C550.118 631.276 548.975 642.89 553.044 643.374Z" fill="#EBEBEB"/>
<path d="M552.715 643.684C556.92 644.129 668.879 619.062 672.522 615.404C673.936 614.03 663.996 578.007 663.957 577.813L592.302 593.628L592.612 594.847C592.612 594.847 556.61 622.431 553.006 626.863C549.44 631.277 548.51 643.278 552.715 643.684Z" fill="#A6A6A6"/>
<path d="M553.006 639.077C571.782 634.393 647.914 617.243 666.825 614.03C666.98 614.01 667 614.107 666.845 614.146C648.34 619.198 572.073 635.728 553.064 639.367C552.677 639.464 552.618 639.174 553.006 639.077Z" fill="#263238"/>
<path d="M586.857 594.479C593.968 591.44 603.308 590.53 610.167 594.537C610.439 594.692 610.206 595.06 609.954 595.041C602.107 594.382 594.937 594.421 587.09 595.389C586.547 595.486 586.353 594.692 586.857 594.479Z" fill="#263238"/>
<path d="M582.226 598.912C589.338 595.873 598.677 594.963 605.537 598.97C605.808 599.125 605.575 599.493 605.324 599.473C597.476 598.815 590.307 598.854 582.459 599.822C581.916 599.899 581.703 599.125 582.226 598.912Z" fill="#263238"/>
<path d="M577.595 603.325C584.706 600.286 594.046 599.376 600.905 603.383C601.177 603.538 600.944 603.906 600.692 603.887C592.845 603.228 585.675 603.267 577.828 604.235C577.266 604.332 577.072 603.538 577.595 603.325Z" fill="#263238"/>
<path d="M573.565 580.485C575.58 575.82 581.412 576.4 585.113 578.317C591.081 581.394 596.953 586.988 600.363 592.718C600.44 592.853 600.363 592.97 600.247 593.028C600.343 593.589 599.975 594.305 599.297 594.208C592.651 593.318 585.443 593.183 579.281 590.279C575.657 588.595 571.666 584.898 573.565 580.485ZM589.492 590.802C592.748 591.324 596.003 591.673 599.239 592.312C596.255 589.505 593.407 586.601 590.151 584.085C588.601 582.885 586.973 581.704 585.268 580.717C582.614 579.207 572.906 576.904 576.045 584.724C577.769 589.079 585.617 590.182 589.492 590.802Z" fill="#263238"/>
<path d="M618.81 586.562C613.268 590.531 606.215 591.982 599.84 594.073C599.181 594.286 598.677 593.666 598.677 593.086C598.561 593.066 598.445 592.97 598.503 592.815C600.809 586.562 605.556 579.981 610.865 575.878C614.14 573.342 619.779 571.696 622.608 575.916C625.301 579.865 622.026 584.24 618.81 586.562ZM620.961 580.523C622.608 572.258 613.481 576.284 611.156 578.258C609.644 579.517 608.269 580.988 606.97 582.459C604.219 585.517 601.952 588.905 599.53 592.195C602.591 590.976 605.73 590.027 608.85 588.924C612.532 587.627 620.05 585.091 620.961 580.523Z" fill="#263238"/>
<path d="M588.775 594.227L666.224 576.903C666.224 576.903 602.339 428.843 607.997 421.372C610.826 417.636 682.578 416.532 705.404 397.214C735.051 372.128 715.151 333.782 715.151 333.782L635.008 331.401C635.008 331.401 635.977 348.126 632.857 350.642C630.804 352.326 535.315 360.34 524.832 392.491C511.985 431.902 588.775 594.227 588.775 594.227Z" fill="#263238"/>
<path d="M586.566 580.233C588.62 579.381 608.617 573.709 613.093 572.567C622.103 570.264 631.152 567.999 640.201 565.87C644.929 564.767 655.063 562.347 655.664 562.405C655.955 562.424 655.974 562.812 655.703 562.889C646.867 565.638 637.934 568.038 629.001 570.477C620.088 572.896 589.395 580.407 586.721 580.697C586.489 580.717 586.276 580.349 586.566 580.233Z" fill="#37474F"/>
<path d="M594.298 414.732C595.906 413.358 598.328 413.184 600.343 412.855C611.911 410.919 623.479 408.983 635.047 407.048C645.879 405.247 656.749 403.621 667.523 401.55C676.436 399.828 685.524 397.505 693.236 392.685C700.967 387.846 706.296 380.587 708.989 372.089C711.682 363.611 711.876 354.494 711.024 345.706C710.811 343.558 710.423 341.409 710.016 339.299C709.977 339.144 710.249 339.086 710.268 339.241C713.194 355.636 713.465 374.664 701.161 387.73C695.154 394.098 686.919 397.834 678.509 400.273C669.015 403.002 659.094 404.299 649.367 405.925C637.799 407.861 626.231 409.796 614.663 411.713C609.102 412.642 603.444 413.358 597.921 414.519C596.856 414.732 595.674 415.042 594.899 415.855C593.852 416.958 594.143 418.526 594.414 419.862C594.976 422.591 595.712 425.282 596.487 427.953C602.804 449.478 645.414 552.165 646.673 554.546C646.809 554.798 646.421 554.991 646.286 554.74C635.667 535.867 604.8 456.543 597.786 436.18C596.003 430.973 594.337 425.708 593.232 420.326C592.845 418.352 592.612 416.184 594.298 414.732Z" fill="#37474F"/>
<path d="M401.789 644.555C405.683 645.852 516.829 644.303 521.053 641.593C522.7 640.025 523.998 625.837 525.006 608.164L544.131 532.441L472.63 531.841L451.684 607.061C451.684 607.061 436.26 613.487 422.813 619.856C422.793 619.875 422.774 619.875 422.774 619.894C414.48 623.805 407.292 627.366 405.625 628.682C401.343 632.128 397.894 643.297 401.789 644.555Z" fill="#AD6359"/>
<path d="M399.503 644.652C403.514 645.987 518.263 645.426 522.604 642.639C524.27 641.613 525.161 624.927 525.665 604.738C525.665 604.525 525.665 604.312 525.685 604.099L451.665 603.635L451.704 604.893C451.704 604.893 407.874 624.695 403.417 628.276C398.98 631.818 395.492 643.336 399.503 644.652Z" fill="#A6A6A6"/>
<path d="M400.782 640.2C420.12 639.638 498.17 639.174 517.333 640.084C517.488 640.084 517.488 640.2 517.333 640.2C498.17 641.187 420.12 641.013 400.782 640.529C400.375 640.509 400.375 640.219 400.782 640.2Z" fill="#263238"/>
<path d="M443.43 603.867C451.026 602.416 460.346 603.538 466.198 608.919C466.43 609.132 466.12 609.442 465.869 609.365C458.35 607.042 451.336 605.551 443.469 604.816C442.907 604.777 442.868 603.983 443.43 603.867Z" fill="#263238"/>
<path d="M437.947 607.197C445.542 605.745 454.863 606.868 460.714 612.249C460.947 612.462 460.637 612.771 460.385 612.694C452.867 610.371 445.852 608.881 437.985 608.145C437.423 608.106 437.404 607.313 437.947 607.197Z" fill="#263238"/>
<path d="M432.463 610.526C440.059 609.074 449.379 610.197 455.231 615.578C455.464 615.791 455.154 616.101 454.902 616.023C447.384 613.7 440.369 612.21 432.502 611.474C431.94 611.436 431.921 610.642 432.463 610.526Z" fill="#263238"/>
<path d="M433.451 587.356C436.416 583.233 441.996 585.053 445.193 587.705C450.367 592.002 454.901 598.699 456.994 605.048C457.052 605.203 456.936 605.3 456.819 605.319C456.8 605.9 456.277 606.519 455.637 606.268C449.34 603.984 442.326 602.299 436.919 598.157C433.761 595.738 430.641 591.266 433.451 587.356ZM446.782 600.848C449.844 602.048 452.963 603.093 455.986 604.409C453.68 601.041 451.51 597.576 448.875 594.441C447.615 592.95 446.278 591.421 444.825 590.105C442.558 588.053 433.567 583.736 434.943 592.06C435.699 596.647 443.139 599.415 446.782 600.848Z" fill="#263238"/>
<path d="M476.332 602.977C470.073 605.668 462.865 605.571 456.2 606.248C455.502 606.326 455.153 605.59 455.289 605.029C455.173 604.971 455.095 604.855 455.192 604.719C458.796 599.106 464.842 593.705 470.907 590.821C474.646 589.04 480.498 588.634 482.378 593.357C484.102 597.828 479.975 601.39 476.332 602.977ZM479.742 597.538C483.133 589.815 473.348 591.808 470.655 593.221C468.911 594.131 467.244 595.273 465.655 596.415C462.303 598.815 459.377 601.622 456.296 604.332C459.552 603.79 462.826 603.558 466.101 603.132C469.977 602.667 477.863 601.796 479.742 597.538Z" fill="#263238"/>
<path d="M444.67 604.41L528.106 604.352C528.106 604.352 563.818 462.816 570.135 454.744C578.564 444.001 696.471 444.233 721.758 409.178C744.468 377.685 725.304 333.126 725.304 333.126L636.016 330.474C636.016 330.474 638.806 344.624 644.29 358.522C644.29 358.522 536.729 378.324 506.598 411.249C486.272 433.471 444.67 604.41 444.67 604.41Z" fill="#263238"/>
<path d="M628.73 352.423C631.307 352.868 633.865 353.914 636.287 354.843C638.845 355.811 641.383 356.933 643.844 358.133C648.727 360.514 653.377 363.224 657.969 366.108C658.105 366.205 657.969 366.399 657.834 366.321C653.009 363.824 648.01 361.56 643.011 359.411C640.608 358.385 638.205 357.34 635.802 356.314C633.38 355.269 630.803 354.378 628.497 353.101C628.207 352.926 628.381 352.365 628.73 352.423Z" fill="#37474F"/>
<path d="M634.078 330.434C635.105 334.499 635.996 338.602 637.159 342.629C637.701 344.468 638.224 346.364 638.922 348.145C639.503 349.655 640.414 351.378 642.158 351.726C644.173 352.113 644.754 350.391 644.599 348.726C644.425 346.868 643.94 344.99 643.572 343.171C643.146 341.061 642.72 338.951 642.332 336.822C642.138 335.757 641.945 334.712 641.751 333.647C641.712 333.376 641.499 331.344 641.363 330.763C641.344 330.821 641.325 330.86 641.247 330.84C641.228 330.84 641.208 330.84 641.17 330.821C641.111 330.821 641.053 330.782 641.053 330.724C641.034 330.569 641.034 330.531 641.15 330.414C641.208 330.356 641.286 330.376 641.344 330.395C641.732 330.608 641.751 331.131 641.887 331.518C642.216 332.544 642.545 333.57 642.855 334.615C643.417 336.551 643.96 338.506 644.464 340.461C644.967 342.416 645.432 344.371 645.917 346.345C646.285 347.816 646.711 349.365 646.304 350.855C645.878 352.501 644.561 353.333 643.107 353.449C643.185 353.585 643.262 353.701 643.32 353.836C643.495 354.243 643.63 354.668 643.785 355.075C643.94 355.501 644.076 355.907 644.212 356.353C644.27 356.565 644.309 356.778 644.328 356.972C644.347 357.204 644.309 357.437 644.328 357.669C644.367 358.037 643.882 358.25 643.689 357.901C643.592 357.688 643.417 357.533 643.301 357.34C643.185 357.127 643.088 356.895 643.01 356.662C642.875 356.256 642.758 355.849 642.642 355.423C642.545 355.017 642.41 354.591 642.332 354.185C642.293 353.933 642.274 353.681 642.255 353.43C641.421 353.352 640.608 353.062 639.91 352.539C638.689 351.629 637.992 350.216 637.469 348.823C636.849 347.139 636.384 345.377 635.899 343.635C634.717 339.338 633.71 334.983 633.303 330.531C633.303 330.124 633.961 329.969 634.078 330.434Z" fill="#37474F"/>
<path d="M453.312 589.485C455.502 589.175 457.788 589.156 459.997 589.079C462.342 588.982 464.686 588.885 467.05 588.808C471.681 588.672 476.293 588.575 480.924 588.575C490.244 588.537 499.545 588.556 508.865 588.691C513.71 588.769 524.134 588.904 524.696 589.098C524.968 589.195 524.909 589.562 524.619 589.562C515.376 590.046 506.133 590.201 496.871 590.375C487.629 590.55 478.386 590.685 469.143 590.53C466.585 590.492 464.028 590.395 461.47 590.317C458.796 590.24 456.025 590.317 453.37 589.969C453.118 589.93 453.002 589.543 453.312 589.485Z" fill="#37474F"/>
<path d="M560.427 455.923C561.376 453.485 562.19 450.775 563.915 448.742C565.659 446.671 568.236 445.916 570.755 445.219C592.999 439.141 615.961 436.412 638.573 432.134C649.696 430.024 660.779 427.546 671.592 424.101C682.384 420.655 693.313 416.3 702.827 410.067C707.594 406.932 711.508 402.925 714.317 397.95C716.953 393.266 718.619 388.059 719.723 382.813C722.204 370.831 722.029 358.191 719.646 346.209C719.045 343.19 718.27 340.228 717.36 337.305C717.301 337.131 717.592 337.054 717.65 337.228C721.777 348.881 723.599 361.25 722.669 373.599C721.855 384.323 719.258 395.608 712.322 404.105C708.834 408.383 704.28 411.519 699.494 414.171C694.417 416.978 689.147 419.417 683.76 421.565C673.258 425.746 662.368 428.785 651.343 431.224C628.788 436.218 605.749 438.735 583.195 443.748C580.404 444.367 577.633 445.026 574.882 445.722C572.208 446.4 569.069 446.884 566.686 448.355C564.012 450.02 563.12 453.349 562.074 456.117C560.911 459.175 524.638 581.8 523.824 584.878C523.688 585.381 522.933 585.149 523.068 584.646C526.188 572.161 558.082 461.943 560.427 455.923Z" fill="#37474F"/>
<path d="M567.015 459.175C567.867 456.504 568.604 453.62 571.103 451.994C573.429 450.484 609.295 445.587 613.325 444.968C613.519 444.948 613.577 445.219 613.403 445.258C609.954 445.839 576.994 451.742 574.029 452.71C572.809 453.117 571.607 453.736 570.813 454.781C569.824 456.059 569.418 457.724 568.933 459.253C567.926 462.447 566.899 465.641 565.891 468.815C563.856 475.222 561.822 481.629 559.884 488.056C557.695 495.353 555.176 502.999 553.296 510.374C553.16 510.935 552.347 510.664 552.444 510.122C554.943 496.321 565.949 462.524 567.015 459.175Z" fill="#37474F"/>
<path d="M643.883 358.753C627.432 360.553 611.078 364.231 595.17 368.721C579.126 373.251 563.373 378.884 548.162 385.697C539.617 389.53 531.343 393.808 523.146 398.318C522.991 398.415 523.127 398.647 523.301 398.569C538.008 390.924 553.432 384.323 569.011 378.651C584.551 373.019 600.46 368.373 616.62 364.869C625.727 362.895 634.873 361.366 644.058 359.837C644.658 359.74 644.484 358.695 643.883 358.753Z" fill="#37474F"/>
<path d="M642.429 255.717C631.055 272.906 588.659 327.318 568.061 327.569C554.555 327.724 504.001 308.735 496.386 304.361C490.496 300.973 508.322 255.465 514.988 258.369C521.654 261.273 562.422 275.364 567.887 274.919C573.312 274.474 620.979 237.986 637.643 229.915C666.379 215.997 648.572 246.465 642.429 255.717Z" fill="#AD6359"/>
<path d="M503.053 307.148C497.433 305.271 466.992 295.418 460.734 290.85C454.475 286.262 437.385 271.783 440.407 266.635C443.43 261.486 448.778 265.318 448.778 265.318C448.778 265.318 442.539 258.059 446.046 253.162C449.553 248.265 457.672 254.498 457.672 254.498C457.672 254.498 451.801 246.581 455.657 241.935C459.513 237.29 466.605 244.936 466.605 244.936C466.605 244.936 460.908 237.948 465.694 235.451C471.449 232.451 480.517 246.523 487.803 251.072C489.469 252.098 522.875 269.557 522.875 269.557L503.053 307.148Z" fill="#AD6359"/>
<path d="M465.984 244.297C472.669 254.633 477.378 258.001 488.384 263.092C488.597 263.189 488.5 263.538 488.268 263.441C477.048 259.434 470.519 256.066 465.481 244.587C465.229 244.045 465.674 243.813 465.984 244.297Z" fill="#263238"/>
<path d="M457.148 253.685C465.035 263.809 470.112 267.506 481.234 273.7C481.389 273.797 481.253 274.068 481.098 273.99C469.666 268.841 463.252 265.318 456.703 254.169C456.393 253.646 456.78 253.221 457.148 253.685Z" fill="#263238"/>
<path d="M449.34 265.628C457.672 274.881 463.079 279.178 474.647 283.785C474.918 283.901 474.782 284.307 474.511 284.211C462.245 280.649 455.483 275.345 449.089 265.899C448.643 265.26 448.817 265.047 449.34 265.628Z" fill="#263238"/>
<path d="M532.485 267.679C532.485 267.679 524.851 254.284 520.2 249.135C515.55 243.986 491.135 231.192 488.074 236.302C484.121 242.902 496.735 253.065 503.575 257.226C503.575 257.226 494.391 272.48 501.889 281.732C509.388 290.985 532.485 267.679 532.485 267.679Z" fill="#AD6359"/>
<path d="M487.589 238.471C488.325 247.084 497.646 251.982 503.982 256.53C504.466 256.879 504.35 257.382 504.021 257.692C500.61 264.331 497.723 274.706 501.424 281.675C501.54 281.888 501.25 282.062 501.114 281.868C496.134 274.939 498.13 264.505 502.335 257.479C495.766 252.93 486.62 247.607 487.512 238.471C487.512 238.412 487.589 238.412 487.589 238.471Z" fill="#263238"/>
<path d="M531.383 258.911L518.071 318.027C518.071 318.027 558.607 331.073 577.732 327.84C600.946 323.93 644.389 261.427 650.647 250.994C660.917 233.883 660.781 222.462 650.105 223.469C645.958 223.817 640.203 226.082 632.859 230.65C625.167 235.393 580.31 267.08 566.978 272.248C559.518 275.151 531.383 258.911 531.383 258.911Z" fill="#2EC097"/>
<path d="M529.308 317.349C531.42 309.103 538.861 275.055 539.965 267.583C540.043 267.06 539.733 266.886 539.578 267.428C532.641 291.973 530.645 309.065 528.978 317.253C528.959 317.465 529.269 317.562 529.308 317.349Z" fill="#263238"/>
<path d="M574.843 328.187C575.851 328.129 576.8 328.012 577.711 327.858C600.924 323.947 644.367 261.445 650.645 251.011C660.392 234.81 660.779 223.699 651.692 223.428C635.144 245.92 599.006 295.222 574.843 328.187Z" fill="#263238"/>
<path d="M618.79 350.43C621.329 352.888 729.49 364.134 730.032 363.399C731.466 361.444 711.256 260.034 667.93 225.095C660.295 218.939 647.565 221.514 641.79 225.23C638.903 227.089 630.939 241.645 628.653 254.594C626.386 267.525 617.201 348.881 618.79 350.43Z" fill="#2EC097"/>
<path d="M689.729 245.303C721.972 281.674 758.09 342.784 742.201 355.578C727.688 367.251 678.916 356.062 646.034 342.803C639.775 340.287 647.507 290.54 654.599 291.837C667.639 294.237 691.492 302.58 692.325 302.831C694.127 303.335 682.579 276.197 671.921 249.891C660.082 220.546 671.301 224.514 689.729 245.303Z" fill="#AD6359"/>
<path d="M663.977 294.005C663.977 294.005 644.155 289.436 631.114 287.172C623.848 285.894 611.175 284.849 605.42 286.339C596.798 288.604 562.152 303.548 565.601 312.006C568.721 319.672 596.856 303.064 596.856 303.064C596.856 303.064 566.996 317.33 572.441 325.866C577.905 334.402 607.184 311.406 607.184 311.406C607.184 311.406 576.82 326.737 583.854 334.654C589.163 340.635 616.853 321.298 616.853 321.298C616.853 321.298 590.849 334.654 596.042 341.042C601.778 348.107 628.459 331.866 628.459 331.866C644.387 345.881 657.718 346.055 667.213 345.048C669.48 344.816 663.977 294.005 663.977 294.005Z" fill="#AD6359"/>
<path d="M606.854 297.47C603.289 299.018 599.665 300.567 596.236 302.425C592.825 304.283 589.454 306.257 586.237 308.425C578.312 313.749 574.185 318.317 574.475 318.065C581.238 312.045 593.368 305.193 596.798 303.335C600.208 301.476 603.521 299.444 606.932 297.586C607.009 297.566 606.951 297.431 606.854 297.47Z" fill="#263238"/>
<path d="M613.811 309.684C609.335 311.852 604.82 313.846 600.441 316.226C596.081 318.588 590.093 322.091 585.908 324.763C585.579 324.976 585.753 325.518 586.082 325.324C590.365 322.846 596.643 319.536 600.964 317.097C605.265 314.678 609.49 312.065 613.888 309.8C613.927 309.761 613.869 309.645 613.811 309.684Z" fill="#263238"/>
<path d="M621.658 319.091C614.663 322.072 608.21 326.331 601.99 330.647C601.68 330.86 601.971 330.976 602.3 330.763C608.772 326.795 613.81 323.64 621.774 319.323C621.871 319.265 621.793 319.033 621.658 319.091Z" fill="#263238"/>
<path d="M673.859 229.256C697.305 243.716 757.644 328.788 746.541 352.191C735.438 375.593 659.791 349.829 659.791 349.829L665.255 290.752C665.255 290.752 686.376 297.45 687.035 296.443C687.694 295.437 676.106 266.421 671.378 254.613C666.651 242.806 661.361 221.571 673.859 229.256Z" fill="#2EC097"/>
<path d="M669.364 346.229C670.759 337.828 675.235 303.276 675.7 295.747C675.739 295.224 675.41 295.069 675.313 295.611C670.507 320.659 669.984 337.867 669.035 346.171C669.015 346.364 669.325 346.442 669.364 346.229Z" fill="#263238"/>
<path d="M664.829 289.979C667.116 290.269 669.422 291.062 671.65 291.701C673.665 292.282 675.661 292.863 677.676 293.482C682.017 294.818 686.338 296.231 690.639 297.683C694.941 299.134 699.223 300.644 703.486 302.212C707.749 303.78 711.915 305.58 716.159 307.148C716.352 307.225 716.217 307.516 716.023 307.438C711.721 305.948 707.303 304.748 702.963 303.354C698.7 301.999 694.457 300.625 690.194 299.27C685.95 297.915 681.687 296.579 677.424 295.224C675.351 294.547 673.278 293.869 671.185 293.192C669.17 292.534 667.174 291.817 665.198 291.024C665.14 291.004 665.062 294.353 664.907 294.276C664.481 294.043 664.326 289.92 664.829 289.979Z" fill="#263238"/>
<path d="M673.626 268.086C674.847 269.654 676.048 271.222 677.191 272.828C677.405 273.119 677.598 273.448 677.792 273.738C677.482 272.906 677.172 272.074 676.862 271.241C675.777 268.338 674.479 265.415 673.704 262.414C673.665 262.279 673.878 262.221 673.936 262.337C675.525 265.163 676.649 268.299 677.908 271.28C679.149 274.203 680.427 277.126 681.609 280.068C682.791 283.029 684.031 285.972 685.155 288.933C686.26 291.837 687.519 294.798 688.178 297.837C688.217 298.012 687.965 298.089 687.887 297.934C686.202 295.147 685.039 292.05 683.78 289.049C682.559 286.107 681.416 283.126 680.234 280.184C679.749 278.945 679.265 277.706 678.8 276.448C678.587 276.158 678.393 275.887 678.18 275.596C677.598 274.822 677.075 274.029 676.552 273.216C675.486 271.551 674.479 269.847 673.51 268.125C673.49 268.086 673.568 268.028 673.626 268.086Z" fill="#263238"/>
<path d="M659.637 348.436C659.675 348.01 659.888 347.913 659.966 348.378C660.005 348.629 660.043 349.074 660.082 349.326C662.659 350.023 672.076 352.888 674.382 353.565C679.207 354.998 684.071 356.256 688.992 357.34C693.934 358.424 698.875 359.392 703.854 360.146C710.811 361.192 726.622 361.443 732.823 360.921C733.017 360.901 732.997 361.192 732.803 361.23C729.354 362.005 716.914 362.914 703.544 361.366C698.565 360.785 693.604 359.972 688.682 358.927C683.683 357.882 678.723 356.604 673.84 355.114C671.398 354.378 668.976 353.565 666.554 352.713C664.287 351.92 661.826 351.223 659.753 349.965C659.598 349.868 659.501 349.674 659.52 349.481C659.578 349.152 659.617 348.803 659.637 348.436Z" fill="#263238"/>
<path d="M645.239 242.419C651.478 243.774 661.981 234.134 666.069 226.392C666.34 225.85 663.802 204.848 663.724 200.628C663.705 199.757 637.333 207.5 637.333 207.5C637.333 207.5 640.085 216.288 640.162 223.643C640.143 224.243 639.193 241.103 645.239 242.419Z" fill="#AD6359"/>
<path d="M637.314 207.48C637.372 207.635 637.527 208.139 637.76 208.971C638.147 210.384 638.748 212.668 639.232 215.301C639.736 217.914 640.143 220.875 640.163 223.643C640.182 223.837 640.163 224.05 640.163 224.224V224.321C640.143 224.669 640.143 225.134 640.124 225.676C640.918 225.773 641.771 225.811 642.701 225.773C657.117 225.211 661.671 207.442 662.911 200.628C662.756 200.648 662.62 200.686 662.446 200.706C661.748 200.822 660.838 201.035 659.733 201.306C659.462 201.383 659.191 201.441 658.881 201.519C657.117 201.964 655.025 202.525 652.835 203.106C652.118 203.299 651.401 203.493 650.665 203.706C649.095 204.151 647.526 204.577 646.053 204.983C645.433 205.177 644.813 205.351 644.212 205.506C643.573 205.68 642.933 205.874 642.333 206.029C642.042 206.125 641.751 206.203 641.461 206.28C641.306 206.338 641.19 206.377 641.054 206.396C640.182 206.648 639.465 206.861 638.864 207.035C638.419 207.151 638.07 207.268 637.818 207.326C637.605 207.403 637.45 207.422 637.372 207.461C637.353 207.461 637.334 207.461 637.314 207.48Z" fill="#263238"/>
<path d="M668.046 174.477C669.712 184.136 661.361 210.384 653.978 215.533C643.263 223.004 627.413 221.824 621.483 209.358C615.728 197.26 627.219 163.25 635.318 158.74C647.216 152.12 665.585 160.211 668.046 174.477Z" fill="#AD6359"/>
<path d="M639.717 186.885C639.755 186.827 639.833 187.02 639.794 187.078C639.135 188.821 638.67 190.911 640.065 192.034C640.104 192.072 640.065 192.15 640.007 192.131C638.167 191.201 638.806 188.414 639.717 186.885Z" fill="#263238"/>
<path d="M641.926 185.588C644.832 186.343 643.108 192.092 640.414 191.376C637.76 190.679 639.484 184.949 641.926 185.588Z" fill="#263238"/>
<path d="M629.33 184.078C629.33 184.001 629.175 184.117 629.137 184.194C628.652 185.994 627.8 187.969 626.017 188.065C625.959 188.065 625.939 188.162 625.998 188.162C628.051 188.491 629.156 185.859 629.33 184.078Z" fill="#263238"/>
<path d="M628.304 181.736C625.514 180.652 623.557 186.324 626.153 187.33C628.692 188.317 630.649 182.646 628.304 181.736Z" fill="#263238"/>
<path d="M644.794 183.536C644.018 183.188 643.379 182.743 642.662 182.317C641.848 181.833 641.151 181.543 640.724 180.652C640.492 180.168 640.763 179.452 641.209 179.181C642.236 178.562 643.379 178.91 644.387 179.433C645.472 180.013 646.169 180.749 646.634 181.872C647.08 182.994 645.801 184.001 644.794 183.536Z" fill="#263238"/>
<path d="M626.947 177.923C627.781 178.039 628.575 178 629.408 178.019C630.358 178.039 631.094 178.155 631.927 177.632C632.373 177.342 632.528 176.587 632.295 176.123C631.753 175.058 630.61 174.729 629.466 174.651C628.226 174.574 627.257 174.826 626.25 175.522C625.3 176.239 625.843 177.787 626.947 177.923Z" fill="#263238"/>
<path d="M636.403 203.88C635.861 204.17 635.26 204.616 634.601 204.48C633.962 204.345 633.322 203.841 632.819 203.454C632.76 203.416 632.702 203.454 632.722 203.532C632.974 204.345 633.826 205.08 634.698 205.177C635.551 205.274 636.151 204.693 636.578 204.016C636.597 203.899 636.481 203.822 636.403 203.88Z" fill="#263238"/>
<path d="M636.132 197.996C634.679 199.234 632.954 199.641 631.269 199.467C630.513 199.389 629.777 199.196 629.06 198.905C628.924 198.867 628.769 198.809 628.653 198.731C628.536 198.673 628.42 198.634 628.285 198.557C628.091 198.46 628.033 198.267 628.052 198.054V198.034C628.071 197.976 628.091 197.918 628.13 197.86C628.13 197.86 628.13 197.86 628.13 197.841L628.188 197.686C628.556 196.312 629.331 194.26 629.331 194.26C628.75 194.357 625.862 194.744 626.114 194.028C628.246 188.221 630.629 181.755 633.981 176.413C634.078 176.239 634.369 176.374 634.291 176.548C632.451 182.22 629.641 187.524 627.723 193.195C628.633 193.137 630.125 192.963 630.842 193.195C631.017 193.311 629.312 197.105 629.176 197.744C629.176 197.744 629.176 197.763 629.176 197.821C631.385 198.809 633.342 198.634 636.035 197.763C636.171 197.725 636.268 197.88 636.132 197.996Z" fill="#263238"/>
<path d="M630.086 198.46C630.086 198.46 630.803 200.454 632.295 201.557C632.838 201.964 633.477 202.254 634.214 202.273C635.744 202.331 636.171 201.035 636.248 199.834C636.306 198.847 636.132 197.938 636.132 197.938C636.132 197.938 633.477 199.254 630.086 198.46Z" fill="#263238"/>
<path d="M632.295 201.557C632.838 201.964 633.477 202.254 634.213 202.273C635.744 202.331 636.171 201.035 636.248 199.834C634.679 199.525 632.857 200.105 632.295 201.557Z" fill="#FF9ABB"/>
<path d="M663.764 196.003C658.764 195.481 660.043 186.828 660.043 186.828C660.043 186.828 650.239 184.138 650.742 171.149C650.742 171.149 635.725 174.44 629.157 166.117C622.588 157.774 644.581 141.708 665.566 161.839C665.566 161.839 676.262 165.013 676.862 174.13C677.502 183.247 669.809 196.642 663.764 196.003Z" fill="#263238"/>
<path d="M651.265 169.715C651.343 169.599 651.536 169.676 651.498 169.812C648.862 178.135 653.416 186.556 662.6 187.059C662.911 187.078 662.911 187.523 662.6 187.543C653.416 187.949 646.13 177.961 651.265 169.715Z" fill="#263238"/>
<path d="M645.181 152.023C645.2 152.023 645.2 152.062 645.181 152.062C642.061 152.12 638.884 152.275 635.9 153.281C631.424 154.772 625.3 159.301 627.645 164.76C630.881 172.251 641.713 171.593 648.398 170.683C648.843 170.625 649.018 171.225 648.572 171.361C641.713 173.49 628.033 172.715 626.289 163.792C624.37 153.92 638.419 151.404 645.181 152.023Z" fill="#263238"/>
<path d="M659.249 195.595C659.249 195.595 666.612 187.833 670.235 190.562C673.859 193.311 667.445 205.196 662.562 206.222C657.679 207.267 656.633 202.776 656.633 202.776L659.249 195.595Z" fill="#AD6359"/>
<path d="M668.298 193.93C668.375 193.93 668.375 194.046 668.298 194.066C664.868 194.898 662.717 197.647 661.051 200.589C662.194 199.524 663.609 199.079 665.043 200.453C665.12 200.531 665.023 200.647 664.926 200.608C663.647 200.124 662.64 200.221 661.593 201.15C660.838 201.808 660.276 202.699 659.695 203.492C659.501 203.763 658.997 203.531 659.152 203.202C659.171 203.183 659.171 203.163 659.191 203.125C659.714 198.982 663.783 193.678 668.298 193.93Z" fill="#263238"/>
<path d="M640.008 225.85L646.344 241.587L665.915 221.669L671.456 228.056C671.456 228.056 652.312 259.705 652.196 258.272L645.705 244.703L636.326 254.149L637.082 230.457L640.008 225.85Z" fill="#EBEBEB"/>
<path d="M636.035 242.419C636.287 238.509 636.442 234.56 636.868 230.67C636.888 230.534 637.101 230.476 637.14 230.631C637.934 234.405 636.868 249.349 636.888 252.93C636.907 252.91 636.907 252.91 636.927 252.891C637.314 252.485 645.607 244.587 645.704 244.703C647.119 246.852 651.885 256.743 652.215 257.634C655.238 252.601 666.844 234.328 670.429 229.566C670.526 229.431 670.739 229.547 670.662 229.702C667.988 235.006 652.622 259.627 652.389 259.55C652.234 259.666 646.305 247.51 645.588 245.207C644.193 246.929 635.803 255.853 635.783 255.253C635.59 251.362 635.783 246.329 636.035 242.419Z" fill="#263238"/>
<path d="M177.038 344.429H313.218V648.813H177.038V344.429Z" fill="#263238"/>
<path d="M581.412 344.43H717.592V648.815H581.412V344.43Z" fill="#37474F"/>
<path d="M177.057 344.429H581.412V386.704H177.057V344.429Z" fill="#455A64"/>
<g opacity="0.1">
<path opacity="0.1" d="M580.54 365.566L530.102 365.199L479.665 365.082L378.789 364.831L277.914 365.082L227.476 365.199L177.038 365.566L227.476 365.915L277.914 366.05L378.789 366.283L479.665 366.031L530.102 365.915L580.54 365.566Z" fill="black"/>
</g>
<path d="M563.101 344.429H581.412V648.813H563.101V344.429Z" fill="#455A64"/>
<path d="M177.057 344.429H195.368V648.813H177.057V344.429Z" fill="#455A64"/>
<path d="M546.845 339.725H651.789V344.429H546.845V339.725Z" fill="#C7C7C7"/>
<path d="M546.845 339.725H599.666V344.429H546.845V339.725Z" fill="#A6A6A6"/>
<path d="M593.988 344.429H491.718L478.348 275.035H580.618L593.988 344.429Z" fill="#C7C7C7"/>
<path d="M542.387 309.722C542.697 313.148 540.14 315.936 536.71 315.936C533.28 315.936 530.238 313.148 529.948 309.722C529.637 306.296 532.195 303.509 535.625 303.509C539.055 303.509 542.097 306.296 542.387 309.722Z" fill="#EBEBEB"/>
<path d="M606.505 183.671C609.044 179.819 610.458 175.483 610.458 170.896C610.458 154.714 592.67 141.59 570.716 141.59C548.782 141.59 530.994 154.714 530.994 170.896C530.994 187.078 548.782 200.202 570.716 200.202C581.354 200.202 591.004 197.124 598.115 192.092L611.795 195.576L606.505 183.671Z" fill="#FFFEFD"/>
<path d="M606.505 183.671C608.947 180.148 610.497 175.948 610.691 171.593C610.846 167.257 609.8 162.863 607.591 159.088C605.44 155.275 602.339 152.081 598.832 149.487C595.325 146.894 591.372 144.919 587.245 143.526C583.118 142.132 578.816 141.28 574.476 140.912C570.116 140.583 565.737 140.854 561.435 141.551C552.851 142.964 544.461 146.681 538.125 152.875C535.005 155.972 532.467 159.785 531.11 164.063C529.773 168.321 529.696 173.006 530.994 177.284C532.254 181.581 534.734 185.433 537.815 188.569C540.915 191.724 544.597 194.221 548.53 196.137C556.436 199.97 565.33 201.344 574.011 200.783C582.672 200.202 591.295 197.531 598.387 192.44L598.018 192.517L611.757 195.808L612.241 195.924L612.028 195.498L606.505 183.671ZM606.505 183.671L611.602 195.673L611.873 195.343L598.232 191.666L598.038 191.608L597.863 191.724C590.83 196.505 582.381 198.983 573.914 199.408C569.67 199.641 565.427 199.273 561.28 198.518C557.133 197.744 553.045 196.505 549.286 194.608C545.507 192.75 542.02 190.33 539.113 187.33C536.206 184.349 533.939 180.729 532.796 176.78C531.614 172.832 531.75 168.554 532.971 164.644C534.172 160.714 536.516 157.153 539.442 154.191C545.372 148.307 553.413 144.648 561.726 143.235C570.038 141.783 578.739 142.248 586.819 144.822C594.86 147.339 602.398 152.275 606.854 159.514C609.102 163.095 610.245 167.334 610.226 171.593C610.148 175.832 608.792 180.052 606.505 183.671Z" fill="#263238"/>
<path d="M556.436 170.896C556.436 173.161 554.595 175.019 552.309 175.019C550.042 175.019 548.182 173.18 548.182 170.896C548.182 168.631 550.022 166.773 552.309 166.773C554.595 166.792 556.436 168.631 556.436 170.896Z" fill="#263238"/>
<path d="M574.844 170.896C574.844 173.161 573.003 175.019 570.717 175.019C568.45 175.019 566.59 173.18 566.59 170.896C566.59 168.631 568.431 166.773 570.717 166.773C573.003 166.792 574.844 168.631 574.844 170.896Z" fill="#263238"/>
<path d="M593.271 170.896C593.271 173.161 591.43 175.019 589.143 175.019C586.857 175.019 585.016 173.18 585.016 170.896C585.016 168.631 586.857 166.773 589.143 166.773C591.43 166.773 593.271 168.631 593.271 170.896Z" fill="#263238"/>
<path d="M515.144 43.1994C512.606 39.3474 511.191 35.0115 511.191 30.424C511.191 14.2417 528.979 1.11786 550.933 1.11786C572.867 1.11786 590.655 14.2417 590.655 30.424C590.655 46.6062 572.867 59.7301 550.933 59.7301C540.295 59.7301 530.645 56.6523 523.534 51.6196L509.854 55.1038L515.144 43.1994Z" fill="#FFFEFD"/>
<path d="M515.144 43.1995C512.857 39.5798 511.501 35.36 511.424 31.1015C511.404 26.8624 512.547 22.6233 514.795 19.0229C519.271 11.7835 526.809 6.86687 534.831 4.33114C542.911 1.75669 551.611 1.29213 559.924 2.74389C568.217 4.15693 576.278 7.81535 582.207 13.6998C585.133 16.642 587.477 20.2037 588.679 24.1524C589.9 28.0625 590.035 32.3403 588.853 36.2891C587.71 40.2572 585.424 43.8576 582.536 46.8385C579.63 49.8388 576.123 52.2584 572.364 54.1167C568.604 56.0136 564.516 57.2331 560.369 58.0267C556.223 58.801 551.96 59.1688 547.736 58.9171C539.287 58.5107 530.82 56.033 523.786 51.2325L523.612 51.1164L523.418 51.1744L509.776 54.8522L510.048 55.1813L515.144 43.1995ZM515.144 43.1995L509.622 55.0071L509.408 55.4329L509.893 55.3168L523.631 52.0455L523.263 51.9681C530.335 57.0589 538.977 59.7108 547.639 60.3108C556.3 60.8528 565.214 59.4785 573.119 55.6652C577.053 53.7489 580.734 51.2519 583.835 48.0967C586.916 44.9609 589.396 41.1089 590.655 36.8117C591.953 32.5339 591.876 27.8496 590.539 23.5911C589.202 19.3133 586.664 15.5193 583.525 12.4029C577.208 6.20874 568.818 2.49225 560.214 1.07921C555.913 0.382365 551.534 0.111371 547.174 0.440435C542.833 0.808213 538.532 1.65991 534.404 3.05359C530.277 4.44728 526.324 6.40231 522.817 9.01547C519.31 11.5899 516.21 14.8031 514.059 18.6164C511.85 22.391 510.803 26.8043 510.958 31.1209C511.152 35.4761 512.702 39.6765 515.144 43.1995Z" fill="#263238"/>
<path d="M565.214 30.424C565.214 32.6888 567.055 34.547 569.341 34.547C571.628 34.547 573.469 32.7081 573.469 30.424C573.469 28.1593 571.628 26.301 569.341 26.301C567.055 26.301 565.214 28.1399 565.214 30.424Z" fill="#263238"/>
<path d="M546.786 30.424C546.786 32.6888 548.627 34.547 550.914 34.547C553.181 34.547 555.041 32.7081 555.041 30.424C555.041 28.1593 553.2 26.301 550.914 26.301C548.647 26.301 546.786 28.1399 546.786 30.424Z" fill="#263238"/>
<path d="M528.379 30.424C528.379 32.6888 530.22 34.547 532.506 34.547C534.773 34.547 536.633 32.7081 536.633 30.424C536.633 28.1593 534.793 26.301 532.506 26.301C530.22 26.301 528.379 28.1399 528.379 30.424Z" fill="#263238"/>
</svg>
