<?xml version="1.0" encoding="utf-8"?>
<svg viewBox="-314.772 -103.616 1021.086 485.909" xmlns="http://www.w3.org/2000/svg">
  <defs>
    <clipPath id="clipPath18" clipPathUnits="userSpaceOnUse">
      <path id="path16" d="M 0,1000 H 1000 V 0 H 0 Z"/>
    </clipPath>
  </defs>
  <g transform="matrix(1.333333, 0, 0, -1.333333, -476.742568, 811.473145)" id="g10">
    <g id="g12">
      <g clip-path="url(#clipPath18)" id="g14">
        <g transform="translate(220.5039,418.4839)" id="g20">
          <path id="path22" style="fill:#241e28;fill-opacity:1;fill-rule:nonzero;stroke:none" d="m 0,0 c -0.498,0.498 -0.747,1.079 -0.747,1.743 v 64.743 c 0,0.73 0.249,1.328 0.747,1.793 0.498,0.464 1.079,0.698 1.743,0.698 h 14.244 c 0.73,0 1.327,-0.234 1.793,-0.698 0.464,-0.465 0.697,-1.063 0.697,-1.793 V 1.743 C 18.477,1.079 18.244,0.498 17.78,0 17.314,-0.498 16.717,-0.747 15.987,-0.747 H 1.743 C 1.079,-0.747 0.498,-0.498 0,0"/>
        </g>
        <g transform="translate(268.6128,418.4341)" id="g24">
          <path id="path26" style="fill:#241e28;fill-opacity:1;fill-rule:nonzero;stroke:none" d="m 0,0 c -0.498,0.464 -0.747,1.062 -0.747,1.793 v 50.998 h -17.53 c -0.732,0 -1.345,0.231 -1.843,0.697 -0.498,0.464 -0.747,1.061 -0.747,1.793 v 11.156 c 0,0.73 0.249,1.344 0.747,1.842 0.498,0.498 1.111,0.747 1.843,0.747 h 54.085 c 0.73,0 1.345,-0.249 1.843,-0.747 0.498,-0.498 0.747,-1.112 0.747,-1.842 V 55.281 c 0,-0.732 -0.249,-1.329 -0.747,-1.793 -0.498,-0.466 -1.113,-0.697 -1.843,-0.697 H 18.277 V 1.793 C 18.277,1.062 18.028,0.464 17.531,0 17.033,-0.465 16.418,-0.697 15.688,-0.697 H 1.843 C 1.111,-0.697 0.498,-0.465 0,0"/>
        </g>
        <g transform="translate(249.157,580.6016)" id="g28">
          <path id="path30" style="fill:#39caa1;fill-opacity:1;fill-rule:nonzero;stroke:none" d="m 0,0 c 0,0 -114.181,4.449 -125.637,-125.298 0,0 89.646,12.074 125.637,125.298"/>
        </g>
        <g transform="translate(250.551,323.4004)" id="g32">
          <path id="path34" style="fill:#39caa1;fill-opacity:1;fill-rule:nonzero;stroke:none" d="m 0,0 c 0,0 -116.403,-6.273 -126.858,124.07 0,0 92.007,-12.547 126.858,-124.07"/>
        </g>
        <g transform="translate(257.5212,323.4004)" id="g36">
          <path id="path38" style="fill:#39caa1;fill-opacity:1;fill-rule:nonzero;stroke:none" d="M 0,0 C 0,0 121.979,-4.182 125.464,124.07 125.464,124.07 36.245,109.433 0,0"/>
        </g>
        <g transform="translate(454.02,403.9639)" id="g40">
          <path id="path42" style="fill:#241e28;fill-opacity:1;fill-rule:nonzero;stroke:none" d="m 0,0 c -6.29,2.588 -11.051,6.01 -14.287,10.265 -3.238,4.252 -4.948,8.877 -5.132,13.87 0,0.832 0.299,1.526 0.901,2.081 0.601,0.555 1.318,0.832 2.151,0.832 H 2.081 c 1.109,0 2.011,-0.186 2.705,-0.555 0.693,-0.37 1.456,-1.018 2.288,-1.942 1.201,-2.219 3.073,-4.046 5.618,-5.479 2.542,-1.434 5.94,-2.15 10.195,-2.15 4.993,0 8.829,0.764 11.512,2.289 2.682,1.526 4.023,3.628 4.023,6.311 0,1.942 -0.693,3.537 -2.081,4.786 -1.387,1.248 -3.606,2.358 -6.657,3.329 -3.052,0.97 -7.445,2.056 -13.178,3.259 -11.19,2.22 -19.557,5.594 -25.106,10.126 -5.548,4.53 -8.322,11.003 -8.322,19.419 0,5.732 1.595,10.841 4.785,15.327 3.19,4.484 7.72,7.976 13.594,10.472 5.871,2.497 12.691,3.745 20.459,3.745 8.136,0 15.188,-1.41 21.153,-4.23 5.964,-2.822 10.541,-6.335 13.732,-10.542 3.19,-4.209 4.876,-8.346 5.062,-12.414 0,-0.832 -0.277,-1.549 -0.832,-2.15 -0.554,-0.603 -1.248,-0.901 -2.08,-0.901 H 39.532 c -2.035,0 -3.607,0.832 -4.717,2.496 -0.554,1.942 -1.989,3.583 -4.299,4.924 -2.313,1.34 -5.18,2.012 -8.6,2.012 -3.884,0 -6.89,-0.694 -9.016,-2.081 -2.129,-1.387 -3.191,-3.422 -3.191,-6.103 0,-2.683 1.388,-4.786 4.162,-6.311 2.774,-1.526 7.952,-3.076 15.535,-4.647 8.691,-1.574 15.605,-3.537 20.737,-5.895 5.132,-2.358 8.922,-5.41 11.374,-9.155 2.449,-3.745 3.675,-8.485 3.675,-14.217 0,-6.29 -1.803,-11.745 -5.409,-16.368 C 56.177,5.778 51.183,2.241 44.803,-0.208 38.422,-2.657 31.116,-3.884 22.887,-3.884 13.917,-3.884 6.288,-2.587 0,0"/>
        </g>
        <g transform="translate(553.9585,402.4385)" id="g44">
          <path id="path46" style="fill:#241e28;fill-opacity:1;fill-rule:nonzero;stroke:none" d="m 0,0 c -0.694,0.646 -1.041,1.478 -1.041,2.497 v 71.018 h -24.412 c -1.019,0 -1.873,0.322 -2.566,0.97 -0.693,0.646 -1.041,1.479 -1.041,2.497 v 15.536 c 0,1.016 0.348,1.872 1.041,2.565 0.693,0.694 1.547,1.041 2.566,1.041 h 75.318 c 1.016,0 1.873,-0.347 2.566,-1.041 0.694,-0.693 1.041,-1.549 1.041,-2.565 V 76.982 c 0,-1.018 -0.347,-1.851 -1.041,-2.497 -0.693,-0.648 -1.55,-0.97 -2.566,-0.97 H 25.453 V 2.497 C 25.453,1.478 25.106,0.646 24.412,0 23.719,-0.648 22.863,-0.971 21.846,-0.971 H 2.566 C 1.547,-0.971 0.693,-0.648 0,0"/>
        </g>
        <g transform="translate(637.9448,438.7793)" id="g48">
          <path id="path50" style="fill:#241e28;fill-opacity:1;fill-rule:nonzero;stroke:none" d="M 0,0 H 24.69 L 12.345,35.371 Z m -35.579,-36.411 c -0.602,0.601 -0.901,1.271 -0.901,2.012 0,0.555 0.045,0.971 0.139,1.248 l 32.319,88.912 c 0.922,2.68 2.773,4.022 5.547,4.022 h 21.639 c 2.774,0 4.623,-1.342 5.548,-4.022 l 32.319,-88.912 c 0.091,-0.277 0.139,-0.693 0.139,-1.248 0,-0.741 -0.301,-1.411 -0.902,-2.012 -0.602,-0.602 -1.272,-0.901 -2.011,-0.901 H 40.225 c -2.22,0 -3.793,1.017 -4.716,3.052 l -4.993,13.454 H -5.826 l -4.993,-13.454 c -0.926,-2.035 -2.497,-3.052 -4.716,-3.052 h -18.032 c -0.742,0 -1.411,0.299 -2.012,0.901"/>
        </g>
        <g transform="translate(751.1279,455.7017)" id="g52">
          <path id="path54" style="fill:#241e28;fill-opacity:1;fill-rule:nonzero;stroke:none" d="m 0,0 c 3.975,0 7.004,0.993 9.085,2.982 2.081,1.988 3.121,4.738 3.121,8.253 0,3.514 -1.04,6.333 -3.121,8.462 -2.081,2.126 -5.11,3.19 -9.085,3.19 H -15.396 V 0 Z m -40.434,-53.194 c -0.693,0.694 -1.04,1.502 -1.04,2.427 v 90.021 c 0,1.017 0.323,1.873 0.971,2.566 0.646,0.694 1.479,1.041 2.497,1.041 H 0.139 c 12.206,0 21.753,-2.775 28.643,-8.323 6.887,-5.548 10.333,-13.363 10.333,-23.441 0,-6.474 -1.504,-11.977 -4.508,-16.507 -3.006,-4.531 -7.143,-8.045 -12.414,-10.541 l 18.725,-33.845 c 0.278,-0.555 0.416,-1.064 0.416,-1.525 0,-0.742 -0.277,-1.411 -0.832,-2.012 -0.555,-0.602 -1.248,-0.901 -2.08,-0.901 H 18.864 c -2.683,0 -4.577,1.248 -5.687,3.745 L -2.081,-20.39 h -13.315 v -30.377 c 0,-1.018 -0.348,-1.851 -1.041,-2.496 -0.693,-0.649 -1.55,-0.971 -2.566,-0.971 h -19.003 c -0.926,0 -1.734,0.346 -2.428,1.04"/>
        </g>
        <g transform="translate(819.9258,403.9639)" id="g56">
          <path id="path58" style="fill:#241e28;fill-opacity:1;fill-rule:nonzero;stroke:none" d="m 0,0 c -6.29,2.588 -11.051,6.01 -14.287,10.265 -3.238,4.252 -4.948,8.877 -5.132,13.87 0,0.832 0.299,1.526 0.901,2.081 0.601,0.555 1.318,0.832 2.151,0.832 H 2.081 c 1.109,0 2.011,-0.186 2.705,-0.555 0.693,-0.37 1.456,-1.018 2.288,-1.942 1.201,-2.219 3.073,-4.046 5.618,-5.479 2.542,-1.434 5.94,-2.15 10.195,-2.15 4.993,0 8.829,0.764 11.512,2.289 2.682,1.526 4.023,3.628 4.023,6.311 0,1.942 -0.693,3.537 -2.081,4.786 -1.387,1.248 -3.606,2.358 -6.657,3.329 -3.052,0.97 -7.445,2.056 -13.178,3.259 -11.19,2.22 -19.557,5.594 -25.106,10.126 -5.548,4.53 -8.322,11.003 -8.322,19.419 0,5.732 1.595,10.841 4.785,15.327 3.19,4.484 7.72,7.976 13.594,10.472 5.871,2.497 12.691,3.745 20.459,3.745 8.136,0 15.188,-1.41 21.153,-4.23 5.964,-2.822 10.541,-6.335 13.732,-10.542 3.19,-4.209 4.876,-8.346 5.062,-12.414 0,-0.832 -0.277,-1.549 -0.832,-2.15 -0.554,-0.603 -1.248,-0.901 -2.08,-0.901 H 39.532 c -2.035,0 -3.607,0.832 -4.717,2.496 -0.554,1.942 -1.989,3.583 -4.299,4.924 -2.313,1.34 -5.18,2.012 -8.6,2.012 -3.884,0 -6.89,-0.694 -9.016,-2.081 -2.129,-1.387 -3.191,-3.422 -3.191,-6.103 0,-2.683 1.388,-4.786 4.162,-6.311 2.774,-1.526 7.952,-3.076 15.535,-4.647 8.691,-1.574 15.605,-3.537 20.737,-5.895 5.132,-2.358 8.922,-5.41 11.374,-9.155 2.449,-3.745 3.675,-8.485 3.675,-14.217 0,-6.29 -1.803,-11.745 -5.409,-16.368 C 56.177,5.778 51.183,2.241 44.803,-0.208 38.422,-2.657 31.116,-3.884 22.887,-3.884 13.917,-3.884 6.288,-2.587 0,0"/>
        </g>
        <g transform="translate(279.8259,580.7407)" id="g60">
          <path id="path62" style="fill:#39caa1;fill-opacity:1;fill-rule:nonzero;stroke:none" d="m 0,0 c 0,0 103.159,0 103.159,103.159 0,0 0,-103.159 103.159,-103.159 0,0 -103.159,0 -103.159,-103.159 0,0 0,103.159 -103.159,103.159"/>
        </g>
      </g>
    </g>
  </g>
</svg>