<?xml version="1.0" encoding="utf-8"?>
<svg viewBox="-122.236 -182.655 1110.81 482.376" xmlns="http://www.w3.org/2000/svg">
  <g id="svgg" transform="matrix(2.833963, 0, 0, 2.833963, -128.064056, -238.46875)" style="">
    <path id="path0" d="M124.115 20.807 C 124.029 21.194,123.958 22.273,123.958 23.204 C 123.958 48.017,105.081 66.453,77.604 68.475 L 75.521 68.628 79.167 68.876 C 100.374 70.321,113.799 80.175,120.717 99.375 C 122.314 103.808,123.923 111.766,123.973 115.479 C 124.009 118.134,124.320 117.108,124.436 113.955 C 125.377 88.274,142.088 71.785,170.123 68.876 C 172.788 68.599,172.798 68.596,171.146 68.569 C 144.075 68.120,125.805 49.576,124.320 21.042 C 124.271 20.108,124.270 20.107,124.115 20.807 M58.333 68.682 C 43.326 69.757,31.158 74.858,20.653 84.479 C 10.789 93.514,4.470 108.068,2.394 126.531 L 2.257 127.749 2.951 127.612 C 24.173 123.418,43.775 107.254,55.092 84.614 C 57.411 79.976,61.458 69.878,61.458 68.732 C 61.458 68.551,60.397 68.534,58.333 68.682 M2.574 133.014 C 5.000 164.576,24.622 185.796,54.583 189.258 C 57.623 189.609,62.083 189.695,62.083 189.403 C 62.083 189.044,60.015 183.174,59.064 180.833 C 48.920 155.868,28.765 137.387,5.549 131.762 C 2.270 130.968,2.412 130.908,2.574 133.014 M121.354 131.767 C 103.073 136.610,85.720 150.294,74.663 168.587 C 71.393 173.997,65.208 187.665,65.208 189.482 C 65.208 189.661,68.849 189.590,71.072 189.367 C 102.612 186.211,122.423 165.910,124.063 135.067 C 124.129 133.827,124.227 132.461,124.281 132.031 C 124.404 131.060,124.120 131.034,121.354 131.767 " stroke="none" fill="#3ccca4" fill-rule="evenodd"/>
    <path id="path1" d="M368.333 95.938 L 368.333 97.083 370.417 97.083 L 372.500 97.083 372.500 101.771 L 372.500 106.458 373.958 106.458 L 375.417 106.458 375.417 101.771 L 375.417 97.083 377.500 97.083 L 379.583 97.083 379.583 95.938 L 379.583 94.792 373.958 94.792 L 368.333 94.792 368.333 95.938 M381.250 100.625 L 381.250 106.458 382.703 106.458 L 384.157 106.458 384.214 103.019 L 384.271 99.579 385.689 101.248 C 387.424 103.290,387.475 103.289,389.219 101.222 L 390.625 99.555 390.625 103.007 L 390.625 106.458 392.188 106.458 L 393.750 106.458 393.750 100.625 L 393.750 94.792 392.344 94.803 L 390.938 94.814 389.189 96.872 L 387.440 98.931 385.656 96.861 L 383.873 94.792 382.561 94.792 L 381.250 94.792 381.250 100.625 M164.355 106.682 C 154.063 107.774,147.991 114.844,149.786 123.646 C 150.937 129.290,155.105 132.146,165.755 134.585 C 173.866 136.442,175.697 137.482,175.355 140.037 C 175.028 142.477,172.452 143.662,167.819 143.503 C 164.215 143.380,163.540 143.035,160.573 139.808 L 159.792 138.958 154.407 138.958 C 147.753 138.958,147.688 139.001,148.663 142.782 C 150.388 149.473,157.773 153.542,168.189 153.542 C 180.381 153.542,187.763 148.358,188.078 139.575 C 188.362 131.658,184.441 128.018,173.021 125.598 C 164.103 123.708,162.257 122.762,162.257 120.082 C 162.257 115.572,171.929 115.186,173.766 119.623 C 174.237 120.759,174.656 120.833,180.603 120.833 C 187.258 120.833,187.344 120.779,186.258 117.262 C 184.000 109.956,174.905 105.562,164.355 106.682 M336.042 106.693 C 326.896 107.748,321.242 113.046,321.253 120.551 C 321.265 128.234,325.365 131.851,337.060 134.495 C 345.323 136.364,347.085 137.284,347.083 139.729 C 347.078 143.977,337.147 145.135,333.653 141.295 C 333.191 140.788,332.517 140.054,332.156 139.665 L 331.500 138.958 326.067 138.958 L 320.635 138.958 320.291 139.483 C 319.585 140.560,320.424 143.998,321.957 146.307 C 327.900 155.260,348.283 156.258,356.372 147.993 C 360.767 143.503,361.155 135.498,357.192 131.091 C 354.706 128.326,351.674 127.121,341.563 124.878 C 335.561 123.547,333.761 122.334,334.006 119.786 C 334.392 115.773,342.668 115.240,345.118 119.070 C 346.290 120.902,346.014 120.833,352.222 120.833 C 358.897 120.833,359.129 120.681,357.921 117.096 C 355.472 109.827,346.373 105.501,336.042 106.693 M191.741 107.290 C 190.712 107.705,190.625 108.123,190.625 112.660 C 190.625 116.878,190.627 116.896,191.136 117.405 L 191.648 117.917 197.695 117.917 L 203.743 117.917 203.799 135.018 L 203.854 152.120 204.346 152.518 C 204.801 152.887,205.230 152.917,210.137 152.917 L 215.436 152.917 215.947 152.405 L 216.458 151.894 216.458 134.905 L 216.458 117.917 222.568 117.917 L 228.677 117.917 229.130 117.434 C 229.566 116.971,229.583 116.787,229.577 112.591 C 229.570 108.024,229.532 107.818,228.607 107.326 C 228.059 107.034,192.462 106.999,191.741 107.290 M243.750 107.219 C 242.927 107.490,242.439 107.848,242.163 108.380 C 241.380 109.894,226.667 150.864,226.667 151.531 C 226.667 152.852,226.934 152.917,232.432 152.917 C 238.801 152.917,238.204 153.283,240.072 148.229 L 241.151 145.313 249.601 145.258 L 258.051 145.204 259.286 148.564 C 261.006 153.250,260.433 152.917,266.772 152.917 L 271.845 152.917 272.293 152.347 C 272.905 151.569,273.420 153.148,264.896 129.653 C 256.932 107.701,256.954 107.755,255.814 107.356 C 255.111 107.109,244.449 106.989,243.750 107.219 M278.003 107.567 L 277.396 108.089 277.338 129.617 C 277.277 152.181,277.268 151.852,277.922 152.505 C 278.572 153.155,288.413 153.138,289.243 152.485 L 289.792 152.053 289.792 144.563 L 289.792 137.072 292.853 137.130 L 295.914 137.188 299.598 144.449 C 301.624 148.442,303.530 151.958,303.833 152.261 L 304.384 152.813 309.995 152.874 C 318.110 152.963,317.952 153.743,311.996 142.979 C 307.029 133.999,307.404 135.070,308.906 134.175 C 317.986 128.761,317.546 114.388,308.153 109.518 C 304.112 107.423,302.856 107.261,289.774 107.144 L 278.610 107.044 278.003 107.567 M47.963 112.616 L 47.500 112.940 47.500 128.722 C 47.500 142.023,47.546 144.567,47.796 144.908 C 48.179 145.432,55.707 145.537,56.322 145.027 C 56.637 144.765,56.667 143.377,56.667 128.840 L 56.667 112.940 56.204 112.616 C 55.827 112.352,55.056 112.292,52.083 112.292 C 49.110 112.292,48.339 112.352,47.963 112.616 M61.042 112.708 C 60.661 113.089,60.625 113.403,60.625 116.322 C 60.625 120.536,60.197 120.208,65.693 120.208 L 70.000 120.208 70.000 132.364 C 70.000 144.456,70.002 144.521,70.439 144.916 C 71.008 145.431,78.219 145.527,78.822 145.027 C 79.135 144.767,79.167 143.630,79.167 132.474 L 79.167 120.208 83.451 120.208 C 86.006 120.208,87.898 120.121,88.139 119.993 C 88.805 119.636,88.752 113.087,88.079 112.616 C 87.265 112.046,61.616 112.134,61.042 112.708 M299.224 117.092 C 302.842 118.347,303.715 123.842,300.668 126.179 C 299.467 127.100,298.271 127.292,293.740 127.292 L 289.792 127.292 289.792 121.958 L 289.792 116.625 294.115 116.722 C 296.896 116.784,298.718 116.916,299.224 117.092 M252.608 127.703 C 254.025 131.768,255.156 135.121,255.123 135.155 C 255.090 135.188,252.584 135.190,249.554 135.160 L 244.046 135.104 246.663 127.604 C 248.103 123.479,249.358 119.917,249.453 119.688 C 249.667 119.168,249.368 118.408,252.608 127.703 " stroke="none" fill-rule="evenodd" style="fill: rgb(255, 255, 255);"/>
    <path id="path2" d="" stroke="none" fill="#30a0a8" fill-rule="evenodd"/>
    <path id="path3" d="" stroke="none" fill="#30a0a8" fill-rule="evenodd"/>
    <path id="path4" d="" stroke="none" fill="#30a0a8" fill-rule="evenodd"/>
  </g>
</svg>