<?xml version="1.0" encoding="utf-8"?>
<svg viewBox="161.558 80.243 202.753 142.201" xmlns="http://www.w3.org/2000/svg">
  <defs>
    <clipPath id="clip0">
      <rect width="176" height="135" fill="white" transform="translate(0.955078)"/>
    </clipPath>
  </defs>
  <path d="M 363.215 213.349 C 362.272 214.172 360.25 214.986 357.148 215.771 C 352.246 217.037 344.636 218.221 334.353 219.244 C 294.9 223.149 230.922 223.149 191.485 219.244 C 181.202 218.224 173.575 217.037 168.691 215.771 C 165.606 214.986 163.584 214.172 162.658 213.349 L 162.624 213.349 C 159.11 210.414 168.742 207.355 191.485 205.104 C 230.939 201.196 294.917 201.196 334.353 205.104 C 357.096 207.355 366.728 210.417 363.215 213.349 Z" fill="#E6E6E6"/>
  <g clip-path="url(#clip0)" transform="matrix(1, 0, 0, 1, 185.8582, 80.779236)">
    <path d="M171.651 103.608V128.99H174.654L175.773 103.537L171.651 103.608Z" fill="#263238"/>
    <path d="M122.267 103.537L123.698 128.99H126.545L126.578 103.608L122.267 103.537Z" fill="#263238"/>
    <path d="M171.391 105.478H119.984C118.643 105.478 117.554 104.386 117.554 103.042V89.547C117.554 88.2027 118.643 87.1116 119.984 87.1116H171.391C172.733 87.1116 173.822 88.2027 173.822 89.547V103.042C173.822 104.386 172.733 105.478 171.391 105.478Z" fill="#455A64"/>
    <path d="M176.383 78.893C177.056 73.81 177.606 68.3359 175.167 63.8264C172.633 59.1418 167.046 56.4867 161.75 56.9671C156.454 57.4475 151.625 60.8026 148.834 65.3383C146.047 69.8739 145.199 75.4559 145.946 80.7288" fill="#455A64"/>
    <path d="M150.674 99.0092C150.674 99.0613 144.259 99.106 136.349 99.106C128.436 99.106 122.025 99.0613 122.025 99.0092C122.025 98.957 128.436 98.9124 136.349 98.9124C144.259 98.9124 150.674 98.9533 150.674 99.0092Z" fill="#263238"/>
    <path d="M150.878 98.9011C150.893 98.916 149.659 99.9475 148.124 101.202C146.589 102.457 145.337 103.463 145.322 103.444C145.307 103.429 146.541 102.398 148.076 101.143C149.611 99.8879 150.863 98.8825 150.878 98.9011Z" fill="#FAFAFA"/>
    <path d="M145.404 92.9728C145.415 92.9914 141.583 95.7247 136.844 99.0798C132.101 102.435 128.251 105.142 128.24 105.124C128.228 105.105 132.06 102.372 136.799 99.0165C141.538 95.6614 145.392 92.9541 145.404 92.9728Z" fill="#FAFAFA"/>
    <path d="M132.354 92.6935C132.365 92.7121 129.853 94.5517 126.734 96.8083C123.62 99.065 121.081 100.875 121.07 100.86C121.059 100.841 123.571 99.0017 126.69 96.745C129.804 94.4884 132.339 92.6749 132.354 92.6935Z" fill="#FAFAFA"/>
    <path d="M126.522 88.7349C126.522 88.7386 126.504 88.7498 126.463 88.7758C126.407 88.8093 126.348 88.8429 126.284 88.8801C126.087 88.9918 125.872 89.1184 125.63 89.2562C125.08 89.5765 124.326 90.0382 123.527 90.5893C122.724 91.1405 122.025 91.6804 121.527 92.0789C121.311 92.2576 121.114 92.414 120.94 92.5555C120.884 92.6002 120.832 92.6449 120.78 92.6858C120.743 92.7156 120.724 92.7305 120.72 92.7268C120.72 92.7231 120.735 92.7082 120.769 92.6747C120.817 92.63 120.865 92.5816 120.921 92.5332C121.051 92.4103 121.248 92.2427 121.494 92.0342C121.984 91.6208 122.679 91.0772 123.482 90.5223C124.285 89.9675 125.043 89.5131 125.604 89.2041C125.883 89.0477 126.113 88.9285 126.273 88.8466C126.336 88.8168 126.4 88.7833 126.459 88.7572C126.5 88.7423 126.522 88.7349 126.522 88.7349Z" fill="#FAFAFA"/>
    <path d="M176.048 65.5728C176.048 65.5728 176.011 65.61 175.937 65.6733C175.844 65.7515 175.732 65.8446 175.606 65.9526C175.316 66.1946 174.892 66.5335 174.365 66.9506C173.305 67.781 171.815 68.8944 170.116 70.0414C168.414 71.192 166.827 72.1602 165.66 72.8305C165.076 73.1657 164.601 73.4338 164.27 73.6088C164.121 73.687 163.995 73.754 163.887 73.8136C163.798 73.8583 163.753 73.8806 163.753 73.8806C163.753 73.8806 163.798 73.8508 163.88 73.7987C163.984 73.7391 164.11 73.6647 164.255 73.5827C164.608 73.3779 165.073 73.1061 165.63 72.7821C166.786 72.1006 168.369 71.125 170.068 69.9781C171.767 68.8311 173.261 67.7251 174.327 66.9059C174.837 66.5074 175.26 66.1797 175.584 65.9265C175.717 65.8222 175.829 65.7366 175.926 65.6584C176.004 65.6025 176.048 65.5728 176.048 65.5728Z" fill="#FAFAFA"/>
    <path d="M167.24 59.8085C167.243 59.8011 167.295 59.8308 167.396 59.883C167.492 59.9426 167.645 60.017 167.823 60.1436C168.187 60.3782 168.682 60.773 169.217 61.339C170.291 62.4599 171.399 64.3925 171.882 66.7236C172.365 69.0548 172.261 71.222 172.142 72.76C172.079 73.5308 172.008 74.1527 171.956 74.5809C171.93 74.7746 171.908 74.9384 171.885 75.0725C171.867 75.1842 171.856 75.2438 171.848 75.2438C171.833 75.2438 171.848 75.0017 171.882 74.5735C171.915 74.1415 171.964 73.5196 172.008 72.7488C172.09 71.2146 172.168 69.0622 171.692 66.7609C171.216 64.4633 170.146 62.5567 169.113 61.4284C168.087 60.2852 167.21 59.8495 167.24 59.8085Z" fill="#263238"/>
    <path d="M172.703 60.4377C172.703 60.4415 172.688 60.4564 172.651 60.4899C172.599 60.5346 172.547 60.5755 172.491 60.6239C172.354 60.7394 172.146 60.9032 171.889 61.1006C171.376 61.4953 170.651 62.0166 169.823 62.5529C168.994 63.0891 168.217 63.536 167.648 63.8413C167.362 63.994 167.132 64.1131 166.968 64.1951C166.901 64.2249 166.842 64.2547 166.779 64.2844C166.734 64.3031 166.712 64.3142 166.712 64.3105C166.712 64.3068 166.73 64.2956 166.771 64.2695C166.831 64.236 166.89 64.2025 166.953 64.1653C167.15 64.0536 167.373 63.9307 167.622 63.7929C168.184 63.4764 168.953 63.0221 169.782 62.4896C170.611 61.9533 171.339 61.4395 171.859 61.0559C172.09 60.8883 172.291 60.7356 172.473 60.6016C172.532 60.5569 172.588 60.5197 172.64 60.4787C172.681 60.4489 172.703 60.4377 172.703 60.4377Z" fill="#FAFAFA"/>
    <path d="M111.376 114.653L111.748 123.873C111.748 123.873 102.519 127.351 102.423 129.061L120.289 128.979L120.297 114.59L111.376 114.653Z" fill="#2EC097"/>
    <g opacity="0.6">
      <g opacity="0.6">
        <g opacity="0.6">
          <g opacity="0.6">
            <path opacity="0.6" d="M117.271 123.069C117.617 123.162 117.859 123.549 117.78 123.899C117.702 124.249 117.308 124.499 116.963 124.413C116.613 124.328 116.312 123.87 116.428 123.531C116.547 123.192 117.022 122.924 117.338 123.091" fill="white"/>
          </g>
        </g>
      </g>
    </g>
    <g opacity="0.6">
      <g opacity="0.6">
        <g opacity="0.6">
          <path opacity="0.6" d="M120.293 128.975L120.237 127.526L103.129 128.148C103.129 128.148 102.334 128.498 102.426 129.061L120.293 128.975Z" fill="white"/>
        </g>
      </g>
    </g>
    <path d="M111.458 123.78C111.462 123.866 111.897 123.907 112.328 124.186C112.767 124.454 112.99 124.83 113.068 124.797C113.149 124.778 113.016 124.257 112.488 123.929C111.967 123.594 111.44 123.702 111.458 123.78Z" fill="#263238"/>
    <path d="M109.589 124.566C109.57 124.652 109.949 124.797 110.247 125.165C110.555 125.527 110.633 125.925 110.719 125.921C110.8 125.936 110.86 125.422 110.481 124.972C110.102 124.517 109.589 124.484 109.589 124.566Z" fill="#263238"/>
    <path d="M108.533 126.819C108.611 126.837 108.73 126.398 108.507 125.921C108.284 125.441 107.872 125.255 107.834 125.329C107.786 125.4 108.05 125.657 108.232 126.052C108.422 126.443 108.448 126.811 108.533 126.819Z" fill="#263238"/>
    <path d="M111.607 121.673C111.644 121.751 112.042 121.628 112.536 121.661C113.03 121.684 113.413 121.848 113.458 121.773C113.51 121.71 113.131 121.39 112.551 121.36C111.971 121.323 111.562 121.602 111.607 121.673Z" fill="#263238"/>
    <g opacity="0.3">
      <g opacity="0.3">
        <g opacity="0.3">
          <path opacity="0.3" d="M111.451 116.478L111.514 118.12L120.297 118.001L120.301 116.519L111.451 116.478Z" fill="black"/>
        </g>
      </g>
    </g>
    <path d="M111.566 119.811C111.566 119.848 111.912 119.9 112.462 119.803C112.737 119.755 113.06 119.662 113.398 119.509C113.566 119.431 113.74 119.341 113.911 119.233C113.993 119.181 114.09 119.125 114.179 119.021C114.275 118.928 114.328 118.697 114.216 118.556C114.123 118.418 113.963 118.358 113.833 118.358C113.703 118.355 113.595 118.381 113.499 118.407C113.302 118.455 113.112 118.522 112.945 118.6C112.603 118.757 112.328 118.954 112.123 119.148C111.711 119.535 111.57 119.863 111.599 119.878C111.64 119.907 111.841 119.632 112.261 119.312C112.469 119.151 112.737 118.988 113.056 118.857C113.216 118.794 113.387 118.738 113.569 118.697C113.759 118.645 113.919 118.645 113.967 118.727C113.986 118.76 113.986 118.772 113.948 118.827C113.908 118.88 113.829 118.928 113.751 118.984C113.595 119.088 113.435 119.178 113.279 119.256C112.967 119.412 112.67 119.52 112.417 119.591C111.9 119.736 111.562 119.762 111.566 119.811Z" fill="#263238"/>
    <path d="M111.678 119.933C111.707 119.948 111.882 119.632 111.908 119.066C111.923 118.786 111.889 118.444 111.782 118.086C111.726 117.908 111.651 117.721 111.551 117.543C111.447 117.368 111.317 117.129 110.979 117.092C110.8 117.085 110.655 117.226 110.607 117.345C110.548 117.468 110.536 117.569 110.518 117.673C110.484 117.882 110.492 118.086 110.522 118.276C110.581 118.656 110.737 118.973 110.908 119.2C111.261 119.662 111.625 119.766 111.633 119.736C111.663 119.691 111.358 119.524 111.087 119.081C110.953 118.861 110.834 118.57 110.8 118.239C110.782 118.075 110.785 117.896 110.815 117.721C110.841 117.531 110.912 117.379 110.982 117.397C111.072 117.397 111.224 117.539 111.298 117.688C111.391 117.848 111.466 118.012 111.521 118.172C111.637 118.496 111.685 118.805 111.7 119.066C111.722 119.594 111.633 119.922 111.678 119.933Z" fill="#263238"/>
    <path d="M136.654 74.968L116.011 71.7059C113.975 71.3857 111.897 71.9554 110.314 73.2737C108.596 74.6999 107.641 76.8485 107.727 79.0791L109.195 116.727H121.928V87.4912L134.157 87.7147L143.854 79.1685L150.845 77.9247L156.06 74.7408L136.654 74.968Z" fill="#263238"/>
    <path d="M121.928 80.103C121.932 80.103 121.936 80.1328 121.939 80.1961C121.943 80.2706 121.951 80.36 121.958 80.4717C121.973 80.7137 121.988 81.0749 121.999 81.5404C122.029 82.4677 122.051 83.8082 122.077 85.4653C122.122 88.7796 122.159 93.3599 122.166 98.4168C122.174 103.474 122.155 108.054 122.11 111.368C122.088 113.025 122.062 114.366 122.025 115.293C122.01 115.755 121.991 116.116 121.969 116.358C121.958 116.47 121.951 116.563 121.943 116.634C121.936 116.697 121.932 116.727 121.928 116.727C121.925 116.727 121.925 116.693 121.925 116.63C121.925 116.556 121.928 116.466 121.932 116.351C121.943 116.109 121.947 115.748 121.954 115.286C121.969 114.359 121.973 113.018 121.98 111.361C121.98 108.032 121.98 103.463 121.98 98.4094C121.951 88.463 121.932 81.1569 121.928 80.103Z" fill="#455A64"/>
    <path d="M140.861 118.041L145.819 125.817C145.819 125.817 139.593 133.477 140.37 135.003L155.765 125.917L148.54 113.483L140.861 118.041Z" fill="#2EC097"/>
    <g opacity="0.6">
      <g opacity="0.6">
        <g opacity="0.6">
          <g opacity="0.6">
            <path opacity="0.6" d="M150.183 122.339C150.529 122.246 150.934 122.458 151.042 122.801C151.15 123.143 150.938 123.557 150.592 123.657C150.247 123.758 149.756 123.516 149.685 123.162C149.615 122.808 149.893 122.339 150.25 122.324" fill="white"/>
          </g>
        </g>
      </g>
    </g>
    <g opacity="0.6">
      <g opacity="0.6">
        <g opacity="0.6">
          <path opacity="0.6" d="M155.762 125.914L154.985 124.688L140.516 133.86C140.516 133.86 140.007 134.564 140.367 135L155.762 125.914Z" fill="white"/>
        </g>
      </g>
    </g>
    <path d="M145.522 125.884C145.571 125.958 145.965 125.768 146.478 125.794C146.991 125.805 147.373 126.018 147.425 125.947C147.485 125.891 147.11 125.507 146.489 125.489C145.864 125.466 145.463 125.824 145.522 125.884Z" fill="#263238"/>
    <path d="M144.3 127.507C144.326 127.589 144.727 127.526 145.169 127.693C145.615 127.85 145.883 128.155 145.957 128.107C146.035 128.077 145.827 127.604 145.273 127.407C144.72 127.206 144.259 127.433 144.3 127.507Z" fill="#263238"/>
    <path d="M144.523 129.984C144.601 129.958 144.486 129.522 144.047 129.224C143.612 128.922 143.162 128.967 143.17 129.049C143.162 129.135 143.523 129.224 143.876 129.473C144.237 129.716 144.445 130.021 144.523 129.984Z" fill="#263238"/>
    <path d="M144.59 123.988C144.66 124.037 144.946 123.732 145.389 123.508C145.827 123.277 146.24 123.225 146.244 123.136C146.255 123.054 145.768 122.968 145.251 123.236C144.727 123.501 144.515 123.951 144.59 123.988Z" fill="#263238"/>
    <g opacity="0.3">
      <g opacity="0.3">
        <g opacity="0.3">
          <path opacity="0.3" d="M141.843 119.579L142.724 120.965L150.25 116.429L149.511 115.148L141.843 119.579Z" fill="black"/>
        </g>
      </g>
    </g>
    <path d="M143.616 122.398C143.634 122.432 143.958 122.302 144.385 121.94C144.597 121.762 144.831 121.52 145.047 121.214C145.154 121.062 145.259 120.898 145.351 120.719C145.396 120.63 145.452 120.537 145.478 120.399C145.515 120.272 145.444 120.045 145.277 119.978C145.128 119.907 144.957 119.937 144.846 120C144.731 120.064 144.653 120.142 144.582 120.213C144.433 120.354 144.307 120.507 144.199 120.659C143.984 120.968 143.846 121.278 143.764 121.546C143.601 122.089 143.645 122.439 143.679 122.439C143.727 122.443 143.764 122.104 143.965 121.616C144.065 121.374 144.214 121.095 144.426 120.823C144.53 120.685 144.653 120.551 144.786 120.425C144.924 120.287 145.062 120.201 145.147 120.25C145.177 120.268 145.188 120.28 145.18 120.347C145.169 120.41 145.132 120.492 145.088 120.581C145.002 120.749 144.913 120.909 144.816 121.054C144.627 121.345 144.422 121.59 144.24 121.78C143.868 122.168 143.59 122.361 143.616 122.398Z" fill="#263238"/>
    <path d="M143.779 122.45C143.813 122.446 143.802 122.089 143.545 121.582C143.415 121.333 143.218 121.054 142.943 120.8C142.806 120.674 142.646 120.555 142.471 120.447C142.293 120.346 142.062 120.208 141.75 120.346C141.594 120.432 141.538 120.625 141.553 120.752C141.564 120.886 141.605 120.983 141.642 121.083C141.72 121.281 141.828 121.456 141.947 121.605C142.189 121.903 142.482 122.1 142.746 122.208C143.281 122.431 143.649 122.335 143.638 122.305C143.642 122.253 143.293 122.26 142.839 122.014C142.616 121.892 142.367 121.702 142.17 121.433C142.07 121.299 141.984 121.147 141.921 120.979C141.85 120.8 141.832 120.633 141.902 120.614C141.977 120.57 142.181 120.614 142.322 120.707C142.482 120.8 142.627 120.905 142.761 121.013C143.021 121.236 143.222 121.478 143.363 121.694C143.646 122.134 143.731 122.461 143.779 122.45Z" fill="#263238"/>
    <path d="M112.269 53.3772L106.292 50.3274C104.735 49.6534 104.14 49.2661 104.285 48.9831C104.478 48.6033 104.385 48.7411 107.392 49.564C107.392 49.564 103.114 48.3501 104.248 47.8846C104.449 47.8027 105.132 47.9069 105.887 48.0633C104.802 47.6947 104.393 47.3186 104.46 47.0318C104.571 46.544 107.132 47.1398 108.321 47.4452C107.34 47.1808 105.471 46.6557 105.08 46.4137C104.549 46.0823 105.266 45.8402 105.917 45.8104C106.649 45.7769 110.919 46.1828 112.161 46.2349C113.012 46.2722 113.008 45.5125 113.008 45.5125C112.752 43.7288 113.503 42.1983 113.9 41.8818C114.298 41.5652 114.867 42.0047 114.711 42.5483C114.584 42.9877 114.595 43.7772 114.629 44.373C114.655 44.8646 114.759 45.3449 114.948 45.7955C115.164 46.3206 115.368 46.7525 115.554 47.1175L120.442 51.9845L116.513 56.967L112.269 53.3772Z" fill="#FFBE9D"/>
    <path d="M108.961 50.1673C108.942 50.2418 108.009 50.0295 106.879 49.6907C105.749 49.3518 104.854 49.0129 104.88 48.9422C104.906 48.8677 105.839 49.0837 106.961 49.4226C108.087 49.7577 108.983 50.0929 108.961 50.1673Z" fill="#EB996E"/>
    <path d="M109.749 48.9051C109.73 48.9795 108.727 48.8082 107.504 48.5215C106.281 48.231 105.303 47.9369 105.322 47.8624C105.341 47.7879 106.344 47.9592 107.567 48.2459C108.79 48.5364 109.767 48.8306 109.749 48.9051Z" fill="#EB996E"/>
    <path d="M110.354 47.8212C110.336 47.8994 109.384 47.7505 108.221 47.4935C107.061 47.2366 106.132 46.9648 106.151 46.8866C106.169 46.8084 107.121 46.9573 108.284 47.2143C109.444 47.4749 110.373 47.7468 110.354 47.8212Z" fill="#EB996E"/>
    <path d="M138.698 11.9981C140.219 11.5326 141.806 12.8955 143.367 12.5902C144.314 12.404 145.032 11.6443 145.872 11.1751C147.132 10.4676 148.916 10.3559 150.206 11.0113C151.492 11.6667 152.324 12.3668 152.499 13.8041C153.67 13.1301 155.628 14.6085 156.294 16.0347C156.959 17.461 156.792 18.9356 156.413 20.4661C155.762 23.0988 154.588 25.5975 152.982 27.7797C152.841 27.9733 152.614 28.1856 152.395 28.085C152.246 28.0143 152.194 27.8281 152.168 27.6642C151.945 26.2678 152.12 24.8416 152.242 23.4302C152.361 22.0189 152.421 20.5666 151.978 19.2223C151.532 17.878 150.484 16.6529 149.098 16.3773C148.072 16.1762 147.009 16.5076 146.099 17.0215C145.188 17.5317 144.389 18.2169 143.523 18.8015C142.657 19.3824 141.683 19.874 140.639 19.9224C139.594 19.9671 138.475 19.4755 138.033 18.5297C137.587 17.5838 138.089 16.2395 139.107 16.0236C138.171 15.9379 137.349 15.1261 137.253 14.1877C137.16 13.2381 137.799 12.2737 138.698 11.9981Z" fill="#263238"/>
    <path d="M154.22 20.8907L152.707 36.6946C152.451 39.3832 149.637 43.3677 146.972 42.9767C144.482 42.6118 143.084 38.2921 143.326 35.786C143.441 34.5981 143.534 33.6038 143.538 33.481C143.538 33.481 139.557 32.7176 139.65 28.707C139.695 26.7706 140.107 22.7861 140.527 19.1852C140.973 15.3198 144.315 12.4488 148.199 12.5865L148.585 12.6014C152.733 12.9887 154.725 16.7423 154.22 20.8907Z" fill="#FFBE9D"/>
    <path d="M143.53 33.4252C143.53 33.4252 146.05 33.7193 148.797 32.1218C148.797 32.1218 147.463 34.9631 143.486 34.4604L143.53 33.4252Z" fill="#EB996E"/>
    <path d="M141.594 21.9107C141.572 22.2123 141.81 22.4804 142.125 22.5065C142.438 22.5326 142.713 22.3129 142.731 22.0112C142.754 21.7096 142.516 21.4415 142.2 21.4154C141.888 21.3894 141.616 21.6091 141.594 21.9107Z" fill="#263238"/>
    <path d="M141.315 21.1845C141.382 21.2627 141.828 20.9574 142.441 20.9797C143.055 20.9946 143.497 21.326 143.564 21.2553C143.597 21.2218 143.53 21.084 143.341 20.935C143.151 20.7861 142.828 20.6334 142.445 20.6223C142.062 20.6111 141.735 20.7414 141.546 20.8792C141.349 21.017 141.282 21.151 141.315 21.1845Z" fill="#263238"/>
    <path d="M147.619 22.3351C147.596 22.6368 147.834 22.9049 148.15 22.9309C148.462 22.9607 148.737 22.7373 148.756 22.4357C148.778 22.134 148.54 21.8659 148.224 21.8399C147.909 21.8101 147.637 22.0298 147.619 22.3351Z" fill="#263238"/>
    <path d="M147.355 21.5122C147.422 21.5904 147.868 21.285 148.481 21.3074C149.094 21.3223 149.537 21.6537 149.603 21.5829C149.637 21.5494 149.57 21.4154 149.377 21.2627C149.187 21.1137 148.864 20.9611 148.481 20.9499C148.098 20.9387 147.771 21.0691 147.581 21.2068C147.388 21.3446 147.318 21.4749 147.355 21.5122Z" fill="#263238"/>
    <path d="M144.961 25.9993C144.965 25.9658 144.586 25.8839 143.969 25.7833C143.813 25.761 143.664 25.7237 143.642 25.6158C143.608 25.5003 143.679 25.3327 143.765 25.154C143.924 24.7779 144.095 24.3869 144.27 23.9735C144.976 22.2904 145.489 20.9051 145.422 20.879C145.355 20.853 144.727 22.1935 144.025 23.8767C143.854 24.2901 143.694 24.6885 143.538 25.0646C143.471 25.2396 143.363 25.4407 143.434 25.6791C143.471 25.7982 143.582 25.8876 143.683 25.9174C143.783 25.9509 143.872 25.9583 143.947 25.9621C144.571 26.0179 144.958 26.0365 144.961 25.9993Z" fill="#263238"/>
    <path d="M146.757 26.4909C146.656 26.4797 146.634 27.15 146.043 27.6043C145.456 28.0586 144.746 27.9618 144.738 28.0549C144.727 28.0958 144.891 28.1889 145.192 28.2075C145.485 28.2299 145.92 28.148 146.281 27.8687C146.638 27.5894 146.801 27.2058 146.835 26.934C146.872 26.6547 146.801 26.4871 146.757 26.4909Z" fill="#263238"/>
    <path d="M147.28 19.0919C147.336 19.2632 147.953 19.2036 148.671 19.3153C149.392 19.4121 149.964 19.6467 150.068 19.4978C150.113 19.427 150.016 19.2669 149.789 19.0956C149.563 18.9243 149.195 18.7605 148.763 18.6934C148.332 18.6301 147.935 18.686 147.667 18.7828C147.392 18.8833 147.254 19.01 147.28 19.0919Z" fill="#263238"/>
    <path d="M141.601 19.4084C141.705 19.5536 142.133 19.4233 142.642 19.4344C143.151 19.427 143.579 19.5611 143.683 19.4195C143.727 19.3488 143.664 19.2073 143.482 19.0695C143.3 18.9317 142.995 18.8126 142.642 18.8088C142.293 18.8088 141.984 18.9243 141.802 19.0621C141.62 19.1961 141.557 19.3413 141.601 19.4084Z" fill="#263238"/>
    <path d="M153.789 23.8473C153.859 23.8212 156.565 23.1286 156.383 25.8656C156.201 28.6026 153.495 27.8541 153.495 27.7759C153.495 27.6977 153.789 23.8473 153.789 23.8473Z" fill="#FFBE9D"/>
    <path d="M154.398 26.7967C154.409 26.7892 154.443 26.8339 154.521 26.8749C154.595 26.9158 154.729 26.9493 154.877 26.9047C155.175 26.819 155.446 26.3759 155.494 25.8843C155.517 25.6348 155.483 25.3965 155.405 25.1917C155.335 24.9869 155.216 24.8379 155.071 24.8007C154.93 24.756 154.818 24.8379 154.781 24.9124C154.74 24.9869 154.751 25.0427 154.736 25.0465C154.729 25.0539 154.68 24.9981 154.71 24.8863C154.725 24.8342 154.762 24.7709 154.829 24.7225C154.9 24.6741 154.996 24.6517 155.097 24.6704C155.305 24.7001 155.483 24.905 155.565 25.1284C155.658 25.3518 155.706 25.6237 155.68 25.9029C155.625 26.4541 155.309 26.9493 154.907 27.0387C154.71 27.0759 154.554 27.0089 154.476 26.9382C154.398 26.86 154.391 26.8004 154.398 26.7967Z" fill="#EB996E"/>
    <path d="M139.706 18.325C141.453 18.8575 143.449 18.4814 144.88 17.3456C145.883 16.5525 146.675 15.3906 147.905 15.0592C148.734 14.8358 149.641 15.0443 150.377 15.4874C151.113 15.9306 151.7 16.586 152.198 17.2898C151.354 19.3006 151.793 21.5908 152.246 23.7246C152.294 23.9592 152.358 24.2161 152.543 24.3688C152.859 24.6294 153.35 24.4507 153.644 24.1677C154.112 23.7097 154.309 23.0468 154.446 22.4063C154.762 20.9466 154.852 19.4273 154.577 17.9601C154.302 16.4929 153.647 15.0815 152.607 14.0128C151.306 12.6759 149.444 11.9424 147.585 11.9051C145.723 11.8679 143.876 12.5047 142.352 13.5734C141.646 14.0687 140.988 14.6794 140.605 15.4539" fill="#263238"/>
    <path d="M137.517 12.9254C137.517 12.9254 137.498 13.0073 137.531 13.1637C137.565 13.3164 137.665 13.5436 137.896 13.7409C138.122 13.942 138.483 14.0835 138.907 14.117C139.119 14.1357 139.345 14.1357 139.587 14.0984C139.825 14.0612 140.081 13.9793 140.297 13.8005C140.505 13.6255 140.676 13.3537 140.665 13.0371C140.654 12.7169 140.408 12.4376 140.107 12.3184C139.955 12.2551 139.788 12.2253 139.617 12.2365C139.446 12.2514 139.275 12.3222 139.141 12.4301C138.862 12.6499 138.713 13.0111 138.699 13.3723C138.684 13.7409 138.836 14.1133 139.096 14.3926C139.353 14.6756 139.695 14.873 140.066 14.9921C140.817 15.2267 141.657 15.1113 142.412 14.8208C143.177 14.5304 143.846 14.0947 144.478 13.6702C145.11 13.2494 145.72 12.8435 146.355 12.5605C146.983 12.2737 147.641 12.1322 148.251 12.1695C148.864 12.2067 149.414 12.3966 149.871 12.6461C150.793 13.1563 151.321 13.8713 151.629 14.3628C151.785 14.6123 151.889 14.8171 151.956 14.9586C152.023 15.0964 152.06 15.1746 152.064 15.1709C152.068 15.1709 152.06 15.1485 152.045 15.1113C152.031 15.0741 152.012 15.0182 151.979 14.9475C151.919 14.8022 151.822 14.5937 151.67 14.3368C151.373 13.834 150.852 13.0967 149.916 12.5642C149.451 12.3035 148.886 12.0987 148.254 12.0578C147.622 12.0131 146.946 12.1583 146.303 12.4488C145.656 12.7318 145.036 13.1414 144.404 13.5622C143.772 13.983 143.11 14.4112 142.363 14.6942C141.624 14.981 140.821 15.089 140.103 14.8655C139.75 14.7575 139.427 14.5676 139.189 14.307C138.948 14.0463 138.81 13.7149 138.821 13.376C138.832 13.0446 138.966 12.7169 139.211 12.5232C139.449 12.3184 139.791 12.3035 140.063 12.419C140.334 12.527 140.546 12.769 140.557 13.0409C140.572 13.3127 140.419 13.5622 140.23 13.7223C140.037 13.8862 139.799 13.9681 139.568 14.0091C139.338 14.0463 139.115 14.05 138.907 14.0351C138.494 14.0091 138.148 13.8787 137.925 13.6925C137.702 13.5063 137.598 13.2941 137.554 13.1488C137.517 13.0073 137.524 12.9254 137.517 12.9254Z" fill="#455A64"/>
    <path d="M156.695 18.4067C156.684 18.3769 156.383 18.5519 155.851 18.5929C155.587 18.6115 155.268 18.578 154.937 18.4663C154.606 18.3583 154.261 18.1684 153.93 17.9375C153.272 17.4571 152.911 16.7682 152.77 16.2618C152.621 15.7479 152.644 15.4053 152.618 15.4053C152.61 15.4053 152.595 15.4872 152.595 15.6436C152.595 15.7963 152.614 16.0197 152.677 16.2878C152.804 16.8166 153.16 17.5465 153.852 18.0492C154.194 18.2912 154.55 18.4812 154.9 18.5891C155.249 18.7009 155.587 18.7232 155.859 18.6934C156.134 18.6599 156.346 18.5891 156.487 18.5258C156.628 18.4625 156.699 18.4141 156.695 18.4067Z" fill="#455A64"/>
    <path d="M156.505 20.388C156.502 20.3619 156.182 20.4215 155.665 20.3768C155.156 20.3321 154.443 20.1496 153.803 19.6916C153.164 19.2336 152.755 18.6191 152.547 18.1499C152.335 17.677 152.287 17.353 152.261 17.3605C152.254 17.3605 152.257 17.4424 152.283 17.5876C152.309 17.7329 152.361 17.9414 152.458 18.1872C152.647 18.6787 153.056 19.3267 153.722 19.7996C154.387 20.2762 155.13 20.4513 155.658 20.4699C155.922 20.481 156.138 20.4662 156.282 20.4401C156.431 20.4177 156.509 20.3954 156.505 20.388Z" fill="#455A64"/>
    <path d="M149.302 24.2009C149.34 24.2084 149.377 24.186 149.384 24.1451C149.395 24.1041 149.373 24.0669 149.336 24.0557C149.299 24.0483 149.262 24.0743 149.254 24.1116C149.247 24.1525 149.269 24.1935 149.302 24.2009Z" fill="#EB996E"/>
    <path d="M148.139 23.8957C148.176 23.9032 148.213 23.8734 148.225 23.8287C148.236 23.784 148.213 23.7393 148.18 23.7319C148.143 23.7244 148.106 23.7542 148.095 23.7989C148.083 23.8398 148.102 23.8845 148.139 23.8957Z" fill="#EB996E"/>
    <path d="M147.347 23.8472C147.385 23.8547 147.422 23.81 147.433 23.7467C147.444 23.6871 147.422 23.6312 147.385 23.6275C147.347 23.6201 147.31 23.6648 147.299 23.7281C147.288 23.7876 147.31 23.8398 147.347 23.8472Z" fill="#EB996E"/>
    <path d="M148.7 24.9193C148.737 24.9193 148.766 24.9008 148.77 24.8786C148.77 24.8564 148.741 24.8342 148.704 24.8342C148.667 24.8342 148.637 24.8527 148.633 24.8749C148.633 24.8971 148.663 24.9193 148.7 24.9193Z" fill="#EB996E"/>
    <path d="M147.634 24.633C147.671 24.6367 147.704 24.6069 147.712 24.5659C147.715 24.525 147.689 24.484 147.652 24.4803C147.615 24.4766 147.582 24.5064 147.574 24.5473C147.57 24.5883 147.596 24.6292 147.634 24.633Z" fill="#EB996E"/>
    <path d="M142.051 23.7655C142.088 23.7729 142.125 23.7468 142.136 23.7059C142.148 23.6649 142.125 23.6239 142.088 23.6165C142.051 23.6091 142.014 23.6351 142.006 23.6761C141.991 23.717 142.014 23.7543 142.051 23.7655Z" fill="#EB996E"/>
    <path d="M141.252 23.6647C141.289 23.6684 141.322 23.6349 141.33 23.5902C141.337 23.5418 141.311 23.5008 141.274 23.4971C141.237 23.4934 141.204 23.5269 141.196 23.5716C141.189 23.6163 141.215 23.6572 141.252 23.6647Z" fill="#EB996E"/>
    <path d="M142.757 23.8091C142.794 23.8165 142.827 23.798 142.834 23.7685C142.842 23.7352 142.82 23.7056 142.783 23.6945C142.746 23.6871 142.712 23.7056 142.705 23.7352C142.698 23.7685 142.72 23.8017 142.757 23.8091Z" fill="#EB996E"/>
    <path d="M142.133 24.5919C142.166 24.6068 142.211 24.5882 142.229 24.551C142.248 24.5138 142.237 24.4653 142.203 24.4505C142.17 24.4356 142.125 24.4542 142.107 24.4914C142.088 24.5286 142.099 24.5733 142.133 24.5919Z" fill="#EB996E"/>
    <path d="M141.456 24.4275C141.493 24.4201 141.515 24.3868 141.508 24.3572C141.5 24.3277 141.467 24.3092 141.43 24.3166C141.393 24.324 141.371 24.3572 141.378 24.3868C141.382 24.4201 141.419 24.4386 141.456 24.4275Z" fill="#EB996E"/>
    <path d="M155.468 27.5787C155.442 27.5861 155.58 27.817 155.52 28.2043C155.491 28.3905 155.398 28.6102 155.201 28.7666C155.011 28.923 154.725 29.0198 154.457 28.9342C154.19 28.8522 153.989 28.6176 153.945 28.383C153.896 28.1447 153.989 27.9176 154.078 27.75C154.264 27.3999 154.506 27.2994 154.495 27.2845C154.498 27.2622 154.216 27.3404 153.997 27.7016C153.893 27.8729 153.774 28.1149 153.822 28.4091C153.87 28.6958 154.101 28.9677 154.42 29.0682C154.744 29.165 155.074 29.0496 155.283 28.8671C155.502 28.6809 155.595 28.4277 155.617 28.2229C155.639 28.0144 155.598 27.8468 155.558 27.7388C155.513 27.6271 155.476 27.575 155.468 27.5787Z" fill="#263238"/>
    <path d="M155.476 27.1131C155.469 27.1019 155.372 27.1428 155.316 27.2955C155.29 27.3663 155.279 27.4705 155.32 27.5748C155.357 27.6754 155.443 27.7759 155.569 27.8131C155.695 27.8504 155.825 27.8131 155.911 27.7424C156 27.6679 156.03 27.5599 156.022 27.478C156.004 27.3067 155.892 27.262 155.889 27.2769C155.874 27.2918 155.941 27.3588 155.929 27.478C155.922 27.5376 155.896 27.6009 155.837 27.6418C155.777 27.6828 155.688 27.7051 155.61 27.6791C155.532 27.653 155.469 27.5897 155.435 27.519C155.402 27.4519 155.398 27.3774 155.409 27.3141C155.431 27.195 155.491 27.128 155.476 27.1131Z" fill="#263238"/>
    <path d="M150.748 77.6158C150.417 77.6455 129.202 80.1629 125.868 82.0359C124.028 83.0712 124.191 84.8809 123.901 85.6518C122.779 88.6718 123.738 91.7365 125.303 94.5555L140.857 121.728L150.722 115.081L140.809 93.3936L155.985 91.9004C159.411 91.4163 162.173 88.8431 162.905 85.4544L164.712 77.0684L150.748 77.6158Z" fill="#263238"/>
    <path d="M150.722 115.081C150.674 115.104 147.838 108.985 144.389 101.419C140.94 93.848 138.185 87.6962 138.234 87.6739C138.282 87.6515 141.118 93.7698 144.567 101.34C148.016 108.907 150.774 115.059 150.722 115.081Z" fill="#455A64"/>
    <path d="M150.748 78.9229C150.748 78.9266 150.715 78.9304 150.648 78.9378C150.57 78.9453 150.477 78.9527 150.358 78.9676C150.087 78.9899 149.715 79.0235 149.243 79.0607C148.258 79.1389 146.86 79.2543 145.136 79.3921C141.668 79.6789 136.877 80.0401 131.599 80.5465C130.938 80.6098 130.287 80.6806 129.648 80.755C129.332 80.7997 129.005 80.8295 128.704 80.8891C128.399 80.9301 128.102 81.0492 127.812 81.1498C126.652 81.5817 125.634 82.2706 124.92 83.1569C124.56 83.5963 124.266 84.073 124.04 84.5571C123.82 85.0486 123.679 85.5551 123.59 86.0541C123.419 87.0558 123.426 88.0128 123.527 88.873C123.742 90.5934 124.184 91.9452 124.526 92.85C124.701 93.3044 124.857 93.647 124.965 93.8778C125.017 93.9858 125.058 94.0715 125.091 94.1422C125.117 94.2018 125.132 94.2316 125.129 94.2353C125.125 94.2353 125.106 94.2092 125.073 94.1534C125.039 94.0975 124.991 94.0119 124.928 93.9002C124.809 93.673 124.638 93.3341 124.452 92.8798C124.084 91.9787 123.62 90.6306 123.385 88.8916C123.278 88.024 123.259 87.052 123.426 86.0317C123.512 85.5215 123.657 85.0002 123.876 84.4938C124.11 83.991 124.407 83.5032 124.775 83.0489C125.504 82.1329 126.556 81.4216 127.738 80.9785C128.039 80.8742 128.329 80.755 128.659 80.7066C128.983 80.6396 129.295 80.6173 129.618 80.5688C130.261 80.4944 130.916 80.4236 131.573 80.3603C136.859 79.8539 141.65 79.5113 145.121 79.2618C146.846 79.1501 148.247 79.057 149.232 78.9937C149.707 78.9676 150.079 78.949 150.35 78.9341C150.469 78.9304 150.566 78.9266 150.64 78.9266C150.715 78.9155 150.748 78.9192 150.748 78.9229Z" fill="#455A64"/>
    <path d="M161.162 63.7519L161.962 38.1394L153.919 36.419L153.045 35.0002L147.637 38.4895L146.552 40.936L145.236 38.1432L143.285 36.6611L142.389 38.3964L136.327 40.8951C135.762 41.1259 135.301 41.5542 135.03 42.1016L128.225 55.7085L116.16 47.3336L112.425 53.9247L126.392 65.8447C128.998 67.513 132.45 66.8278 134.231 64.2956L137.81 59.1977L139.312 67.7811L139.557 76.48L150.072 78.4462L164.801 77.0758L161.162 63.7519Z" fill="#2EC097"/>
    <g opacity="0.3">
      <path opacity="0.3" d="M149.548 78.3047C154.643 78.8409 159.917 77.4817 164.125 74.5474L163.322 71.6167L149.548 78.3047Z" fill="black"/>
    </g>
    <path d="M161.965 38.1358C161.965 38.1358 156.955 39.6774 156.565 44.7604C156.175 49.8435 155.985 64.4074 155.985 64.4074C155.985 64.4074 155.205 64.9957 155.398 65.5804C155.595 66.1688 140.958 74.3798 140.958 74.3798L143.887 79.4889C143.887 79.4889 153.212 78.3717 163.668 72.8865C169.012 70.0825 166.909 48.1007 166.812 47.8065C166.712 47.5124 165.392 38.1246 161.965 38.1358Z" fill="#2EC097"/>
    <path d="M139.319 67.7737C139.312 67.7737 139.293 67.6992 139.263 67.5577C139.23 67.3938 139.189 67.1853 139.137 66.9321C139.029 66.3623 138.881 65.5803 138.702 64.627C138.524 63.6439 138.316 62.4858 138.081 61.2011C137.966 60.5569 137.847 59.8791 137.721 59.179C137.628 58.4715 137.531 57.7416 137.431 56.9932C137.048 54.0029 136.703 51.2994 136.446 49.3109C136.331 48.3464 136.238 47.557 136.171 46.9798C136.145 46.7228 136.123 46.5106 136.104 46.3467C136.093 46.2015 136.089 46.1233 136.093 46.1233C136.1 46.1233 136.115 46.1978 136.141 46.343C136.167 46.5068 136.201 46.7154 136.242 46.9723C136.323 47.5458 136.439 48.3315 136.58 49.296C136.847 51.2808 137.215 53.9843 137.621 56.9671C137.717 57.7156 137.814 58.4492 137.907 59.153C138.026 59.8531 138.145 60.5308 138.256 61.1787C138.472 62.4635 138.669 63.6253 138.836 64.6084C138.992 65.5654 139.118 66.3511 139.211 66.9246C139.249 67.1816 139.278 67.3901 139.304 67.5577C139.319 67.6954 139.323 67.7737 139.319 67.7737Z" fill="#263238"/>
    <path d="M143.887 79.4851C143.883 79.4851 143.865 79.4591 143.827 79.4032C143.787 79.3399 143.738 79.2543 143.671 79.15C143.53 78.9154 143.337 78.584 143.084 78.1557C142.571 77.2732 141.832 76.0034 140.906 74.4096L140.869 74.3463L140.936 74.3202C142.835 73.594 145.047 72.3615 147.436 70.7751C149.845 69.2111 152.439 67.2784 155.487 65.6623L155.45 65.7963C155.052 65.1074 155.524 64.061 156.39 63.9531L156.305 64.035C156.353 63.6626 156.405 63.2604 156.461 62.8545C156.903 59.2536 157.003 55.7904 156.862 52.6512C156.799 51.0798 156.647 49.594 156.557 48.1975C156.472 46.8011 156.468 45.4829 156.635 44.2987C156.795 43.1108 157.145 42.0718 157.572 41.2228C158.007 40.3775 158.516 39.7221 159.003 39.2641C159.49 38.8023 159.932 38.523 160.241 38.3592C160.393 38.2735 160.519 38.2288 160.601 38.1879C160.683 38.1506 160.728 38.1357 160.728 38.1395C160.754 38.173 160.007 38.389 159.055 39.3162C158.583 39.778 158.089 40.4296 157.669 41.2712C157.256 42.1128 156.918 43.1443 156.769 44.3173C156.613 45.4903 156.621 46.7974 156.713 48.1901C156.81 49.5828 156.966 51.0723 157.037 52.6475C157.185 55.7941 157.093 59.2722 156.647 62.8843C156.595 63.2902 156.539 63.6924 156.49 64.0685L156.479 64.143L156.401 64.1504C155.695 64.2212 155.271 65.1521 155.606 65.7033L155.658 65.7889L155.565 65.8373C152.536 67.4423 149.934 69.3675 147.518 70.9203C145.113 72.4992 142.887 73.7281 140.966 74.4394L140.995 74.3537C141.902 75.9624 142.623 77.2397 143.125 78.1297C143.367 78.5616 143.552 78.9005 143.686 79.1388C143.746 79.2468 143.79 79.3325 143.827 79.3995C143.872 79.4554 143.887 79.4851 143.887 79.4851Z" fill="#263238"/>
    <path d="M158.126 68.2914C158.07 68.3137 157.832 67.4274 157.067 66.6566C156.316 65.8709 155.435 65.614 155.461 65.5581C155.468 65.5358 155.691 65.5693 156.033 65.7108C156.372 65.8523 156.814 66.1204 157.208 66.5226C157.602 66.9285 157.858 67.3753 157.988 67.7179C158.119 68.0568 158.145 68.2839 158.126 68.2914Z" fill="#263238"/>
    <path d="M158.869 67.0178C158.814 67.0402 158.553 66.1651 157.821 65.357C157.1 64.5378 156.256 64.1877 156.286 64.1319C156.29 64.0835 157.208 64.3702 157.966 65.2267C158.736 66.0757 158.918 67.0178 158.869 67.0178Z" fill="#263238"/>
    <path d="M163.664 72.8827C163.667 72.8902 163.604 72.9237 163.482 72.987C163.34 73.0577 163.162 73.1471 162.943 73.2514C162.471 73.4785 161.787 73.7951 160.936 74.1712C159.23 74.9271 156.855 75.9251 154.175 76.8933C151.499 77.8652 149.023 78.6025 147.195 78.9898C146.28 79.1723 145.537 79.3175 145.017 79.3585C144.775 79.3845 144.578 79.4032 144.418 79.4218C144.281 79.433 144.21 79.4367 144.21 79.4292C144.21 79.4218 144.281 79.4069 144.415 79.3808C144.571 79.3548 144.768 79.3212 145.006 79.284C145.522 79.2207 146.258 79.0531 147.165 78.8558C148.979 78.435 151.439 77.679 154.112 76.7108C156.784 75.7464 159.166 74.7707 160.884 74.0446C161.724 73.6871 162.411 73.3966 162.913 73.1806C163.136 73.0875 163.322 73.0093 163.467 72.946C163.593 72.9013 163.66 72.879 163.664 72.8827Z" fill="#263238"/>
    <path d="M144.868 38.1878C144.879 38.199 144.824 38.2548 144.757 38.374C144.693 38.4969 144.615 38.6831 144.541 38.9214C144.392 39.398 144.229 40.087 144.147 40.8503L144.117 41.1296L143.969 40.8913C143.954 40.869 143.943 40.8466 143.928 40.8243C143.508 40.1354 143.192 39.4911 142.895 39.0666C142.605 38.6384 142.374 38.4075 142.397 38.3852C142.411 38.3665 142.679 38.5639 143.006 38.9847C143.341 39.398 143.683 40.046 144.095 40.72C144.11 40.7424 144.125 40.7647 144.136 40.787L143.958 40.8317C144.043 40.0423 144.233 39.3571 144.418 38.8767C144.511 38.6384 144.612 38.4522 144.701 38.333C144.786 38.2176 144.861 38.1766 144.868 38.1878Z" fill="#263238"/>
    <path d="M153.116 37.1973C153.134 37.2234 152.681 37.5176 152.016 38.0761C151.347 38.6273 150.477 39.4614 149.682 40.5152C149.351 40.9509 149.061 41.3866 148.816 41.8L148.715 41.9675L148.652 41.7813C148.34 40.8839 148.08 40.1131 147.901 39.5619C147.723 39.0108 147.626 38.6868 147.648 38.6794C147.667 38.6719 147.801 38.9847 148.009 39.5247C148.217 40.0647 148.5 40.828 148.827 41.7218L148.663 41.7069C148.908 41.2861 149.198 40.8392 149.533 40.3998C150.343 39.3273 151.243 38.5006 151.938 37.9719C152.283 37.7037 152.581 37.5101 152.789 37.3798C152.989 37.2494 153.108 37.1861 153.116 37.1973Z" fill="#263238"/>
    <path d="M147.63 65.1446C147.622 65.1446 147.608 65.0664 147.589 64.9137C147.567 64.7387 147.541 64.519 147.507 64.2435C147.44 63.6625 147.355 62.8209 147.254 61.7783C147.057 59.6967 146.823 56.8144 146.634 53.6268C146.444 50.4392 146.333 47.5495 146.281 45.4567C146.255 44.4103 146.24 43.565 146.236 42.9804C146.236 42.7048 146.236 42.4814 146.236 42.3064C146.24 42.1537 146.244 42.0718 146.251 42.0718C146.258 42.0718 146.266 42.1537 146.277 42.3064C146.284 42.4814 146.299 42.7048 146.314 42.9804C146.34 43.5911 146.377 44.429 146.418 45.4567C146.507 47.5458 146.637 50.4318 146.827 53.6194C147.017 56.8032 147.228 59.6855 147.392 61.7708C147.47 62.7949 147.537 63.6327 147.582 64.2397C147.6 64.5153 147.615 64.7387 147.626 64.9137C147.634 65.0627 147.634 65.1446 147.63 65.1446Z" fill="#263238"/>
    <path d="M155.026 58.8178C155.037 58.8252 154.918 58.9779 154.692 59.246C154.469 59.5141 154.13 59.8902 153.707 60.3445C152.856 61.2569 151.625 62.4634 150.172 63.6923C148.715 64.9211 147.318 65.9303 146.277 66.6155C145.756 66.9581 145.329 67.2262 145.028 67.4012C144.727 67.5799 144.56 67.6693 144.552 67.6581C144.545 67.647 144.701 67.5315 144.987 67.3379C145.303 67.1182 145.708 66.8389 146.199 66.5C147.217 65.785 148.596 64.7647 150.046 63.5396C151.491 62.3144 152.733 61.1265 153.606 60.244C154.023 59.8195 154.368 59.4657 154.636 59.1902C154.877 58.9444 155.019 58.8066 155.026 58.8178Z" fill="#263238"/>
    <path d="M146.396 71.1995C146.344 71.1995 146.318 70.1308 146.336 68.8163C146.359 67.5018 146.418 66.4368 146.47 66.4368C146.522 66.4368 146.548 67.5055 146.53 68.82C146.507 70.1345 146.448 71.1995 146.396 71.1995Z" fill="#263238"/>
    <g opacity="0.3">
      <path opacity="0.3" d="M137.706 59.395C137.602 56.7399 137.174 54.0699 136.71 51.4558C136.39 55.4403 135.81 59.4658 134.892 63.3572L137.706 59.395Z" fill="black"/>
    </g>
    <g opacity="0.3">
      <path opacity="0.3" d="M146.556 40.9323C146.935 40.6195 147.381 40.8728 147.608 41.3085C147.834 41.7441 147.801 42.2618 147.808 42.7533C147.812 43.0251 147.834 43.3044 147.961 43.5428C148.083 43.7848 148.332 43.9784 148.604 43.9635C148.92 43.9449 149.15 43.6656 149.34 43.405C150.815 41.3606 152.198 39.2492 153.48 37.0745C151.41 37.8788 150.02 39.8487 148.682 41.9341C148.626 41.9564 147.596 38.5938 147.596 38.5938C147.306 39.3162 146.842 40.2062 146.556 40.9323Z" fill="black"/>
    </g>
    <g opacity="0.3">
      <path opacity="0.3" d="M142.285 38.4745C143.058 40.2396 144.08 41.8893 145.311 43.3676C145.389 42.1611 145.299 40.9434 145.047 39.763C145.426 40.0236 146.177 40.6716 146.556 40.9322C146.556 40.9322 145.734 39.156 145.4 38.5117C145.311 38.3405 145.173 38.1468 144.98 38.1543C144.757 38.1654 144.649 38.4261 144.593 38.6421C144.411 39.3459 144.233 40.0534 144.051 40.7572C143.712 39.83 143.133 38.9958 142.389 38.3516" fill="black"/>
    </g>
    <g opacity="0.3">
      <path opacity="0.3" d="M144.92 67.3827C144.731 66.232 145.225 64.9995 146.15 64.2957C146.872 63.7483 147.793 63.5248 148.514 62.9774C149.756 62.0316 150.231 60.2441 151.614 59.5143C152.131 59.2424 152.915 59.2387 153.149 59.7712C153.361 60.2479 152.978 60.7692 152.618 61.1453C150.332 63.5248 147.734 65.6027 144.913 67.3119" fill="black"/>
    </g>
    <g opacity="0.3">
      <path opacity="0.3" d="M155.613 65.7665C156.293 66.4443 156.695 67.3938 156.706 68.3546C156.71 68.6376 156.68 68.928 156.743 69.2036C156.806 69.4792 156.992 69.751 157.267 69.8143C157.643 69.9 158.011 69.5462 158.078 69.1664C158.144 68.7828 157.999 68.3993 157.843 68.0455C157.39 67.0177 156.751 65.9713 155.714 65.5356" fill="black"/>
    </g>
    <g opacity="0.2">
      <path opacity="0.2" d="M128.113 55.6153C128.7 56.2893 129.143 58.0507 129.083 58.9444C129.024 59.8381 128.804 60.069 128.89 60.9627C128.905 61.1303 128.626 61.1862 128.756 61.2904C128.972 61.4617 129.317 61.283 129.418 61.0261C129.514 60.7691 129.447 60.4786 129.377 60.2105C129.351 60.5531 129.748 60.8175 130.083 60.7356C130.414 60.6537 130.64 60.3297 130.707 59.9908C130.774 59.6557 130.707 59.3094 130.637 58.9742C130.477 58.2071 130.287 57.4326 129.882 56.7623C129.473 56.092 128.812 55.5408 128.035 55.4478" fill="black"/>
    </g>
    <path d="M128.849 61.1341C128.786 61.1229 129.131 59.8531 128.927 58.2817C128.741 56.7065 128.091 55.5633 128.15 55.5372C128.169 55.526 128.354 55.7941 128.574 56.2745C128.789 56.7549 129.02 57.455 129.12 58.2556C129.221 59.0562 129.172 59.7935 129.079 60.3112C128.986 60.8325 128.871 61.1378 128.849 61.1341Z" fill="#263238"/>
    <path d="M151.165 105.477C149.611 98.5064 152.265 86.538 157.219 81.4029C162.174 76.2677 169.771 73.8435 176.777 75.1617V105.816L151.165 105.477Z" fill="#455A64"/>
    <path d="M176.665 92.5558C176.677 92.5744 171.804 95.4827 165.786 99.0501C159.765 102.621 154.878 105.496 154.866 105.477C154.855 105.459 159.724 102.551 165.745 98.9831C171.767 95.4157 176.654 92.5371 176.665 92.5558Z" fill="#FAFAFA"/>
    <path d="M176.665 82.1216C176.665 82.1216 176.58 82.1812 176.409 82.2854C176.223 82.4009 175.978 82.5535 175.665 82.7435C175 83.1494 174.071 83.7154 172.926 84.4155C170.611 85.8231 167.407 87.7557 163.85 89.8634C160.297 91.9748 157.063 93.8628 154.707 95.2034C153.528 95.8737 152.573 96.4136 151.908 96.7748C151.588 96.9499 151.332 97.0876 151.142 97.1919C150.967 97.285 150.871 97.3334 150.871 97.3334C150.871 97.3334 150.96 97.2776 151.131 97.177C151.321 97.069 151.573 96.9275 151.889 96.745C152.566 96.3578 153.51 95.8178 154.673 95.155C157.018 93.8032 160.248 91.9078 163.801 89.7964C167.344 87.6813 170.547 85.7635 172.889 84.367C174.037 83.6781 174.974 83.1158 175.639 82.7174C175.952 82.5312 176.201 82.3822 176.39 82.2705C176.572 82.1737 176.665 82.1216 176.665 82.1216Z" fill="#FAFAFA"/>
    <path d="M173.361 75.3442C173.361 75.3442 173.298 75.3852 173.179 75.4522C173.038 75.5304 172.863 75.631 172.647 75.7501C172.161 76.0183 171.492 76.3869 170.678 76.8338C169.012 77.7424 166.697 78.9713 164.132 80.3193C159.223 82.9185 155.773 84.7469 154.866 85.2273C154.866 85.2273 154.93 85.1863 155.049 85.1193C155.19 85.0411 155.364 84.9406 155.58 84.8214C156.067 84.5533 156.736 84.1883 157.55 83.7378C159.215 82.8291 161.531 81.6003 164.095 80.2485C169.005 77.653 172.458 75.8246 173.361 75.3442Z" fill="#FAFAFA"/>
    <path d="M176.141 75.3703C176.141 75.3741 176.1 75.3741 176.022 75.3666C175.933 75.3592 175.818 75.348 175.673 75.3368C175.368 75.3145 174.918 75.2437 174.335 75.2177C173.171 75.1432 171.477 75.1134 169.414 75.3927C169.157 75.4299 168.89 75.4597 168.622 75.5081C168.355 75.564 168.083 75.6161 167.804 75.672C167.243 75.7688 166.682 75.9513 166.087 76.1039C164.924 76.4763 163.686 76.9083 162.471 77.5637C161.259 78.2042 160.018 78.9638 158.892 79.9507C157.754 80.9226 156.695 82.0621 155.777 83.358C154.851 84.6501 154.116 86.0279 153.484 87.3834C152.848 88.7426 152.365 90.1093 151.975 91.4312C151.57 92.7495 151.317 94.0379 151.09 95.2444C150.904 96.4584 150.763 97.5942 150.707 98.6331C150.581 100.718 150.652 102.413 150.774 103.571C150.811 104.156 150.897 104.602 150.927 104.908C150.941 105.053 150.956 105.168 150.967 105.254C150.975 105.332 150.979 105.373 150.975 105.373C150.971 105.373 150.964 105.336 150.949 105.258C150.934 105.168 150.915 105.057 150.889 104.911C150.849 104.606 150.748 104.159 150.7 103.578C150.555 102.417 150.462 100.718 150.57 98.6219C150.618 97.5755 150.752 96.4323 150.934 95.2146C151.153 94.0007 151.402 92.7048 151.804 91.3791C152.19 90.0497 152.673 88.6719 153.313 87.3015C153.948 85.9349 154.684 84.5459 155.617 83.2425C156.546 81.9355 157.617 80.7811 158.769 79.8017C159.91 78.8112 161.163 78.0441 162.389 77.4036C163.616 76.7482 164.864 76.3162 166.039 75.9513C166.637 75.8023 167.206 75.6198 167.771 75.5305C168.05 75.4746 168.325 75.4225 168.596 75.3703C168.867 75.3219 169.131 75.2959 169.391 75.2624C171.469 74.998 173.171 75.0501 174.335 75.1469C174.918 75.1842 175.364 75.2698 175.673 75.3033C175.818 75.3257 175.929 75.3406 176.018 75.3517C176.1 75.3592 176.141 75.3666 176.141 75.3703Z" fill="#263238"/>
    <path d="M141.278 74.9048C141.278 74.9048 139.635 74.8526 138.814 74.5808C137.992 74.3127 136.528 74.0967 135.833 74.2047C135.138 74.3127 133.361 75.0127 132.231 75.3367C131.101 75.6607 130.183 75.3889 130.131 75.9288C130.079 76.4688 130.67 77.139 131.8 77.139C131.8 77.139 130.562 77.5487 130.778 77.8168C130.994 78.0849 131.369 78.7328 131.908 78.7328C131.908 78.7328 131.96 79.7048 132.878 79.8128C132.878 79.8128 133.201 80.6208 134.762 81.0007C134.762 81.0007 134.644 81.7007 135.833 81.9167C137.022 82.1327 143.701 79.1127 143.701 79.1127L141.278 74.9048Z" fill="#FFBE9D"/>
    <path d="M16.469 36.7244C15.5695 35.8531 14.0308 36.609 13.2763 37.6107C12.5218 38.6124 11.9865 39.9009 10.8381 40.4036C9.6933 40.9063 8.19916 40.4743 7.23652 41.275C5.90963 42.3809 6.65299 44.9392 5.21831 45.9C4.64965 46.2798 3.89886 46.2686 3.28931 46.5814C1.85464 47.3225 1.87322 49.3519 2.09251 50.9532C2.40472 53.2024 2.74295 55.5335 3.98435 57.4326C5.22203 59.3318 7.63421 60.6687 9.77507 59.9388C11.8342 59.235 12.8934 57.0081 13.7297 54.9935C14.8893 52.2081 16.049 49.4227 17.2086 46.6373C17.8776 45.0249 18.5578 43.3901 18.7734 41.6585C18.9926 39.9269 18.699 38.0576 17.5989 36.7021" fill="#263238"/>
    <path d="M14.0233 20.28C13.9973 19.3565 14.8485 18.6452 15.7033 18.3064C16.5619 17.9675 17.5134 17.8409 18.2753 17.327C18.9518 16.8727 19.4052 16.1615 19.9776 15.5768C21.3825 14.1506 23.5754 13.5585 25.5044 14.0873C27.4334 14.6161 29.0242 16.2397 29.5111 18.1835C29.8419 19.498 29.6152 21.0508 28.5819 21.9222C27.3814 22.9351 25.6048 22.7117 24.0698 22.3951C22.5347 22.0786 20.7953 21.7695 19.513 22.6744C18.7399 23.2181 18.2976 24.1081 17.8219 24.9273C17.3498 25.7466 16.7552 26.5844 15.8594 26.8935C14.9637 27.2026 13.752 26.6701 13.7148 25.7205" fill="#263238"/>
    <path d="M14.0866 20.7865C14.1869 21.5611 13.6294 22.25 13.0756 22.7974C12.5218 23.3448 11.8937 23.922 11.7933 24.6965C11.6781 25.6014 12.336 26.4877 12.1464 27.3814C12.0238 27.9474 11.5852 28.3831 11.3213 28.8933C10.9496 29.612 10.9273 30.4833 11.1577 31.2616C11.3882 32.0399 11.7524 33.7789 12.2914 34.3822C13.7855 36.0542 16.1642 37.499 18.346 38.0018C20.5277 38.5045 22.7949 38.5082 25.0324 38.3704C26.8611 38.2587 28.9685 38.3406 30.4924 35.8196C31.284 34.5125 31.6743 32.7772 32.0943 31.3063C32.4548 30.0402 32.767 28.6885 32.3916 27.4261C32.1723 26.6925 31.73 26.0408 31.5145 25.3035C31.2431 24.3837 31.3435 23.4043 31.2357 22.451C31.0016 20.3918 29.7267 18.4777 27.9166 17.4723C26.1066 16.4669 23.8133 16.3924 21.9438 17.2824" fill="#263238"/>
    <path d="M30.3586 23.9555C30.1876 21.3228 28.4407 18.0979 25.8241 18.3809L17.6547 20.47C16.8593 20.5556 16.2609 21.2371 16.2795 22.0377L17.1975 41.7815C17.1789 41.7852 17.1603 41.7889 17.1418 41.7926C17.1418 41.7926 19.0039 47.3635 24.4043 45.6617C25.4748 45.3228 25.9654 44.1498 26.1772 42.9433L26.233 42.9508C26.2367 42.8055 26.2367 42.6752 26.2404 42.5374C26.4188 41.1447 26.2739 39.8265 26.2739 39.8265C26.2887 38.2327 26.2887 37.5773 26.2887 37.5922C26.2887 37.5922 29.645 37.0261 30.3289 32.6395C30.6671 30.4573 30.5481 26.8787 30.3586 23.9555Z" fill="#FFBE9D"/>
    <path d="M29.9385 26.5879C29.9496 26.8859 29.708 27.1391 29.3995 27.1577C29.091 27.1763 28.8309 26.9492 28.8197 26.6513C28.8086 26.3533 29.0501 26.1001 29.3586 26.0815C29.6671 26.0666 29.9273 26.2938 29.9385 26.5879Z" fill="#263238"/>
    <path d="M29.5891 25.8172C29.5185 25.8917 29.0948 25.5752 28.4889 25.5789C27.8868 25.5714 27.4408 25.8842 27.3776 25.8098C27.3442 25.7762 27.4148 25.6459 27.6081 25.5044C27.7976 25.3629 28.121 25.2251 28.4964 25.2288C28.8718 25.2288 29.1914 25.3666 29.3735 25.5081C29.5594 25.6534 29.6225 25.7837 29.5891 25.8172Z" fill="#263238"/>
    <path d="M23.8169 26.7964C23.828 27.0944 23.5864 27.3476 23.2779 27.3662C22.9694 27.3848 22.7093 27.1577 22.6981 26.8598C22.687 26.5618 22.9286 26.3086 23.2371 26.29C23.5455 26.2751 23.8057 26.4985 23.8169 26.7964Z" fill="#263238"/>
    <path d="M23.6496 25.9437C23.579 26.0181 23.1516 25.7016 22.5495 25.7053C21.9474 25.6979 21.5013 26.0107 21.4382 25.9362C21.4047 25.9027 21.4753 25.7724 21.6686 25.6309C21.8582 25.4894 22.1815 25.3516 22.5569 25.3553C22.9323 25.3553 23.2519 25.4931 23.4341 25.6346C23.6199 25.7798 23.6831 25.9101 23.6496 25.9437Z" fill="#263238"/>
    <path d="M25.85 30.4272C25.8463 30.3937 26.2216 30.3267 26.8312 30.2485C26.9873 30.2336 27.1323 30.2001 27.1583 30.0958C27.1954 29.9841 27.1285 29.8165 27.0542 29.6378C26.9092 29.2654 26.7569 28.8706 26.597 28.461C25.9615 26.7853 25.4969 25.4075 25.5638 25.3851C25.6307 25.3591 26.2031 26.6959 26.8386 28.3717C26.991 28.785 27.1397 29.1797 27.2772 29.5558C27.3367 29.7309 27.437 29.9319 27.359 30.1628C27.3181 30.2783 27.2029 30.3639 27.1062 30.39C27.0059 30.4198 26.9204 30.4235 26.8461 30.4272C26.2328 30.4607 25.8537 30.4644 25.85 30.4272Z" fill="#263238"/>
    <path d="M26.2848 37.5919C26.2848 37.5919 23.3411 37.7893 20.416 36.0391C20.416 36.0391 21.847 39.0479 26.2253 38.6309L26.2848 37.5919Z" fill="#EB996E"/>
    <path d="M25.601 31.8871C25.3817 31.6004 25.0026 31.444 24.6235 31.485C24.3596 31.5148 24.0957 31.6414 23.9396 31.8536C23.7798 32.0696 23.7464 32.3712 23.895 32.576C24.0586 32.8069 24.4005 32.8591 24.6867 32.7734C24.9766 32.6915 25.2219 32.5016 25.4598 32.3117C25.5267 32.2595 25.5899 32.2037 25.6308 32.1329C25.6716 32.0622 25.6791 31.9653 25.6308 31.9058" fill="#EB996E"/>
    <path d="M24.0733 30.8519C24.17 30.8444 24.1737 31.5035 24.7349 31.969C25.2961 32.4345 25.9949 32.36 26.0023 32.4531C26.0098 32.4941 25.8462 32.5797 25.5526 32.5909C25.2627 32.6021 24.839 32.509 24.497 32.226C24.1551 31.9392 24.0064 31.5594 23.9841 31.2913C23.9581 31.012 24.0287 30.8481 24.0733 30.8519Z" fill="#263238"/>
    <path d="M23.9172 24.8825C23.8577 25.0463 23.2556 24.9718 22.5457 25.0575C21.8358 25.1319 21.2634 25.3405 21.1705 25.1915C21.1296 25.1208 21.2263 24.9644 21.4567 24.8043C21.6871 24.6441 22.0514 24.4914 22.4751 24.443C22.8988 24.3946 23.2891 24.4617 23.5492 24.5659C23.8131 24.6739 23.9432 24.8043 23.9172 24.8825Z" fill="#263238"/>
    <path d="M29.3622 24.0671C29.2544 24.2049 28.8382 24.0633 28.3401 24.0559C27.8384 24.0336 27.4146 24.149 27.318 24.0075C27.2734 23.9367 27.3403 23.799 27.5261 23.6686C27.7083 23.5383 28.013 23.4303 28.3587 23.4415C28.7044 23.4526 29.0017 23.5755 29.1764 23.717C29.3511 23.8585 29.4105 24 29.3622 24.0671Z" fill="#263238"/>
    <path d="M14.5957 34.9034C15.7999 35.1455 17.112 34.7768 18.0114 33.9389C18.9109 33.1011 19.3755 31.8164 19.2231 30.595C19.0856 29.5188 18.5057 28.4202 18.8811 27.3999C19.3755 26.0519 21.2599 25.6385 21.7616 24.2905C22.0515 23.5085 21.7914 22.5924 22.1222 21.8291C22.4306 21.1066 23.1889 20.6933 23.9248 20.4252C24.6607 20.1571 25.4524 19.9746 26.0694 19.4942C26.6863 19.0138 27.0729 18.1052 26.6752 17.4275C23.4082 17.8185 20.1894 18.6042 17.1082 19.7549C16.3946 20.023 15.6438 20.3432 15.2201 20.98C14.7741 21.654 14.7927 22.5217 14.8336 23.3298C15.0157 27.2696 15.2015 31.2094 15.3837 35.1492" fill="#263238"/>
    <path d="M14.8708 36.4117C14.8671 36.4154 14.8448 36.4005 14.8002 36.367C14.7481 36.3261 14.6849 36.2776 14.6069 36.2181C14.4359 36.084 14.1906 35.8866 13.8821 35.6148C13.5773 35.343 13.2094 34.9967 12.8526 34.5274C12.4995 34.0657 12.1538 33.4624 12.0349 32.7214C11.9048 32.0027 12.0014 31.0941 12.5998 30.4126C12.8935 30.0775 13.2726 29.828 13.6182 29.5412C13.9713 29.2582 14.2612 28.9007 14.4136 28.4539C14.737 27.5602 14.592 26.5249 14.7184 25.4674C14.8559 24.4135 15.2313 23.3262 15.9598 22.4436C16.324 22.0079 16.7589 21.6281 17.2569 21.3786C17.755 21.1142 18.2939 21.0062 18.7883 20.861C19.29 20.7232 19.7509 20.5147 20.1337 20.1982C20.5203 19.8891 20.8325 19.5092 21.1112 19.1182C21.6613 18.3362 22.0664 17.5021 22.5905 16.8057C22.8507 16.4594 23.1332 16.1429 23.4528 15.8897C23.7724 15.6365 24.1218 15.4465 24.4749 15.3311C25.1811 15.0891 25.9282 15.171 26.4188 15.5247C26.9057 15.8934 27.0841 16.4296 27.1101 16.8393C27.1324 17.2601 26.9874 17.5766 26.8462 17.7441C26.7756 17.8298 26.7161 17.8857 26.6678 17.9154C26.6232 17.949 26.6009 17.9639 26.5972 17.9601C26.5935 17.9564 26.6158 17.9378 26.6529 17.8968C26.6938 17.8633 26.7496 17.8037 26.8127 17.7181C26.9391 17.5505 27.0618 17.2452 27.032 16.843C26.9949 16.452 26.809 15.9455 26.3519 15.6104C25.891 15.2901 25.1848 15.2194 24.5121 15.4577C24.1738 15.5732 23.8393 15.7556 23.5383 16.0014C23.2335 16.2472 22.9622 16.5562 22.7094 16.8988C22.2002 17.584 21.8025 18.4144 21.245 19.2188C20.9663 19.6172 20.6429 20.012 20.2378 20.3397C19.8401 20.6748 19.342 20.902 18.8291 21.0397C18.3199 21.1924 17.7996 21.2967 17.3313 21.5462C16.8555 21.7845 16.443 22.142 16.0936 22.5628C15.3948 23.4081 15.0269 24.4657 14.8894 25.486C14.763 26.51 14.9079 27.5602 14.566 28.5135C14.4062 28.9901 14.0754 29.3848 13.7111 29.6716C13.3506 29.9658 12.9789 30.2078 12.7002 30.5206C12.139 31.1462 12.0312 32.0027 12.1501 32.699C12.2579 33.414 12.5813 34.0024 12.9195 34.4641C13.2614 34.9296 13.6182 35.2797 13.9119 35.5589C14.2092 35.8382 14.4508 36.043 14.6106 36.1883C14.7927 36.3298 14.8745 36.4043 14.8708 36.4117Z" fill="#455A64"/>
    <path d="M42.0106 66.9359L48.4629 54.6324L45.2999 51.2251L37.1565 59.0712L39.4386 65.3719L42.0106 66.9359Z" fill="#2EC097"/>
    <path d="M27.1917 43.312C29.8826 44.2839 32.0755 46.2874 33.2946 48.8829L41.6127 66.612L48.7786 69.524L42.4676 71.345L36.8478 67.2153L27.1917 43.312Z" fill="#2EC097"/>
    <path d="M42.4676 71.3449L39.4496 73.6761L24.3893 58.1551L15.7812 42.5746L16.7773 39.6775L23.4341 42.4555L25.3556 44.8834L26.348 41.5059L26.7754 42.1129L27.4705 44.0009C27.4705 44.0009 34.0083 49.4488 35.4169 53.7685C36.5951 57.3731 36.2272 64.8245 36.9408 66.8465L42.4676 71.3449Z" fill="#FAFAFA"/>
    <path d="M14.1682 42.3737C14.0678 42.6753 7.73076 45.2261 7.42971 47.4493C7.12865 49.6724 11.9827 66.8616 11.9827 66.8616L19.6802 73.6762H39.4496L33.1795 61.9126C31.8266 59.3767 30.1206 57.0493 28.1061 55.0012C26.2514 53.1169 24.0028 50.7858 22.8469 49.3931C21.5943 47.885 16.283 40.8469 16.283 40.8469L14.1682 42.3737Z" fill="#2EC097"/>
    <path d="M18.134 43.0774C18.1452 43.055 18.5726 43.2487 19.2528 43.5801C19.9329 43.9115 20.8658 44.3844 21.8954 44.9169C22.3042 45.1292 22.6945 45.334 23.0587 45.5276L22.9249 45.617C22.8729 44.7717 22.9547 44.0456 23.0513 43.5428C23.1479 43.0401 23.252 42.7534 23.2669 42.7571C23.2892 42.7646 23.226 43.0587 23.1628 43.5615C23.0996 44.0642 23.0439 44.7791 23.107 45.6058L23.1182 45.7697L22.9732 45.6952C22.609 45.509 22.215 45.3042 21.8062 45.0957C20.7803 44.5632 19.8549 44.0716 19.1896 43.7067C18.528 43.338 18.1229 43.0997 18.134 43.0774Z" fill="#263238"/>
    <path d="M27.2808 44.0083C27.3031 44.0232 27.1544 44.2541 26.898 44.6116L26.8199 44.7233L26.779 44.5855C26.6527 44.161 26.4929 43.5689 26.3256 42.9135C26.3145 42.8614 26.2996 42.813 26.2884 42.7646L26.4668 42.7869C25.8722 43.9115 25.5079 44.8536 25.4596 44.835C25.415 44.8201 25.7012 43.8408 26.2959 42.6976L26.4111 42.4741L26.4743 42.7199C26.4854 42.7683 26.5003 42.8167 26.5114 42.8688C26.6787 43.5242 26.8199 44.1238 26.9091 44.5557L26.7902 44.5297C27.0764 44.1908 27.2622 43.9897 27.2808 44.0083Z" fill="#263238"/>
    <path d="M33.3728 58.7546C33.3617 58.7621 33.2502 58.5796 33.0569 58.2519C32.8488 57.8907 32.5774 57.4178 32.2504 56.848C31.5739 55.6639 30.6299 54.0254 29.5669 52.2342C28.5001 50.4431 27.5115 48.8344 26.7941 47.6725C26.4485 47.1139 26.1623 46.6485 25.9467 46.2947C25.7497 45.967 25.6457 45.7845 25.6568 45.7771C25.668 45.7696 25.7943 45.9409 26.0099 46.2537C26.2292 46.5665 26.5377 47.0283 26.9094 47.598C27.6564 48.7413 28.6674 50.3388 29.7341 52.1337C30.8008 53.9248 31.7226 55.5745 32.373 56.7773C32.6964 57.3806 32.9528 57.8684 33.1275 58.211C33.2948 58.5573 33.384 58.7472 33.3728 58.7546Z" fill="#263238"/>
    <g opacity="0.3">
      <path opacity="0.3" d="M30.3249 70.738C31.4734 70.9317 32.6516 71.129 33.7963 70.9093C34.9411 70.6896 36.0636 69.9672 36.4204 68.8575C36.5319 68.5112 36.5802 68.1127 36.8478 67.867C37.2901 67.4573 37.9926 67.7105 38.5947 67.6547C39.2637 67.5951 39.8361 67.1147 40.1855 66.5375C40.5348 65.9603 40.6947 65.2938 40.8508 64.6384C40.9288 64.3144 41.0069 63.983 40.9697 63.6516C40.9325 63.3201 40.7579 62.985 40.4568 62.8509C40.0033 62.6461 39.4942 62.944 39.089 63.2345C35.8294 65.588 32.8597 68.3101 29.8975 71.0285" fill="black"/>
    </g>
    <path d="M81.4713 94.4216L87.2174 101.631C87.2174 101.631 96.461 98.2013 97.6541 99.4302L84.0991 111.093L74.6882 100.227L81.4713 94.4216Z" fill="#455A64"/>
    <g opacity="0.6">
      <g opacity="0.6">
        <g opacity="0.6">
          <g opacity="0.6">
            <path opacity="0.6" d="M82.5194 104.647C82.3187 104.945 82.3893 105.396 82.6792 105.608C82.9691 105.82 83.4263 105.753 83.6344 105.459C83.8389 105.165 83.772 104.621 83.4598 104.442C83.1475 104.264 82.616 104.375 82.486 104.711" fill="white"/>
          </g>
        </g>
      </g>
    </g>
    <g opacity="0.6">
      <g opacity="0.6">
        <g opacity="0.6">
          <path opacity="0.6" d="M84.099 111.093L83.1921 109.961L96.5279 99.2031C96.5279 99.2031 97.3567 98.9462 97.6541 99.4303L84.099 111.093Z" fill="white"/>
        </g>
      </g>
    </g>
    <path d="M87.3772 101.374C87.4329 101.441 87.1282 101.758 86.9832 102.249C86.8271 102.741 86.9052 103.169 86.8234 103.195C86.7528 103.236 86.5112 102.752 86.6933 102.16C86.8717 101.564 87.34 101.3 87.3772 101.374Z" fill="#263238"/>
    <path d="M89.3025 100.737C89.3732 100.789 89.1836 101.147 89.1985 101.623C89.1985 102.096 89.4029 102.45 89.336 102.502C89.284 102.566 88.9048 102.215 88.8974 101.627C88.8825 101.039 89.2468 100.678 89.3025 100.737Z" fill="#263238"/>
    <path d="M91.5734 101.75C91.5251 101.817 91.1497 101.564 91.0085 101.054C90.8635 100.543 91.0531 100.134 91.1274 100.164C91.2129 100.186 91.1757 100.555 91.2984 100.972C91.4136 101.389 91.6329 101.687 91.5734 101.75Z" fill="#263238"/>
    <path d="M85.8868 99.8732C85.9091 99.9588 85.53 100.126 85.1769 100.476C84.8164 100.815 84.6343 101.191 84.5525 101.165C84.4744 101.15 84.5488 100.659 84.9688 100.257C85.3813 99.8508 85.8757 99.795 85.8868 99.8732Z" fill="#263238"/>
    <g opacity="0.3">
      <g opacity="0.3">
        <g opacity="0.3">
          <path opacity="0.3" d="M82.6087 95.8479L83.6345 97.1326L76.9183 102.804L75.9482 101.687L82.6087 95.8479Z" fill="black"/>
        </g>
      </g>
    </g>
    <path d="M84.7011 98.4434C84.7271 98.4695 84.5004 98.7376 84.0209 99.0243C83.7831 99.1658 83.4783 99.3111 83.1252 99.4153C82.9468 99.4675 82.7572 99.5122 82.5565 99.5419C82.4599 99.5568 82.3521 99.5792 82.2146 99.5568C82.0808 99.5494 81.8912 99.4116 81.8801 99.2291C81.8615 99.0653 81.9433 98.9126 82.0399 98.827C82.1366 98.7376 82.2369 98.6892 82.3261 98.6445C82.5082 98.5514 82.6941 98.4807 82.8725 98.4248C83.233 98.3205 83.5712 98.287 83.85 98.2982C84.4149 98.3205 84.7346 98.4732 84.7234 98.5067C84.7123 98.5551 84.3815 98.4769 83.8537 98.5142C83.5898 98.5328 83.2813 98.5849 82.9542 98.6929C82.7907 98.7488 82.6272 98.8195 82.4599 98.9089C82.2852 98.9945 82.1626 99.0988 82.1774 99.1956C82.1849 99.2329 82.1923 99.244 82.2592 99.2589C82.3224 99.2701 82.4153 99.2589 82.5082 99.2478C82.6941 99.2217 82.8725 99.1882 83.0434 99.1435C83.3817 99.0578 83.6753 98.9424 83.9169 98.8307C84.4 98.6073 84.6714 98.4062 84.7011 98.4434Z" fill="#263238"/>
    <path d="M84.6937 98.6109C84.6788 98.6407 84.3443 98.5178 83.9503 98.1082C83.7571 97.9034 83.5563 97.6278 83.404 97.2852C83.3296 97.1139 83.2664 96.924 83.2218 96.7229C83.1847 96.5218 83.1289 96.2574 83.3594 96.0079C83.4894 95.8888 83.6902 95.8962 83.8054 95.9521C83.928 96.0042 84.0061 96.075 84.0878 96.142C84.2477 96.2798 84.3777 96.4362 84.4818 96.6C84.6862 96.924 84.7754 97.2666 84.794 97.5533C84.8312 98.1342 84.6231 98.4508 84.597 98.4321C84.545 98.4172 84.6677 98.0896 84.5785 97.5794C84.5339 97.3262 84.4372 97.032 84.2439 96.7564C84.151 96.6186 84.0321 96.4883 83.8946 96.3729C83.7496 96.2462 83.5972 96.1755 83.5563 96.2388C83.4894 96.2947 83.4671 96.5032 83.508 96.667C83.5415 96.8495 83.5935 97.0208 83.6567 97.1809C83.7831 97.5012 83.9466 97.7656 84.1064 97.9741C84.4409 98.3837 84.7234 98.5699 84.6937 98.6109Z" fill="#263238"/>
    <path d="M75.1901 115.025L74.8407 124.245C74.8407 124.245 84.0768 127.697 84.1772 129.407L66.3107 129.369L66.2661 114.98L75.1901 115.025Z" fill="#455A64"/>
    <g opacity="0.6">
      <g opacity="0.6">
        <g opacity="0.6">
          <g opacity="0.6">
            <path opacity="0.6" d="M69.3176 123.46C68.9719 123.553 68.7304 123.944 68.8121 124.294C68.8902 124.644 69.2842 124.893 69.6335 124.804C69.9792 124.714 70.284 124.256 70.165 123.918C70.0461 123.579 69.5703 123.314 69.2544 123.482" fill="white"/>
          </g>
        </g>
      </g>
    </g>
    <g opacity="0.6">
      <g opacity="0.6">
        <g opacity="0.6">
          <path opacity="0.6" d="M66.3108 129.373L66.3628 127.924L83.4748 128.502C83.4748 128.502 84.2702 128.852 84.1773 129.41L66.3108 129.373Z" fill="white"/>
        </g>
      </g>
    </g>
    <path d="M75.1306 124.156C75.1269 124.242 74.692 124.283 74.2608 124.562C73.8223 124.83 73.603 125.21 73.5212 125.173C73.4394 125.154 73.5732 124.633 74.0973 124.305C74.6214 123.97 75.1492 124.074 75.1306 124.156Z" fill="#263238"/>
    <path d="M77.0039 124.938C77.0225 125.024 76.6471 125.169 76.3497 125.541C76.0412 125.902 75.9669 126.301 75.8777 126.297C75.7959 126.312 75.7365 125.798 76.1156 125.348C76.4873 124.89 77.0002 124.852 77.0039 124.938Z" fill="#263238"/>
    <path d="M78.0632 127.187C77.9852 127.206 77.8625 126.77 78.0892 126.29C78.3122 125.81 78.7211 125.623 78.7583 125.694C78.8066 125.765 78.5427 126.022 78.3643 126.417C78.1747 126.808 78.1487 127.176 78.0632 127.187Z" fill="#263238"/>
    <path d="M74.9783 122.045C74.9411 122.123 74.5397 122.004 74.0491 122.037C73.5548 122.059 73.172 122.223 73.1274 122.149C73.0753 122.086 73.4507 121.762 74.0343 121.732C74.6103 121.698 75.0192 121.978 74.9783 122.045Z" fill="#263238"/>
    <g opacity="0.3">
      <g opacity="0.3">
        <g opacity="0.3">
          <path opacity="0.3" d="M75.1194 116.854L75.0599 118.496L66.2772 118.399L66.2698 116.917L75.1194 116.854Z" fill="black"/>
        </g>
      </g>
    </g>
    <path d="M75.0153 120.186C75.0153 120.223 74.6696 120.276 74.1195 120.179C73.8445 120.13 73.5211 120.041 73.1829 119.888C73.0156 119.814 72.841 119.721 72.67 119.613C72.5882 119.561 72.4916 119.505 72.3987 119.401C72.302 119.307 72.2463 119.077 72.3578 118.935C72.4507 118.797 72.6105 118.738 72.7406 118.738C72.8707 118.734 72.9785 118.76 73.0751 118.786C73.2758 118.834 73.4617 118.902 73.6326 118.98C73.9746 119.136 74.2496 119.333 74.4577 119.523C74.8703 119.911 75.0115 120.235 74.9818 120.253C74.9409 120.283 74.7402 120.008 74.3202 119.691C74.1084 119.531 73.8408 119.367 73.5248 119.24C73.365 119.177 73.194 119.121 73.0119 119.08C72.8224 119.032 72.6626 119.028 72.6142 119.114C72.5957 119.147 72.5957 119.158 72.6328 119.214C72.6737 119.266 72.7518 119.315 72.8298 119.367C72.9859 119.471 73.1457 119.561 73.3018 119.639C73.614 119.795 73.9114 119.9 74.1678 119.974C74.677 120.112 75.0153 120.138 75.0153 120.186Z" fill="#263238"/>
    <path d="M74.9001 120.309C74.8703 120.324 74.6957 120.008 74.6659 119.441C74.6511 119.162 74.6808 118.82 74.7886 118.458C74.8443 118.28 74.9187 118.093 75.019 117.915C75.1231 117.74 75.2532 117.501 75.5914 117.464C75.7698 117.457 75.9147 117.598 75.9631 117.714C76.0225 117.837 76.0337 117.937 76.056 118.041C76.0894 118.25 76.0857 118.455 76.056 118.645C76.0002 119.024 75.8441 119.341 75.6732 119.568C75.3238 120.03 74.9595 120.134 74.9521 120.104C74.9224 120.06 75.2272 119.892 75.4948 119.445C75.6286 119.226 75.7438 118.935 75.7809 118.604C75.7995 118.436 75.7958 118.261 75.7661 118.086C75.7401 117.896 75.6694 117.743 75.5951 117.762C75.5059 117.762 75.3535 117.904 75.2829 118.056C75.19 118.216 75.1194 118.38 75.0599 118.54C74.9484 118.864 74.8964 119.173 74.8852 119.434C74.8555 119.97 74.9484 120.298 74.9001 120.309Z" fill="#263238"/>
    <path d="M45.9242 61.134L55.48 39.0256C55.48 39.0256 49.9383 45.978 47.0392 45.9147C47.0392 45.9147 43.8391 52.9937 41.7726 58.6055L38.6282 66.7384L45.9242 61.134Z" fill="white"/>
    <path d="M45.9242 61.1341C45.9279 61.1378 45.887 61.1714 45.8052 61.2384C45.716 61.3091 45.5934 61.406 45.4373 61.5326C45.1028 61.797 44.6196 62.1731 44.0026 62.6572C42.7389 63.6365 40.9214 65.0441 38.669 66.7906L38.4795 66.9358L38.565 66.7124C39.5871 64.0424 40.8062 60.8623 42.1628 57.3172C43.5194 53.7684 45.1474 49.9068 46.95 45.8701L46.976 45.8143H47.0392C47.5744 45.8143 48.1394 45.5983 48.6597 45.3153C50.0721 44.5258 51.2614 43.4199 52.369 42.3325C53.4729 41.2302 54.4839 40.0945 55.4056 38.9662L55.8331 38.4448L55.5655 39.063C52.7853 45.4568 50.3843 50.983 48.6783 54.9153C47.8234 56.8666 47.1396 58.4232 46.6675 59.4994C46.4334 60.0244 46.2512 60.434 46.1249 60.7208C46.0654 60.8511 46.0171 60.9554 45.9799 61.0336C45.9428 61.1043 45.9279 61.1378 45.9242 61.1341C45.9205 61.1341 45.9353 61.0932 45.9651 61.0224C45.9985 60.9442 46.0394 60.8362 46.0951 60.7022C46.2178 60.4117 46.3888 59.9983 46.6155 59.4621C47.0764 58.3785 47.7454 56.8107 48.5779 54.8483C50.2691 50.9122 52.6441 45.386 55.3945 38.9885L55.5506 39.0853C54.6251 40.2248 53.6142 41.3606 52.5028 42.4703C51.3878 43.5651 50.1984 44.6785 48.7489 45.4903C48.2137 45.7808 47.6264 46.0116 47.0318 46.0116L47.121 45.9558C45.3183 49.985 43.683 53.8429 42.3189 57.3842C40.9697 60.933 39.7135 64.102 38.6839 66.7645L38.5798 66.6863C40.8434 64.9659 42.6683 63.577 43.9394 62.6088C44.5676 62.1358 45.0582 61.7672 45.4001 61.5102C45.5636 61.3911 45.69 61.2942 45.7829 61.2272C45.8759 61.1639 45.9242 61.1341 45.9242 61.1341Z" fill="#263238"/>
    <path d="M8.01685 110.616L10.8825 129.407H13.7295L12.3283 110.687L8.01685 110.616Z" fill="#263238"/>
    <path d="M58.4832 110.687V129.407H61.49L62.6051 110.616L58.4832 110.687Z" fill="#263238"/>
    <path d="M37.9222 57.1684C37.9222 57.1684 39.1338 54.383 39.7806 53.9957C40.4273 53.6084 44.3782 51.8023 44.3782 51.8023L43.9731 52.6923L47.9091 50.3389C47.9091 50.3389 48.2176 51.1544 47.6043 51.996C46.9911 52.8376 47.1955 52.7594 47.1955 52.7594C47.1955 52.7594 47.8608 53.1615 47.5263 53.7536C47.1918 54.3494 46.6306 55.0756 46.6306 55.0756C46.6306 55.0756 47.2401 55.8241 46.9948 56.5242C46.9948 56.5242 47.229 57.1349 47.084 57.9876C46.939 58.8367 45.4077 60.4528 45.4077 60.4528L37.7624 64.1022L34.6812 58.859L37.9222 57.1684Z" fill="#FFBE9D"/>
    <path d="M21.0591 52.7146L25.6456 62.5232L35.8146 58.0955C35.8146 58.0955 40.0369 60.5607 39.4496 63.2568L30.2878 70.7975C28.5521 72.2237 26.3109 72.8791 24.0808 72.6036C21.6872 72.3094 19.5463 70.9763 18.2195 68.9579L11.5888 58.8477L7.87942 52.7742C6.69377 50.8303 6.69377 48.3279 8.03552 46.4884C8.40348 45.9856 8.83834 45.5648 9.34382 45.2558C11.0015 44.2541 15.9225 43.8146 21.0591 52.7146Z" fill="#2EC097"/>
    <path d="M39.6392 63.2716C39.6392 63.2679 39.6727 63.2493 39.7359 63.2121C39.8139 63.1711 39.9106 63.119 40.0332 63.0557C40.312 62.9141 40.6948 62.7205 41.178 62.471C42.189 61.9683 43.6236 61.2533 45.3668 60.3857L45.3445 60.4006C45.7905 59.909 46.2551 59.3653 46.6491 58.7397C46.8461 58.4195 47.0096 58.0992 47.0245 57.7082C47.0542 57.3284 47.0245 56.9262 46.9055 56.5576L46.8944 56.5241L46.9055 56.4943C47.0579 56.066 46.8572 55.5335 46.5562 55.1313L46.5116 55.0718L46.5562 55.0159C46.82 54.6659 47.0839 54.2972 47.3255 53.9062C47.4482 53.7051 47.5597 53.5226 47.5151 53.3253C47.4779 53.1316 47.3218 52.9492 47.1471 52.8375L47.2289 52.8449C47.1954 52.8598 47.1211 52.8598 47.0839 52.7928C47.0616 52.7444 47.0691 52.722 47.0691 52.6997C47.0765 52.6662 47.0839 52.6401 47.0951 52.614C47.1137 52.5693 47.136 52.5284 47.1583 52.4874C47.2029 52.4092 47.2512 52.331 47.3032 52.2565C47.3999 52.1076 47.5151 51.9586 47.608 51.8171C47.7938 51.5267 47.9016 51.1804 47.8942 50.8303C47.8905 50.6739 47.8682 50.5063 47.8236 50.3686L47.9648 50.417C46.5933 51.2325 45.2739 52.0219 44.0287 52.7667L43.7723 52.9194L43.8949 52.6476C44.0325 52.3459 44.17 52.0517 44.3038 51.7613L44.4227 51.8804C42.7353 52.6587 41.1706 53.3551 39.8623 54.0328C39.5761 54.2153 39.3828 54.5393 39.2007 54.8185C39.0185 55.109 38.8587 55.3957 38.7138 55.6713C38.4239 56.2224 38.1786 56.7326 37.9741 57.1832L37.9667 57.1981L37.9518 57.2055C37.2419 57.563 36.6807 57.846 36.2867 58.0471C36.1046 58.1365 35.9596 58.2072 35.8481 58.2594C35.7478 58.3078 35.6958 58.3264 35.6958 58.3227C35.692 58.3189 35.7404 58.2892 35.837 58.2333C35.9448 58.1737 36.086 58.0955 36.2607 57.9987C36.651 57.7902 37.2048 57.4923 37.9035 57.1161L37.8812 57.1422C38.0782 56.6879 38.3124 56.174 38.5986 55.6117C38.7398 55.3324 38.8996 55.042 39.078 54.7441C39.1672 54.5951 39.2639 54.4462 39.3754 54.3009C39.4794 54.1557 39.6132 54.0067 39.7842 53.9025C41.1074 53.1987 42.6573 52.4986 44.3447 51.7129L44.5677 51.6086L44.4673 51.832C44.3335 52.1225 44.1997 52.4204 44.0622 52.722L43.9321 52.6029C45.1772 51.8581 46.4967 51.0649 47.8645 50.2457L47.9685 50.1824L48.0057 50.2941C48.0652 50.4728 48.0875 50.6441 48.0912 50.8229C48.0986 51.2139 47.9797 51.5974 47.7753 51.9177C47.6712 52.0815 47.5671 52.2119 47.4705 52.3608C47.4222 52.4316 47.3776 52.506 47.333 52.5768C47.3144 52.614 47.2958 52.6475 47.2809 52.6848C47.2735 52.6997 47.2698 52.7183 47.2698 52.7257C47.2698 52.7257 47.2735 52.7257 47.2661 52.7257C47.2549 52.7257 47.2438 52.7257 47.2363 52.7257C47.2103 52.7295 47.2103 52.7258 47.1954 52.7332C47.1917 52.7332 47.1917 52.7369 47.1917 52.7295C47.1917 52.7258 47.1917 52.722 47.1917 52.7183C47.2066 52.7704 47.1731 52.6438 47.1769 52.6587L47.1694 52.6624L47.2512 52.6699C47.4668 52.8151 47.6526 53.0162 47.7084 53.2881C47.7344 53.4221 47.7158 53.5636 47.6675 53.6865C47.6117 53.8131 47.5522 53.9025 47.4928 54.0067C47.2475 54.4052 46.9799 54.7739 46.7123 55.1313V55.0159C46.8869 55.2431 47.0133 55.4888 47.0914 55.7532C47.1694 56.0139 47.1769 56.3006 47.0914 56.5576V56.4943C47.2252 56.9076 47.2512 57.321 47.2177 57.7231C47.1992 57.9168 47.1694 58.129 47.0839 58.3152C47.0096 58.5014 46.913 58.669 46.8126 58.8291C46.4038 59.4696 45.9355 60.0096 45.4746 60.5048L45.4671 60.516L45.456 60.5234C43.698 61.3688 42.2559 62.0614 41.2375 62.5529C40.7468 62.7838 40.3566 62.9663 40.0741 63.1003C39.9477 63.1562 39.8474 63.2009 39.7693 63.2381C39.6764 63.2642 39.6392 63.2754 39.6392 63.2716Z" fill="#EB996E"/>
    <path d="M44.2293 52.536C44.259 52.5807 43.5417 53.076 42.6311 53.6383C41.7205 54.2006 40.9623 54.6214 40.9325 54.5729C40.9028 54.5283 41.6201 54.033 42.5307 53.4707C43.4414 52.9084 44.2033 52.4876 44.2293 52.536Z" fill="#EB996E"/>
    <path d="M47.2921 52.4391C47.3293 52.4764 46.69 53.169 45.8649 53.9808C45.0398 54.7926 44.341 55.4219 44.3001 55.3847C44.263 55.3474 44.9022 54.6548 45.7274 53.8393C46.5562 53.0275 47.2587 52.3982 47.2921 52.4391Z" fill="#EB996E"/>
    <path d="M46.8832 54.8C46.9241 54.8335 46.6231 55.2543 46.2142 55.7384C45.8054 56.2225 45.4374 56.5837 45.3965 56.5502C45.3557 56.5167 45.6567 56.0959 46.0656 55.6118C46.4781 55.1314 46.8423 54.7665 46.8832 54.8Z" fill="#EB996E"/>
    <path d="M47.0244 56.3937C47.0653 56.431 46.8981 56.6879 46.6825 56.997C46.4669 57.3061 46.2811 57.5518 46.2365 57.5258C46.1919 57.4997 46.3034 57.2018 46.5264 56.8853C46.7457 56.565 46.9836 56.3602 47.0244 56.3937Z" fill="#EB996E"/>
    <path d="M28.7231 71.7731C28.7231 71.7731 28.738 71.7545 28.7714 71.7284C28.8086 71.6949 28.8569 71.6577 28.9164 71.6055C29.0539 71.4938 29.2472 71.3374 29.4925 71.1401C30.0091 70.7304 30.7525 70.1421 31.6891 69.3973C33.5958 67.9003 36.3016 65.774 39.5278 63.2381L39.4943 63.3014C39.4943 62.8024 39.4051 62.2885 39.2044 61.8007C38.9926 61.3166 38.7064 60.8548 38.3607 60.4192C37.6545 59.5664 36.7588 58.803 35.759 58.1811L35.8445 58.1849C34.1608 58.9185 32.3916 59.6893 30.5778 60.4787C28.8978 61.2086 27.255 61.9236 25.6754 62.6125L25.5936 62.6497L25.5527 62.5715C24.2035 59.9127 22.9584 57.4066 21.6947 55.2319C21.0666 54.1408 20.4459 53.1316 19.8586 52.1895C19.2714 51.2511 18.7362 50.376 18.1898 49.6238C17.1231 48.097 15.9226 47.1623 15.0231 46.682C14.8038 46.5516 14.5994 46.4511 14.421 46.3654C14.2463 46.2761 14.0939 46.209 13.9713 46.1569C13.8561 46.1048 13.7631 46.0638 13.6925 46.034C13.6293 46.0042 13.5996 45.9893 13.5996 45.9856C13.5996 45.9856 14.1423 46.142 15.0529 46.6224C15.5063 46.8644 16.0452 47.1996 16.6065 47.6837C17.1714 48.1603 17.7364 48.7971 18.2902 49.5493C18.8477 50.3015 19.3903 51.1766 19.9813 52.1113C20.5723 53.046 21.2041 54.0589 21.836 55.1462C23.1145 57.3209 24.3671 59.8233 25.72 62.4822L25.5973 62.4375C27.177 61.7486 28.8198 61.0336 30.4997 60.3C32.3135 59.5105 34.0827 58.7434 35.7664 58.0098L35.811 57.9912L35.8519 58.0173C36.8777 58.6578 37.7772 59.4286 38.4982 60.3037C38.8513 60.7506 39.1487 61.2272 39.3642 61.7299C39.5724 62.2401 39.6653 62.7801 39.6579 63.3051V63.3424L39.6244 63.3684C36.3797 65.882 33.659 67.986 31.7411 69.4718C30.7897 70.2017 30.0389 70.7788 29.5148 71.1773C29.2621 71.3672 29.0651 71.5162 28.9238 71.6242C28.8607 71.6688 28.8123 71.7061 28.7714 71.7359C28.7454 71.7657 28.7268 71.7768 28.7231 71.7731Z" fill="#263238"/>
    <path d="M25.0249 65.6064C24.9729 65.5841 25.2517 64.884 25.4115 63.9754C25.5787 63.0705 25.5601 62.3146 25.6196 62.3108C25.6679 62.3034 25.7757 63.0742 25.6047 64.0089C25.4375 64.9473 25.0695 65.6325 25.0249 65.6064Z" fill="#263238"/>
    <path d="M66.5933 73.676L83.367 96.0041L75.5209 102.755L67.4444 92.176L66.5933 73.676Z" fill="#2EC097"/>
    <path d="M31.0869 74.7448C31.0869 74.7448 58.0669 66.5115 60.5386 66.612C63.0102 66.7163 67.7008 75.6572 67.7008 75.6572L60.126 75.3816L50.5479 90.0312L35.0601 89.3088L31.0869 74.7448Z" fill="#2EC097"/>
    <path d="M53.1422 68.2358C53.1571 68.2879 50.3844 69.1593 46.9501 70.1796C43.5121 71.2037 40.7171 71.9894 40.7022 71.941C40.6873 71.8888 43.46 71.0175 46.8981 69.9971C50.3286 68.9731 53.1274 68.1874 53.1422 68.2358Z" fill="#263238"/>
    <path d="M59.4124 75.2402H66.9871C70.7671 75.2402 74.1345 77.6309 75.3907 81.2021C75.9817 82.8853 76.2419 84.6652 76.1564 86.4452L75.5654 117.319H65.3666L65.1845 107.451L63.8948 88.6907L55.0675 89.0631L50.0647 88.7503L59.4124 75.2402Z" fill="#2EC097"/>
    <path d="M59.6354 75.0838C59.6466 75.0875 59.5983 75.3184 59.4942 75.7355C59.4013 76.1562 59.2117 76.7483 58.959 77.4782C58.6802 78.1969 58.3383 79.0497 57.8328 79.9359C57.3385 80.8259 56.7215 81.768 55.9893 82.6841C54.51 84.5162 52.9638 85.976 51.8711 87.0484C51.3359 87.5623 50.8936 87.9906 50.5628 88.3071C50.2506 88.6013 50.0759 88.7614 50.0648 88.7539C50.0536 88.7428 50.2134 88.5677 50.5071 88.2549C50.8007 87.9421 51.2355 87.499 51.7708 86.9516C52.8412 85.8531 54.3688 84.3822 55.8369 82.5649C57.3013 80.744 58.2788 78.8523 58.8289 77.4298C59.0965 76.7148 59.3046 76.1302 59.4199 75.7168C59.5462 75.3072 59.6243 75.0801 59.6354 75.0838Z" fill="#263238"/>
    <path d="M68.9014 75.4451C68.8977 75.4748 68.3736 75.4264 67.5262 75.378C66.6788 75.3296 65.5043 75.2961 64.2108 75.3222C62.9137 75.3482 61.7429 75.4227 60.8955 75.4823C60.048 75.5419 59.5203 75.5828 59.5203 75.553C59.5203 75.5381 59.6466 75.5121 59.8845 75.4748C60.1187 75.4376 60.4606 75.3929 60.8843 75.3445C61.7317 75.2514 62.9062 75.1509 64.2108 75.1285C65.5117 75.1025 66.6936 75.1583 67.541 75.2402C67.9648 75.2812 68.3067 75.3259 68.5446 75.3631C68.775 75.4041 68.9051 75.4339 68.9014 75.4451Z" fill="#263238"/>
    <path d="M65.322 111.678C65.3146 111.678 65.3072 111.588 65.296 111.421C65.2849 111.231 65.27 110.989 65.2551 110.684C65.2254 110.021 65.1845 109.097 65.1325 107.965C65.0321 105.671 64.8946 102.502 64.6753 99.0056C64.456 95.5089 64.1959 92.3474 64.0063 90.0573C63.9134 88.9289 63.839 88.0092 63.787 87.3463C63.7647 87.041 63.7498 86.7952 63.735 86.609C63.7238 86.4414 63.7238 86.3521 63.7313 86.3521C63.7387 86.3521 63.7536 86.4377 63.7759 86.6053C63.7982 86.7915 63.8279 87.0372 63.8651 87.3389C63.9357 88.0017 64.0286 88.9178 64.1475 90.0461C64.3705 92.3325 64.6493 95.494 64.8723 98.9944C65.0916 102.495 65.2068 105.664 65.2737 107.961C65.2997 109.093 65.3183 110.017 65.3332 110.68C65.3369 110.985 65.3369 111.231 65.3369 111.421C65.3332 111.588 65.3295 111.678 65.322 111.678Z" fill="#263238"/>
    <path d="M76.1711 85.2534C76.2232 85.2534 76.1897 92.3287 76.0894 101.054C75.9927 109.782 75.8701 116.854 75.8143 116.854C75.7623 116.854 75.7958 109.779 75.8961 101.054C75.9965 92.3287 76.1191 85.2534 76.1711 85.2534Z" fill="#263238"/>
    <path d="M67.8495 84.0991C67.8681 84.1587 66.8051 84.4268 65.6752 85.1269C64.5378 85.8195 63.8168 86.6462 63.7759 86.6052C63.7573 86.5903 63.9134 86.3632 64.2219 86.0429C64.5304 85.7227 64.9987 85.3205 65.5748 84.963C66.1546 84.6093 66.727 84.3709 67.1507 84.2443C67.5707 84.114 67.8458 84.0768 67.8495 84.0991Z" fill="#263238"/>
    <g opacity="0.3">
      <path opacity="0.3" d="M50.0647 88.754C52.1201 89.145 54.3799 88.497 56.1416 87.365C57.9033 86.2329 59.2079 84.4045 59.7097 82.3713C59.9364 81.4553 60.0033 80.5094 60.2263 79.5933C60.4493 78.6773 60.8582 77.7612 61.6052 77.1915C62.4675 76.5286 64.5935 76.1078 65.2254 75.2216C65.2254 75.0875 62.7091 75.3891 61.8617 75.4375C60.9399 75.4897 59.3975 75.7317 59.4309 75.62C59.4309 75.62 58.814 77.8469 58.5426 78.3272C56.7028 81.5744 52.6701 86.3484 50.0647 88.754Z" fill="black"/>
    </g>
    <path d="M7.50777 52.5322C7.50777 52.5322 3.48994 52.6923 2.25969 54.3792C0.0928202 57.3546 1.3082 59.9352 1.18927 60.814C1.06661 61.6966 8.01696 110.617 8.01696 110.617H10.8789L62.6088 111.093L65.0916 105.046L63.8985 88.6943L50.0685 88.7577C50.0685 88.7577 44.4041 72.4696 39.4534 71.3785C36.1008 70.6412 28.225 70.9019 23.4861 71.1477C21.1223 71.2705 18.8699 70.1199 17.5839 68.1314L7.50777 52.5322Z" fill="#455A64"/>
    <path d="M53.354 108.695C53.354 108.695 53.0678 108.732 52.5177 108.758C51.9677 108.773 51.1574 108.799 50.1093 108.811C48.013 108.84 44.9653 108.848 41.1742 108.844C33.5883 108.837 23.0178 108.777 11.0609 108.673H10.9829L10.968 108.598C10.7525 107.574 10.5332 106.52 10.3064 105.448C10.0909 104.375 9.87529 103.284 9.65229 102.186C7.05427 88.9216 5.53411 76.767 4.71642 67.9527C4.30386 63.5437 4.05856 59.9725 3.90245 57.4999C3.83555 56.2673 3.78352 55.3103 3.74635 54.6549C3.73148 54.3347 3.72033 54.0889 3.7129 53.9139C3.70546 53.7463 3.70918 53.6606 3.70918 53.6606C3.70918 53.6606 3.72033 53.7463 3.7352 53.9139C3.74635 54.0852 3.76493 54.3309 3.79095 54.6549C3.83555 55.3103 3.89874 56.2673 3.98422 57.4999C4.16263 59.9688 4.43023 63.54 4.85766 67.9453C5.71252 76.7521 7.25498 88.8955 9.84928 102.152C10.0686 103.251 10.2879 104.342 10.4997 105.411C10.7227 106.479 10.942 107.533 11.1576 108.557L11.0647 108.483C23.0141 108.576 33.5845 108.658 41.1742 108.717C44.9616 108.729 48.0056 108.736 50.1093 108.74C51.1537 108.732 51.9639 108.729 52.5177 108.721C52.7928 108.721 53.0009 108.703 53.1422 108.699C53.2834 108.691 53.354 108.695 53.354 108.695Z" fill="#263238"/>
    <path d="M52.8114 111.004C52.804 111.004 52.8114 110.922 52.8337 110.769C52.8597 110.598 52.8932 110.378 52.9303 110.11C52.9786 109.823 53.0344 109.473 53.079 109.064C53.1273 108.654 53.1979 108.192 53.2351 107.675C53.2834 107.161 53.3355 106.595 53.3578 105.988C53.3986 105.381 53.3986 104.729 53.4098 104.048C53.4024 102.681 53.328 101.177 53.1496 99.6089C52.9601 98.0412 52.685 96.5628 52.384 95.2297C52.0717 93.8966 51.7335 92.7124 51.4139 91.7293C51.2652 91.234 51.0979 90.7946 50.9679 90.4073C50.8378 90.0163 50.7114 89.6849 50.6073 89.4168C50.5144 89.1598 50.4364 88.955 50.3769 88.7912C50.3249 88.646 50.3026 88.5715 50.31 88.5678C50.3174 88.564 50.3509 88.6385 50.4141 88.7763C50.481 88.9364 50.5702 89.1375 50.678 89.3907C50.7932 89.6588 50.9307 89.9865 51.0719 90.3738C51.2132 90.7611 51.3916 91.1968 51.5477 91.6921C51.8859 92.6751 52.239 93.8593 52.5624 95.1962C52.8746 96.533 53.1571 98.0189 53.3466 99.594C53.525 101.169 53.5919 102.681 53.5919 104.055C53.577 104.74 53.5696 105.396 53.5213 106.003C53.4916 106.613 53.4321 107.179 53.3763 107.697C53.3317 108.215 53.25 108.676 53.1905 109.086C53.1347 109.496 53.0678 109.842 53.0121 110.129C52.9563 110.397 52.9117 110.613 52.8783 110.784C52.8374 110.926 52.8151 111.004 52.8114 111.004Z" fill="#263238"/>
    <path d="M14.9042 75.9551C14.9005 75.9514 14.9711 75.8881 15.1123 75.7801C15.2684 75.6609 15.4766 75.5008 15.7367 75.3034C15.8743 75.1992 16.0267 75.0837 16.1902 74.9608C16.3649 74.8454 16.5582 74.7337 16.7663 74.6071C17.1863 74.3613 17.6434 74.0522 18.2047 73.8027C18.4797 73.6687 18.7659 73.5271 19.067 73.3819C19.3643 73.233 19.6951 73.125 20.0296 72.9872C20.3641 72.8606 20.7061 72.7079 21.0703 72.5925C21.4346 72.477 21.8099 72.3579 22.1965 72.235C23.7464 71.7844 25.4821 71.3859 27.3331 71.1662C29.1803 70.9316 30.9569 70.8199 32.57 70.8497C33.3765 70.8348 34.1422 70.9018 34.8595 70.9279C35.5731 70.9949 36.2421 71.0396 36.8443 71.1253C38.0559 71.2817 39.0223 71.4828 39.6839 71.6466C39.9961 71.7322 40.2488 71.803 40.4421 71.8551C40.6131 71.9036 40.7023 71.9333 40.7023 71.9408C40.6985 71.9482 40.6056 71.9296 40.4309 71.8924C40.2377 71.8477 39.9849 71.7918 39.669 71.7174C39.0037 71.5758 38.0373 71.3971 36.8294 71.2593C36.2273 71.1811 35.562 71.1439 34.8484 71.0843C34.1347 71.0657 33.3728 71.0061 32.57 71.0247C30.9643 71.0098 29.1952 71.1253 27.3591 71.3561C25.5193 71.5758 23.791 71.9669 22.2485 72.4063C21.8657 72.5254 21.4903 72.6409 21.1298 72.7526C20.7655 72.8643 20.4273 73.0133 20.0928 73.1361C19.762 73.2702 19.4312 73.3745 19.1339 73.5197C18.8328 73.6612 18.5466 73.7953 18.2716 73.9256C17.7104 74.1639 17.2495 74.4656 16.8295 74.7002C16.6213 74.8231 16.4243 74.931 16.2459 75.039C16.0787 75.1582 15.9263 75.2662 15.7851 75.3667C15.5175 75.5529 15.3056 75.7019 15.1421 75.8136C14.986 75.9104 14.9079 75.9588 14.9042 75.9551Z" fill="#263238"/>
    <path d="M115.108 13.5436C115.108 14.1841 115.625 14.7017 116.264 14.7017C116.903 14.7017 117.42 14.1841 117.42 13.5436C117.42 12.9031 116.903 12.3855 116.264 12.3855C115.625 12.3818 115.108 12.9031 115.108 13.5436Z" fill="#263238"/>
    <path d="M111.637 14.7017C112.275 14.7017 112.793 14.1832 112.793 13.5436C112.793 12.904 112.275 12.3855 111.637 12.3855C110.998 12.3855 110.481 12.904 110.481 13.5436C110.481 14.1832 110.998 14.7017 111.637 14.7017Z" fill="#263238"/>
    <path d="M105.861 12.9627C105.541 13.5175 105.731 14.2251 106.285 14.5453C106.838 14.8656 107.545 14.6756 107.864 14.1208C108.184 13.5659 107.994 12.8584 107.44 12.5382C106.887 12.2179 106.181 12.4078 105.861 12.9627Z" fill="#263238"/>
    <path d="M111.562 0.00378555C111.562 6.17201e-05 111.484 -0.00366211 111.328 6.17201e-05C111.157 0.00378555 110.93 0.0112332 110.641 0.0186809C110.488 0.0261285 110.321 0.0261285 110.135 0.0410238C109.949 0.0670907 109.749 0.0968813 109.529 0.126672C109.31 0.160186 109.072 0.193701 108.823 0.227215C108.574 0.29052 108.31 0.353826 108.031 0.424578C106.92 0.711313 105.575 1.19913 104.199 2.09658C102.824 2.97913 101.397 4.24523 100.237 5.96191C99.1 7.68232 98.2229 9.84587 97.9887 12.2775C97.9664 12.8845 97.8921 13.5064 97.9515 14.132C97.9738 14.4448 97.9664 14.765 98.0147 15.0816C98.063 15.3981 98.1113 15.7183 98.1597 16.0386C98.4198 17.3084 98.7952 18.608 99.4457 19.8146C100.081 21.0285 100.906 22.1829 101.91 23.2107C102.932 24.2161 104.129 25.0912 105.459 25.7652C106.786 26.443 108.254 26.9122 109.786 27.0946C110.165 27.1691 110.551 27.1691 110.938 27.1915C111.324 27.2175 111.715 27.2324 112.105 27.2138C112.885 27.1803 113.666 27.0835 114.439 26.9196C116.119 26.5621 117.699 25.877 119.089 24.9609L118.948 24.9758C120.561 25.6237 122.14 26.2605 123.683 26.8787L123.961 26.9904L123.88 26.6999C123.4 24.9572 122.936 23.2666 122.486 21.6281L122.464 21.7547C123.794 19.9859 124.642 17.9638 124.991 15.9567C125.166 14.955 125.24 13.9533 125.177 12.9851C125.155 12.501 125.132 12.0243 125.043 11.5588C125.006 11.3242 124.972 11.0934 124.935 10.8662C124.894 10.639 124.824 10.4156 124.768 10.1959C123.854 6.62475 121.657 3.98828 119.483 2.47641C118.394 1.7093 117.32 1.15817 116.338 0.81558C116.093 0.726209 115.859 0.644284 115.628 0.56236C115.394 0.502779 115.171 0.446921 114.956 0.391064C114.74 0.33893 114.536 0.286797 114.339 0.238387C114.142 0.201149 113.952 0.178806 113.774 0.152739C113.417 0.108053 113.101 0.0447477 112.826 0.0298524C112.555 0.0224047 112.324 0.0112332 112.131 0.00750938C111.956 0.00378555 111.815 6.17201e-05 111.707 -0.00366211C111.611 6.17201e-05 111.562 6.17201e-05 111.562 0.00378555C111.562 0.00750938 111.611 0.014957 111.707 0.0224047C111.815 0.0298524 111.956 0.0410239 112.131 0.0559192C112.324 0.0670907 112.555 0.0857098 112.822 0.104329C113.097 0.126672 113.406 0.193701 113.763 0.245834C115.156 0.502779 117.245 1.05763 119.382 2.62164C121.516 4.13351 123.653 6.74392 124.534 10.2555C124.586 10.4752 124.653 10.6912 124.694 10.9146C124.727 11.1418 124.761 11.3689 124.794 11.5961C124.879 12.0504 124.902 12.5196 124.92 12.9962C124.984 13.9458 124.905 14.9252 124.727 15.9083C124.378 17.8744 123.541 19.8481 122.233 21.5797L122.192 21.6355L122.211 21.7025C122.657 23.341 123.118 25.0354 123.593 26.7781L123.794 26.5994C122.252 25.9775 120.672 25.3407 119.059 24.6891L118.985 24.6593L118.918 24.7039C117.557 25.5977 116.015 26.268 114.372 26.618C113.618 26.7818 112.852 26.8749 112.09 26.9085C111.707 26.9271 111.328 26.9122 110.949 26.8861C110.57 26.8638 110.191 26.8638 109.823 26.7893C108.329 26.6105 106.89 26.1562 105.593 25.4934C104.292 24.838 103.122 23.9852 102.118 23.0022C101.133 21.9967 100.327 20.8684 99.6984 19.6842C99.0554 18.5 98.6837 17.2302 98.4235 15.9865C98.3752 15.6737 98.3269 15.3609 98.2786 15.0481C98.234 14.739 98.2377 14.4262 98.2154 14.1171C98.1559 13.4989 98.2266 12.892 98.2452 12.2961C98.4607 9.90917 99.3119 7.77914 100.419 6.07735C101.549 4.37929 102.947 3.12063 104.296 2.23436C105.645 1.33319 106.968 0.8342 108.065 0.532569C108.34 0.458093 108.6 0.391064 108.845 0.324035C109.094 0.283073 109.329 0.245834 109.544 0.208596C109.76 0.171358 109.96 0.141567 110.146 0.108053C110.332 0.0894336 110.499 0.081986 110.648 0.0708145C110.938 0.0484715 111.165 0.0335762 111.332 0.0224047C111.484 0.0186809 111.562 0.0112332 111.562 0.00378555Z" fill="#263238"/>
  </g>
</svg>